<svg width="618" height="582" viewBox="0 0 618 582" fill="none" xmlns="http://www.w3.org/2000/svg">
<path d="M431.263 168.277C431.944 164.263 435.275 153.197 441.657 156.322C442.342 156.657 443.562 156.266 444.118 155.745L444.785 156.374C445.767 159.12 444.916 165.155 444.65 166.458C444.033 169.493 442.578 174.761 439.874 178.085C438.58 179.252 436.609 180.626 434.203 181.052C429.792 180.442 430.846 170.733 431.263 168.277ZM382.161 376.236L382.073 375.409L380.876 374.748C380.93 374.9 380.846 375.092 380.599 375.263C380.017 375.669 379.188 375.861 378.473 375.8C374.6 375.472 369.746 380.083 373.389 383.319C374.028 383.887 374.65 384.231 375.239 384.396C376.79 384.122 378 383.54 378.696 383.126C379.936 381.611 380.483 379.161 379.842 377.327C379.649 376.775 381.206 376.187 382.161 376.236ZM380.375 374.476C380.381 374.476 380.385 374.48 380.391 374.48L380.044 374.289C380.044 374.289 379.057 374.377 377.821 374.627C378.742 374.468 379.618 374.412 380.375 374.476ZM393.682 381.599C393.729 381.848 393.509 382.138 392.837 382.395C391.287 382.99 389.498 384.483 389.838 386.268C390.138 387.84 391.788 388.792 393.437 388.798C394.411 388.387 395.004 387.932 395.004 387.932L396.641 385.712C396.634 385.472 396.608 385.232 396.544 384.991C396.135 383.442 395.105 382.324 393.682 381.599ZM375.149 365.978L375.451 366.053C375.354 366.007 375.256 365.963 375.162 365.916L375.149 365.978ZM338.674 263.487C338.67 263.494 338.668 263.502 338.663 263.507C338.663 263.536 338.665 263.564 338.653 263.596C338.593 263.756 338.525 263.912 338.464 264.07C340.856 264.909 343.282 265.606 345.733 266.176C342.091 264.99 339.559 263.89 338.674 263.487ZM311.263 356.886C305.922 356.62 300.624 355.811 295.48 354.42C298.565 356.882 304.554 357.327 311.263 356.886ZM209.367 319.96C212.069 319.762 214.838 319.134 217.514 318.605L209.367 319.96ZM414.577 253.055C412.639 253.542 410.991 253.847 409.609 254.03C412.09 254.006 414.604 253.385 417.018 252.323C416.237 252.592 415.429 252.841 414.577 253.055ZM493.833 216.696C493.635 217.864 493.235 219.927 493.088 220.672C492.286 224.761 491.354 228.829 490.422 232.893C487.449 245.858 484.258 258.78 481.041 271.693C476.921 288.235 472.724 304.76 468.431 321.263L456.977 364.187C455.671 368.933 454.35 373.676 452.95 378.399C452.44 380.117 451.926 381.837 451.354 383.537C451.201 383.997 451.033 384.453 450.857 384.904L450.189 384.737C450.843 384.204 451.009 383.384 449.748 383.188C436.216 381.09 422.831 376.983 409.667 373.452C402.269 371.466 394.889 369.423 387.545 367.269C384.281 366.31 378.958 365.604 376.185 363.532C378.94 355.785 382.231 347.34 382.779 339.158C386.295 341.54 390.024 343.682 393.767 345.754C401.711 350.151 411.029 354.596 420.506 353.85C421.939 353.737 423.035 352.214 420.944 352.379C411.744 353.103 402.403 347.881 394.748 343.644C385.825 338.702 377.194 333.094 371.651 324.678C372.978 322.881 374.248 321.114 375.461 319.415C380.427 312.454 384.937 305.187 389.03 297.741C390.932 294.279 393.878 290.021 394.399 286.052C394.598 284.524 391.522 284.86 391.341 286.23C390.886 289.716 388.182 293.542 386.537 296.603C382.854 303.461 378.706 310.1 374.27 316.546C365.225 329.687 353.695 345.166 337.797 351.374C322.11 357.501 303.335 355.712 287.882 349.098C283.738 346.602 279.308 344.347 276.469 342.961C269.668 338.58 261.865 332.371 258.586 325.546C258.833 325.379 258.984 325.186 258.947 324.979C257.252 315.474 266.309 308.341 274.044 303.693C282.253 311.742 294.055 318.428 305.637 320.421C314.347 321.918 325.592 320.404 332.444 314.698C337.823 310.22 341.582 303.461 345.39 297.833C347.615 294.544 349.79 291.225 351.977 287.913C353.075 286.249 354.178 283.72 355.778 282.418C355.612 282.467 355.447 282.516 355.281 282.564C355.864 282.279 356.175 281.979 355.427 281.931C352.312 281.728 350.771 285.746 349.46 287.723C345.169 294.201 340.935 300.715 336.361 307.022C334.544 309.528 332.679 312.058 330.45 314.258C324.946 319.688 315.509 320.286 308.106 319.308C298.644 318.058 288.61 312.671 280.932 306.352L281.386 306.388C289.276 308.449 299.219 304.623 305.761 301.387C320.817 293.94 331.695 280.605 337.761 265.848C346.548 268.677 356.011 269.824 365.434 269.894C367.841 269.999 370.314 269.963 372.812 269.744C375.748 269.601 378.66 269.366 381.527 269.059C386.896 268.483 393.698 267.031 399.274 264.187C400.212 264.01 400.579 263.781 401.519 262.913C403.377 261.75 405.033 260.402 406.356 258.837C407.834 261.689 410.6 264.032 412.871 266.236C417.29 270.524 421.884 274.559 426.588 278.575C434.716 285.515 443.154 292.561 454.428 293.974C455.717 294.136 457.57 292.437 455.545 292.183C443.695 290.697 434.979 282.172 426.516 274.985C422.751 271.787 419.149 268.515 415.647 265.07C412.881 262.35 409.229 259.46 408.466 255.59C408.464 255.581 408.458 255.574 408.456 255.567C408.477 255.523 408.495 255.477 408.514 255.433C412.83 255.398 417.204 253.99 421.28 251.861C429.621 247.501 436.048 238.779 436.031 229.677C436.012 220.396 427.965 214.1 419.648 210.312C421.535 208.862 422.305 204.353 422.869 201.553C446.376 206.84 469.995 212.969 493.833 216.696ZM448.444 264.601C449.036 265.109 451.737 264.03 451.276 263.637C445.565 258.755 437.722 259.904 430.661 260.533C429.885 260.602 427.381 261.848 429.357 261.671C436.002 261.08 443.075 260.011 448.444 264.601ZM453.159 277.379C449.459 272.656 444.331 269.876 438.064 271.614C436.231 272.123 436.757 274.027 438.604 273.514C443.69 272.104 447.513 274.926 450.403 278.616C451.199 279.632 454.068 278.54 453.159 277.379ZM453.292 330.339C453.432 329.062 450.388 329.557 450.271 330.639C448.642 345.601 433.693 362.907 416.482 361.575C415.207 361.476 413.326 363.202 415.363 363.36C434.213 364.82 451.463 347.133 453.292 330.339ZM462.267 314.689C462.266 311.164 462.182 307.655 461.608 304.164C461.395 302.868 458.381 303.58 458.602 304.923C459.147 308.238 459.223 311.563 459.224 314.91C459.224 316.388 462.267 315.946 462.267 314.689ZM383.387 267.649C387.036 267.169 390.952 266.334 394.517 264.965C392.122 265.424 388.629 266.209 383.387 267.649ZM206.023 320.515L206.038 321.2C206.154 321.12 206.294 321.049 206.445 320.986C206.444 320.811 207.425 320.393 208.149 320.162L206.023 320.515ZM273.101 302.745C273.077 302.721 273.052 302.696 273.028 302.672C273.029 302.701 273.03 302.732 273.031 302.762C273.053 302.756 273.077 302.75 273.101 302.745ZM264.807 308.198C264.01 308.75 263.247 309.283 262.571 309.761C261.607 310.441 260.757 311.547 260.017 312.839C261.411 311.166 263.054 309.617 264.807 308.198ZM255.298 325.74C255.091 325.271 255.35 324.868 255.789 324.607C255.755 324.249 255.738 323.894 255.733 323.544C255.641 323.582 255.542 323.623 255.427 323.663C245.6 327.085 235.857 323.834 230.1 317.011C227.179 318.274 222.685 318.458 220.046 318.942C216.304 319.629 212.438 320.552 208.604 320.928C208.676 321.009 208.708 321.112 208.675 321.242C207.069 327.682 204.858 339.796 209.935 345.673C210.206 345.658 210.448 345.691 210.613 345.788C213.612 347.559 217.775 347.608 221.412 347.579L249.72 346.418C256.841 345.77 263.97 344.566 270.352 342.023C264.13 337.544 258.033 331.945 255.298 325.74Z" fill="#E5E5E5"/>
<path d="M357.865 214.048C358.195 213.645 358.777 213.439 359.331 213.352C359.381 213.284 359.425 213.211 359.466 213.143C359.899 212.408 362.892 212.025 362.244 213.125C361.563 214.284 359.964 214.733 358.651 214.776C358.228 214.791 357.435 214.572 357.865 214.048ZM321.349 192.478C318.032 191.94 315.059 193.322 311.908 194.043C310.03 194.473 310.606 196.45 312.472 196.023C315.044 195.434 317.616 194.132 320.318 194.571C321.821 194.815 323.361 192.805 321.349 192.478ZM325.613 227.831C324.95 227.849 324.065 228.056 323.614 228.557C322.369 229.945 320.44 233.078 318.205 232.426C317.529 232.228 316.696 232.429 316.09 232.737C315.786 232.893 315.088 233.462 315.775 233.662C320.463 235.03 323.675 231.491 326.376 228.483C326.833 227.976 325.988 227.823 325.613 227.831ZM164.043 249.178C164.309 262.232 163.598 275.185 161.481 288.095C161.27 289.377 164.324 288.925 164.506 287.809C166.624 274.899 167.336 261.946 167.068 248.892C167.04 247.544 164.02 248.088 164.043 249.178ZM65.1652 293.925C74.6985 287.108 75.1395 296.447 82.3206 294.634C83.3914 294.364 84.4953 293.7 85.3316 293.034C89.0711 290.055 92.4567 291.282 96.0592 293.573C96.8851 294.098 99.6648 292.962 98.4487 292.189C95.8247 290.52 92.7275 288.472 89.344 288.865C86.1824 289.231 82.2334 294.385 79.0439 292.23C73.3694 288.396 68.251 289.507 62.7497 293.44C61.378 294.421 64.3932 294.477 65.1652 293.925ZM65.1652 306.798C74.6995 299.98 75.1384 309.322 82.3206 307.508C83.3914 307.238 84.4953 306.575 85.3316 305.908C89.0711 302.929 92.4567 304.153 96.0592 306.446C96.8851 306.971 99.6648 305.835 98.4487 305.061C95.8247 303.392 92.7275 301.344 89.344 301.737C86.1814 302.105 82.2355 307.26 79.0439 305.103C73.3704 301.269 68.251 302.379 62.7497 306.313C61.378 307.293 64.3932 307.349 65.1652 306.798ZM98.4487 375.856C95.8247 374.187 92.7275 372.141 89.344 372.534C86.1824 372.9 82.2334 378.054 79.0439 375.898C73.3704 372.063 68.2499 373.174 62.7497 377.109C61.3791 378.091 64.3943 378.146 65.1652 377.594C74.6975 370.773 75.1395 380.116 82.3206 378.303C83.3914 378.033 84.4953 377.369 85.3316 376.702C89.0711 373.724 92.4567 374.948 96.0592 377.24C96.8861 377.765 99.6648 376.629 98.4487 375.856ZM98.4487 388.728C95.8247 387.059 92.7275 385.013 89.344 385.406C86.1824 385.772 82.2334 390.926 79.0439 388.77C73.3704 384.936 68.2499 386.046 62.7497 389.981C61.3791 390.963 64.3943 391.019 65.1652 390.466C74.6975 383.645 75.1395 392.988 82.3206 391.175C83.3914 390.905 84.4953 390.241 85.3316 389.575C89.0711 386.597 92.4567 387.821 96.0592 390.112C96.8861 390.637 99.6648 389.501 98.4487 388.728ZM553.017 159.68C549.817 169.364 548.108 179.533 545.733 189.42C543.279 199.639 540.118 209.665 537.549 219.855C530.733 246.901 524.714 274.134 518.617 301.329C511.332 333.83 504.178 366.357 497.123 398.903C493.692 414.73 489.294 430.711 486.86 446.733C487.158 446.926 487.312 447.243 487.154 447.703C484.621 455.102 480.921 462.943 472.822 466.099C467.082 468.336 460.466 467.223 454.584 466.048C454.362 466.039 454.204 466.011 454.153 465.962C454.114 465.954 454.073 465.946 454.033 465.938C440.642 463.24 427.463 460.334 414.295 456.734C395.343 451.553 376.428 446.105 357.809 439.938C344.958 435.681 328.566 430 332.613 414.077C335.791 401.572 340.416 389.307 344.388 377.014C346.9 369.238 349.418 361.459 351.759 353.635C352.667 350.599 354.078 347.172 354.618 343.874C349.36 348.405 343.523 352.06 337.044 353.91C328.635 356.313 319.89 357.316 311.263 356.887C305.921 356.621 300.624 355.812 295.48 354.421C289.401 352.774 283.535 350.332 278.064 347.067C276.095 345.891 273.979 344.554 271.85 343.084C261.301 347.387 248.764 348.266 237.451 348.727C231.384 348.974 225.271 349.372 219.196 349.144C216.23 349.033 212.813 349.006 209.938 347.952C209.321 348.13 208.653 348.174 208.336 347.921C208.294 347.889 208.263 347.847 208.223 347.814C206.15 349.132 204.085 350.369 201.513 350.523C199.586 364.762 193.391 378.238 179.392 385.653C157.574 397.21 131.892 395.117 107.798 394.747C106.988 394.955 106.102 394.922 106.103 394.527C106.126 387.385 106.398 380.249 106.422 373.107C106.424 372.394 107.962 371.943 108.838 372.009C109.143 371.883 109.472 371.813 109.768 371.843C115.841 372.468 122.902 373.052 130.037 372.965C130.856 372.403 132.639 372.237 132.64 372.799C132.64 372.834 132.641 372.868 132.641 372.902C148.307 372.328 163.779 368.121 169.35 353.493C169.742 352.462 172.781 352.109 172.369 353.187C166.325 369.059 149.589 373.83 132.654 374.584C132.682 380.978 132.791 387.371 132.801 393.765C132.801 393.91 132.733 394.042 132.624 394.164C150.996 394.346 170.169 392.702 183.225 381.212C198.871 367.443 200.809 346.99 198.401 328C196.882 327.367 195.433 326.309 194.116 325.504C192.413 324.463 190.315 323.574 189.053 322.037C186.532 318.966 188.258 315.466 191.917 314.163C193.267 313.683 194.596 313.488 195.869 313.54C193.066 305.534 186.239 297.139 177.765 294.345C173.903 296.018 169.373 298.113 167.701 301.815C168.113 302.038 168.2 302.432 167.474 302.936C164.067 305.301 160.509 304.468 157.292 302.191C152.404 298.731 150.795 293.084 149.582 287.69C144.087 287.031 138.602 286.804 133.114 286.774C133.079 292.515 132.846 298.253 132.81 303.992C151.153 303.197 170.571 304.049 173.987 323.254C174.032 323.509 173.91 323.74 173.698 323.935C174.563 323.947 175.402 323.981 176.191 324.034C181.004 324.353 184.534 326.672 181.394 331.228C180.687 332.254 179.776 332.973 178.741 333.481C182.098 334.358 183.942 336.583 181.394 340.28C181.011 340.835 180.566 341.297 180.076 341.689C182.865 342.504 185.012 344.399 182.991 347.603C180.197 352.034 175.533 351.819 170.704 351.707C170.49 352.136 169.957 352.541 169.245 352.595C166.994 352.765 163.939 352.47 162.443 350.594C160.988 348.769 161.048 346.235 162.901 344.583C163.029 344.47 163.165 344.368 163.298 344.263C161.707 343.976 160.198 343.368 159.368 342.153C157.997 340.141 158.433 337.804 160.409 336.219C160.997 335.747 161.654 335.345 162.353 334.994C161.131 334.648 160.03 334.072 159.368 333.101C157.997 331.09 158.432 328.754 160.409 327.168C163.104 325.006 167.115 324.186 170.973 323.982C167.708 305.738 149.402 304.829 131.847 305.636C131.134 305.898 130.23 305.959 129.913 305.732C122.502 306.119 115.329 306.709 109.602 306.315C109.498 306.307 109.411 306.294 109.328 306.279C108.501 306.83 106.744 306.988 106.744 306.431C106.744 300.196 106.744 293.961 106.744 287.727C106.744 287.464 106.955 287.238 107.263 287.058C106.685 286.71 108.323 285.708 109.172 285.704C122.574 285.646 135.871 284.673 149.212 286.008C149.164 285.784 149.115 285.561 149.066 285.339C145.496 269.106 144.128 252.462 145.919 235.935C146.834 227.486 146.658 216.492 152.529 209.483C157.794 203.196 167.715 203.649 170.879 211.793C170.887 211.797 170.898 211.799 170.905 211.804C198.301 227.163 229.899 232.072 261.376 232.472C262.089 232.167 262.994 232.168 263.304 232.727C267.667 240.559 268.197 250.112 267.445 258.786C267.088 262.886 267.025 272.685 262.596 275.299C262.331 275.456 262.004 275.528 261.671 275.542C261.239 275.78 260.705 275.97 260.349 275.972C256.78 275.99 253.285 276.215 249.832 276.992C250.244 279.142 250.902 281.221 251.739 283.243C252.176 283.189 252.607 283.262 252.894 283.514C252.802 283.089 253.132 282.542 253.997 282.268C267.167 278.093 272.419 291.678 272.99 301.769C273.684 301.337 275.149 300.964 275.507 301.34C276.352 302.23 277.267 303.116 278.219 303.994C278.92 303.686 279.879 303.469 280.301 303.73C288.841 308.973 302.172 302.47 309.279 297.772C321.517 289.683 330.168 278.145 335.288 265.007C334.883 264.851 335.104 264.579 335.556 264.33C335.592 264.231 335.635 264.135 335.671 264.036C335.695 263.971 335.744 263.908 335.801 263.85C339.212 257.319 338.092 248.45 346.12 245.412C345.968 245.351 345.829 245.268 345.716 245.15C336.645 235.784 326.287 246.757 315.891 242.406C308.788 239.435 304.095 231.13 301.205 224.501C297.365 224.586 293.981 219.478 293.076 216.53C291.547 211.541 291.082 203.634 294.089 198.816C293.303 199.021 292.465 198.944 292.437 198.429C291.865 187.48 295.104 177.569 302.481 170.284C302.663 170.004 302.848 169.729 303.037 169.461C304.106 167.951 305.85 166.851 307.677 166.048C309.167 165.054 310.76 164.132 312.476 163.303C328.797 155.416 349.393 152.169 365.663 162.255C376.876 169.205 380.792 180.146 388.754 189.726C390.027 191.257 391.388 192.875 392.829 194.49C399.208 177.463 403.065 159.485 408.321 142.142C411.25 132.477 415.346 115.109 428.901 114.778C450.508 114.25 472.735 120.876 493.146 126.765C510.945 131.901 528.787 136.973 546.806 141.375C546.945 141.408 547.049 141.451 547.139 141.498C556.811 144.62 555.665 151.663 553.017 159.68ZM176.81 343.217C174.585 343.762 172.057 343.694 169.741 343.609C169.311 343.69 168.886 343.78 168.474 343.893C168.367 343.922 168.255 343.956 168.141 343.993C167.866 344.236 167.479 344.421 167.009 344.451C166.989 344.452 166.966 344.452 166.947 344.454C165.279 345.223 163.636 346.567 164.557 348.411C165.401 350.101 167.173 350.668 169.02 350.634C169.383 350.159 170.125 349.704 170.796 349.715C173.955 349.765 178.502 350.675 180.128 347.332C181.47 344.572 179.492 343.353 176.81 343.217ZM175.124 335.062C172.322 335 169.239 335.037 166.51 335.665C164.734 336.074 161.394 336.836 161.526 339.281C161.659 341.735 164.274 342.461 166.48 342.489C166.669 342.419 166.858 342.35 167.051 342.288C167.447 341.893 168.073 341.559 168.647 341.568C168.98 341.573 169.363 341.594 169.778 341.622C172.165 341.216 174.663 341.175 176.924 341.216C176.963 341.217 177.002 341.221 177.039 341.222C177.507 341.012 177.913 340.738 178.215 340.369C180.906 337.078 179.099 335.151 175.124 335.062ZM166.51 326.613C164.734 327.023 161.394 327.785 161.526 330.231C161.668 332.831 164.596 333.493 166.872 333.439C167.234 332.963 167.976 332.509 168.647 332.519C171.163 332.554 176.42 333.515 178.215 331.317C180.906 328.024 179.1 326.1 175.124 326.01C172.322 325.949 169.239 325.986 166.51 326.613ZM130.124 286.777C123.344 286.821 116.561 287.095 109.749 287.165C109.749 293.041 109.749 298.918 109.749 304.795C110.072 304.649 110.423 304.561 110.732 304.581C116.15 304.955 122.831 304.49 129.809 304.134C129.86 298.363 130.097 292.594 130.115 286.822C130.115 286.809 130.122 286.793 130.124 286.777ZM129.79 394.121C129.775 387.639 129.664 381.158 129.642 374.677C122.567 374.802 115.573 374.302 109.414 373.684C109.365 380.331 109.135 386.973 109.111 393.619C109.285 393.574 109.436 393.546 109.535 393.548C115.847 393.643 122.733 393.987 129.79 394.121ZM319.81 208.792C319.736 208.775 319.661 208.767 319.586 208.75C318.828 208.578 318.949 208.217 319.391 207.891C318.036 205.113 316.26 202.403 313.665 200.679C313.475 200.553 313.589 200.362 313.858 200.171C313.754 200.172 313.658 200.164 313.569 200.147C313.49 200.262 313.398 200.391 313.281 200.551C313.081 201.011 312.918 201.482 312.792 201.965C312.589 202.821 312.401 203.678 312.298 204.551C312.035 206.778 311.896 209.031 311.993 211.274C312.144 214.733 313.085 219.402 315.922 221.837C320.503 225.768 322.428 219.519 322.121 216.685C321.903 214.68 321.455 212.707 320.688 210.821C320.417 210.156 320.121 209.474 319.81 208.792ZM322.882 207.529C328.62 208.526 334.364 207.798 340.162 207.357C343.317 207.116 346.482 207.412 349.638 207.516C343.533 205.954 338.318 202.294 334.676 196.849C331.91 192.714 330.157 188.5 328.912 183.77C328.151 180.874 327.254 177.344 324.139 175.877C319.615 173.745 314.679 175.306 312.328 179.445C312.069 179.901 311.253 180.173 310.541 180.196C310.486 181.277 307.968 181.832 307.484 180.629C307.246 180.036 306.981 179.39 306.5 178.925C305.824 179.494 305.341 180.294 304.941 181.043C303.994 182.816 303.098 184.804 302.828 186.79C302.766 187.248 302.354 187.587 301.854 187.778C301.685 189.452 301.605 191.13 301.569 192.81C302.838 193.702 303.844 194.941 304.945 195.998C305.701 196.724 302.855 197.768 302.147 197.086C301.938 196.885 301.734 196.674 301.528 196.461C301.528 196.563 301.527 196.664 301.527 196.765C301.526 197.09 300.946 197.344 300.295 197.497C302.323 199.316 303.977 202.583 304.728 204.006C304.902 204.335 304.594 204.667 304.116 204.899C304.248 204.974 304.352 205.077 304.408 205.212C305.034 206.713 305.751 208.91 306.231 211.292C307.04 211.292 307.85 211.292 308.66 211.292C308.729 211.292 308.832 211.297 308.94 211.308C308.886 209.463 309.001 207.626 309.203 205.91C309.593 202.609 311.188 196.393 316.159 199.043C316.348 199.144 316.218 199.327 315.928 199.517C316.151 199.52 316.345 199.558 316.479 199.646C319.021 201.333 321.29 204.273 322.882 207.529ZM308.225 176.795C308.225 176.795 308.192 176.816 308.13 176.859C308.175 176.877 308.216 176.901 308.258 176.921L308.225 176.795ZM368.258 218.224C367.881 218.491 367.493 218.748 367.099 218.983L367.886 218.836C367.886 218.836 368.042 218.61 368.258 218.224ZM371.691 240.451C371.175 240.423 370.701 240.402 370.283 240.387C370.301 240.49 370.325 240.592 370.342 240.695C370.787 240.599 371.238 240.519 371.691 240.451ZM409.608 254.031C412.089 254.006 414.603 253.385 417.017 252.324C416.237 252.592 415.429 252.841 414.576 253.055C412.638 253.542 410.99 253.847 409.608 254.031ZM372.786 171.922L376.807 177.318C375.54 175.456 374.218 173.643 372.786 171.922ZM314.855 164.099C314.927 164.09 314.968 164.085 314.968 164.085C314.968 164.085 319.809 161.889 325.906 159.782C324.002 160.336 322.119 160.99 320.27 161.759C318.443 162.521 316.627 163.278 314.855 164.099ZM299.718 221.376C300.413 221.996 300.979 222.248 301.44 222.245C301.634 222.155 301.848 222.088 302.07 222.051C302.948 221.472 303.265 219.709 303.371 218.377C303.703 214.144 303.05 209.924 301.401 205.973C301.255 205.626 301.562 205.294 302.026 205.061C301.895 204.991 301.789 204.894 301.721 204.766C301.471 204.291 297.529 197.645 296.975 198.67C296.045 200.391 295.592 202.105 295.401 204.02C295.038 207.652 294.615 212.27 296.083 215.772C296.919 217.765 298.038 219.879 299.718 221.376ZM338.674 263.487C338.67 263.494 338.668 263.502 338.663 263.507C338.663 263.536 338.665 263.564 338.653 263.596C338.593 263.756 338.525 263.912 338.464 264.07C340.856 264.909 343.282 265.606 345.733 266.176C356.443 268.663 367.651 268.772 378.674 268.1C380.152 268.009 381.742 267.865 383.386 267.648C387.035 267.168 390.951 266.333 394.516 264.964C399.596 263.011 403.959 259.967 405.789 255.292C405.793 255.282 405.802 255.273 405.806 255.264C403.339 254.935 400.916 254.111 398.607 252.65C390.689 247.643 379.475 239.612 369.393 242.549C368.369 242.847 367.816 242.483 367.838 242.021C367.577 241.948 367.39 241.805 367.355 241.57C366.252 234.098 360.445 227.997 360.947 220.236C360.99 219.595 362.147 219.313 362.646 219.237C365.591 218.794 370.343 214.623 369.249 211.364C367.692 206.723 360.69 207.775 358.741 211.681C358.294 212.574 355.28 212.862 355.926 211.568C356.634 210.149 357.919 208.96 359.466 208.081H359.281C359.044 208.209 358.76 208.298 358.445 208.317C358.17 208.333 357.901 208.333 357.627 208.341C357.589 208.351 357.564 208.366 357.522 208.374C351.051 209.742 344.533 208.421 337.995 208.982C333.193 209.395 328.445 209.85 323.702 209.39C324.858 212.324 325.431 215.367 325.124 217.895C324.584 222.324 318.301 227.326 313.801 223.464C310.466 220.601 309.23 216.399 308.977 212.162C308.502 212.422 307.876 212.56 307.396 212.56C307.082 212.56 306.771 212.56 306.459 212.56C306.847 215.02 306.914 217.57 306.335 219.715C307.183 219.499 308.215 219.708 308.271 220.564C308.394 222.435 308.425 224.483 309.157 226.251C309.983 228.254 311.333 227.976 313.126 227.083C314.634 226.335 316.269 227.84 314.456 228.743C312.222 229.853 308.603 230.857 306.882 228.387C305.609 226.559 305.424 224.241 305.3 222.058C304.961 222.563 304.546 223.006 304.061 223.391C307.807 232.065 314.636 243.213 326.018 240.736C334.785 238.827 341.69 236.875 348.459 243.865C348.812 244.229 348.737 244.6 348.449 244.9C348.955 245.009 348.702 245.475 347.519 245.804C340.768 247.685 341.295 258.562 338.674 263.487ZM273.101 302.745C273.077 302.721 273.052 302.696 273.028 302.672C273.029 302.701 273.03 302.732 273.031 302.762C273.053 302.756 273.077 302.75 273.101 302.745ZM254.698 289.25C254.834 289.494 254.967 289.741 255.105 289.984C255.302 290.334 254.975 290.684 254.47 290.92C254.19 291.883 252.407 292.288 251.698 291.808C244.762 292.249 238.215 291.643 231.74 289.89C231.086 290.003 230.455 289.929 230.326 289.539C230.317 289.514 230.307 289.488 230.299 289.461C229.382 289.189 228.464 288.898 227.549 288.579C226.655 295.692 233.246 301.424 240.437 302.872C242.144 303.216 239.547 304.6 238.595 304.407C234.267 303.535 230.075 301.253 227.386 298.064C227.549 303.877 231.025 309.166 236.444 312.188C236.957 312.473 234.406 313.628 233.621 313.19C232.098 312.341 230.739 311.315 229.554 310.16C233.369 319.482 243.249 326.695 254.336 322.834C254.793 322.674 255.342 322.654 255.744 322.727C255.914 319.061 257.586 315.759 260.018 312.84C261.413 311.166 263.056 309.617 264.808 308.2C266.646 306.712 268.602 305.368 270.517 304.171C270.222 304.048 270.02 303.824 270.017 303.476C269.909 295.466 266.205 280.264 254.484 283.98C253.887 284.17 253.455 284.097 253.184 283.913C254.234 285.557 254.775 287.375 254.698 289.25ZM199.388 314.395C200.967 315.133 202.361 316.318 203.46 317.897C203.638 318.153 203.485 318.412 203.179 318.631C203.299 318.668 203.398 318.723 203.46 318.803C204.566 320.207 205.28 321.872 205.23 323.551C205.381 322.877 205.531 322.225 205.68 321.633C205.72 321.473 205.852 321.327 206.038 321.2C206.154 321.12 206.294 321.049 206.445 320.986C206.444 320.811 207.425 320.393 208.149 320.162C208.432 320.071 208.679 320.007 208.806 320.001C208.994 319.991 209.181 319.973 209.369 319.959C212.071 319.761 214.84 319.133 217.516 318.604C217.965 318.515 218.409 318.429 218.851 318.349C221.127 317.936 223.405 317.52 225.671 317.057C226.6 316.868 227.533 316.684 228.455 316.459C228.853 316.361 229.521 315.944 228.878 316.448C228.988 316.361 229.202 316.279 229.459 316.208C226.746 312.672 225.054 308.285 224.884 303.415C224.879 303.258 224.968 303.115 225.115 302.986C224.403 300.689 224.19 298.231 224.581 295.724C224.621 295.47 224.996 295.243 225.467 295.084C224.376 292.733 224.059 290.071 224.885 287.224C225.142 286.339 226.819 286.063 227.585 286.362C228.203 286.603 228.821 286.812 229.438 287.032C228.659 284.953 227.816 282.896 227.125 280.788C226.841 279.917 229.836 279.123 230.132 280.028C231.038 282.793 232.199 285.472 233.139 288.224C239.129 289.933 245.165 290.611 251.579 290.269C251.598 290.134 251.601 290.001 251.612 289.866C249.34 285.755 247.376 281.486 246.654 276.866C246.494 275.841 248.877 275.196 249.51 275.826C252.973 275.024 256.489 274.693 260.052 274.61C260.115 274.433 260.29 274.244 260.614 274.053C262.365 273.018 262.826 269.252 263.179 267.559C263.85 264.35 264.31 261.096 264.487 257.829C264.912 249.936 264.573 241.368 260.666 234.192C260.575 234.207 260.485 234.216 260.399 234.215C229.719 233.839 198.824 229.206 171.802 215.02C175.151 225.186 174.944 237.083 175.047 247.348C175.108 253.539 175.171 259.744 174.965 265.933C174.796 271.016 174.824 276.464 173.117 281.348C172.883 282.018 170.015 282.305 170.162 281.883C172.117 276.292 171.931 269.819 172.022 263.997C172.11 258.356 172.129 252.706 172.026 247.065C171.813 235.47 172.099 221.873 166.933 211.1C166.906 211.043 166.948 210.975 167.03 210.902C163.959 205.979 157.427 205.645 154.282 211.218C152.57 214.253 151.519 217.561 150.836 220.931C149.498 227.537 148.879 234.407 148.479 241.114C147.795 252.549 148.288 264.035 150.253 275.348C150.888 279.003 151.527 282.736 152.38 286.399C152.669 286.5 152.662 286.669 152.489 286.858C152.91 288.627 153.379 290.381 153.934 292.097C154.836 294.894 159.816 304.409 164.728 302.381C166.46 298.501 171.339 296.244 175.135 294.516C175.709 294.255 176.285 293.996 176.863 293.737C176.786 293.09 178.411 292.264 179.259 292.529C179.321 292.549 179.38 292.575 179.442 292.595C183.818 290.69 188.294 288.905 192.823 287.469C200.528 285.026 208.43 283.351 216.276 281.387C223.312 279.628 230.294 277.96 237.622 278.066C239.057 278.087 236.221 279.144 235.646 279.136C227.773 279.021 220.399 281.256 212.844 283.021C206.469 284.509 200.024 285.917 193.827 287.993C189.406 289.475 185.032 291.222 180.749 293.064C189.826 296.587 196.916 305.691 199.388 314.395ZM199.926 326.231C200.308 326.439 200.721 326.677 201.146 326.864C201.176 326.846 201.195 326.832 201.226 326.814C201.32 326.704 201.414 326.594 201.508 326.484C201.723 326.186 201.888 325.865 202.005 325.523C202.601 323.493 201.958 321.506 200.65 319.849C200.458 319.604 200.611 319.345 200.928 319.125C200.805 319.087 200.71 319.027 200.65 318.943C199.959 317.949 198.731 316.63 197.321 315.74C196.901 315.715 196.554 315.562 196.423 315.251C195.126 314.655 193.743 314.514 192.512 315.365C190.161 316.99 190.382 319.799 192.449 321.586C194.56 323.41 197.454 324.885 199.926 326.231ZM206.705 346.197C202.788 341.044 203.554 331.977 204.857 325.34C204.784 325.524 204.722 325.709 204.625 325.891C204.065 326.947 202.845 327.902 201.531 328.291C202.284 334.741 202.486 341.639 201.767 348.427C203.673 348.285 205.161 347.186 206.705 346.197ZM249.72 346.419C256.841 345.771 263.97 344.567 270.352 342.024C264.13 337.544 258.033 331.944 255.298 325.74C255.091 325.271 255.35 324.868 255.789 324.607C255.755 324.249 255.738 323.894 255.733 323.544C255.641 323.583 255.542 323.623 255.426 323.663C245.6 327.085 235.857 323.834 230.1 317.011C227.179 318.274 222.685 318.458 220.046 318.942C216.303 319.629 212.437 320.552 208.604 320.928C208.676 321.009 208.708 321.112 208.675 321.242C207.069 327.682 204.858 339.796 209.935 345.673C210.206 345.658 210.448 345.691 210.613 345.788C213.612 347.559 217.775 347.608 221.411 347.579C222.024 347.573 222.623 347.567 223.198 347.565C227.767 347.55 232.331 347.362 236.894 347.176C241.048 347.008 245.381 346.814 249.72 346.419ZM337.797 351.376C353.695 345.168 365.226 329.689 374.27 316.548C378.706 310.101 382.854 303.462 386.537 296.605C388.182 293.544 390.885 289.718 391.341 286.232C391.522 284.863 394.599 284.526 394.399 286.054C393.878 290.023 390.932 294.281 389.03 297.743C384.937 305.189 380.427 312.456 375.461 319.417C374.248 321.116 372.978 322.883 371.651 324.68C377.194 333.096 385.825 338.705 394.748 343.646C402.403 347.883 411.744 353.105 420.944 352.381C423.035 352.216 421.939 353.739 420.506 353.852C411.029 354.598 401.712 350.153 393.767 345.756C390.025 343.684 386.295 341.541 382.779 339.16C382.231 347.342 378.94 355.787 376.185 363.534C378.958 365.606 384.281 366.313 387.545 367.271C394.889 369.425 402.269 371.468 409.667 373.454C422.831 376.985 436.216 381.092 449.748 383.19C451.009 383.386 450.842 384.206 450.189 384.739C449.798 385.059 449.23 385.276 448.691 385.192C434.548 382.998 420.56 378.731 406.811 375.016C399.243 372.972 391.68 370.897 384.176 368.652C381.684 367.906 378.097 367.311 375.451 366.055C375.354 366.009 375.256 365.965 375.162 365.918C374.847 365.758 374.555 365.582 374.275 365.399C373.475 365.538 372.687 365.476 372.814 365.112C375.731 356.803 379.55 347.537 379.843 338.715C379.855 338.345 380.366 338.06 380.962 337.888C378.748 336.293 376.645 334.584 374.701 332.717C374.031 335.503 372.994 338.295 372.239 340.994C370.088 348.689 367.932 356.382 365.798 364.081C363.627 371.919 361.457 379.758 359.387 387.62C358.649 390.421 357.907 393.223 357.245 396.042C357.048 396.881 356.844 397.722 356.688 398.568C356.663 398.703 356.649 398.8 356.636 398.893C361.07 399.533 365.634 401.338 369.909 402.484C380.106 405.22 390.315 407.922 400.546 410.545C412.09 413.505 423.654 416.417 435.294 419.021C442.471 420.627 450.238 422.896 457.682 422.985C457.688 422.985 457.693 422.986 457.699 422.986C462.834 405.778 466.837 388.231 471.062 370.815C477.766 343.184 484.269 315.513 490.73 287.831C498.124 256.153 505.437 224.457 512.768 192.766C515.146 182.49 517.516 172.214 519.933 161.947C520.592 159.149 521.249 156.348 521.938 153.557C522.027 153.195 522.091 152.713 522.191 152.231C493.865 146.649 465.527 141.101 437.261 135.253C433.899 134.557 430.535 133.866 427.185 133.117C419.054 156.273 411.101 179.514 403.968 202.961C403.87 203.282 403.343 203.538 402.759 203.683C403.887 204.469 405.042 205.183 406.228 205.79C408.864 207.14 412.327 207.503 415.143 208.501C415.858 208.756 416.585 209.03 417.313 209.322C417.442 209.214 417.609 209.11 417.829 209.016C416.761 209.476 417.876 207.938 418.157 207.051C418.443 206.146 418.727 205.242 418.996 204.334C419.396 202.985 419.789 201.635 420.165 200.282C420.433 199.325 421.647 199.031 422.561 199.234C446.343 204.527 470.239 210.803 494.355 214.612C495.07 214.155 496.264 214.022 496.704 214.634C498.038 216.487 495.774 222.237 495.369 224.122C493.664 232.068 491.777 239.979 489.871 247.884C482.586 278.101 474.88 308.235 466.928 338.302C463.783 350.193 460.629 362.088 457.23 373.918C456.631 376.003 455.131 386.954 451.639 387.007C449.722 387.036 450.166 385.275 451.616 385.027C450.489 385.208 450.354 386.192 450.791 385.096C450.815 385.034 450.835 384.97 450.858 384.908C451.034 384.456 451.2 384 451.355 383.541C451.927 381.841 452.441 380.121 452.951 378.403C454.351 373.68 455.672 368.937 456.978 364.191C457.302 363.012 457.631 361.835 457.953 360.655C461.533 347.548 465.011 334.413 468.432 321.267C472.726 304.764 476.923 288.239 481.042 271.697C484.259 258.784 487.45 245.862 490.423 232.897C491.355 228.833 492.287 224.765 493.089 220.676C493.236 219.93 493.635 217.868 493.834 216.7C469.995 212.973 446.377 206.844 422.867 201.56C422.302 204.36 421.533 208.869 419.646 210.319C427.963 214.107 436.01 220.402 436.029 229.684C436.047 238.786 429.619 247.507 421.278 251.868C417.202 253.998 412.828 255.405 408.512 255.44C408.493 255.484 408.475 255.53 408.454 255.574C408.456 255.582 408.461 255.589 408.464 255.597C409.227 259.467 412.878 262.357 415.645 265.077C419.146 268.521 422.749 271.794 426.514 274.992C434.976 282.179 443.693 290.704 455.543 292.19C457.568 292.444 455.715 294.143 454.426 293.981C443.152 292.568 434.714 285.522 426.586 278.582C421.882 274.566 417.288 270.531 412.869 266.243C410.598 264.039 407.832 261.696 406.354 258.844C405.031 260.409 403.375 261.756 401.517 262.92C400.796 263.371 400.047 263.797 399.272 264.194C393.697 267.038 386.894 268.491 381.525 269.065C378.657 269.372 375.745 269.608 372.81 269.751C370.363 269.871 367.899 269.919 365.432 269.9C356.009 269.832 346.546 268.684 337.759 265.855C331.693 280.612 320.815 293.946 305.759 301.394C299.216 304.631 289.272 308.457 281.384 306.395C281.176 306.34 280.97 306.286 280.764 306.224C280.819 306.269 280.875 306.314 280.93 306.359C288.608 312.678 298.642 318.064 308.103 319.315C315.507 320.293 324.943 319.695 330.448 314.265C332.677 312.065 334.542 309.534 336.359 307.029C340.933 300.722 345.167 294.208 349.458 287.73C350.769 285.754 352.31 281.734 355.424 281.938C356.174 281.987 355.862 282.286 355.279 282.571C355.445 282.521 355.61 282.473 355.776 282.425C354.176 283.727 353.073 286.256 351.975 287.92C349.789 291.233 347.612 294.551 345.388 297.84C341.58 303.467 337.821 310.227 332.442 314.705C325.59 320.411 314.345 321.925 305.635 320.428C294.053 318.435 282.251 311.749 274.042 303.7C266.307 308.348 257.25 315.481 258.945 324.986C258.982 325.193 258.832 325.386 258.584 325.553C261.863 332.377 269.667 338.586 276.467 342.968C277.501 343.635 278.513 344.261 279.48 344.839C282.131 346.421 284.946 347.849 287.88 349.105C303.335 355.713 322.109 357.503 337.797 351.376ZM455.692 464.193C457.608 462.518 460.289 461.099 461.923 459.467C467.809 453.588 470.963 446.586 472.695 438.717C474.299 431.429 474.591 423.95 476.226 416.674C477.316 411.825 478.507 406.994 479.65 402.155C485.192 378.692 490.666 355.215 496.107 331.731C505.469 291.311 514.766 250.877 523.834 210.395C526.729 197.468 529.636 184.542 532.358 171.581C533.1 168.05 533.815 164.517 534.435 160.966C535.695 153.751 540.994 142.921 530.584 140.359C530.147 140.252 530.676 139.913 531.37 139.642C519.812 136.627 508.306 133.412 496.853 130.083C476.944 124.294 456.617 118.329 435.712 116.951C431.027 116.643 425.728 115.632 422.116 119.178C419.748 121.503 418.004 124.285 416.638 127.228C413.511 133.961 411.617 141.088 409.478 148.133C404.613 164.155 401.13 180.739 395.025 196.398C394.986 196.498 394.917 196.588 394.836 196.675C396.837 198.784 398.974 200.818 401.241 202.569C408.449 178.947 416.476 155.531 424.677 132.199C424.937 131.459 426.953 131.002 427.577 131.467C429.421 132.845 437.355 133.553 440.212 134.142C467.725 139.823 495.299 145.236 522.866 150.668C522.9 150.634 522.93 150.592 522.966 150.562C523.557 150.082 526.549 149.801 525.315 150.805C525.587 150.584 525.596 150.81 525.506 151.188C525.67 151.22 525.835 151.253 526 151.286C526.56 151.396 525.979 151.809 525.22 152.124C525.117 152.432 525.019 152.718 524.977 152.892C524.442 155.06 523.927 157.231 523.413 159.404C521.629 166.955 519.878 174.514 518.126 182.073C512.466 206.499 506.836 230.933 501.167 255.356C493.313 289.211 485.426 323.059 477.308 356.858C471.943 379.197 466.974 401.751 460.319 423.79C460.193 424.205 459.357 424.512 458.599 424.612C458.327 424.864 457.921 425.042 457.41 425.038C450.33 424.952 443.122 423.024 436.272 421.516C424.776 418.985 413.355 416.153 401.961 413.245C391.18 410.492 380.422 407.66 369.679 404.782C365.409 403.637 358.789 401.36 355.256 400.879C355.12 400.876 354.987 400.861 354.865 400.822C354.814 400.805 354.768 400.778 354.719 400.759C354.657 400.766 354.595 400.772 354.536 400.771C354.526 400.771 354.516 400.771 354.506 400.77C354.279 400.765 353.804 400.68 353.677 400.458C352.45 398.301 355.254 392.168 355.81 390.039C357.885 382.093 360.067 374.172 362.258 366.253C364.497 358.164 366.761 350.081 369.022 341.997C370.056 338.3 371.599 334.437 372.154 330.638C372.174 330.504 372.237 330.38 372.333 330.268C371.445 329.272 370.601 328.233 369.811 327.144C366.233 331.854 362.259 336.658 357.843 340.933C357.877 341.026 357.9 341.125 357.9 341.241C357.873 347.605 354.4 354.87 352.518 360.878C349.277 371.226 345.906 381.538 342.556 391.856C340.507 398.17 338.406 404.475 336.518 410.834C335.065 415.724 334.014 422.019 337.312 426.44C342.231 433.028 351.798 435.478 359.552 438.029C368.266 440.898 377.047 443.587 385.85 446.201C403.955 451.579 422.181 457.046 440.691 461.074C445.584 462.141 450.641 463.34 455.692 464.193ZM545.59 143.106C545.382 143.137 545.183 143.141 545.014 143.1C542.581 142.505 540.156 141.881 537.73 141.265C539.082 142.291 539.945 143.729 539.904 145.833C539.796 151.237 538.061 156.676 537.132 161.982C536.405 166.141 535.495 170.274 534.612 174.404C530.724 192.591 526.62 210.737 522.518 228.882C513.077 270.638 503.474 312.361 493.762 354.061C489.355 372.986 484.927 391.906 480.438 410.815C477.633 422.634 477.694 435.273 473.111 446.684C471.083 451.734 467.955 456.283 463.8 460.018C462.23 461.428 459.417 462.88 457.811 464.534C459.54 464.789 461.265 465.002 462.98 465.138C474.682 466.066 480.141 458.502 483.629 449.191C483.591 449.124 483.567 449.048 483.581 448.953C485.867 432.884 490.328 416.855 493.766 400.984C500.577 369.557 507.476 338.148 514.498 306.763C520.756 278.794 526.945 250.793 533.879 222.963C536.108 214.013 538.927 205.213 541.163 196.269C543.736 185.971 545.956 175.599 548.47 165.288C549.557 160.828 551.882 156.397 552.143 151.786C552.411 147.035 549.632 144.569 545.59 143.106ZM406.331 429.48C405.777 434.623 401.08 438.038 395.668 437.89C384.454 437.583 384.652 422.738 394.711 421.502C394.237 420.96 395.526 419.78 396.608 419.815C402.136 419.989 406.927 423.962 406.331 429.48ZM403.194 427.85C402.526 424.798 400.478 422.757 397.533 422.052C397.449 422.639 396.426 423.417 395.536 423.377C386.946 423.006 389.033 437.968 398.107 435.776C401.815 434.882 403.967 431.392 403.194 427.85ZM190.109 161.681C191.759 155.997 202.321 158.734 207.902 159.005C209.214 155.787 210.758 149.535 213.373 146.028C213.238 145.767 213.337 145.43 213.845 145.05C214.373 144.658 214.874 144.355 215.354 144.124C216.891 143.179 218.726 143.195 220.962 144.861C221.311 145.121 221.37 145.403 221.258 145.664C224.142 149.254 225.562 156.478 227.07 159.426C231.354 159.412 245.034 157.543 245.129 161.801C245.186 164.319 242.222 166.893 240.567 168.613C238.847 170.402 236.299 172.124 234.919 174.15C234.766 174.374 234.374 174.537 233.924 174.644C234.003 175.781 234.844 177.181 235.226 178.132C236.03 180.141 236.879 182.173 237.368 184.275C238.052 187.216 238.329 190.39 235.488 192.36C229.787 196.315 222.649 188.013 217.671 184.742C214.332 186.669 208.625 190.943 203.956 192.293C203.68 192.553 203.263 192.747 202.754 192.76C202.27 192.772 201.84 192.747 201.432 192.707C199.424 192.727 197.81 191.836 196.981 189.415C196.869 189.084 197.024 188.787 197.311 188.554C197.198 184.16 200.983 177.46 201.635 174.143C200.942 173.626 200.108 173.194 199.484 172.782C197.685 171.597 195.906 170.394 194.229 169.055C192.014 167.283 189.235 164.689 190.109 161.681ZM193.212 163.577C194.595 166.591 197.953 168.661 200.703 170.484C201.722 171.159 203.233 171.897 204.343 172.808C204.483 172.875 204.595 172.968 204.666 173.089C204.98 173.382 205.255 173.688 205.448 174.018C205.88 174.76 205.007 175.411 204.114 175.592C202.592 179.684 199.017 187.331 200.885 189.927C203.796 192.028 211.47 186.304 215.787 183.615C215.322 182.933 217.513 181.895 218.468 182.315C218.471 182.316 218.474 182.318 218.476 182.319C219.308 182.242 220.058 182.67 220.054 183.16C222.197 184.458 224.092 186.25 226.082 187.678C228.092 189.121 234.568 193.959 234.797 188.721C234.936 185.561 233.64 182.426 232.473 179.516C231.886 178.049 230.668 176.08 230.904 174.449C231.01 173.723 232.209 173.282 233.069 173.365C234.095 172.34 235.34 171.404 236.302 170.44C237.94 168.795 242.189 165.425 242.132 162.862C242.051 159.287 233.009 160.106 227.406 160.422C227.174 161.349 225.073 161.918 224.548 161.062C224.463 160.922 224.369 160.732 224.267 160.502C224.049 160.49 223.85 160.475 223.686 160.45C223.365 160.4 223.609 160.194 224.052 159.977C222.578 156.21 219.801 145.902 216.759 145.888C216.158 146.11 215.694 146.786 215.182 147.71C214.307 149.291 213.637 150.959 213.056 152.656C212.342 154.737 211.817 157.035 210.886 159.095C211.388 159.481 210.89 160.413 209.967 160.761C209.326 161.379 207.662 161.519 207.237 161.008C205.022 160.974 202.758 160.555 200.602 160.403C198.319 160.241 191.328 159.471 193.212 163.577ZM448.012 164.564C446.805 171.323 443.35 182.647 434.395 183.113C422.43 183.735 427.219 151.766 440.837 153.707C448.117 149.652 448.922 159.473 448.012 164.564ZM439.873 178.085C442.576 174.762 444.032 169.494 444.649 166.458C444.915 165.155 445.766 159.119 444.784 156.374C444.661 156.028 444.506 155.736 444.32 155.511C444.27 155.591 444.199 155.669 444.118 155.745C443.562 156.266 442.342 156.657 441.657 156.322C435.276 153.197 431.945 164.262 431.263 168.277C430.847 170.733 429.792 180.441 434.203 181.052C434.529 181.097 434.881 181.098 435.271 181.036C437.102 180.75 438.62 179.625 439.873 178.085ZM463.831 166.57C468.375 167.452 472.92 168.327 477.463 169.216C482.146 170.133 486.826 171.064 491.496 172.04C492.245 172.198 499.296 174.243 499.605 173.871C499.441 174.067 502.021 174.01 502.566 173.357C502.576 173.346 502.586 173.335 502.595 173.323C502.602 173.282 502.61 173.242 502.617 173.201C501.84 172.215 498.81 172.025 497.676 171.77C493.093 170.739 488.478 169.835 483.867 168.921C478.96 167.947 474.049 166.997 469.138 166.048C468.132 165.854 462.275 164.884 462.248 164.786C462.087 164.193 459.075 164.935 459.241 165.546C459.397 166.116 463.354 166.477 463.831 166.57ZM498.753 184.182C498.761 184.141 498.768 184.101 498.776 184.06C497.997 183.075 494.969 182.885 493.834 182.629C489.252 181.599 484.635 180.695 480.025 179.781C475.118 178.807 470.207 177.859 465.296 176.909C464.29 176.715 458.432 175.745 458.405 175.647C458.245 175.055 455.233 175.796 455.399 176.407C455.553 176.977 459.51 177.339 459.988 177.431C464.531 178.312 469.077 179.187 473.62 180.076C478.303 180.993 482.984 181.923 487.653 182.901C488.402 183.057 495.453 185.101 495.763 184.73C495.599 184.927 498.18 184.87 498.724 184.217C498.735 184.205 498.745 184.193 498.753 184.182ZM438.064 271.615C436.231 272.124 436.757 274.028 438.604 273.515C443.69 272.105 447.513 274.927 450.403 278.617C451.199 279.632 454.067 278.54 453.158 277.379C449.459 272.656 444.331 269.876 438.064 271.615ZM451.277 263.636C445.566 258.754 437.723 259.904 430.662 260.532C429.886 260.601 427.382 261.847 429.358 261.67C436.002 261.08 443.076 260.011 448.445 264.6C449.036 265.108 451.737 264.03 451.277 263.636ZM416.481 361.574C415.206 361.475 413.325 363.201 415.362 363.359C434.213 364.819 451.463 347.132 453.292 330.339C453.432 329.062 450.388 329.557 450.271 330.639C448.642 345.6 433.693 362.907 416.481 361.574ZM459.224 314.911C459.224 316.389 462.268 315.947 462.268 314.689C462.267 311.164 462.183 307.655 461.61 304.164C461.396 302.868 458.382 303.58 458.603 304.923C459.148 308.238 459.223 311.564 459.224 314.911ZM382.161 376.236C381.206 376.187 379.649 376.775 379.842 377.328C380.483 379.162 379.937 381.612 378.696 383.127C377.828 384.187 376.619 384.784 375.239 384.397C374.65 384.232 374.028 383.888 373.389 383.32C369.746 380.083 374.6 375.473 378.473 375.801C379.187 375.863 380.017 375.67 380.599 375.264C380.845 375.092 380.929 374.902 380.876 374.749C380.828 374.611 380.668 374.508 380.39 374.48C380.383 374.48 380.38 374.476 380.374 374.476C379.618 374.413 378.742 374.468 377.82 374.626C372.662 375.51 366.044 379.628 370.574 384.349C372.818 386.69 377.096 386.243 379.628 384.634C382.421 382.862 383.929 379.659 382.849 376.569C382.773 376.352 382.505 376.255 382.161 376.236ZM399.612 385.991C399.049 388.769 395.813 390.522 392.935 390.456C390.376 390.397 386.803 389.542 386.803 386.543C386.802 383.926 389.266 382.061 391.626 381.156C391.962 381.027 392.321 380.991 392.644 381.019C392.413 380.443 394.534 379.55 395.342 379.863C397.837 380.828 400.166 383.258 399.612 385.991ZM396.64 385.713C396.633 385.473 396.607 385.233 396.543 384.992C396.134 383.443 395.104 382.324 393.681 381.599C393.728 381.848 393.508 382.138 392.835 382.396C391.286 382.99 389.497 384.483 389.837 386.268C390.137 387.84 391.786 388.792 393.436 388.798C393.691 388.799 393.946 388.782 394.196 388.737C395.773 388.449 396.685 387.132 396.64 385.713ZM77.4284 232.631C82.0674 226.082 91.2023 226.785 95.8641 232.441C101.292 226.89 112.885 225.165 115.979 233.889C119.718 244.434 107.529 255.103 96.8187 256.682C96.4566 256.801 96.1225 256.882 95.943 256.873C95.7801 256.865 95.613 256.845 95.446 256.832C95.282 256.844 95.1171 256.861 94.9531 256.869C94.3825 256.895 94.1843 256.809 94.1988 256.677C83.8448 254.951 70.4444 242.492 77.4284 232.631ZM79.1632 240.976C81.5133 247.815 89.1997 254.831 97.1248 255.602C105.452 254.577 115.661 244.668 113.54 236.509C111.434 228.408 101.536 226.403 97.102 234.221C97.3271 234.703 94.5028 235.699 94.094 234.97C92.1817 231.564 86.2634 226.289 81.9502 230.367C79.129 233.033 77.9171 237.349 79.1632 240.976ZM267.195 405.166C269.767 408.187 272.578 412.549 270.036 415.941C268.764 417.64 266.856 418.65 264.77 419.223C265.198 422.25 264.584 425.38 261.619 427.147C258.861 428.792 255.303 428.841 252.253 427.951C251.214 427.648 250.112 427.196 249.109 426.601C243.347 426.761 236.557 427.25 231.523 424.832C229.973 424.087 228.777 423.152 227.847 422.077C227.688 422.564 227.143 423.015 226.343 423.015C222.128 423.012 216.669 423.614 213.22 420.828C210.123 418.327 209.819 412.845 209.713 409.331C209.424 399.753 214.543 392.857 225.299 396.108C225.482 396.163 225.615 396.234 225.721 396.31C226.357 395.007 227.315 393.82 228.678 392.8C228.91 392.626 229.47 392.487 230.018 392.43C226.687 384.216 229.71 370.571 239.534 368.787C250.897 366.725 251.634 383.127 251.003 390.188C250.998 390.238 250.982 390.285 250.955 390.33C256.896 389.977 263.976 389.956 269.079 392.935C274.22 395.941 270.992 401.988 267.195 405.166ZM261.73 419.765C260.902 419.839 260.077 419.877 259.283 419.865C256.467 419.819 252.99 419.317 250.415 417.801C249.133 419.022 248.2 420.548 248.886 422.257C249.243 423.148 249.91 423.874 250.717 424.458C251.03 424.455 251.346 424.449 251.657 424.448C252.745 424.446 253.088 425.047 252.911 425.609C253.171 425.706 253.429 425.793 253.685 425.868C255.507 426.398 258.126 426.71 259.807 425.608C261.87 424.255 262.073 421.932 261.73 419.765ZM264.778 406.746C261.546 408.365 257.377 408.994 253.684 408.158C253.675 408.372 253.533 408.62 253.181 408.896C251.286 410.376 249.62 412.579 250.859 414.564C252.162 414.086 254.051 415.121 252.562 416.131C254.787 417.516 257.816 417.962 260.371 417.97C260.812 417.972 261.295 417.95 261.789 417.914C262.341 417.294 263.595 417.055 264.214 417.519C265.625 417.131 266.891 416.436 267.506 415.203C268.896 412.412 266.851 409.201 264.778 406.746ZM267.427 401.571C273.559 391.568 255.471 391.489 249.282 391.906C248.056 391.99 247.923 391.493 248.312 391.05C248.115 391.038 247.988 391.005 247.993 390.948C248.488 385.428 248.57 372.646 241.774 370.078C231.326 366.127 230.885 388.684 234.067 393.74C234.251 394.032 231.46 395.137 231.06 394.499C230.865 394.189 230.686 393.861 230.514 393.525C227.978 395.752 227.425 398.826 227.971 402.031C228.122 402.916 225.096 403.564 224.964 402.79C224.662 401.011 224.723 399.323 225.168 397.766C224.681 398.047 224.066 398.203 223.574 398.054C212.609 394.741 211.868 406.025 213.262 413.33C213.702 415.63 214.229 419.138 216.953 420.086C219.982 421.139 223.423 420.884 226.593 420.886C226.731 420.886 226.856 420.898 226.97 420.916C225.262 418.245 224.862 414.901 224.942 411.393C224.972 410.086 228.027 409.68 227.992 411.189C227.876 416.282 228.887 421.856 234.831 423.467C238.638 424.499 242.681 424.564 246.682 424.511C246.293 423.993 245.983 423.428 245.807 422.803C245.081 420.222 246.551 417.993 248.485 416.273C245.723 413.199 248.567 409.846 251.233 407.765C251.362 407.663 251.514 407.586 251.676 407.529C250.613 407.101 249.618 406.531 248.737 405.798C243.369 401.326 250.338 397.969 254.724 396.999C256.523 396.6 256.926 397.938 255.105 398.34C253.325 398.734 249.146 399.629 249.755 402.176C250.142 403.792 251.604 404.993 253.14 405.698C256.863 407.407 260.608 407.245 263.615 405.429C263.408 405.204 263.204 404.986 263.015 404.785C262.086 403.796 264.954 402.707 265.782 403.587C265.797 403.604 265.814 403.622 265.829 403.64C266.412 403.032 266.952 402.346 267.427 401.571Z" fill="#C4C4C4"/>
</svg>
