<svg width="360" height="336" viewBox="0 0 360 336" fill="none" xmlns="http://www.w3.org/2000/svg">
<path d="M294.506 122.329C295.001 119.41 297.422 111.366 302.062 113.638C302.559 113.882 303.446 113.597 303.851 113.219L304.336 113.676C305.049 115.672 304.431 120.059 304.238 121.006C303.789 123.213 302.731 127.042 300.766 129.459C299.825 130.307 298.392 131.306 296.643 131.615C293.436 131.172 294.203 124.114 294.506 122.329ZM258.811 273.504L258.747 272.902L257.877 272.422C257.917 272.533 257.855 272.672 257.676 272.797C257.253 273.092 256.65 273.231 256.13 273.187C253.315 272.949 249.786 276.301 252.435 278.653C252.899 279.066 253.351 279.315 253.779 279.436C254.907 279.237 255.786 278.814 256.293 278.512C257.194 277.411 257.591 275.63 257.125 274.297C256.985 273.895 258.117 273.468 258.811 273.504ZM257.513 272.224C257.518 272.224 257.52 272.227 257.524 272.227L257.272 272.089C257.272 272.089 256.555 272.153 255.656 272.334C256.326 272.219 256.962 272.178 257.513 272.224ZM267.186 277.402C267.22 277.583 267.061 277.794 266.572 277.981C265.446 278.413 264.145 279.499 264.392 280.797C264.61 281.939 265.809 282.631 267.008 282.636C267.716 282.337 268.147 282.006 268.147 282.006L269.338 280.392C269.332 280.218 269.314 280.043 269.267 279.868C268.97 278.742 268.221 277.929 267.186 277.402ZM253.714 266.047L253.933 266.102C253.863 266.068 253.791 266.036 253.724 266.001L253.714 266.047ZM227.198 191.541C227.195 191.546 227.194 191.552 227.191 191.556C227.191 191.577 227.192 191.597 227.183 191.621C227.139 191.736 227.09 191.85 227.046 191.965C228.784 192.575 230.548 193.082 232.33 193.496C229.682 192.634 227.842 191.834 227.198 191.541ZM207.272 259.437C203.389 259.244 199.538 258.656 195.799 257.645C198.041 259.434 202.395 259.758 207.272 259.437ZM133.199 232.594C135.163 232.45 137.177 231.994 139.122 231.609L133.199 232.594ZM282.376 183.958C280.967 184.311 279.769 184.533 278.764 184.667C280.568 184.649 282.396 184.198 284.151 183.426C283.583 183.621 282.995 183.802 282.376 183.958ZM339.991 157.527C339.847 158.375 339.556 159.875 339.449 160.417C338.866 163.39 338.189 166.346 337.511 169.301C335.35 178.726 333.03 188.12 330.692 197.507C327.697 209.532 324.646 221.544 321.525 233.542L313.198 264.745C312.249 268.195 311.288 271.643 310.271 275.076C309.901 276.325 309.526 277.576 309.111 278.812C308.999 279.146 308.878 279.477 308.75 279.805L308.264 279.684C308.739 279.296 308.86 278.7 307.943 278.558C298.106 277.033 288.376 274.047 278.807 271.48C273.429 270.036 268.064 268.551 262.725 266.985C260.352 266.288 256.483 265.775 254.467 264.269C256.47 258.637 258.862 252.498 259.261 246.55C261.816 248.281 264.527 249.839 267.248 251.345C273.023 254.542 279.797 257.772 286.686 257.23C287.727 257.148 288.525 256.041 287.004 256.161C280.317 256.687 273.526 252.891 267.961 249.811C261.474 246.219 255.2 242.142 251.171 236.024C252.136 234.718 253.059 233.433 253.941 232.198C257.551 227.138 260.83 221.855 263.804 216.442C265.187 213.925 267.329 210.83 267.708 207.945C267.853 206.834 265.616 207.078 265.485 208.074C265.154 210.608 263.188 213.39 261.993 215.615C259.315 220.6 256.299 225.426 253.075 230.112C246.5 239.665 238.118 250.917 226.561 255.431C215.157 259.885 201.509 258.584 190.275 253.776C187.263 251.962 184.042 250.322 181.978 249.315C177.035 246.13 171.362 241.616 168.979 236.655C169.158 236.534 169.268 236.393 169.241 236.242C168.009 229.333 174.593 224.148 180.216 220.769C186.184 226.62 194.763 231.48 203.182 232.929C209.514 234.018 217.688 232.917 222.67 228.769C226.58 225.514 229.312 220.6 232.081 216.509C233.698 214.118 235.279 211.705 236.869 209.298C237.667 208.088 238.469 206.25 239.632 205.303C239.512 205.338 239.392 205.374 239.271 205.409C239.695 205.202 239.921 204.984 239.377 204.949C237.112 204.801 235.992 207.722 235.04 209.159C231.92 213.869 228.842 218.604 225.517 223.189C224.196 225.011 222.84 226.85 221.22 228.449C217.219 232.397 210.359 232.831 204.977 232.12C198.099 231.211 190.805 227.296 185.223 222.702L185.553 222.728C191.288 224.226 198.517 221.445 203.272 219.092C214.217 213.679 222.125 203.985 226.535 193.257C232.922 195.314 239.801 196.148 246.652 196.198C248.401 196.275 250.199 196.249 252.015 196.09C254.149 195.986 256.266 195.815 258.35 195.591C262.254 195.173 267.198 194.117 271.251 192.05C271.933 191.921 272.2 191.755 272.883 191.124C274.234 190.279 275.438 189.299 276.4 188.161C277.474 190.234 279.485 191.938 281.136 193.54C284.348 196.657 287.687 199.59 291.107 202.51C297.016 207.554 303.15 212.677 311.346 213.704C312.283 213.822 313.63 212.586 312.157 212.402C303.543 211.321 297.207 205.124 291.055 199.9C288.318 197.575 285.699 195.196 283.154 192.692C281.143 190.714 278.488 188.613 277.933 185.8C277.932 185.794 277.928 185.789 277.926 185.784C277.942 185.752 277.954 185.719 277.969 185.687C281.106 185.661 284.286 184.638 287.248 183.09C293.312 179.92 297.984 173.579 297.972 166.963C297.958 160.216 292.108 155.639 286.062 152.886C287.434 151.832 287.994 148.554 288.404 146.518C305.492 150.362 322.662 154.818 339.991 157.527ZM306.995 192.351C307.426 192.72 309.389 191.936 309.054 191.65C304.903 188.101 299.201 188.937 294.068 189.394C293.504 189.444 291.684 190.35 293.12 190.221C297.951 189.791 303.093 189.014 306.995 192.351ZM310.423 201.64C307.734 198.206 304.005 196.186 299.449 197.449C298.117 197.819 298.5 199.203 299.842 198.83C303.54 197.805 306.319 199.857 308.419 202.539C308.998 203.278 311.084 202.484 310.423 201.64ZM310.52 240.139C310.622 239.211 308.409 239.571 308.323 240.357C307.139 251.234 296.273 263.814 283.761 262.846C282.834 262.774 281.466 264.029 282.948 264.143C296.65 265.205 309.19 252.347 310.52 240.139ZM317.044 228.763C317.043 226.2 316.982 223.649 316.565 221.111C316.41 220.169 314.219 220.687 314.379 221.663C314.776 224.073 314.831 226.49 314.832 228.923C314.832 229.997 317.044 229.676 317.044 228.763ZM259.703 194.567C262.355 194.218 265.202 193.611 267.794 192.616C266.052 192.949 263.513 193.52 259.703 194.567ZM130.768 232.998L130.779 233.495C130.863 233.437 130.965 233.386 131.075 233.34C131.075 233.213 131.787 232.909 132.314 232.741L130.768 232.998ZM179.53 220.08C179.513 220.062 179.495 220.044 179.477 220.026C179.478 220.048 179.479 220.07 179.48 220.092C179.495 220.087 179.513 220.083 179.53 220.08ZM173.501 224.044C172.922 224.445 172.367 224.832 171.876 225.18C171.175 225.675 170.557 226.478 170.019 227.417C171.033 226.201 172.227 225.075 173.501 224.044ZM166.588 236.796C166.438 236.455 166.626 236.162 166.945 235.972C166.921 235.712 166.908 235.454 166.904 235.2C166.838 235.227 166.766 235.257 166.682 235.286C159.538 237.773 152.456 235.41 148.271 230.451C146.148 231.368 142.88 231.502 140.962 231.854C138.242 232.353 135.431 233.024 132.644 233.298C132.697 233.357 132.72 233.431 132.696 233.526C131.529 238.208 129.921 247.013 133.612 251.286C133.809 251.275 133.985 251.299 134.105 251.37C136.285 252.657 139.311 252.693 141.955 252.672L162.533 251.828C167.71 251.357 172.893 250.481 177.532 248.632C173.009 245.377 168.577 241.306 166.588 236.796Z" fill="#E5E5E5"/>
<path d="M241.149 155.601C241.389 155.309 241.812 155.159 242.215 155.095C242.251 155.046 242.283 154.993 242.313 154.943C242.627 154.409 244.803 154.131 244.333 154.93C243.837 155.773 242.675 156.1 241.721 156.131C241.413 156.141 240.837 155.982 241.149 155.601ZM214.604 139.921C212.193 139.53 210.032 140.535 207.741 141.059C206.376 141.371 206.794 142.809 208.151 142.498C210.02 142.07 211.89 141.124 213.854 141.443C214.947 141.62 216.067 140.159 214.604 139.921ZM217.703 165.621C217.221 165.634 216.578 165.785 216.251 166.149C215.346 167.158 213.943 169.435 212.319 168.961C211.827 168.817 211.221 168.964 210.781 169.188C210.56 169.301 210.053 169.714 210.552 169.86C213.96 170.854 216.295 168.281 218.258 166.095C218.59 165.726 217.976 165.615 217.703 165.621ZM100.25 181.139C100.444 190.629 99.9276 200.045 98.3881 209.43C98.235 210.362 100.455 210.033 100.588 209.222C102.127 199.837 102.644 190.421 102.45 180.931C102.429 179.951 100.234 180.347 100.25 181.139ZM28.3718 213.668C35.302 208.712 35.6226 215.501 40.8428 214.183C41.6212 213.987 42.4238 213.505 43.0317 213.02C45.7501 210.854 48.2113 211.746 50.8301 213.412C51.4305 213.794 53.4512 212.968 52.5672 212.406C50.6596 211.192 48.4081 209.704 45.9485 209.989C43.6502 210.256 40.7795 214.002 38.4609 212.436C34.3358 209.649 30.615 210.456 26.6159 213.315C25.6187 214.028 27.8106 214.069 28.3718 213.668ZM28.3718 223.025C35.3027 218.07 35.6218 224.861 40.8428 223.542C41.6212 223.346 42.4238 222.863 43.0317 222.379C45.7501 220.213 48.2113 221.103 50.8301 222.77C51.4305 223.151 53.4512 222.325 52.5672 221.763C50.6596 220.55 48.4081 219.061 45.9485 219.347C43.6495 219.614 40.781 223.362 38.4609 221.794C34.3365 219.006 30.615 219.814 26.6159 222.673C25.6187 223.386 27.8106 223.426 28.3718 223.025ZM52.5672 273.227C50.6596 272.014 48.4081 270.526 45.9485 270.812C43.6502 271.079 40.7795 274.825 38.4609 273.258C34.3365 270.47 30.6142 271.278 26.6159 274.138C25.6195 274.852 27.8114 274.892 28.3718 274.491C35.3012 269.532 35.6226 276.324 40.8428 275.006C41.6212 274.81 42.4238 274.327 43.0317 273.843C45.7501 271.678 48.2113 272.568 50.8301 274.234C51.4312 274.615 53.4512 273.789 52.5672 273.227ZM52.5672 282.585C50.6596 281.371 48.4081 279.884 45.9485 280.17C43.6502 280.436 40.7795 284.182 38.4609 282.615C34.3365 279.828 30.6142 280.635 26.6159 283.496C25.6195 284.209 27.8114 284.25 28.3718 283.848C35.3012 278.89 35.6226 285.681 40.8428 284.364C41.6212 284.167 42.4238 283.685 43.0317 283.2C45.7501 281.035 48.2113 281.925 50.8301 283.591C51.4312 283.973 53.4512 283.147 52.5672 282.585ZM383.015 116.079C380.688 123.119 379.446 130.511 377.72 137.698C375.935 145.127 373.637 152.415 371.77 159.823C366.815 179.484 362.44 199.281 358.008 219.05C352.712 242.676 347.511 266.322 342.382 289.981C339.888 301.486 336.691 313.104 334.922 324.751C335.138 324.892 335.251 325.122 335.135 325.457C333.294 330.835 330.604 336.535 324.716 338.829C320.544 340.455 315.735 339.646 311.459 338.792C311.297 338.786 311.183 338.765 311.146 338.729C311.117 338.724 311.087 338.718 311.058 338.712C301.324 336.751 291.743 334.638 282.171 332.022C268.394 328.255 254.644 324.294 241.108 319.811C231.767 316.717 219.85 312.587 222.792 301.012C225.103 291.921 228.464 283.005 231.352 274.069C233.178 268.416 235.008 262.762 236.71 257.074C237.37 254.867 238.396 252.376 238.789 249.978C234.966 253.272 230.724 255.929 226.013 257.274C219.901 259.02 213.544 259.75 207.272 259.438C203.389 259.244 199.538 258.656 195.799 257.645C191.379 256.448 187.115 254.673 183.138 252.299C181.707 251.445 180.169 250.472 178.621 249.403C170.952 252.532 161.839 253.171 153.615 253.506C149.204 253.686 144.76 253.975 140.344 253.809C138.188 253.728 135.704 253.709 133.614 252.943C133.165 253.072 132.68 253.104 132.449 252.92C132.419 252.897 132.397 252.866 132.367 252.842C130.86 253.8 129.359 254.7 127.489 254.811C126.089 265.162 121.585 274.959 111.408 280.349C95.5483 288.75 76.8787 287.229 59.3639 286.96C58.7748 287.111 58.1306 287.087 58.1314 286.8C58.148 281.608 58.3456 276.42 58.3629 271.229C58.3645 270.71 59.483 270.383 60.1196 270.431C60.3414 270.339 60.5805 270.288 60.7955 270.31C65.2102 270.764 70.3437 271.189 75.5301 271.126C76.1252 270.717 77.4218 270.597 77.4225 271.005C77.4225 271.03 77.4233 271.055 77.4233 271.08C88.8112 270.663 100.059 267.605 104.108 256.971C104.394 256.221 106.603 255.964 106.303 256.748C101.91 268.286 89.7435 271.755 77.4323 272.302C77.4527 276.951 77.5319 281.598 77.5394 286.246C77.5394 286.351 77.4897 286.447 77.4105 286.536C90.7663 286.668 104.704 285.474 114.195 277.121C125.569 267.111 126.978 252.244 125.227 238.438C124.123 237.978 123.069 237.209 122.112 236.624C120.874 235.868 119.349 235.221 118.432 234.104C116.599 231.871 117.854 229.327 120.514 228.38C121.495 228.031 122.461 227.889 123.387 227.927C121.349 222.107 116.386 216.004 110.226 213.973C107.418 215.189 104.125 216.712 102.91 219.404C103.209 219.566 103.273 219.852 102.745 220.218C100.269 221.937 97.6814 221.332 95.3432 219.676C91.7898 217.161 90.6199 213.057 89.7382 209.135C85.7436 208.656 81.7565 208.491 77.7672 208.47C77.7416 212.643 77.5719 216.814 77.5462 220.986C90.8801 220.408 104.996 221.028 107.479 234.988C107.512 235.174 107.423 235.342 107.27 235.484C107.898 235.492 108.508 235.517 109.081 235.556C112.58 235.787 115.146 237.473 112.864 240.785C112.35 241.531 111.688 242.054 110.935 242.423C113.375 243.06 114.716 244.678 112.864 247.365C112.586 247.769 112.262 248.105 111.906 248.39C113.934 248.982 115.494 250.359 114.025 252.689C111.994 255.91 108.603 255.754 105.093 255.672C104.937 255.984 104.55 256.278 104.032 256.317C102.396 256.441 100.175 256.227 99.0873 254.863C98.0299 253.536 98.0736 251.694 99.4207 250.494C99.5135 250.411 99.6123 250.337 99.7088 250.261C98.5526 250.052 97.4558 249.61 96.8524 248.727C95.8553 247.264 96.1728 245.566 97.609 244.413C98.0366 244.07 98.5141 243.778 99.0225 243.523C98.1339 243.271 97.3337 242.853 96.8524 242.147C95.8553 240.685 96.1721 238.986 97.609 237.833C99.5678 236.262 102.484 235.666 105.288 235.518C102.915 222.255 89.6077 221.595 76.8463 222.181C76.3273 222.372 75.6704 222.416 75.4403 222.251C70.0526 222.532 64.8383 222.961 60.6748 222.674C60.5994 222.669 60.536 222.659 60.4756 222.649C59.8745 223.049 58.5975 223.164 58.5975 222.759C58.5975 218.227 58.5975 213.694 58.5975 209.162C58.5975 208.971 58.7506 208.807 58.9747 208.676C58.5545 208.423 59.7455 207.694 60.3625 207.691C70.1046 207.649 79.7713 206.942 89.4697 207.912C89.4342 207.75 89.3988 207.588 89.3633 207.426C86.7679 195.625 85.7738 183.527 87.0756 171.512C87.7409 165.37 87.6127 157.378 91.8803 152.283C95.7082 147.712 102.92 148.042 105.22 153.962C105.226 153.965 105.234 153.967 105.239 153.97C125.155 165.135 148.124 168.704 171.007 168.995C171.525 168.773 172.183 168.774 172.408 169.18C175.58 174.873 175.965 181.818 175.418 188.124C175.159 191.104 175.113 198.227 171.894 200.128C171.701 200.242 171.463 200.294 171.221 200.304C170.907 200.478 170.519 200.615 170.26 200.617C167.665 200.63 165.125 200.794 162.615 201.358C162.914 202.921 163.392 204.433 164.001 205.903C164.319 205.863 164.632 205.916 164.841 206.099C164.774 205.79 165.014 205.393 165.642 205.194C175.216 202.158 179.034 212.035 179.449 219.37C179.954 219.056 181.019 218.785 181.279 219.058C181.894 219.705 182.558 220.349 183.251 220.988C183.761 220.763 184.458 220.606 184.764 220.795C190.972 224.607 200.663 219.88 205.83 216.465C214.726 210.584 221.015 202.197 224.737 192.646C224.443 192.532 224.603 192.335 224.932 192.153C224.958 192.082 224.989 192.012 225.015 191.94C225.033 191.893 225.068 191.847 225.109 191.804C227.59 187.057 226.775 180.61 232.611 178.402C232.501 178.357 232.399 178.296 232.317 178.211C225.723 171.402 218.194 179.379 210.636 176.216C205.473 174.056 202.061 168.019 199.96 163.2C197.168 163.262 194.709 159.549 194.051 157.406C192.939 153.779 192.601 148.031 194.787 144.529C194.216 144.677 193.607 144.621 193.586 144.247C193.171 136.288 195.525 129.083 200.888 123.788C201.02 123.584 201.155 123.384 201.292 123.189C202.069 122.091 203.337 121.292 204.665 120.708C205.748 119.985 206.906 119.315 208.154 118.712C220.018 112.979 234.99 110.619 246.818 117.95C254.969 123.003 257.816 130.957 263.604 137.92C264.529 139.033 265.519 140.21 266.566 141.384C271.204 129.006 274.007 115.937 277.828 103.329C279.958 96.3037 282.935 83.6783 292.788 83.4374C308.496 83.0536 324.654 87.8702 339.491 92.1516C352.431 95.8851 365.4 99.5716 378.499 102.772C378.601 102.796 378.676 102.828 378.742 102.862C385.772 105.131 384.939 110.251 383.015 116.079ZM109.532 249.501C107.915 249.897 106.076 249.847 104.393 249.785C104.081 249.844 103.771 249.91 103.472 249.992C103.394 250.013 103.313 250.037 103.23 250.064C103.03 250.241 102.749 250.376 102.407 250.398C102.393 250.398 102.376 250.398 102.362 250.4C101.149 250.959 99.9547 251.936 100.625 253.276C101.238 254.505 102.526 254.917 103.869 254.892C104.133 254.547 104.672 254.217 105.16 254.224C107.456 254.261 110.762 254.922 111.944 252.492C112.919 250.485 111.481 249.6 109.532 249.501ZM108.306 243.572C106.269 243.527 104.028 243.554 102.044 244.01C100.753 244.308 98.3248 244.862 98.4213 246.639C98.5179 248.423 100.419 248.951 102.022 248.971C102.159 248.92 102.297 248.87 102.437 248.825C102.725 248.538 103.18 248.295 103.598 248.302C103.84 248.305 104.118 248.32 104.42 248.341C106.155 248.046 107.971 248.016 109.615 248.046C109.643 248.047 109.671 248.05 109.698 248.05C110.039 247.897 110.333 247.698 110.553 247.43C112.51 245.037 111.196 243.637 108.306 243.572ZM102.044 237.431C100.753 237.728 98.3248 238.282 98.4213 240.06C98.5239 241.951 100.652 242.432 102.307 242.392C102.571 242.047 103.11 241.716 103.598 241.723C105.427 241.749 109.248 242.448 110.553 240.85C112.51 238.456 111.196 237.057 108.306 236.992C106.269 236.947 104.028 236.974 102.044 237.431ZM75.5934 208.472C70.665 208.504 65.7336 208.703 60.7819 208.753C60.7819 213.025 60.7819 217.298 60.7819 221.57C61.0165 221.463 61.2722 221.399 61.4962 221.414C65.435 221.686 70.2917 221.348 75.3641 221.089C75.4018 216.894 75.5738 212.7 75.5866 208.505C75.5866 208.495 75.5919 208.483 75.5934 208.472ZM75.3505 286.505C75.34 281.793 75.2593 277.081 75.2427 272.37C70.1001 272.461 65.0156 272.098 60.5383 271.649C60.5028 276.48 60.3354 281.309 60.318 286.14C60.4447 286.108 60.5541 286.087 60.6265 286.089C65.2147 286.157 70.2208 286.408 75.3505 286.505ZM213.485 151.78C213.431 151.768 213.377 151.763 213.323 151.75C212.771 151.625 212.859 151.363 213.181 151.126C212.196 149.106 210.904 147.136 209.018 145.883C208.88 145.791 208.963 145.653 209.158 145.513C209.083 145.514 209.013 145.508 208.949 145.496C208.891 145.58 208.824 145.674 208.739 145.79C208.593 146.124 208.475 146.466 208.384 146.817C208.236 147.44 208.099 148.063 208.025 148.697C207.833 150.316 207.732 151.955 207.803 153.585C207.912 156.1 208.596 159.493 210.659 161.264C213.989 164.122 215.389 159.579 215.165 157.518C215.007 156.061 214.681 154.627 214.124 153.256C213.927 152.772 213.711 152.277 213.485 151.78ZM215.718 150.862C219.889 151.587 224.065 151.058 228.28 150.737C230.573 150.562 232.874 150.778 235.168 150.853C230.73 149.717 226.939 147.057 224.292 143.099C222.281 140.092 221.007 137.029 220.102 133.591C219.548 131.486 218.897 128.92 216.632 127.853C213.344 126.304 209.755 127.438 208.046 130.447C207.858 130.778 207.264 130.976 206.747 130.993C206.707 131.778 204.876 132.182 204.525 131.308C204.352 130.876 204.159 130.407 203.81 130.069C203.318 130.483 202.967 131.064 202.676 131.609C201.987 132.897 201.337 134.343 201.14 135.786C201.095 136.12 200.796 136.365 200.432 136.505C200.309 137.722 200.251 138.941 200.225 140.163C201.147 140.811 201.879 141.712 202.679 142.48C203.229 143.008 201.16 143.767 200.645 143.271C200.493 143.125 200.345 142.972 200.195 142.817C200.195 142.891 200.195 142.964 200.195 143.038C200.194 143.274 199.772 143.459 199.298 143.569C200.773 144.892 201.975 147.267 202.521 148.301C202.647 148.54 202.424 148.782 202.076 148.95C202.172 149.005 202.248 149.08 202.288 149.178C202.744 150.269 203.265 151.866 203.614 153.598C204.202 153.598 204.791 153.598 205.379 153.598C205.43 153.598 205.505 153.601 205.583 153.61C205.544 152.268 205.628 150.933 205.775 149.685C206.058 147.286 207.218 142.767 210.831 144.694C210.969 144.767 210.874 144.9 210.663 145.038C210.825 145.041 210.966 145.068 211.064 145.132C212.911 146.358 214.561 148.495 215.718 150.862ZM205.063 128.52C205.063 128.52 205.039 128.536 204.995 128.567C205.027 128.58 205.057 128.598 205.087 128.612L205.063 128.52ZM248.704 158.637C248.43 158.832 248.148 159.018 247.862 159.189L248.434 159.082C248.434 159.082 248.548 158.918 248.704 158.637ZM251.2 174.795C250.825 174.775 250.48 174.759 250.176 174.748C250.19 174.823 250.207 174.898 250.219 174.972C250.543 174.903 250.871 174.844 251.2 174.795ZM278.764 184.667C280.567 184.649 282.395 184.198 284.15 183.426C283.583 183.621 282.995 183.802 282.375 183.957C280.966 184.311 279.768 184.533 278.764 184.667ZM251.996 124.978L254.919 128.901C253.998 127.547 253.037 126.229 251.996 124.978ZM209.883 119.291C209.935 119.284 209.965 119.281 209.965 119.281C209.965 119.281 213.485 117.685 217.917 116.153C216.533 116.556 215.164 117.031 213.82 117.59C212.491 118.144 211.171 118.695 209.883 119.291ZM198.879 160.928C199.384 161.379 199.796 161.562 200.131 161.56C200.272 161.495 200.428 161.446 200.589 161.419C201.227 160.999 201.458 159.716 201.535 158.748C201.776 155.671 201.302 152.603 200.103 149.731C199.997 149.479 200.219 149.237 200.557 149.068C200.462 149.017 200.385 148.947 200.336 148.854C200.154 148.508 197.288 143.677 196.886 144.422C196.209 145.674 195.88 146.92 195.741 148.311C195.477 150.952 195.17 154.309 196.237 156.854C196.845 158.304 197.658 159.84 198.879 160.928ZM227.198 191.541C227.195 191.546 227.194 191.552 227.191 191.556C227.191 191.576 227.192 191.597 227.183 191.62C227.139 191.736 227.09 191.85 227.046 191.965C228.784 192.575 230.548 193.082 232.33 193.496C240.116 195.303 248.263 195.383 256.276 194.894C257.351 194.828 258.506 194.723 259.702 194.566C262.354 194.217 265.201 193.61 267.793 192.615C271.486 191.195 274.657 188.982 275.987 185.583C275.99 185.576 275.997 185.57 276 185.564C274.206 185.324 272.445 184.725 270.766 183.663C265.01 180.023 256.858 174.185 249.53 176.32C248.785 176.537 248.383 176.272 248.399 175.936C248.209 175.883 248.073 175.779 248.048 175.608C247.246 170.177 243.025 165.741 243.39 160.1C243.421 159.634 244.262 159.429 244.625 159.374C246.765 159.051 250.22 156.019 249.425 153.65C248.293 150.277 243.203 151.041 241.786 153.881C241.461 154.53 239.27 154.739 239.739 153.799C240.254 152.767 241.188 151.903 242.313 151.264H242.179C242.006 151.357 241.8 151.422 241.571 151.435C241.371 151.447 241.175 151.447 240.976 151.453C240.948 151.46 240.93 151.471 240.9 151.477C236.196 152.471 231.457 151.511 226.705 151.919C223.214 152.219 219.762 152.549 216.315 152.215C217.155 154.348 217.571 156.56 217.348 158.398C216.956 161.618 212.388 165.254 209.117 162.446C206.693 160.365 205.794 157.311 205.61 154.23C205.265 154.419 204.81 154.52 204.461 154.52C204.233 154.52 204.007 154.52 203.78 154.52C204.062 156.308 204.111 158.162 203.69 159.721C204.306 159.564 205.056 159.716 205.097 160.338C205.186 161.698 205.209 163.187 205.741 164.473C206.341 165.928 207.323 165.726 208.627 165.077C209.722 164.533 210.911 165.628 209.593 166.284C207.969 167.091 205.338 167.821 204.087 166.025C203.162 164.697 203.028 163.011 202.937 161.424C202.69 161.791 202.389 162.114 202.036 162.393C204.759 168.699 209.724 176.803 217.998 175.002C224.371 173.615 229.391 172.195 234.312 177.276C234.568 177.542 234.514 177.811 234.304 178.029C234.672 178.109 234.488 178.447 233.628 178.687C228.72 180.054 229.103 187.961 227.198 191.541ZM179.53 220.079C179.513 220.062 179.494 220.044 179.477 220.026C179.478 220.047 179.479 220.07 179.479 220.092C179.495 220.087 179.513 220.083 179.53 220.079ZM166.152 210.269C166.251 210.447 166.348 210.626 166.448 210.803C166.591 211.057 166.354 211.312 165.986 211.483C165.783 212.183 164.487 212.477 163.972 212.129C158.929 212.45 154.17 212.009 149.463 210.735C148.987 210.817 148.529 210.763 148.435 210.48C148.428 210.461 148.421 210.442 148.416 210.423C147.749 210.225 147.081 210.013 146.416 209.782C145.767 214.952 150.558 219.119 155.785 220.172C157.026 220.422 155.138 221.428 154.446 221.288C151.3 220.654 148.253 218.995 146.298 216.676C146.416 220.902 148.943 224.748 152.882 226.944C153.255 227.151 151.401 227.991 150.83 227.672C149.723 227.055 148.735 226.31 147.874 225.47C150.647 232.246 157.83 237.49 165.889 234.683C166.221 234.567 166.621 234.552 166.913 234.605C167.036 231.94 168.251 229.54 170.019 227.418C171.034 226.201 172.228 225.075 173.502 224.045C174.838 222.964 176.259 221.986 177.652 221.116C177.438 221.027 177.29 220.864 177.288 220.611C177.21 214.788 174.517 203.737 165.997 206.438C165.562 206.576 165.249 206.524 165.052 206.389C165.815 207.585 166.208 208.906 166.152 210.269ZM125.945 228.549C127.093 229.085 128.106 229.947 128.905 231.094C129.034 231.281 128.923 231.468 128.701 231.627C128.788 231.654 128.86 231.695 128.905 231.752C129.709 232.773 130.228 233.983 130.192 235.204C130.301 234.714 130.411 234.241 130.518 233.81C130.548 233.693 130.644 233.588 130.779 233.495C130.863 233.437 130.965 233.386 131.075 233.34C131.074 233.212 131.787 232.909 132.314 232.74C132.519 232.674 132.699 232.628 132.791 232.624C132.928 232.617 133.064 232.603 133.201 232.593C135.165 232.449 137.178 231.993 139.123 231.608C139.449 231.544 139.772 231.481 140.093 231.423C141.748 231.123 143.404 230.82 145.051 230.484C145.727 230.346 146.405 230.212 147.075 230.049C147.364 229.978 147.85 229.674 147.382 230.041C147.462 229.978 147.618 229.918 147.805 229.866C145.832 227.296 144.603 224.106 144.479 220.566C144.475 220.453 144.54 220.348 144.647 220.255C144.129 218.585 143.975 216.798 144.259 214.976C144.288 214.791 144.561 214.626 144.903 214.51C144.11 212.802 143.879 210.866 144.48 208.797C144.666 208.153 145.886 207.952 146.442 208.17C146.892 208.345 147.341 208.497 147.79 208.657C147.223 207.146 146.611 205.65 146.108 204.118C145.902 203.485 148.078 202.908 148.294 203.566C148.953 205.576 149.797 207.523 150.48 209.524C154.834 210.766 159.222 211.259 163.885 211.01C163.898 210.912 163.901 210.815 163.909 210.717C162.257 207.728 160.829 204.625 160.304 201.267C160.188 200.522 161.921 200.053 162.381 200.511C164.898 199.927 167.454 199.687 170.044 199.627C170.09 199.498 170.217 199.361 170.453 199.222C171.725 198.47 172.06 195.732 172.318 194.501C172.805 192.168 173.14 189.803 173.268 187.428C173.577 181.69 173.331 175.462 170.491 170.245C170.424 170.256 170.359 170.262 170.296 170.262C147.994 169.989 125.535 166.62 105.891 156.308C108.326 163.698 108.175 172.347 108.25 179.809C108.295 184.309 108.34 188.82 108.191 193.319C108.068 197.014 108.088 200.974 106.847 204.525C106.677 205.012 104.592 205.221 104.699 204.914C106.12 200.849 105.985 196.144 106.051 191.912C106.115 187.811 106.129 183.704 106.054 179.603C105.899 171.174 106.107 161.29 102.352 153.458C102.332 153.417 102.362 153.368 102.422 153.314C100.189 149.736 95.4412 149.493 93.155 153.544C91.9105 155.751 91.1464 158.155 90.6501 160.605C89.6771 165.407 89.2276 170.402 88.9364 175.277C88.4393 183.59 88.7976 191.94 90.2262 200.163C90.6878 202.82 91.1524 205.534 91.7724 208.197C91.9821 208.27 91.9776 208.393 91.8517 208.53C92.1579 209.817 92.4988 211.092 92.9023 212.339C93.5578 214.372 97.1783 221.289 100.749 219.815C102.008 216.994 105.554 215.354 108.314 214.097C108.731 213.907 109.15 213.719 109.57 213.531C109.514 213.061 110.696 212.46 111.312 212.653C111.357 212.667 111.4 212.686 111.445 212.701C114.626 211.316 117.88 210.018 121.172 208.974C126.773 207.199 132.518 205.981 138.222 204.554C143.336 203.275 148.412 202.062 153.738 202.139C154.782 202.154 152.72 202.922 152.302 202.917C146.579 202.834 141.218 204.458 135.727 205.741C131.092 206.823 126.407 207.846 121.902 209.355C118.688 210.433 115.508 211.703 112.395 213.042C118.994 215.603 124.148 222.221 125.945 228.549ZM126.336 237.153C126.614 237.304 126.914 237.477 127.223 237.612C127.244 237.6 127.258 237.59 127.281 237.576C127.349 237.497 127.418 237.416 127.485 237.337C127.642 237.12 127.762 236.887 127.847 236.638C128.28 235.162 127.813 233.718 126.862 232.513C126.722 232.335 126.834 232.147 127.064 231.987C126.975 231.959 126.905 231.916 126.862 231.855C126.36 231.132 125.467 230.173 124.442 229.526C124.137 229.508 123.885 229.396 123.79 229.17C122.847 228.738 121.841 228.635 120.946 229.254C119.237 230.435 119.397 232.477 120.901 233.776C122.435 235.102 124.539 236.174 126.336 237.153ZM131.264 251.667C128.416 247.921 128.973 241.33 129.92 236.505C129.867 236.639 129.822 236.773 129.752 236.905C129.345 237.673 128.458 238.367 127.503 238.65C128.05 243.339 128.197 248.353 127.674 253.288C129.06 253.185 130.141 252.386 131.264 251.667ZM162.533 251.828C167.71 251.357 172.892 250.482 177.532 248.633C173.008 245.376 168.576 241.305 166.588 236.796C166.438 236.455 166.626 236.162 166.945 235.972C166.921 235.712 166.908 235.454 166.904 235.2C166.838 235.227 166.765 235.256 166.682 235.286C159.538 237.773 152.455 235.41 148.271 230.45C146.148 231.368 142.88 231.502 140.962 231.854C138.241 232.353 135.431 233.024 132.644 233.298C132.697 233.357 132.72 233.431 132.696 233.526C131.528 238.207 129.921 247.013 133.612 251.286C133.808 251.275 133.985 251.299 134.105 251.369C136.285 252.657 139.311 252.693 141.955 252.671C142.4 252.667 142.836 252.663 143.253 252.661C146.574 252.65 149.892 252.514 153.21 252.379C156.229 252.256 159.379 252.116 162.533 251.828ZM226.561 255.432C238.118 250.919 246.501 239.666 253.075 230.114C256.299 225.427 259.315 220.6 261.992 215.616C263.188 213.391 265.153 210.61 265.485 208.075C265.616 207.08 267.853 206.835 267.707 207.946C267.329 210.831 265.187 213.927 263.804 216.443C260.829 221.856 257.551 227.139 253.941 232.199C253.059 233.434 252.136 234.719 251.171 236.025C255.2 242.143 261.474 246.221 267.961 249.812C273.526 252.892 280.317 256.688 287.004 256.163C288.524 256.042 287.727 257.15 286.686 257.231C279.797 257.774 273.024 254.543 267.248 251.346C264.527 249.84 261.816 248.282 259.26 246.551C258.862 252.499 256.47 258.638 254.467 264.27C256.482 265.776 260.352 266.29 262.725 266.986C268.063 268.553 273.429 270.037 278.807 271.481C288.376 274.048 298.106 277.034 307.943 278.559C308.86 278.701 308.739 279.297 308.264 279.685C307.979 279.917 307.567 280.075 307.174 280.014C296.894 278.419 286.725 275.317 276.73 272.617C271.228 271.13 265.731 269.622 260.276 267.99C258.464 267.448 255.856 267.015 253.933 266.103C253.863 266.069 253.791 266.037 253.723 266.003C253.494 265.887 253.282 265.759 253.078 265.626C252.497 265.727 251.924 265.681 252.016 265.417C254.137 259.376 256.913 252.641 257.126 246.228C257.135 245.959 257.506 245.752 257.94 245.627C256.33 244.467 254.801 243.225 253.388 241.868C252.901 243.892 252.147 245.922 251.599 247.885C250.034 253.478 248.468 259.071 246.916 264.668C245.337 270.365 243.76 276.064 242.255 281.779C241.719 283.816 241.18 285.853 240.699 287.902C240.555 288.511 240.407 289.123 240.294 289.738C240.276 289.836 240.265 289.907 240.256 289.974C243.479 290.44 246.797 291.752 249.905 292.585C257.317 294.573 264.739 296.538 272.176 298.445C280.568 300.596 288.974 302.713 297.436 304.606C302.653 305.774 308.299 307.423 313.711 307.488C313.716 307.488 313.719 307.489 313.723 307.489C317.456 294.979 320.366 282.224 323.437 269.563C328.311 249.477 333.038 229.361 337.735 209.238C343.11 186.21 348.426 163.168 353.756 140.131C355.484 132.66 357.207 125.191 358.964 117.727C359.443 115.692 359.92 113.657 360.421 111.628C360.486 111.365 360.533 111.014 360.605 110.664C340.014 106.606 319.414 102.573 298.866 98.3215C296.422 97.8154 293.976 97.3137 291.541 96.7685C285.63 113.602 279.849 130.497 274.663 147.542C274.592 147.775 274.209 147.961 273.785 148.067C274.604 148.638 275.444 149.157 276.306 149.598C278.223 150.58 280.74 150.844 282.788 151.569C283.307 151.754 283.835 151.954 284.365 152.166C284.458 152.087 284.58 152.011 284.74 151.943C283.963 152.278 284.774 151.16 284.978 150.515C285.186 149.857 285.393 149.2 285.588 148.54C285.879 147.559 286.164 146.578 286.438 145.594C286.633 144.898 287.515 144.685 288.18 144.832C305.468 148.68 322.839 153.242 340.37 156.011C340.89 155.68 341.758 155.583 342.077 156.027C343.047 157.375 341.402 161.554 341.107 162.925C339.867 168.701 338.496 174.452 337.111 180.198C331.815 202.165 326.213 224.07 320.432 245.927C318.146 254.572 315.853 263.219 313.382 271.818C312.947 273.334 311.856 281.295 309.318 281.334C307.924 281.354 308.247 280.074 309.301 279.894C308.482 280.026 308.384 280.741 308.701 279.944C308.719 279.899 308.734 279.853 308.75 279.808C308.878 279.479 308.999 279.148 309.111 278.814C309.527 277.578 309.901 276.328 310.272 275.079C311.289 271.646 312.25 268.197 313.199 264.747C313.435 263.89 313.674 263.035 313.908 262.177C316.51 252.649 319.038 243.101 321.525 233.544C324.647 221.547 327.698 209.534 330.693 197.51C333.031 188.122 335.351 178.728 337.512 169.303C338.189 166.349 338.867 163.392 339.45 160.419C339.557 159.877 339.847 158.378 339.991 157.53C322.662 154.82 305.492 150.365 288.402 146.523C287.991 148.559 287.432 151.837 286.06 152.891C292.107 155.644 297.957 160.22 297.97 166.968C297.983 173.585 293.31 179.925 287.247 183.094C284.284 184.643 281.104 185.666 277.967 185.692C277.953 185.723 277.94 185.757 277.925 185.789C277.926 185.795 277.93 185.8 277.932 185.805C278.487 188.618 281.141 190.719 283.152 192.696C285.698 195.2 288.316 197.58 291.054 199.905C297.205 205.129 303.541 211.326 312.156 212.406C313.628 212.591 312.281 213.826 311.344 213.708C303.148 212.681 297.015 207.559 291.106 202.514C287.686 199.595 284.347 196.662 281.134 193.544C279.483 191.942 277.472 190.239 276.398 188.166C275.436 189.303 274.233 190.283 272.882 191.129C272.358 191.457 271.813 191.766 271.25 192.055C267.197 194.122 262.252 195.178 258.349 195.596C256.264 195.819 254.147 195.991 252.013 196.094C250.234 196.182 248.444 196.217 246.65 196.203C239.8 196.153 232.921 195.319 226.533 193.262C222.123 203.99 214.216 213.683 203.27 219.097C198.514 221.45 191.286 224.232 185.551 222.733C185.4 222.693 185.25 222.654 185.101 222.608C185.141 222.641 185.182 222.674 185.222 222.706C190.803 227.3 198.097 231.216 204.975 232.125C210.357 232.836 217.217 232.401 221.218 228.454C222.838 226.855 224.195 225.015 225.515 223.194C228.84 218.609 231.918 213.873 235.038 209.164C235.991 207.728 237.111 204.806 239.375 204.954C239.92 204.989 239.693 205.207 239.269 205.414C239.39 205.378 239.51 205.342 239.631 205.308C238.468 206.254 237.666 208.093 236.867 209.303C235.279 211.711 233.696 214.123 232.079 216.514C229.311 220.605 226.578 225.519 222.668 228.774C217.687 232.922 209.512 234.023 203.181 232.934C194.761 231.485 186.182 226.625 180.214 220.774C174.591 224.153 168.007 229.338 169.239 236.247C169.267 236.398 169.157 236.539 168.977 236.659C171.36 241.62 177.034 246.134 181.977 249.32C182.729 249.804 183.464 250.259 184.167 250.679C186.094 251.83 188.141 252.868 190.274 253.781C201.508 258.585 215.156 259.885 226.561 255.432ZM312.264 337.444C313.657 336.226 315.606 335.194 316.794 334.008C321.073 329.734 323.366 324.644 324.624 318.924C325.791 313.626 326.003 308.189 327.191 302.9C327.984 299.375 328.849 295.863 329.68 292.345C333.709 275.289 337.688 258.222 341.644 241.15C348.449 211.767 355.208 182.374 361.8 152.946C363.904 143.549 366.018 134.152 367.996 124.73C368.536 122.164 369.055 119.595 369.506 117.014C370.422 111.768 374.274 103.896 366.707 102.034C366.389 101.955 366.774 101.71 367.278 101.512C358.876 99.3208 350.512 96.9832 342.186 94.5631C327.713 90.3549 312.936 86.0187 297.74 85.0173C294.334 84.7934 290.482 84.0578 287.856 86.6357C286.135 88.3258 284.867 90.3485 283.874 92.4878C281.601 97.3826 280.224 102.563 278.669 107.685C275.132 119.332 272.6 131.387 268.162 142.771C268.134 142.844 268.084 142.909 268.025 142.972C269.48 144.505 271.033 145.984 272.681 147.257C277.921 130.085 283.756 113.063 289.718 96.1019C289.907 95.5638 291.373 95.2312 291.826 95.5695C293.166 96.5709 298.934 97.0855 301.011 97.5141C321.012 101.643 341.056 105.579 361.096 109.528C361.121 109.503 361.142 109.472 361.169 109.451C361.599 109.102 363.773 108.897 362.876 109.627C363.074 109.466 363.081 109.631 363.015 109.906C363.134 109.929 363.254 109.953 363.374 109.977C363.781 110.057 363.359 110.357 362.808 110.586C362.732 110.81 362.661 111.018 362.63 111.144C362.242 112.72 361.867 114.299 361.494 115.878C360.197 121.368 358.924 126.862 357.65 132.358C353.536 150.114 349.443 167.876 345.322 185.63C339.613 210.241 333.879 234.847 327.978 259.417C324.078 275.656 320.465 292.052 315.628 308.073C315.536 308.374 314.928 308.597 314.378 308.671C314.179 308.854 313.884 308.983 313.513 308.98C308.366 308.918 303.126 307.516 298.147 306.42C289.79 304.58 281.487 302.521 273.205 300.407C265.367 298.406 257.547 296.347 249.737 294.255C246.633 293.423 241.821 291.767 239.253 291.418C239.154 291.415 239.057 291.405 238.968 291.376C238.931 291.364 238.898 291.344 238.862 291.331C238.817 291.336 238.772 291.34 238.729 291.339C238.722 291.339 238.714 291.339 238.707 291.339C238.542 291.335 238.197 291.273 238.105 291.112C237.212 289.543 239.251 285.085 239.656 283.538C241.163 277.762 242.75 272.003 244.343 266.246C245.97 260.366 247.616 254.49 249.26 248.614C250.012 245.926 251.133 243.118 251.537 240.356C251.551 240.258 251.597 240.169 251.666 240.087C251.021 239.363 250.408 238.608 249.833 237.816C247.232 241.24 244.343 244.733 241.133 247.84C241.158 247.908 241.175 247.98 241.175 248.064C241.155 252.691 238.63 257.971 237.262 262.339C234.906 269.862 232.455 277.358 230.021 284.858C228.531 289.448 227.003 294.032 225.631 298.654C224.575 302.209 223.811 306.786 226.208 309.999C229.784 314.788 236.739 316.57 242.375 318.424C248.71 320.509 255.093 322.464 261.493 324.364C274.654 328.274 287.904 332.248 301.359 335.176C304.916 335.952 308.593 336.823 312.264 337.444ZM377.615 104.03C377.464 104.053 377.319 104.056 377.197 104.026C375.428 103.594 373.665 103.14 371.901 102.692C372.884 103.438 373.512 104.484 373.482 106.013C373.404 109.941 372.142 113.895 371.467 117.752C370.938 120.776 370.276 123.78 369.635 126.783C366.808 140.004 363.825 153.195 360.843 166.385C353.98 196.739 346.999 227.069 339.939 257.384C336.736 271.141 333.517 284.895 330.254 298.641C328.214 307.233 328.259 316.42 324.927 324.715C323.452 328.387 321.179 331.693 318.158 334.409C317.017 335.434 314.972 336.489 313.805 337.692C315.061 337.877 316.315 338.031 317.562 338.13C326.069 338.805 330.037 333.307 332.573 326.538C332.545 326.489 332.528 326.434 332.538 326.365C334.2 314.684 337.442 303.032 339.942 291.494C344.893 268.649 349.908 245.816 355.013 223.001C359.562 202.669 364.061 182.313 369.102 162.082C370.722 155.576 372.772 149.179 374.397 142.677C376.268 135.191 377.881 127.651 379.709 120.156C380.499 116.913 382.189 113.692 382.379 110.34C382.574 106.886 380.553 105.094 377.615 104.03ZM276.382 312.209C275.979 315.948 272.564 318.43 268.63 318.323C260.478 318.1 260.622 307.308 267.935 306.41C267.59 306.015 268.527 305.158 269.313 305.183C273.332 305.309 276.815 308.198 276.382 312.209ZM274.101 311.024C273.616 308.806 272.127 307.322 269.985 306.809C269.924 307.236 269.181 307.801 268.534 307.773C262.29 307.503 263.806 318.38 270.403 316.786C273.098 316.136 274.663 313.599 274.101 311.024ZM119.199 117.533C120.399 113.402 128.077 115.391 132.134 115.588C133.087 113.249 134.21 108.704 136.111 106.154C136.013 105.965 136.085 105.719 136.454 105.444C136.838 105.159 137.202 104.938 137.551 104.771C138.668 104.083 140.003 104.095 141.628 105.306C141.881 105.495 141.924 105.7 141.843 105.89C143.94 108.5 144.972 113.751 146.068 115.894C149.182 115.884 159.127 114.525 159.196 117.621C159.237 119.451 157.083 121.322 155.88 122.572C154.629 123.873 152.777 125.125 151.774 126.598C151.663 126.761 151.378 126.879 151.05 126.957C151.108 127.783 151.719 128.801 151.997 129.493C152.581 130.953 153.198 132.43 153.554 133.958C154.052 136.096 154.253 138.403 152.188 139.835C148.043 142.711 142.854 136.675 139.235 134.297C136.808 135.698 132.66 138.805 129.266 139.787C129.065 139.976 128.762 140.117 128.391 140.126C128.04 140.135 127.727 140.117 127.43 140.088C125.971 140.102 124.797 139.454 124.195 137.694C124.113 137.454 124.226 137.238 124.434 137.068C124.353 133.874 127.104 129.004 127.578 126.593C127.074 126.217 126.468 125.903 126.015 125.604C124.707 124.741 123.413 123.867 122.194 122.894C120.584 121.606 118.564 119.72 119.199 117.533ZM121.455 118.911C122.461 121.103 124.901 122.608 126.901 123.933C127.642 124.423 128.74 124.96 129.547 125.622C129.649 125.671 129.73 125.739 129.781 125.827C130.01 126.039 130.21 126.262 130.35 126.502C130.664 127.041 130.03 127.514 129.38 127.646C128.274 130.621 125.675 136.179 127.033 138.067C129.149 139.594 134.728 135.433 137.866 133.478C137.528 132.982 139.121 132.228 139.815 132.533C139.817 132.534 139.819 132.535 139.821 132.536C140.426 132.48 140.971 132.791 140.968 133.147C142.526 134.091 143.903 135.394 145.35 136.432C146.811 137.481 151.519 140.998 151.685 137.19C151.786 134.893 150.844 132.614 149.996 130.498C149.569 129.432 148.683 128.001 148.855 126.815C148.932 126.287 149.803 125.967 150.429 126.027C151.175 125.282 152.08 124.601 152.779 123.901C153.97 122.705 157.059 120.255 157.017 118.392C156.958 115.793 150.385 116.388 146.312 116.618C146.144 117.292 144.616 117.706 144.235 117.083C144.173 116.982 144.104 116.844 144.03 116.676C143.872 116.668 143.727 116.657 143.608 116.638C143.375 116.602 143.552 116.452 143.874 116.294C142.802 113.556 140.784 106.063 138.572 106.053C138.136 106.214 137.799 106.705 137.426 107.377C136.79 108.527 136.303 109.739 135.88 110.972C135.362 112.486 134.98 114.156 134.303 115.653C134.668 115.934 134.306 116.611 133.635 116.864C133.169 117.314 131.96 117.416 131.651 117.044C130.04 117.019 128.394 116.715 126.827 116.604C125.168 116.486 120.085 115.927 121.455 118.911ZM306.681 119.629C305.804 124.542 303.292 132.775 296.782 133.113C288.085 133.565 291.566 110.326 301.465 111.737C306.757 108.789 307.343 115.928 306.681 119.629ZM300.765 129.459C302.73 127.043 303.788 123.213 304.237 121.006C304.43 120.059 305.048 115.671 304.335 113.675C304.245 113.424 304.133 113.212 303.998 113.048C303.961 113.106 303.909 113.163 303.85 113.218C303.446 113.597 302.559 113.881 302.061 113.638C297.423 111.366 295.001 119.41 294.506 122.329C294.203 124.114 293.436 131.171 296.643 131.615C296.88 131.648 297.136 131.648 297.419 131.604C298.75 131.395 299.854 130.578 300.765 129.459ZM318.181 121.088C321.484 121.729 324.788 122.365 328.09 123.011C331.495 123.677 334.897 124.354 338.292 125.064C338.836 125.179 343.962 126.665 344.186 126.395C344.067 126.537 345.943 126.496 346.339 126.021C346.347 126.013 346.353 126.005 346.36 125.997C346.365 125.967 346.371 125.938 346.376 125.908C345.811 125.191 343.609 125.053 342.784 124.867C339.453 124.118 336.098 123.461 332.746 122.796C329.179 122.088 325.609 121.398 322.039 120.708C321.307 120.567 317.049 119.862 317.03 119.79C316.913 119.36 314.723 119.899 314.844 120.343C314.958 120.757 317.834 121.02 318.181 121.088ZM343.567 133.891C343.573 133.861 343.578 133.832 343.584 133.802C343.018 133.085 340.816 132.948 339.991 132.761C336.66 132.013 333.305 131.355 329.953 130.691C326.386 129.983 322.816 129.294 319.246 128.604C318.514 128.462 314.256 127.757 314.237 127.686C314.12 127.255 311.93 127.794 312.051 128.238C312.163 128.653 315.04 128.916 315.387 128.983C318.69 129.623 321.994 130.26 325.297 130.906C328.701 131.572 332.104 132.248 335.498 132.959C336.043 133.073 341.169 134.559 341.393 134.289C341.274 134.432 343.151 134.39 343.546 133.916C343.554 133.907 343.561 133.898 343.567 133.891ZM299.449 197.45C298.117 197.819 298.5 199.204 299.842 198.831C303.54 197.806 306.318 199.857 308.419 202.539C308.998 203.278 311.083 202.484 310.422 201.64C307.733 198.206 304.005 196.185 299.449 197.45ZM309.055 191.65C304.903 188.1 299.202 188.936 294.068 189.393C293.505 189.443 291.684 190.349 293.121 190.22C297.951 189.791 303.093 189.014 306.996 192.35C307.426 192.719 309.389 191.936 309.055 191.65ZM283.76 262.845C282.833 262.773 281.465 264.028 282.947 264.143C296.65 265.204 309.19 252.347 310.52 240.139C310.621 239.211 308.408 239.571 308.323 240.357C307.139 251.233 296.272 263.814 283.76 262.845ZM314.832 228.924C314.832 229.998 317.045 229.676 317.045 228.762C317.044 226.2 316.983 223.649 316.566 221.111C316.411 220.169 314.219 220.686 314.38 221.663C314.777 224.072 314.831 226.49 314.832 228.924ZM258.811 273.504C258.117 273.468 256.985 273.895 257.125 274.297C257.591 275.631 257.195 277.412 256.292 278.513C255.661 279.283 254.782 279.718 253.779 279.436C253.351 279.316 252.899 279.066 252.434 278.654C249.786 276.3 253.315 272.949 256.13 273.187C256.649 273.232 257.253 273.092 257.676 272.797C257.854 272.672 257.916 272.533 257.877 272.423C257.842 272.322 257.726 272.247 257.523 272.227C257.519 272.227 257.517 272.224 257.512 272.224C256.962 272.178 256.326 272.219 255.655 272.333C251.906 272.976 247.095 275.969 250.388 279.401C252.019 281.103 255.129 280.778 256.97 279.609C259 278.32 260.096 275.992 259.311 273.745C259.256 273.588 259.061 273.517 258.811 273.504ZM271.497 280.595C271.087 282.614 268.736 283.889 266.643 283.84C264.783 283.798 262.185 283.177 262.185 280.996C262.185 279.093 263.976 277.738 265.691 277.08C265.936 276.986 266.197 276.96 266.431 276.98C266.264 276.562 267.806 275.913 268.393 276.14C270.206 276.842 271.9 278.608 271.497 280.595ZM269.337 280.393C269.331 280.219 269.313 280.044 269.266 279.869C268.969 278.742 268.22 277.929 267.186 277.402C267.219 277.583 267.06 277.794 266.571 277.981C265.445 278.413 264.144 279.499 264.391 280.796C264.609 281.939 265.808 282.631 267.008 282.636C267.193 282.636 267.378 282.624 267.56 282.591C268.706 282.382 269.369 281.425 269.337 280.393ZM37.2865 169.11C40.6588 164.35 47.2994 164.861 50.6883 168.972C54.6339 164.937 63.0613 163.683 65.3105 170.025C68.0289 177.69 59.1678 185.446 51.3822 186.594C51.119 186.681 50.8761 186.739 50.7456 186.733C50.6272 186.727 50.5057 186.713 50.3843 186.703C50.2651 186.712 50.1452 186.724 50.026 186.73C49.6112 186.749 49.4671 186.687 49.4777 186.591C41.9509 185.335 32.2095 176.279 37.2865 169.11ZM38.5476 175.177C40.256 180.149 45.8436 185.249 51.6047 185.809C57.6585 185.064 65.0797 177.861 63.538 171.93C62.0068 166.041 54.8111 164.583 51.5881 170.266C51.7518 170.616 49.6987 171.34 49.4015 170.811C48.0114 168.335 43.7091 164.5 40.5736 167.464C38.5227 169.402 37.6417 172.54 38.5476 175.177ZM175.237 294.534C177.106 296.73 179.15 299.901 177.302 302.367C176.377 303.602 174.991 304.336 173.474 304.753C173.785 306.953 173.339 309.228 171.183 310.513C169.178 311.709 166.592 311.744 164.374 311.098C163.619 310.877 162.818 310.549 162.089 310.116C157.901 310.233 152.965 310.588 149.305 308.83C148.178 308.289 147.309 307.609 146.633 306.828C146.517 307.182 146.121 307.509 145.54 307.509C142.476 307.507 138.507 307.945 136 305.919C133.748 304.101 133.527 300.116 133.45 297.562C133.241 290.599 136.961 285.586 144.781 287.949C144.914 287.99 145.01 288.041 145.087 288.096C145.549 287.149 146.246 286.286 147.237 285.545C147.406 285.418 147.813 285.317 148.211 285.275C145.789 279.305 147.987 269.386 155.129 268.089C163.389 266.59 163.925 278.513 163.466 283.646C163.463 283.682 163.45 283.717 163.431 283.749C167.75 283.492 172.897 283.477 176.606 285.643C180.344 287.828 177.997 292.224 175.237 294.534ZM171.264 305.147C170.662 305.201 170.062 305.228 169.485 305.219C167.438 305.186 164.911 304.821 163.039 303.719C162.106 304.607 161.428 305.716 161.927 306.958C162.186 307.606 162.671 308.134 163.258 308.558C163.486 308.556 163.715 308.552 163.941 308.551C164.733 308.55 164.982 308.987 164.853 309.395C165.042 309.466 165.23 309.529 165.416 309.583C166.741 309.969 168.644 310.196 169.866 309.394C171.366 308.411 171.514 306.722 171.264 305.147ZM173.48 295.683C171.13 296.86 168.1 297.317 165.415 296.709C165.409 296.865 165.305 297.045 165.049 297.246C163.671 298.322 162.461 299.923 163.361 301.366C164.309 301.019 165.682 301.771 164.599 302.505C166.217 303.512 168.419 303.836 170.276 303.842C170.596 303.843 170.948 303.828 171.307 303.801C171.708 303.351 172.62 303.177 173.07 303.514C174.095 303.232 175.016 302.727 175.463 301.83C176.474 299.801 174.987 297.467 173.48 295.683ZM175.406 291.921C179.863 284.649 166.714 284.592 162.215 284.895C161.323 284.956 161.227 284.595 161.51 284.273C161.366 284.264 161.274 284.24 161.278 284.199C161.638 280.186 161.698 270.894 156.757 269.027C149.162 266.155 148.841 282.553 151.154 286.228C151.288 286.44 149.26 287.243 148.969 286.78C148.827 286.555 148.697 286.316 148.572 286.071C146.728 287.69 146.326 289.925 146.723 292.255C146.832 292.899 144.633 293.369 144.537 292.807C144.318 291.513 144.362 290.287 144.685 289.155C144.331 289.359 143.884 289.472 143.526 289.364C135.555 286.956 135.017 295.159 136.031 300.469C136.35 302.141 136.734 304.691 138.714 305.381C140.915 306.146 143.417 305.96 145.721 305.962C145.822 305.962 145.912 305.97 145.995 305.983C144.754 304.042 144.463 301.611 144.521 299.061C144.543 298.11 146.764 297.816 146.738 298.912C146.654 302.615 147.389 306.667 151.71 307.838C154.478 308.588 157.416 308.636 160.325 308.597C160.042 308.221 159.817 307.81 159.689 307.355C159.161 305.479 160.23 303.859 161.636 302.609C159.628 300.373 161.695 297.936 163.633 296.423C163.727 296.349 163.837 296.293 163.955 296.252C163.183 295.941 162.459 295.526 161.819 294.993C157.916 291.742 162.983 289.302 166.171 288.597C167.479 288.307 167.772 289.28 166.448 289.572C165.154 289.858 162.116 290.509 162.559 292.361C162.84 293.536 163.903 294.408 165.019 294.921C167.726 296.163 170.449 296.045 172.634 294.725C172.484 294.562 172.336 294.403 172.198 294.257C171.523 293.538 173.607 292.747 174.209 293.386C174.221 293.398 174.233 293.412 174.244 293.425C174.668 292.983 175.06 292.484 175.406 291.921Z" fill="#C4C4C4"/>
</svg>
