<svg width="677" height="677" viewBox="0 0 677 677" fill="none" xmlns="http://www.w3.org/2000/svg">
<path d="M372.86 240.778C373.083 241.023 373.121 241.225 373.136 241.323C373.111 241.292 373.076 241.249 373.062 241.23C373.049 241.077 372.985 240.925 372.86 240.778ZM508.908 191.362V286.889H351.971V191.362H508.908ZM373.18 241.379C373.241 241.325 373.415 241.069 373.982 240.472C375.097 239.299 376.264 238.171 377.421 237.036C380.763 233.76 384.146 230.522 387.491 227.25C390.362 224.44 393.225 221.615 395.941 218.655C396.744 217.78 399.24 215.596 398.711 214.135C398.147 212.582 394.863 213.497 395.416 215.019C395.555 215.401 391.672 219.211 390.984 219.927C387.956 223.081 384.806 226.122 381.672 229.17C378.945 231.821 376.201 234.456 373.49 237.125C372.438 238.161 370.145 239.76 369.721 241.281C369.69 241.398 369.666 241.511 369.656 241.621C369.628 241.74 369.621 241.864 369.656 241.99C370.032 243.342 371.903 244.651 372.835 245.581C375.705 248.443 378.64 251.24 381.547 254.062C384.686 257.108 387.813 260.166 390.859 263.305C391.662 264.134 395.518 268.251 395.496 268.313C394.863 270.057 398.16 269.923 398.63 268.626C399.149 267.196 397.355 265.662 396.525 264.716C393.729 261.526 390.639 258.579 387.615 255.609C384.481 252.533 381.312 249.491 378.165 246.426C376.927 245.22 375.696 244.009 374.486 242.777C374.146 242.431 373.813 242.078 373.484 241.721C373.34 241.571 373.249 241.463 373.18 241.379ZM441.815 210.54C439.812 211.125 440.369 213.263 442.387 212.673C439.778 213.436 440.956 210.979 440.206 212.811C439.845 213.69 439.431 214.549 439.025 215.408C437.842 217.911 436.591 220.383 435.348 222.857C431.728 230.054 428.043 237.217 424.43 244.416C423.173 246.924 410.266 269.318 414.128 271.045C415.429 271.627 417.95 269.759 416.053 268.912C416.932 269.306 417.302 266.584 417.76 265.435C418.928 262.505 420.291 259.647 421.641 256.797C425.133 249.426 428.845 242.158 432.538 234.886C435.684 228.693 438.883 222.524 441.898 216.266C442.431 215.161 445.787 209.379 441.815 210.54ZM491.856 241.356C491.869 241.276 491.863 241.198 491.841 241.123C491.837 241.1 491.843 241.078 491.837 241.056C491.456 239.683 489.598 238.381 488.649 237.435C485.949 234.743 483.191 232.106 480.454 229.452C477.142 226.241 473.838 223.022 470.624 219.711C469.579 218.633 468.556 217.533 467.565 216.404C467.067 215.835 466.227 214.199 466.012 214.792C466.675 212.965 463.37 212.92 462.847 214.364C461.661 217.631 471.476 225.102 473.374 226.966C476.546 230.079 479.747 233.163 482.933 236.26C484.306 237.594 485.673 238.933 487.015 240.298C487.355 240.645 487.687 240.998 488.017 241.355C488.195 241.548 488.292 241.664 488.361 241.752C488.309 241.814 488.245 241.889 488.153 241.993C487.831 242.354 487.489 242.7 487.151 243.049C485.95 244.29 484.707 245.491 483.472 246.698C480.33 249.767 477.161 252.809 474.021 255.881C471.151 258.691 468.288 261.516 465.571 264.477C464.812 265.305 462.276 267.522 462.781 268.916C463.299 270.346 466.578 269.415 466.075 268.032C465.871 267.468 469.821 263.735 470.486 263.043C473.514 259.888 476.662 256.846 479.798 253.798C482.705 250.974 485.63 248.169 488.509 245.317C489.452 244.384 491.034 243.207 491.663 241.888C491.77 241.723 491.841 241.545 491.856 241.356ZM311.401 253.528H138.541V149.663H311.4V253.528H311.401ZM210.56 235.58C190.718 235.58 170.877 235.58 151.035 235.58C149.577 235.58 147.618 237.794 149.845 237.794C169.688 237.794 189.529 237.794 209.371 237.794C210.829 237.794 212.789 235.58 210.56 235.58ZM297.369 235.58C273.807 235.58 250.245 235.58 226.682 235.58C225.224 235.58 223.265 237.794 225.493 237.794C249.055 237.794 272.617 237.794 296.179 237.794C297.636 237.794 299.597 235.58 297.369 235.58ZM298.609 211.758C249.418 211.758 200.227 211.758 151.035 211.758C149.577 211.758 147.618 213.972 149.845 213.972C199.036 213.972 248.227 213.972 297.419 213.972C298.877 213.974 300.836 211.758 298.609 211.758ZM149.845 188.448C169.688 188.448 189.529 188.448 209.371 188.448C210.829 188.448 212.788 186.234 210.56 186.234C190.718 186.234 170.877 186.234 151.035 186.234C149.577 186.234 147.618 188.448 149.845 188.448ZM225.492 188.448C249.054 188.448 272.616 188.448 296.178 188.448C297.636 188.448 299.596 186.234 297.368 186.234C273.806 186.234 250.243 186.234 226.681 186.234C225.224 186.234 223.264 188.448 225.492 188.448ZM298.609 162.412C249.418 162.412 200.227 162.412 151.035 162.412C149.577 162.412 147.618 164.626 149.845 164.626C199.036 164.626 248.227 164.626 297.419 164.626C298.877 164.626 300.836 162.412 298.609 162.412ZM141.834 494.626C139.205 489.69 137.513 484.202 136.546 478.406C137.125 484.874 139.123 490.23 141.834 494.626ZM301.6 436.909C304.328 436.71 306.914 435.764 309.372 434.274C307.006 435.279 304.318 436.255 301.6 436.909ZM307.394 443.985C304.371 444.242 301.404 444.971 298.512 446.008C301.034 445.337 303.981 444.647 307.394 443.985ZM364.466 402.513C356.86 402.436 347.562 401.657 342.674 395.395C342.154 395.438 341.657 395.323 341.374 394.981C341.305 394.898 341.236 394.808 341.168 394.723C330.363 410.392 319.498 442.698 295.643 438.011C295.105 437.905 294.589 437.76 294.071 437.619C292.697 437.441 291.243 436.869 289.755 435.992C280.751 431.57 274.775 421.982 269.243 413.87C267.614 411.482 265.713 408.348 263.543 405.109C261.372 402.174 259.055 399.103 257.125 396.682C255.245 394.608 253.23 392.772 251.082 391.398C248.973 390.633 245.846 389.631 243.353 388.854C242.939 388.847 242.521 388.858 242.098 388.893C241.031 388.984 241.139 388.672 241.63 388.32C241.099 388.156 240.641 388.017 240.279 387.907C238.759 388.272 237.375 389.398 236.125 390.873C236.909 395.421 237.775 413.737 228.227 410.016C222.89 407.936 219.421 400.608 218.4 395.307C217.311 389.661 217.259 383.914 218.09 378.243C217.259 378.074 216.175 377.861 215.155 377.693C214.312 377.575 213.472 377.479 212.632 377.404C211.32 377.409 203.779 377.7 197.715 378.278C186.634 380.599 176.431 386.534 167.998 394.931C166.345 396.576 164.763 398.302 163.223 400.069L150.62 418.165C143.968 430.333 139.774 443.861 138.955 457.596C138.242 469.55 138.607 482.742 144.433 493.542C150.703 505.165 161.914 511.62 174.46 514.311C176.622 514.677 179.019 515.075 181.485 515.47C203.118 518.206 225.678 514.172 246.419 508.154C248.528 507.542 250.636 506.913 252.719 506.217C252.72 506.214 252.72 506.212 252.722 506.209C253.147 504.968 253.543 503.717 253.891 502.453C253.905 502.397 253.919 502.341 253.935 502.287C254.621 498.656 255.599 493.535 256.502 489.022C257.1 483.153 256.874 477.239 255.323 471.599C254.77 471.364 254.503 470.944 255.004 470.46C254.655 469.332 254.234 468.219 253.769 467.118C244.111 473.019 231.983 475.869 221.019 477.629C210.195 479.366 195.445 481.341 185.49 475.282C175.675 469.309 177.658 456.294 180.159 446.784C183.175 435.312 188.411 424.68 191.859 413.377C192.258 412.072 195.613 411.652 195.182 413.067C192.261 422.639 187.844 431.693 184.949 441.286C182.458 449.537 177.737 464.306 185.23 471.4C193.628 479.353 209.583 477.324 219.906 475.667C227.271 474.486 235.238 472.905 242.557 470.147C237.31 453.859 240.728 438.756 244.165 422.442C244.479 420.949 247.855 420.549 247.506 422.202C244.148 438.137 240.739 452.927 245.73 468.857C248.32 467.718 250.802 466.409 253.107 464.883C253.689 464.497 254.608 464.495 255.226 464.727C255.841 464.639 256.405 464.72 256.58 465.095C257.103 466.221 257.558 467.37 257.956 468.533C274.406 457.779 291.697 440.572 312.388 441.672C312.53 441.68 312.654 441.696 312.764 441.718C321.468 440.359 330.358 446.879 336.372 452.421C336.914 452.921 337.481 453.46 338.054 454.015L338.209 454.099C345.877 447.823 352.089 439.43 356.928 430.903C361.737 422.435 366.258 412.845 366.249 402.905C366.227 402.913 366.205 402.92 366.183 402.927C365.114 403.261 363.312 403.049 364.466 402.513Z" fill="#E5E5E5"/>
<path d="M235.094 353.768C235.07 351.223 234.562 347.423 231.173 348.037C230.87 348.092 229.576 348.161 229.796 347.504C230.02 346.833 231.11 346.588 231.696 346.483C233.349 346.182 235.573 346.103 236.833 347.455C238.188 348.91 238.373 350.986 238.39 352.883C238.4 354.017 235.101 354.589 235.094 353.768ZM288.62 376.021C293.064 373.049 292.966 367.489 292.219 362.74C291.991 361.283 288.686 362.105 288.925 363.624C289.497 367.266 289.969 372.26 286.459 374.608C284.599 375.852 287.333 376.882 288.62 376.021ZM278.198 387.611C278.947 387.78 279.975 387.54 280.528 386.987C280.673 386.841 280.818 386.698 280.967 386.558C281.013 386.515 281.393 386.204 281.266 386.295C281.33 386.252 281.396 386.212 281.461 386.173C281.469 386.17 281.506 386.153 281.53 386.144C281.555 386.143 281.564 386.142 281.602 386.141C282.359 386.122 283.325 385.914 283.773 385.226C284.193 384.584 283.42 384.188 282.864 384.202C280.863 384.249 279.271 384.987 277.87 386.389C277.38 386.879 277.488 387.452 278.198 387.611ZM82.6961 379.634C81.3825 379.597 79.2092 381.546 81.4417 381.609C101.183 382.172 102.874 411.254 104.377 425.64C107.333 453.925 116.612 481.033 116.81 509.702C116.82 511.16 120.122 510.476 120.114 509.322C119.908 479.457 110.522 450.972 107.324 421.476C105.671 406.226 102.802 380.207 82.6961 379.634ZM469.638 465.864C472.873 472.431 461.5 479.507 457.333 482.252C445.244 490.217 431.991 496.444 418.828 502.395C403.754 509.209 388.461 515.522 373.133 521.744C364.064 525.426 354.583 528.681 345.879 533.19C345.321 533.479 344.748 533.47 344.309 533.298C343.222 533.812 341.845 534.132 340.089 534.203C331.847 534.536 323.921 532.57 315.874 531.078C310.78 530.133 305.634 529.668 300.556 528.642C290.26 526.563 280.036 524.112 269.822 521.666C267.079 521.008 264.337 520.35 261.597 519.68C258.745 518.983 259.763 510.027 260.086 508.191C259.133 507.798 259.169 506.554 260.727 506.218C277.445 502.619 294.147 497.482 309.84 490.66C309.02 490.184 308.213 489.581 307.42 488.842C303.298 485.001 300.196 476.85 294.41 475.269C285.855 472.933 279.975 487.472 276.503 492.883C272.046 499.828 266.211 503.709 257.836 503.948C257.537 503.957 257.292 503.917 257.09 503.845C256.711 504.861 256.259 505.761 255.692 506.441C254.461 507.925 250.672 508.37 249.001 508.868C243.173 510.605 237.28 512.138 231.332 513.401C209.771 517.984 184.692 521.4 163.508 513.357C153.048 509.385 146.164 502.76 141.832 494.624C139.203 489.688 137.511 484.199 136.544 478.404C135.384 471.451 135.258 464.065 135.777 456.68C138.005 425.05 160.068 389.103 190.837 378.537C190.609 378.432 190.435 378.267 190.357 378.026C188.19 371.394 186.487 364.526 183.477 358.202C181.543 354.139 177.955 346.479 172.678 346.028C165.693 345.429 158.279 347.007 151.288 348.671C151.246 348.855 151.214 349.039 151.167 349.222C150.969 349.989 147.779 350.412 147.926 349.84C147.959 349.714 147.983 349.583 148.013 349.457C147.412 349.601 146.813 349.744 146.22 349.883C135.151 352.484 124.174 355.514 113.316 358.893C108.869 360.277 104.193 361.555 99.7087 363.194C97.9072 364.678 95.6372 365.727 92.8236 366.169C92.7542 366.205 92.6814 366.236 92.6132 366.272C92.0059 366.592 91.3588 366.57 90.9129 366.363C90.7503 366.374 90.5888 366.383 90.4228 366.387C67.8773 375.351 67.5293 404.883 69.8585 426.071C71.7361 443.158 74.7147 459.748 78.7986 476.437C80.2657 482.43 81.6703 488.449 83.4285 494.364C84.5533 498.146 85.8157 505.57 89.4277 507.89C90.8686 508.815 87.8696 510.271 86.8392 509.609C83.0487 507.175 81.6919 500.49 80.5171 496.539C78.5268 489.846 76.9335 483.054 75.2469 476.28C70.791 458.386 67.5271 440.29 66.0782 421.883C64.4325 400.961 66.8435 376.03 86.2649 366.077C62.0476 361.315 61.6951 306.734 77.7387 307.547C78.1015 307.096 78.7429 306.755 79.4003 306.809C94.6409 299.861 116.785 289.979 131.622 300.327C139.061 305.516 143.931 314.552 147.209 322.787C150.131 330.131 152.823 338.588 151.671 346.613C151.953 346.554 152.235 346.491 152.517 346.433C159.544 344.99 169.334 341.961 176.451 344.437C181.406 346.161 184.792 352.872 186.772 357.319C189.63 363.739 191.475 370.478 193.651 377.141C193.712 377.326 193.69 377.501 193.62 377.665C201.363 375.431 209.62 374.808 218.222 376.245C218.233 376.238 218.238 376.232 218.248 376.225C218.332 376.169 218.408 376.106 218.491 376.051C218.657 375.75 219.033 375.507 219.472 375.342C223.281 372.559 226.47 369.154 229.662 365.716C226.095 366.597 222.405 366.048 220.232 362.311C216.941 356.652 217.259 348.927 221.228 343.614C222.558 341.833 224.212 340.281 226.037 339.033C225.503 339.197 225.179 339.303 225.179 339.303L225.247 338.348C224.799 338.273 224.473 338.043 224.476 337.606C224.604 316.284 230.873 292.139 252.522 282.988C256.342 281.373 260.263 280.434 264.155 280.111C265.593 279.832 267.114 279.822 268.669 280.015C279.013 280.432 288.769 285.237 295.404 293.584C295.979 289.934 298.27 286.943 303.053 288.174C311.541 290.359 313.522 301.096 310.387 308.261C309.123 311.152 307.35 313.365 305.212 315.053C304.839 315.549 304.179 315.98 303.307 316.355C292.678 322.702 275.178 318.817 263.321 317.464C263.035 322.655 262.053 327.622 260.2 332.11C260.097 332.436 259.987 332.752 259.868 333.05C259.663 333.565 259.366 334.118 258.999 334.697C256.627 339.319 253.189 343.316 248.489 346.39C252.486 347.322 256.374 348.758 260.469 349.376C260.649 343.028 262.157 336.103 265.582 331.517C265.955 331.019 267.36 330.704 268.176 330.806C280.354 323.842 285.655 337.451 284.263 349.395C286.583 349.395 288.902 349.395 291.222 349.395C291.281 349.395 291.346 349.4 291.412 349.408C291.952 343.323 293.592 336.931 296.664 332.284C296.963 331.833 298.046 331.521 298.866 331.513C299.703 330.939 300.523 330.488 301.32 330.151C301.185 326.128 301.054 322.246 301.042 318.612C301.039 317.318 304.357 316.706 304.361 318.286C304.372 321.99 304.451 325.698 304.526 329.406C308.293 329.322 311.082 332.312 311.743 337.822C312.597 344.956 312.191 357.694 305.618 362.433C304.73 363.073 303.823 363.58 302.918 363.976C301.455 372.725 298.705 381.546 292.797 388.073C284.171 397.603 271.914 400.215 259.928 395.636C259.847 395.605 259.765 395.566 259.684 395.535C261.595 397.632 263.318 399.896 264.883 402.023C272.086 411.808 278.055 423.72 287.567 431.527C292.629 435.683 297.291 437.22 301.599 436.905C304.327 436.706 306.913 435.76 309.371 434.27C322.172 426.507 331.47 403.867 338.981 393.788C339.163 393.543 339.569 393.364 340.033 393.241C333.64 384.436 327.625 368.478 335.223 359.282C338.117 355.78 342.261 354.096 346.502 352.773C347.674 352.408 348.822 352.005 349.957 351.589C358.075 339.858 348.759 308.45 369.591 309.095C381.409 309.46 379.9 328.581 377.559 341.19C377.846 341.066 378.139 340.984 378.393 340.983C383.575 340.962 386.749 342.708 388.511 345.442C395.364 346.26 398.676 350.549 399.651 355.938C412.373 359.151 405.587 374.961 400.042 382.199C398.637 384.032 395.197 387.404 391.901 389.236C392.184 389.27 392.315 389.371 392.133 389.564C386.044 396.029 377.833 399.217 369.548 401.87C369.612 412.424 364.732 422.915 359.348 431.741C353.988 440.529 347.59 449.014 339.362 455.313C344.296 460.342 349.449 467.138 348.886 474.117C362.884 469.631 376.267 463.171 389.95 457.861C390.921 457.486 391.99 457.879 392.232 458.432C417.669 458.626 443.298 460.482 468.309 465.177C468.571 465.182 468.823 465.225 469.041 465.318C469.51 465.426 469.674 465.627 469.638 465.864ZM91.2007 364.014C92.3163 363.638 93.4627 363.29 94.6717 363C95.6634 362.564 96.6699 362.151 97.69 361.757C104.346 356.534 102.78 343.589 100.575 336.281C97.4853 326.039 90.7332 312.591 79.4548 309.47C79.0329 309.9 78.3631 310.2 77.7057 310.067C68.2094 308.16 70.1314 334.128 70.8388 338.601C72.5811 349.608 77.6136 364.92 91.2007 364.014ZM148.438 347.311C150.514 333.584 142.349 316.05 133.791 306.249C119.92 290.362 97.6286 299.755 81.0857 307.218C94.2941 311.067 102.34 326.753 104.85 339.293C106.27 346.381 106.056 354.547 102.497 360.053C106.668 358.686 110.917 357.518 114.971 356.286C126.011 352.932 137.16 349.795 148.438 347.311ZM399.939 358.427C400.286 364.831 397.892 372.169 394.509 376.99C392.642 379.648 390.453 382.732 387.779 385.025C388.147 389.201 390.163 389.865 393.305 386.792C396.417 383.749 399.026 380.06 400.896 376.126C403.737 370.147 405.512 361.996 399.939 358.427ZM389.74 348.206C391.934 355.755 387.526 367.349 383.657 373.583C382.519 375.414 381.108 377.57 379.437 379.501C379.497 381.458 379.84 387.167 382.542 385.787C384.491 384.792 386.125 383.216 387.562 381.586C390.161 378.637 392.645 375.374 394.337 371.802C396.287 367.683 397.345 361.926 396.469 357.051C396.351 357.026 396.238 356.994 396.116 356.971C395.811 356.91 395.981 356.717 396.354 356.501C395.547 352.714 393.511 349.538 389.74 348.206ZM375.68 349.664C376.717 352.27 376.777 355.405 375.923 357.899C374.223 362.864 370.119 366.635 365.265 369.133C366.195 368.871 367.29 368.987 367.282 369.809C367.265 371.726 367.294 385.084 372.368 382.55C373.734 381.868 374.979 380.88 376.117 379.718C376.112 379.564 376.105 379.407 376.102 379.26C376.087 378.631 376.827 378.169 377.613 378.027C379.591 375.555 381.182 372.646 382.439 370.157C386.639 361.839 392.401 342.947 377.227 342.926C376.672 345.696 376.106 348.038 375.68 349.664ZM353.822 350.091C356.834 348.865 359.807 347.568 362.896 346.378C365.705 345.298 370.378 343.919 373.097 346.057C373.195 346.133 373.284 346.222 373.378 346.303C374.531 340.993 375.249 335.531 375.422 330.142C375.597 324.717 375.995 314.793 370.47 311.481C360.17 305.303 358.682 323.446 358.158 329.224C357.547 335.954 357.532 344.113 353.822 350.091ZM343.248 392.093C343.843 391.981 344.377 392.007 344.533 392.309C348.757 400.52 359.294 401.14 367.458 401.178C367.727 401.179 367.858 401.219 367.9 401.281C368.135 401.232 368.367 401.201 368.582 401.183C375.904 398.826 383.051 396.004 388.574 390.46C386.709 390.692 385.219 389.85 384.662 387.146C383.889 387.542 383.084 387.867 382.237 388.082C378.207 389.11 376.825 385.781 376.345 382.463C374.594 383.793 372.64 384.701 370.482 384.778C363.652 385.026 363.942 374.68 363.981 370.203C363.982 369.99 364.1 369.796 364.289 369.625C360.27 371.514 355.824 372.554 351.824 372.681C349.575 372.753 350.307 370.425 352.143 370.367C359.833 370.124 373.199 364.92 373.079 355.48C373.011 350.09 370.914 345.966 364.941 348.021C361.538 349.192 358.423 350.974 355.112 352.358C348.178 355.256 337.741 355.593 336.022 364.69C334.202 374.323 337.435 384.348 343.248 392.093ZM304.562 331.183C304.717 339.268 304.791 347.355 304.014 355.413C303.817 357.455 303.58 359.549 303.277 361.656C307.49 358.162 308.46 350.015 308.671 345.203C308.815 341.913 308.488 332.12 304.562 331.183ZM300.307 363.165C301.953 353.053 301.716 342.15 301.385 332.038C301.249 332.127 301.118 332.209 300.979 332.312C300.694 332.521 300.079 332.661 299.479 332.703C296.432 338.26 290.532 365.581 300.307 363.165ZM274.774 362.564C285.299 357.991 282.224 324.514 269.886 331.855C269.492 332.088 268.806 332.178 268.23 332.134C263.529 339.758 259.565 369.169 274.774 362.564ZM245.332 341.278C245.428 341.475 245.514 341.689 245.603 341.897L245.652 341.581C245.652 341.581 245.533 341.463 245.332 341.278ZM221.598 376.536C221.574 376.679 221.549 376.821 221.525 376.964C221.74 377.124 221.663 377.334 221.427 377.547C220.067 386.243 220.352 396.327 225.693 403.598C226.346 404.485 230.108 410.113 231.575 407.475C232.352 406.077 232.84 404.56 233.071 402.978C233.454 400.337 233.488 397.722 233.258 395.106C231.93 397.423 230.828 399.755 229.958 401.21C229.306 402.3 225.96 402.453 226.845 400.974C230.451 394.944 234.91 384.127 243.763 385.768C249.774 386.882 254.698 390.869 260.324 393.019C269.608 396.565 279.59 397.252 287.419 390.006C294.562 383.394 298.213 374.522 300.012 364.831C295.529 365.497 291.685 362.94 291.299 356.926C291.178 355.033 291.175 352.992 291.302 350.895C290.857 351.093 290.352 351.193 289.922 351.193C287.949 351.193 285.976 351.193 284.003 351.193C283.13 356.132 281.074 360.575 277.842 362.85C270.873 367.758 261.986 364.762 260.809 356.231C260.568 354.482 260.446 352.557 260.452 350.557C259.847 350.957 258.98 351.283 258.484 351.208C254.143 350.557 250.031 348.882 245.758 348.004C245.719 348.025 245.685 348.046 245.647 348.067C244.943 348.641 244.516 348.974 244.516 348.974L244.595 348.466C243.46 348.667 241.799 348.565 243.366 347.775C243.449 347.734 243.522 347.684 243.604 347.641C242.881 347.548 242.152 347.485 241.415 347.462C239.184 347.39 241.411 345.508 242.685 345.549C242.856 345.555 243.021 345.58 243.19 345.59C242.271 341.291 239.724 336.892 234.56 337.496C230.127 338.016 225.857 340.861 223.698 344.81C219.858 351.837 221.284 370.169 233.415 361.827C234.235 361.264 237.196 361.375 235.814 362.79C231.17 367.539 226.973 372.623 221.598 376.536ZM256.505 489.022C257.104 483.153 256.877 477.239 255.326 471.599C254.773 471.364 254.506 470.944 255.008 470.46C254.658 469.332 254.238 468.219 253.773 467.118C244.115 473.019 231.987 475.869 221.022 477.629C210.199 479.366 195.448 481.341 185.494 475.282C175.679 469.309 177.661 456.294 180.162 446.784C183.178 435.312 188.414 424.68 191.862 413.377C192.262 412.072 195.617 411.652 195.186 413.067C192.265 422.639 187.848 431.693 184.952 441.286C182.462 449.537 177.741 464.306 185.233 471.4C193.632 479.353 209.587 477.324 219.91 475.667C227.275 474.486 235.242 472.905 242.56 470.147C237.314 453.859 240.731 438.756 244.168 422.442C244.482 420.949 247.859 420.549 247.51 422.202C244.151 438.137 240.743 452.927 245.733 468.857C248.324 467.718 250.805 466.409 253.111 464.883C253.693 464.497 254.612 464.495 255.229 464.727C255.845 464.639 256.409 464.72 256.584 465.095C257.107 466.221 257.562 467.37 257.96 468.533C274.41 457.779 291.701 440.572 312.391 441.672C312.534 441.68 312.658 441.696 312.768 441.718C321.471 440.359 330.362 446.879 336.375 452.421C336.918 452.921 337.484 453.46 338.058 454.015C338.097 454.052 338.136 454.09 338.176 454.13C338.188 454.119 338.2 454.11 338.212 454.1C345.881 447.824 352.093 439.431 356.932 430.904C361.74 422.436 366.262 412.846 366.253 402.906C366.23 402.914 366.209 402.921 366.187 402.928C365.115 403.261 363.312 403.049 364.466 402.513C356.86 402.436 347.562 401.657 342.674 395.395C342.154 395.438 341.657 395.323 341.374 394.981C341.306 394.898 341.236 394.808 341.168 394.723C330.363 410.392 319.498 442.698 295.643 438.011C295.105 437.905 294.59 437.76 294.071 437.618C292.556 437.21 291.12 436.663 289.755 435.992C280.751 431.57 274.775 421.982 269.243 413.87C267.614 411.482 265.713 408.348 263.543 405.109C261.615 402.233 259.475 399.275 257.125 396.682C255.245 394.608 253.23 392.772 251.082 391.398C248.672 389.857 246.096 388.899 243.353 388.854C242.939 388.847 242.521 388.858 242.098 388.893C241.032 388.984 241.14 388.672 241.63 388.32C241.861 388.154 242.176 387.982 242.495 387.838C242.107 387.795 241.721 387.773 241.336 387.773C240.977 387.773 240.626 387.824 240.279 387.906C238.759 388.271 237.375 389.397 236.125 390.872C236.909 395.42 237.776 413.736 228.227 410.014C222.89 407.934 219.421 400.607 218.4 395.306C217.311 389.659 217.259 383.913 218.09 378.242C218.093 378.227 218.096 378.213 218.098 378.197C217.115 378 216.133 377.829 215.155 377.692C214.312 377.574 213.472 377.478 212.633 377.403C207.542 376.943 202.545 377.264 197.715 378.276C186.634 380.598 176.431 386.533 167.998 394.93C166.345 396.575 164.763 398.3 163.223 400.068C158.407 405.594 154.164 411.683 150.62 418.164C143.968 430.332 139.774 443.86 138.955 457.595C138.242 469.549 138.607 482.741 144.433 493.541C150.703 505.164 161.914 511.619 174.46 514.31C175.321 514.495 176.188 514.664 177.061 514.813C178.53 515.065 180.005 515.281 181.485 515.468C203.118 518.204 225.678 514.17 246.419 508.151C248.529 507.54 250.636 506.911 252.719 506.215C252.721 506.211 252.721 506.21 252.722 506.207C253.147 504.966 253.543 503.715 253.891 502.45C253.906 502.395 253.919 502.339 253.935 502.284C255.115 497.991 256.047 493.522 256.505 489.022ZM319.035 488.243C319.14 488.176 319.253 488.126 319.369 488.083C321.775 481.159 316.094 471.285 311.782 466.289C304.938 458.36 295.607 459.623 286.153 459.702C283.925 459.723 286.107 457.736 287.406 457.726C297.211 457.641 308.009 456.324 314.833 464.967C318.204 469.236 322.548 475.9 323.238 482.136C326.379 471.542 320.201 459.962 311.783 453.281C310.941 452.612 313.972 451.323 314.85 452.02C318.985 455.302 322.495 459.653 324.729 464.475C325.431 464.378 326.127 464.534 326.337 465.096C328.208 470.116 332.684 474.432 337.379 476.887C338.898 477.679 343.59 480.204 344.803 477.711C344.887 477.539 344.943 477.357 345.01 477.179C344.132 476.869 344.164 475.741 345.437 475.241C345.598 473.383 345.184 471.415 344.688 469.7C342.731 462.929 337.553 457.293 332.246 452.839C327.057 448.483 319.603 442.72 312.375 443.862C312.071 443.91 311.828 443.908 311.634 443.874C311.491 443.902 311.348 443.92 311.209 443.912C309.928 443.844 308.657 443.878 307.394 443.985C304.371 444.242 301.404 444.971 298.512 446.008C292.309 448.23 286.455 451.867 281.174 455.368C273.59 460.396 266.368 465.982 258.651 470.81C260.576 477.893 260.443 485.471 259.214 492.712C258.841 494.909 258.538 498.392 257.802 501.463C257.897 501.446 257.996 501.434 258.101 501.43C269.313 501.111 273.002 492.761 278.122 484.32C281.089 479.426 285.765 473.66 291.807 472.681C303.649 470.761 308.222 495.097 319.035 488.243ZM325.232 484.965C329.329 483.976 333.059 481.719 336.656 479.527C333.137 477.921 329.755 475.562 327.121 472.606C327.649 476.732 327.134 480.951 325.232 484.965ZM266.519 507.063C292.06 513.383 318.964 512.624 344.675 518.131C345.407 517.424 346.913 517.171 347.407 517.763C366.201 508.345 386.145 500.955 405.47 492.756C418.29 487.318 431.096 481.852 443.552 475.611C449.047 472.856 454.492 469.884 460.168 467.513C460.983 467.173 461.82 466.822 462.672 466.502C438.392 462.229 413.532 460.635 388.911 460.537C375.476 465.882 362.276 472.112 348.469 476.43C347.167 480.539 342.866 481.483 338.961 480.401C334.566 483.064 329.984 485.86 324.916 486.862C324.288 486.986 323.83 486.889 323.532 486.702C323.342 486.754 323.149 486.792 322.956 486.817C322.844 487.249 322.717 487.676 322.551 488.093C322.445 488.359 322.179 488.583 321.846 488.759C321.976 489.083 321.838 489.467 321.246 489.842C318.221 491.761 315.261 492.446 312.426 491.728C312.277 491.886 312.06 492.04 311.742 492.178C297.268 498.513 281.943 503.442 266.519 507.063ZM344.48 530.225C345.51 527.266 344.747 523.525 344.389 520.319C344.307 520.318 344.228 520.31 344.159 520.295C317.599 514.341 289.695 515.391 263.305 508.614C262.853 511.655 263.008 514.701 263.992 517.645C264.109 517.689 264.275 517.743 264.537 517.807C267.274 518.472 270.012 519.132 272.753 519.785C280.974 521.746 289.2 523.698 297.465 525.472C307.292 527.582 317.279 529.081 327.184 530.779C330.072 531.275 343.03 534.393 344.48 530.225ZM466.531 467.206C466.345 467.171 466.157 467.138 465.971 467.104C463.557 467.027 460.044 469.179 458.047 470.14C455.551 471.341 453.072 472.574 450.597 473.818C444.508 476.881 438.419 479.955 432.209 482.766C422.286 487.261 412.256 491.518 402.219 495.754C384.033 503.429 365.265 510.398 347.658 519.372C347.973 523.14 348.466 526.997 347.436 529.837C354.697 526.372 362.401 523.65 369.823 520.638C383.925 514.915 398.018 509.152 411.928 502.975C425.377 497.003 438.984 490.885 451.525 483.138C455.395 480.746 468.88 473.588 466.531 467.206ZM368.068 471.889C347.301 479.757 327.302 489.498 306.655 497.667C304.484 498.527 306.522 499.134 307.847 498.611C328.494 490.441 348.493 480.7 369.26 472.833C371.445 472.004 369.394 471.387 368.068 471.889ZM377.166 475.679C356.4 483.546 336.4 493.289 315.753 501.456C313.582 502.315 315.62 502.923 316.945 502.4C337.592 494.232 357.591 484.489 378.358 476.623C380.543 475.794 378.492 475.176 377.166 475.679ZM346.842 510.634C345.134 510.603 343.432 510.497 341.734 510.366C340.799 510.742 339.869 511.131 338.932 511.501C337.607 512.024 335.569 511.415 337.74 510.557C338.106 510.412 338.47 510.259 338.835 510.112C334.68 509.7 330.538 509.141 326.38 508.761C324.754 509.426 323.127 510.095 321.493 510.74C320.168 511.263 318.13 510.655 320.301 509.796C321.344 509.384 322.381 508.953 323.421 508.532C322.132 508.448 320.84 508.382 319.546 508.36C317.315 508.319 319.248 506.096 320.73 506.123C323.223 506.168 325.703 506.35 328.178 506.588C331.358 505.262 334.524 503.898 337.681 502.514C336.188 502.406 334.693 502.321 333.193 502.293C330.962 502.252 332.895 500.03 334.377 500.056C336.971 500.104 339.551 500.3 342.126 500.552C345.158 499.199 348.18 497.825 351.199 496.439C349.749 496.336 348.296 496.254 346.84 496.227C344.608 496.186 346.542 493.964 348.023 493.99C350.526 494.036 353.014 494.219 355.498 494.457C358.453 493.088 361.404 491.712 364.351 490.333C363.066 490.25 361.778 490.184 360.487 490.161C358.256 490.12 360.189 487.898 361.671 487.924C363.995 487.966 366.31 488.125 368.62 488.338C370.568 487.426 372.516 486.514 374.464 485.606C375.455 485.144 376.451 484.687 377.445 484.229C376.344 484.162 375.241 484.114 374.134 484.095C371.903 484.054 373.836 481.831 375.318 481.858C377.482 481.897 379.636 482.041 381.787 482.232C384.761 480.872 387.741 479.514 390.719 478.147C389.742 478.092 388.763 478.045 387.782 478.028C385.55 477.987 387.484 475.765 388.966 475.791C391.007 475.829 393.04 475.963 395.069 476.137C397.948 474.8 400.815 473.438 403.667 472.052C402.921 472.018 402.176 471.976 401.429 471.962C399.198 471.921 401.131 469.699 402.613 469.725C404.356 469.757 406.092 469.866 407.825 470.001C410.904 468.46 413.96 466.881 416.97 465.233C417.833 464.76 420.848 464.782 418.916 465.841C416.149 467.356 413.342 468.81 410.517 470.236C414.857 470.664 419.183 471.25 423.527 471.633C427.196 469.819 430.832 467.951 434.408 465.99C435.271 465.517 438.286 465.54 436.354 466.599C433.04 468.416 429.673 470.153 426.28 471.845C427.486 471.92 428.695 471.977 429.908 472C432.139 472.041 430.206 474.263 428.724 474.237C426.533 474.197 424.352 474.051 422.175 473.856C419.305 475.247 416.419 476.612 413.523 477.954C414.435 478.003 415.346 478.049 416.26 478.066C418.492 478.107 416.558 480.329 415.076 480.303C413.096 480.266 411.124 480.137 409.156 479.971C406.186 481.332 403.215 482.683 400.25 484.037C401.037 484.075 401.824 484.117 402.613 484.132C404.844 484.173 402.911 486.395 401.429 486.369C399.558 486.335 397.695 486.214 395.836 486.062C394.762 486.557 393.686 487.049 392.616 487.547C390.776 488.404 388.936 489.264 387.096 490.123C387.719 490.149 388.342 490.188 388.967 490.198C391.198 490.239 389.265 492.462 387.783 492.435C386.087 492.405 384.398 492.299 382.712 492.169C379.817 493.52 376.921 494.87 374.019 496.213C374.453 496.229 374.885 496.258 375.319 496.266C377.551 496.307 375.617 498.529 374.135 498.503C372.6 498.475 371.07 498.385 369.542 498.273C366.592 499.626 363.636 500.968 360.672 502.291C361.005 502.302 361.339 502.326 361.672 502.332C363.903 502.373 361.97 504.595 360.488 504.569C358.991 504.542 357.5 504.455 356.009 504.348C352.91 505.706 349.802 507.044 346.682 508.345C347.13 508.362 347.575 508.391 348.023 508.399C350.258 508.438 348.324 510.661 346.842 510.634ZM397.803 476.399C402.085 476.843 406.356 477.407 410.646 477.759C413.609 476.391 416.566 475.005 419.507 473.592C415.179 473.135 410.862 472.566 406.523 472.23C403.631 473.646 400.724 475.034 397.803 476.399ZM384.517 482.501C388.792 482.952 393.057 483.513 397.344 483.852C400.354 482.471 403.377 481.096 406.398 479.714C402.126 479.273 397.865 478.707 393.585 478.351C390.563 479.742 387.538 481.123 384.517 482.501ZM371.279 488.608C375.59 489.071 379.892 489.637 384.216 489.958C386.78 488.759 389.342 487.56 391.904 486.365C392.3 486.18 392.698 485.998 393.094 485.815C388.817 485.382 384.551 484.812 380.268 484.444C378.567 485.224 376.871 486.004 375.179 486.79C373.88 487.395 372.578 488.002 371.279 488.608ZM358.149 494.728C362.465 495.2 366.773 495.766 371.106 496.066C374.071 494.696 377.031 493.318 379.99 491.936C375.698 491.515 371.421 490.934 367.125 490.548C364.135 491.944 361.143 493.337 358.149 494.728ZM344.805 500.826C349.096 501.302 353.38 501.861 357.688 502.149C360.729 500.8 363.76 499.43 366.786 498.048C362.51 497.641 358.249 497.06 353.971 496.659C350.922 498.063 347.867 499.452 344.805 500.826ZM343.602 508.182C346.81 506.861 350.005 505.503 353.19 504.119C348.957 503.717 344.739 503.146 340.506 502.744C337.328 504.147 334.138 505.521 330.938 506.869C335.157 507.333 339.369 507.881 343.602 508.182ZM610.665 285.389C610.665 320.613 610.665 355.836 610.665 391.061C610.665 391.592 610.055 392.011 609.359 392.198C609.584 392.686 609.262 393.407 608.206 393.758C591.415 399.364 576.783 409.582 560.624 416.615C560.624 426.032 560.624 435.45 560.624 444.866C573.101 435.143 590.388 439.51 604.327 444.603C605.496 444.219 607.838 444.356 606.535 445.327C607.812 444.376 608.221 450.222 607.228 451.535C601.365 459.297 590.469 463.95 582.229 468.637C571.126 474.953 560.053 481.353 548.864 487.511C544.624 489.845 540.252 492.804 535.63 494.331C533.481 495.041 531.607 495.35 529.345 495.354C528.683 495.354 527.999 495.058 527.326 494.801C526.943 494.908 526.538 494.91 526.186 494.749C525.943 494.637 525.696 494.537 525.449 494.437C524.832 494.442 524.516 494.278 524.425 494.043C519.166 492.172 513.324 492.126 508.266 489.706C504.999 488.142 499.309 483.413 501.282 478.962C502.509 476.193 506.916 473.449 509.313 471.84C512.681 469.581 516.185 467.559 519.845 465.801C528.352 461.715 537.259 458.388 545.243 453.289C545.453 453.155 545.693 453.075 545.941 453.032C545.941 443.557 545.941 434.084 545.941 424.609C531.546 432.721 517.371 441.212 503.037 449.427C495.855 453.544 488.653 457.644 481.274 461.401C481.189 461.445 481.102 461.476 481.017 461.518C481.017 461.538 481.017 461.555 481.017 461.573C481.017 462.519 479.087 463.113 478.174 462.659C477.073 463.005 475.946 463.268 474.765 463.483C472.444 463.906 470.929 462.443 468.816 462.589C468.77 462.592 468.734 462.59 468.69 462.591C467.711 462.991 466.33 462.91 466.33 461.92C466.33 436.396 466.33 410.87 466.33 385.345C466.33 367.33 466.33 349.314 466.33 331.3C465.583 331.134 465.517 330.53 466.33 330.132C466.33 330.017 466.33 329.902 466.33 329.786C465.128 329.887 464.073 329.227 465.854 328.516C489.573 319.053 514.04 311.235 538.199 302.987C551.665 298.39 565.037 293.668 578.336 288.605C585.359 285.932 592.773 282.133 600.269 281.133C602.428 280.844 606.164 281.212 608.61 282.625C609.547 282.357 610.666 282.511 610.666 283.402C610.666 283.692 610.666 283.982 610.666 284.272C610.71 284.281 610.758 284.28 610.801 284.292C611.742 284.514 611.362 285.007 610.665 285.389ZM469.604 328.632C469.628 328.71 469.641 328.797 469.641 328.891C469.641 329.164 469.641 329.438 469.641 329.713C471.383 329.802 473.042 330.227 474.951 330.332C478.985 330.553 483.294 328.394 487.048 327.09C493.78 324.749 500.529 322.462 507.288 320.197C521.783 315.34 536.309 310.58 550.815 305.761C563.151 301.662 575.149 296.906 587.184 292.002C592.565 289.81 597.944 287.589 603.449 285.722C604.424 285.39 605.582 284.946 606.769 284.612C602.409 279.157 587.913 286.532 582.897 288.438C575.993 291.061 569.108 293.741 562.169 296.268C551.456 300.171 540.591 303.678 529.807 307.381C509.713 314.283 489.393 320.861 469.604 328.632ZM477.702 461.049C477.702 435.815 477.702 410.58 477.702 385.345C477.702 367.653 477.704 349.963 477.704 332.27C477.704 332.07 477.797 331.888 477.942 331.725C477.556 331.803 477.17 331.867 476.781 331.899C474.521 332.086 471.971 331.306 469.641 331.155C469.641 349.103 469.641 367.051 469.641 384.999C469.641 410.26 469.641 435.521 469.641 460.784C473.163 460.662 473.815 462.403 477.702 461.049ZM550 395.341C550.086 395.687 549.742 396.015 549.25 396.257C549.25 419.292 549.25 442.328 549.25 465.365C549.25 465.389 549.241 465.409 549.239 465.432C552.021 466.825 555.207 467.75 557.515 466.252C557.39 466.115 557.31 465.941 557.31 465.712C557.31 440.188 557.31 414.661 557.31 389.136C557.31 389.106 557.322 389.076 557.325 389.045C556.891 389.031 556.571 388.908 556.561 388.645C556.477 386.691 554.096 385.974 552.502 386.672C549.201 388.114 549.273 392.422 550 395.341ZM560.624 447.124C560.624 452.401 560.624 457.678 560.624 462.955C561.633 462.661 562.998 462.644 562.864 462.959C559.857 470.029 550.898 469.158 545.28 466.086C545.154 466.016 545.464 465.774 545.939 465.525C545.939 462.294 545.939 459.063 545.939 455.833C533.991 462.999 519.662 466.511 508.86 475.439C494.875 486.999 521.68 489.509 528.062 492.431C528.331 492.554 528.511 492.703 528.627 492.864C528.677 492.878 528.715 492.885 528.768 492.898C533.334 494.154 537.513 491.603 541.259 489.589C546.221 486.918 551.139 484.171 556.027 481.37C565.295 476.056 574.674 470.932 583.901 465.55C588.8 462.692 593.864 459.907 598.479 456.601C600.343 455.265 606.063 451.718 604.921 448.512C604.695 447.878 603.99 447.201 603.602 446.533C603.405 446.551 603.232 446.544 603.114 446.5C590.117 441.632 572.579 435.579 561.201 446.82C561.087 446.932 560.879 447.035 560.624 447.124ZM607.518 391.909C607.414 391.778 607.352 391.613 607.352 391.409C607.352 356.204 607.352 321 607.352 285.794C603.905 285.995 598.794 288.945 596.176 289.981C589.886 292.471 583.645 295.079 577.374 297.616C566.394 302.057 555.237 305.813 543.995 309.53C530.121 314.117 516.239 318.68 502.397 323.361C496.032 325.513 489.669 327.674 483.34 329.927C482.334 330.285 481.3 330.71 480.25 331.076C480.695 331.179 481.018 331.445 481.018 331.924C481.018 349.616 481.016 367.306 481.016 384.999C481.016 409.846 481.016 434.695 481.016 459.543C484.008 457.952 487.001 456.363 489.963 454.718C496.171 451.267 502.333 447.731 508.473 444.16C520.942 436.907 533.351 429.548 545.939 422.502C545.939 413.401 545.939 404.302 545.939 395.201C545.939 394.916 546.118 394.666 546.389 394.463C545.95 390.446 547.564 386.841 551.788 385.388C554.075 384.601 559.699 384.073 559.858 387.764C559.86 387.824 559.849 387.882 559.834 387.94C560.29 388.039 560.625 388.305 560.625 388.792C560.625 397.327 560.625 405.862 560.625 414.398C576.479 407.295 590.967 397.469 607.518 391.909ZM520.551 184.595C520.535 221.383 519.787 258.164 519.741 294.952C460.491 294.952 401.242 294.952 341.994 294.952C341.319 294.952 338.244 296.274 339.85 296.274C399.813 296.274 459.775 296.274 519.738 296.274C519.738 296.609 519.736 296.946 519.736 297.282C519.736 298.211 523.03 297.615 523.03 296.398C523.046 258.835 523.831 221.276 523.847 183.712C523.847 182.783 520.551 183.378 520.551 184.595ZM340.936 293.948C340.952 257.161 341.7 220.38 341.746 183.591C401.268 183.591 460.788 183.591 520.31 183.591C520.984 183.591 524.06 182.27 522.454 182.27C462.3 182.27 402.147 182.27 341.992 182.27C341.931 182.27 341.846 182.284 341.75 182.304C341.75 181.956 341.753 181.609 341.753 181.262C341.753 180.333 338.458 180.929 338.458 182.146C338.442 219.709 337.657 257.268 337.641 294.832C337.64 295.762 340.935 295.165 340.936 293.948ZM487.153 243.048C485.952 244.289 484.709 245.49 483.474 246.697C480.331 249.766 477.163 252.808 474.023 255.88C471.152 258.69 468.29 261.515 465.573 264.476C464.813 265.304 462.277 267.521 462.782 268.914C463.3 270.345 466.579 269.414 466.077 268.031C465.872 267.467 469.823 263.734 470.487 263.042C473.516 259.887 476.663 256.844 479.799 253.797C482.706 250.973 485.631 248.168 488.511 245.316C489.453 244.383 491.035 243.206 491.664 241.887C491.748 241.756 491.802 241.613 491.83 241.465C491.836 241.446 491.847 241.428 491.853 241.408C491.858 241.39 491.853 241.373 491.855 241.355C491.861 241.277 491.855 241.199 491.84 241.122C491.836 241.099 491.842 241.077 491.836 241.054C491.455 239.682 489.597 238.38 488.648 237.433C485.948 234.741 483.19 232.105 480.453 229.451C477.141 226.24 473.837 223.021 470.623 219.71C469.578 218.632 468.555 217.532 467.564 216.403C467.066 215.834 466.226 214.198 466.011 214.791C466.674 212.964 463.369 212.919 462.846 214.363C461.66 217.63 471.475 225.101 473.373 226.965C476.545 230.077 479.746 233.162 482.932 236.259C484.305 237.593 485.672 238.932 487.014 240.297C487.354 240.644 487.686 240.996 488.016 241.354C488.194 241.547 488.291 241.663 488.36 241.75C488.308 241.813 488.244 241.888 488.152 241.992C487.833 242.354 487.49 242.699 487.153 243.048ZM390.983 219.93C391.671 219.212 395.554 215.403 395.415 215.021C394.863 213.499 398.147 212.583 398.71 214.137C399.239 215.598 396.743 217.782 395.94 218.657C393.224 221.617 390.361 224.442 387.491 227.252C384.145 230.526 380.762 233.763 377.42 237.039C376.263 238.173 375.096 239.3 373.981 240.474C373.414 241.07 373.242 241.327 373.179 241.381C373.248 241.465 373.339 241.573 373.481 241.727C373.811 242.083 374.145 242.436 374.483 242.783C375.693 244.015 376.925 245.226 378.163 246.432C381.309 249.497 384.479 252.539 387.613 255.615C390.637 258.583 393.726 261.531 396.523 264.721C397.353 265.667 399.146 267.203 398.628 268.631C398.158 269.929 394.861 270.063 395.494 268.318C395.516 268.256 391.66 264.139 390.857 263.311C387.811 260.172 384.683 257.114 381.545 254.067C378.637 251.246 375.703 248.449 372.833 245.587C371.901 244.656 370.03 243.347 369.653 241.996C369.618 241.87 369.626 241.746 369.653 241.627C369.664 241.516 369.686 241.404 369.719 241.286C370.142 239.766 372.436 238.167 373.488 237.131C376.198 234.462 378.942 231.827 381.67 229.176C384.805 226.124 387.954 223.083 390.983 219.93ZM373.136 241.322C373.121 241.224 373.083 241.021 372.861 240.777C372.986 240.924 373.049 241.076 373.062 241.227C373.077 241.248 373.111 241.291 373.136 241.322ZM440.206 212.811C439.845 213.69 439.431 214.549 439.025 215.408C437.842 217.911 436.591 220.383 435.348 222.857C431.728 230.054 428.044 237.217 424.43 244.416C423.173 246.924 410.266 269.318 414.128 271.045C415.429 271.627 417.95 269.759 416.053 268.912C416.932 269.306 417.302 266.584 417.76 265.435C418.928 262.505 420.291 259.647 421.641 256.797C425.133 249.426 428.845 242.158 432.538 234.886C435.684 228.693 438.883 222.524 441.898 216.266C442.43 215.16 445.786 209.378 441.814 210.539C439.811 211.124 440.368 213.262 442.386 212.671C439.778 213.436 440.956 210.979 440.206 212.811ZM316.412 146.799C316.396 184.048 315.637 221.294 315.591 258.545C255.591 258.545 195.593 258.545 135.593 258.545C134.919 258.545 131.844 259.866 133.449 259.866C194.162 259.866 254.873 259.866 315.586 259.866C315.586 260.207 315.584 260.549 315.584 260.889C315.584 261.818 318.878 261.222 318.878 260.005C318.894 221.974 319.689 183.947 319.706 145.915C319.707 144.985 316.413 145.582 316.412 146.799ZM134.517 257.523C134.533 220.273 135.292 183.027 135.339 145.775C195.613 145.775 255.887 145.775 316.161 145.775C316.836 145.775 319.911 144.454 318.305 144.454C257.402 144.454 196.499 144.454 135.596 144.454C135.532 144.454 135.443 144.469 135.343 144.489C135.343 144.137 135.345 143.785 135.345 143.433C135.345 142.503 132.051 143.099 132.051 144.316C132.035 182.347 131.24 220.374 131.223 258.406C131.222 259.337 134.516 258.741 134.517 257.523ZM298.609 162.412C249.418 162.412 200.227 162.412 151.035 162.412C149.577 162.412 147.618 164.626 149.846 164.626C199.036 164.626 248.227 164.626 297.419 164.626C298.877 164.626 300.837 162.412 298.609 162.412ZM149.846 188.448C169.688 188.448 189.529 188.448 209.371 188.448C210.829 188.448 212.788 186.234 210.56 186.234C190.718 186.234 170.877 186.234 151.035 186.234C149.577 186.234 147.618 188.448 149.846 188.448ZM226.681 186.234C225.223 186.234 223.264 188.448 225.492 188.448C249.054 188.448 272.616 188.448 296.178 188.448C297.636 188.448 299.596 186.234 297.368 186.234C273.806 186.234 250.245 186.234 226.681 186.234ZM149.846 213.974C199.036 213.974 248.227 213.974 297.419 213.974C298.877 213.974 300.837 211.759 298.609 211.759C249.418 211.759 200.227 211.759 151.035 211.759C149.577 211.758 147.618 213.974 149.846 213.974ZM149.846 237.794C169.688 237.794 189.529 237.794 209.371 237.794C210.829 237.794 212.788 235.58 210.56 235.58C190.718 235.58 170.877 235.58 151.035 235.58C149.577 235.58 147.618 237.794 149.846 237.794ZM226.681 235.58C225.223 235.58 223.264 237.794 225.492 237.794C249.054 237.794 272.616 237.794 296.178 237.794C297.636 237.794 299.596 235.58 297.368 235.58C273.806 235.58 250.245 235.58 226.681 235.58Z" fill="#C4C4C4"/>
</svg>
