<svg width="66" height="108" viewBox="0 0 66 108" fill="none" xmlns="http://www.w3.org/2000/svg">
<path d="M26.3758 39.9963C25.2959 44.0491 22.2115 47.4258 18.8552 50.4344C18.6916 49.8345 18.4343 49.2332 18.3027 48.8168C18.0779 48.1044 17.8401 47.3958 17.6051 46.6862C17.683 46.6436 17.762 46.6051 17.8395 46.5619C18.262 46.3263 17.62 44.785 17.2692 44.6184C17.1359 44.5549 16.9904 44.4962 16.8521 44.4341C16.6074 43.7165 16.3634 42.9987 16.1159 42.282C15.5674 40.6944 15.0149 39.1084 14.4633 37.5227C20.3463 36.6176 30.8845 28.0227 26.0928 21.9357C19.5359 13.6075 14.3772 26.793 13.06 33.461C12.8856 32.9543 12.7092 32.4488 12.5417 31.9396C12.3428 31.3357 12.3773 30.3016 12.134 31.2445C12.1247 31.246 12.1151 31.2469 12.1054 31.2479C12.2405 30.8798 12.1985 30.3821 11.8785 30.0511C11.8701 30.0424 11.8612 30.0331 11.8527 30.0244C11.637 29.8019 11.2991 29.6786 11.0284 29.7478C11.0507 29.702 11.0757 29.6586 11.0981 29.6128C11.3592 29.0735 10.4209 27.4959 10.2822 27.7809C9.58779 29.2125 8.74115 30.5562 7.55253 31.5618C4.90171 27.0939 -1.20577 24.8492 -5.8652 28.3412C-9.97718 31.422 -9.9896 37.2409 -6.88189 41.044C-4.77264 43.6251 -1.84224 44.384 0.88932 43.9366C0.735963 44.0229 0.576545 44.1015 0.429647 44.1961C-3.0457 46.4362 -3.74982 50.5166 -1.99017 53.9876C1.13271 60.1465 12.684 51.514 16.047 47.4683C16.1095 47.4398 16.1706 47.408 16.2326 47.3789C16.4835 48.1349 16.7333 48.8906 16.9633 49.6526C17.0669 49.9958 17.2323 51.2189 17.4015 50.8337C17.289 51.0901 17.332 51.3918 17.4586 51.6596C16.1036 52.8201 14.744 53.9291 13.4882 55.0034C7.16358 60.4119 0.563472 65.5283 -6.11153 70.5454C-9.4381 73.0466 -13.5509 75.3723 -16.4228 78.358C-16.5314 78.471 -16.516 78.7244 -16.438 79.0092C-20.6695 81.2343 -24.6394 84.2656 -28.6466 86.2865C-29.4366 86.6849 -28.7016 88.6009 -27.9926 88.243C-21.2154 84.8242 -13.5054 77.2316 -5.27082 78.2118C-2.82324 78.5031 -0.520852 79.2341 1.74493 80.0803C1.83615 81.2279 1.99874 82.3538 2.23147 83.4587C0.147973 87.9287 0.201307 93.8678 0.828254 98.5889C1.15162 101.02 2.34421 108.233 6.59191 107.295C11.7706 106.153 14.3529 100.597 12.5996 96.1271C10.7289 91.3582 6.83155 87.9744 3.55726 84.075C3.44763 83.9446 3.35994 83.8861 3.28819 83.8716C3.21897 83.6901 3.12948 83.5144 3.02964 83.3691C2.8486 82.4286 2.724 81.4672 2.65924 80.4773C2.65779 80.4611 2.65379 80.4424 2.65156 80.4251C3.41911 80.722 4.18493 81.0239 4.95036 81.3253C5.14394 81.8959 5.5996 82.3895 6.00065 82.0509C6.0891 81.9768 6.18505 81.9087 6.27846 81.8381C6.57413 81.951 6.87069 82.0601 7.16848 82.1685C6.8214 82.3094 6.65726 82.9478 6.99931 83.4974C9.48589 87.4955 15.4881 89.5487 20.2087 89.5582C24.111 89.5663 29.3043 87.6748 28.3421 83.0267C27.4617 78.7762 22.5107 77.6767 18.5107 77.5277C14.6536 77.3839 9.26832 77.4552 5.85793 79.6718C1.53128 77.9287 -2.73695 75.8886 -7.39479 76.1706C-9.05238 76.2706 -10.649 76.634 -12.2046 77.16C-9.05482 74.7016 -5.4559 72.5171 -2.41517 70.2003C-1.16881 69.2509 0.0764585 68.2973 1.31875 67.3405C1.4484 67.7363 1.65457 68.0861 1.8733 68.1105C6.31436 68.6055 10.9348 68.0183 15.3831 67.8376C15.5956 67.8285 15.8131 67.818 16.0312 67.8072C22.0798 72.8178 39.2003 78.9203 38.2723 67.1584C38.0134 63.8762 36.1199 61.9814 33.4494 61.0723C33.9114 60.9524 34.3057 60.8497 34.5375 60.7788C37.1046 59.9963 39.6798 59.2373 42.2552 58.4822C42.9979 58.2646 43.7403 58.0479 44.4827 57.8312C44.8325 58.163 45.1641 58.5138 45.4541 58.8871C32.5527 61.5955 38.9901 80.9386 50.8062 75.7842C58.8492 72.2751 55.6376 57.7863 46.629 59.3361C46.3332 58.6995 45.9656 58.0955 45.5375 57.5229C45.9204 57.4108 46.3023 57.296 46.685 57.1824C46.7704 57.3242 46.8682 57.4269 46.9749 57.4561C54.114 59.4168 69.8998 58.5595 64.674 48.1375C61.0228 40.8563 47.9936 50.1897 45.7362 54.5564C45.6499 54.7241 45.6946 55.003 45.7955 55.2951C45.1996 55.4701 44.6037 55.6451 44.0084 55.8197C43.7071 55.5343 43.3926 55.2559 43.0628 54.9867C42.7097 54.6983 42.756 55.4967 42.9471 56.1312C41.6075 56.5236 40.2686 56.9156 38.9294 57.3111C36.3954 58.0599 33.8549 58.7965 31.3459 59.6179C30.7811 59.8034 29.7291 59.9974 29.0848 60.4001C29.0697 60.3994 29.0556 60.399 29.0405 60.3983C24.648 60.3599 17.9209 61.545 14.8823 64.9882C14.5102 64.6731 14.4476 65.2465 14.5376 65.8217C14.5407 65.8441 14.5452 65.8674 14.549 65.8894C14.5497 65.8931 14.55 65.8961 14.5503 65.8992C10.644 66.1091 6.60742 66.539 2.70203 66.2741C8.09225 62.0974 13.4008 57.8099 18.3747 53.2067C20.9346 50.8379 23.7864 48.3702 25.7396 45.5058C26.8646 43.8557 27.3768 41.6668 27.7308 39.5962C27.9416 39.7236 28.1873 39.7537 28.4378 39.6035C33.0975 36.8086 37.7578 34.0134 42.4175 31.2185C43.2086 30.744 42.339 28.8861 41.4119 29.4421C36.9653 32.1092 32.5187 34.7762 28.0721 37.4433C28.0764 37.414 28.0817 37.3824 28.086 37.3531C28.1986 36.6321 28.3025 35.9057 28.3996 35.177C28.5069 35.2173 28.6057 35.184 28.6794 35.027C30.2961 31.5829 33.4024 28.0781 36.9706 26.3116C38.4515 25.5782 40.3174 24.8223 42.03 25.2382C44.8521 25.9234 47.218 29.1378 46.8908 31.9179C46.0441 39.1192 33.4335 39.8484 27.6924 40.7697C27.1427 40.8578 27.6861 42.8327 28.3463 42.7262C36.1354 41.4765 51.0656 39.9065 47.2356 29.1791C45.7948 25.1448 42.1832 21.7866 37.4822 23.8134C33.9 25.3579 30.8505 28.1737 28.8226 31.4063C29.4428 24.5257 29.1877 17.4752 27.1436 10.8881C26.7889 9.74532 26.2455 9.914 26.5975 11.0503C27.4902 13.9257 28.0306 17.0042 28.2793 20.158C28.2718 20.1519 28.2648 20.144 28.2564 20.1393C22.8698 16.7991 18.29 3.62554 27.6919 2.25808C36.2032 1.02029 31.9138 15.0724 28.8807 18.4766C28.5117 18.8909 29.3882 20.6506 29.6915 20.3099C32.814 16.8049 34.2024 10.7315 33.4321 6.25934C32.831 2.76727 30.7675 -0.973824 26.3065 0.475991C16.8855 3.53719 22.3655 17.7567 28.3862 21.8637C28.56 25.6949 28.3142 29.5992 27.7456 33.3568C27.7292 33.391 27.7105 33.4257 27.694 33.4599C27.6515 33.5511 27.647 33.6859 27.6683 33.8409C27.3341 35.9572 26.9011 38.0241 26.3758 39.9963ZM50.1477 56.1984C50.7651 56.0413 51.405 55.8359 51.7563 55.4541C52.2521 54.9143 51.6793 53.7977 50.9832 53.7174C50.971 53.7159 50.9581 53.7147 50.9459 53.7131C50.7535 53.6907 50.6083 53.738 50.5012 53.8266C50.3381 53.7979 49.5715 54.1661 49.2773 54.2566C48.7323 54.423 48.1859 54.5846 47.6395 54.7476C50.8244 50.8178 58.1739 45.9662 62.6408 47.8368C65.5245 49.0437 65.3849 52.7523 62.9156 54.3088C61.3051 55.3242 59.4503 55.8837 57.5315 56.1153C55.1187 56.4055 52.6024 56.4684 50.1477 56.1984ZM45.7878 60.9198C45.9589 61.2761 46.2021 61.5444 46.441 61.479C46.4618 61.473 46.4818 61.4707 46.5031 61.4653C46.527 61.9414 46.6623 62.4448 46.9638 62.8363C47.1902 63.1294 47.4741 63.0873 47.4562 62.6902C47.4338 62.2099 47.3633 61.7503 47.2708 61.2999C54.8196 60.0614 57.2348 71.2928 50.1512 73.8276C46.1676 75.2529 40.0475 74.1728 39.2876 69.4447C38.6061 65.2071 41.6526 61.9245 45.7878 60.9198ZM18.1686 67.6878C21.9212 67.4679 26.0473 67.2827 29.3488 68.5884C29.7152 68.7334 29.4561 66.8685 28.8982 66.6477C25.3824 65.2565 20.8996 65.5722 17.0324 65.7765C19.8285 63.9867 24.9531 62.6213 29.3529 62.5126C29.4527 62.542 29.5536 62.5423 29.6518 62.5068C34.712 62.4472 38.704 64.1 36.8655 68.7644C34.3588 75.1234 23.9608 71.482 18.1686 67.6878ZM8.4862 80.6687C10.8251 79.7993 13.6802 79.5705 15.8969 79.5008C18.9709 79.405 23.715 79.299 26.134 81.4673C28.0873 83.2176 26.413 86.0428 24.2686 86.8588C22.415 87.5652 20.409 87.7314 18.4276 87.4808C14.8878 87.0323 9.91193 85.7839 7.95665 82.6411C7.89 82.5335 7.82296 82.4521 7.75709 82.3813C9.79345 83.0968 11.8737 83.6798 14.0736 83.8999C15.0116 83.9931 14.5741 81.9992 13.7604 81.9181C11.9609 81.7392 10.2125 81.2678 8.4862 80.6687ZM2.90958 86.0534C3.58027 88.1174 4.5254 90.1011 5.76378 92.0005C6.49743 93.126 6.37343 91.3122 6.0575 90.8279C5.06222 89.3024 4.31016 87.742 3.75933 86.1242C6.24387 88.9755 9.26714 91.5888 10.9803 94.9425C12.1943 97.3179 12.6135 100.012 10.6453 102.179C9.53123 103.406 7.76256 105.179 5.93608 105.34C-0.0704784 105.866 1.37741 91.2669 2.90958 86.0534ZM5.6047 44.751C8.78653 44.4186 12.1452 44.641 15.2257 45.5839C11.0128 47.4735 6.38008 48.2513 1.76555 48.9184C1.44111 48.9654 1.92942 50.9467 2.41952 50.8749C5.59009 50.4163 8.76971 49.9036 11.8162 49.0168C10.7557 49.8199 9.6369 50.5429 8.54415 51.1797C6.3013 52.4868 2.63404 54.6556 -0.174061 53.8574C-3.02559 53.0471 -2.21454 49.102 -0.549531 47.4515C1.07145 45.8428 3.28166 44.9931 5.6047 44.751ZM6.4896 31.7753C6.41245 31.884 6.38236 32.1031 6.3933 32.3511C6.00326 32.5672 5.59433 32.7631 5.13859 32.9099C4.62768 33.0745 5.30377 35.0242 5.79258 34.8664C6.28868 34.7067 6.73451 34.4904 7.15751 34.2504C9.52697 39.9768 -1.35116 44.5734 -5.79669 40.5196C-9.68401 36.9749 -8.1297 30.8733 -3.1187 29.1933C0.586742 27.951 4.24048 28.9312 6.4896 31.7753ZM16.3867 34.6803C18.441 32.3771 20.1481 29.8144 22.0499 27.3708C22.4431 26.865 21.5451 25.0963 21.1907 25.5512C18.887 28.5107 16.8753 31.6501 14.1756 34.2844C15.2513 28.5672 18.673 18.277 24.403 22.1141C29.526 25.5443 21.6482 32.2249 16.3867 34.6803ZM14.9963 43.7222C11.7144 42.6341 7.607 42.0955 4.14041 42.7795C7.30524 40.9802 9.35696 37.5038 7.90757 33.7649C9.03521 32.9288 9.89421 31.8161 10.589 30.5837C10.5818 31.4239 11.0819 32.4025 11.3275 33.1251C12.0613 35.2826 12.8166 37.4337 13.5646 39.5867C14.044 40.9637 14.5225 42.3419 14.9963 43.7222Z" fill="#E5E5E5"/>
</svg>
