<svg width="85" height="82" viewBox="0 0 85 82" fill="none" xmlns="http://www.w3.org/2000/svg">
<path d="M53.8125 61.4682C48.4863 59.9333 43.0335 59.6834 37.5544 59.5511C47.1305 53.7462 58.3408 59.0361 65.7086 66.8102C55.1875 70.681 42.7208 69.7707 34.8691 62.0652C41.3256 62.1862 47.8123 61.9913 54.0967 63.8039C55.3452 64.1635 54.6546 61.7113 53.8125 61.4682Z" fill="#E5E5E5"/>
<path d="M16.5434 77.415C8.75973 71.7726 3.73718 63.9162 4.96754 54.6393C6.76633 54.707 8.39616 54.9729 9.86906 55.4116C11.6077 56.3862 13.3625 57.3253 15.155 58.1671C21.1607 63.0273 22.7372 72.0727 22.2442 80.1699C22.1774 81.2499 22.5049 81.108 21.8903 80.7898C20.0082 79.8167 18.2422 78.6471 16.5434 77.415Z" fill="#E5E5E5"/>
<path d="M40.2506 24.6233C28.5019 25.5007 14.6425 30.844 14.1376 42.9243C26.486 43.4127 36.1462 35.1414 40.2506 24.6233Z" fill="#E5E5E5"/>
<path d="M46.8105 8.54767C40.1442 16.8456 29.4474 21.5367 18.8676 18.3906C23.3389 16.8308 28.0357 15.7304 32.9105 15.1521C33.4217 15.0912 32.6565 12.6516 31.8281 12.7493C26.9018 13.3319 22.1554 14.4494 17.6397 16.0371C22.6987 5.55463 35.9484 5.0296 46.8105 8.54767Z" fill="#E5E5E5"/>
<path d="M-7.98843 29.359C3.02435 23.7137 6.7465 11.6822 4.09172 0.635033C-4.93198 7.01509 -14.6857 19.0423 -7.98843 29.359Z" fill="#E5E5E5"/>
<path d="M53.8759 41.6644L70.526 39.452C71.7421 39.2904 70.843 36.8528 69.8655 36.9827L56.0263 38.8216C63.2334 31.0713 75.3223 32.8718 84.7349 37.8584C75.8843 44.5477 63.7515 47.1396 53.7265 41.918C53.7764 41.834 53.825 41.7476 53.8759 41.6644Z" fill="#E5E5E5"/>
</svg>
