<svg width="108" height="312" viewBox="0 0 108 312" fill="none" xmlns="http://www.w3.org/2000/svg">
<path d="M43.5289 213.183C42.1551 218.339 38.2309 222.635 33.9609 226.463C33.7529 225.699 33.4255 224.934 33.2581 224.405C32.9721 223.498 32.6695 222.597 32.3706 221.694C32.4697 221.64 32.5702 221.591 32.6687 221.536C33.2063 221.236 32.3895 219.275 31.9432 219.063C31.7736 218.982 31.5886 218.908 31.4126 218.829C31.1013 217.916 30.7908 217.003 30.476 216.091C29.7782 214.071 29.0752 212.053 28.3735 210.036C35.858 208.884 49.265 197.95 43.1688 190.205C34.827 179.61 28.2639 196.385 26.5882 204.868C26.3662 204.224 26.1419 203.581 25.9287 202.933C25.6757 202.165 25.7196 200.849 25.4101 202.048C25.3983 202.05 25.3859 202.052 25.3736 202.053C25.5455 201.585 25.4921 200.951 25.085 200.53C25.0742 200.519 25.063 200.507 25.0522 200.496C24.7778 200.213 24.3479 200.056 24.0034 200.144C24.0319 200.086 24.0636 200.031 24.0921 199.973C24.4244 199.286 23.2306 197.279 23.0541 197.642C22.1707 199.463 21.0935 201.173 19.5813 202.452C16.2089 196.768 8.43874 193.912 2.51085 198.355C-2.72054 202.274 -2.73636 209.677 1.21738 214.516C3.90084 217.799 7.62899 218.765 11.1042 218.196C10.9091 218.306 10.7063 218.406 10.5194 218.526C6.09792 221.376 5.20211 226.567 7.44079 230.983C11.4138 238.819 26.1097 227.836 30.3883 222.689C30.4678 222.653 30.5455 222.612 30.6245 222.575C30.9436 223.537 31.2614 224.498 31.554 225.468C31.6858 225.905 31.8963 227.461 32.1115 226.971C31.9684 227.297 32.0231 227.681 32.1842 228.021C30.4604 229.498 28.7305 230.909 27.1328 232.275C19.0865 239.156 10.6896 245.666 2.19746 252.048C-2.03471 255.231 -7.2671 258.189 -10.9208 261.988C-11.0591 262.132 -11.0394 262.454 -10.9402 262.816C-16.3237 265.647 -21.3743 269.504 -26.4724 272.075C-27.4775 272.582 -26.5424 275.019 -25.6404 274.564C-17.0182 270.214 -7.20926 260.555 3.26704 261.802C6.38094 262.172 9.31011 263.103 12.1927 264.179C12.3088 265.639 12.5156 267.072 12.8117 268.477C10.161 274.164 10.2289 281.72 11.0265 287.726C11.4379 290.819 12.9551 299.996 18.3592 298.803C24.9478 297.35 28.233 290.282 26.0024 284.594C23.6225 278.527 18.6641 274.222 14.4984 269.261C14.3589 269.095 14.2474 269.021 14.1561 269.002C14.068 268.772 13.9542 268.548 13.8272 268.363C13.5968 267.167 13.4383 265.944 13.3559 264.684C13.3541 264.664 13.349 264.64 13.3462 264.618C14.3227 264.995 15.297 265.38 16.2708 265.763C16.5171 266.489 17.0968 267.117 17.607 266.686C17.7195 266.592 17.8416 266.505 17.9604 266.415C18.3366 266.559 18.7139 266.698 19.0927 266.836C18.6512 267.015 18.4423 267.827 18.8775 268.526C22.041 273.613 29.6773 276.225 35.6829 276.237C40.6475 276.248 47.2547 273.841 46.0305 267.928C44.9105 262.52 38.6117 261.121 33.5227 260.932C28.6155 260.749 21.7642 260.839 17.4254 263.659C11.9209 261.442 6.49072 258.846 0.56485 259.205C-1.54399 259.332 -3.57531 259.795 -5.5544 260.464C-1.54709 257.336 3.03158 254.557 6.9001 251.609C8.48576 250.402 10.07 249.188 11.6505 247.971C11.8155 248.475 12.0778 248.92 12.356 248.951C18.0061 249.58 23.8843 248.833 29.5437 248.603C29.814 248.592 30.0907 248.579 30.3682 248.565C38.0634 254.939 59.8447 262.703 58.6641 247.739C58.3347 243.564 55.9257 241.153 52.5282 239.996C53.116 239.844 53.6177 239.713 53.9125 239.623C57.1785 238.628 60.4548 237.662 63.7313 236.701C64.6761 236.424 65.6207 236.149 66.5652 235.873C67.0102 236.295 67.4321 236.742 67.801 237.216C51.3874 240.662 59.5773 265.271 74.6101 258.713C84.8427 254.249 80.7568 235.816 69.2958 237.788C68.9195 236.978 68.4518 236.209 67.9071 235.481C68.3942 235.338 68.8801 235.192 69.367 235.048C69.4757 235.228 69.6001 235.359 69.7358 235.396C78.8185 237.89 98.9017 236.8 92.2533 223.54C87.608 214.277 71.0318 226.151 68.1599 231.707C68.0501 231.92 68.1069 232.275 68.2354 232.646C67.4772 232.869 66.7191 233.092 65.9617 233.314C65.5784 232.951 65.1783 232.597 64.7587 232.254C64.3094 231.887 64.3683 232.903 64.6115 233.71C62.9073 234.209 61.2038 234.708 59.5 235.211C56.2762 236.164 53.0441 237.101 49.852 238.146C49.1336 238.382 47.7952 238.629 46.9754 239.141C46.9562 239.14 46.9383 239.14 46.9191 239.139C41.3308 239.09 32.7724 240.598 28.9065 244.978C28.4332 244.577 28.3535 245.307 28.468 246.039C28.472 246.067 28.4777 246.097 28.4824 246.125C28.4834 246.13 28.4838 246.133 28.4842 246.137C23.5144 246.404 18.3789 246.951 13.4104 246.614C20.268 241.301 27.0217 235.846 33.3497 229.99C36.6064 226.976 40.2346 223.836 42.7196 220.192C44.1508 218.093 44.8025 215.308 45.2528 212.674C45.521 212.836 45.8337 212.874 46.1523 212.683C52.0805 209.127 58.0095 205.571 63.9377 202.015C64.9442 201.412 63.8378 199.048 62.6584 199.755C57.0013 203.149 51.3441 206.542 45.687 209.935C45.6925 209.898 45.6993 209.857 45.7047 209.82C45.848 208.903 45.9802 207.979 46.1037 207.052C46.2402 207.103 46.3658 207.06 46.4597 206.861C48.5165 202.479 52.4684 198.02 57.008 195.773C58.8921 194.84 61.2659 193.878 63.4448 194.407C67.0352 195.279 70.0451 199.368 69.6288 202.905C68.5516 212.067 52.5081 212.995 45.2039 214.167C44.5046 214.279 45.196 216.791 46.0359 216.656C55.9455 215.066 74.9401 213.069 70.0675 199.421C68.2345 194.288 63.6397 190.016 57.6588 192.594C53.1015 194.559 49.2218 198.142 46.6418 202.254C47.4308 193.501 47.1063 184.531 44.5058 176.15C44.0545 174.697 43.3631 174.911 43.811 176.357C44.9467 180.015 45.6342 183.932 45.9507 187.944C45.9411 187.936 45.9321 187.926 45.9215 187.92C39.0685 183.671 33.2419 166.911 45.2034 165.171C56.0317 163.596 50.5746 181.474 46.7157 185.805C46.2464 186.332 47.3615 188.571 47.7473 188.137C51.7199 183.678 53.4862 175.951 52.5063 170.262C51.7414 165.819 49.1162 161.059 43.4408 162.904C31.455 166.798 38.4269 184.889 46.0867 190.114C46.3077 194.988 45.9951 199.955 45.2717 204.736C45.2507 204.779 45.2269 204.824 45.206 204.867C45.1519 204.983 45.1462 205.155 45.1733 205.352C44.7481 208.044 44.1972 210.674 43.5289 213.183ZM73.7723 233.796C74.5579 233.596 75.372 233.334 75.8189 232.849C76.4496 232.162 75.721 230.741 74.8354 230.639C74.8198 230.637 74.8034 230.636 74.7878 230.634C74.5431 230.605 74.3583 230.666 74.222 230.778C74.0146 230.742 73.0393 231.21 72.665 231.325C71.9717 231.537 71.2764 231.743 70.5814 231.95C74.6333 226.95 83.9835 220.778 89.6666 223.158C93.3353 224.693 93.1577 229.411 90.0161 231.392C87.9672 232.684 85.6075 233.395 83.1662 233.69C80.0967 234.059 76.8953 234.139 73.7723 233.796ZM68.2256 239.802C68.4432 240.256 68.7526 240.597 69.0565 240.514C69.0831 240.506 69.1085 240.503 69.1356 240.496C69.1661 241.102 69.3382 241.743 69.7217 242.241C70.0098 242.614 70.3709 242.56 70.3482 242.055C70.3196 241.444 70.23 240.859 70.1122 240.286C79.7161 238.71 82.7888 252.999 73.7768 256.224C68.7087 258.038 60.9225 256.663 59.9558 250.648C59.0888 245.257 62.9646 241.081 68.2256 239.802ZM33.0875 248.413C37.8616 248.133 43.111 247.897 47.3113 249.559C47.7775 249.743 47.4478 247.371 46.7381 247.09C42.2651 245.32 36.5619 245.721 31.6419 245.981C35.1993 243.704 41.7189 241.967 47.3165 241.829C47.4435 241.866 47.5718 241.867 47.6968 241.822C54.1346 241.746 59.2134 243.848 56.8742 249.783C53.6852 257.873 40.4565 253.24 33.0875 248.413ZM20.7692 264.928C23.7449 263.822 27.3772 263.53 30.1974 263.442C34.1082 263.32 40.1438 263.185 43.2213 265.944C45.7064 268.17 43.5763 271.765 40.8481 272.803C38.4898 273.702 35.9377 273.913 33.417 273.594C28.9135 273.024 22.5831 271.435 20.0955 267.437C20.0107 267.3 19.9254 267.197 19.8416 267.107C22.4323 268.017 25.0788 268.758 27.8776 269.038C29.071 269.157 28.5144 266.62 27.4793 266.517C25.1898 266.29 22.9654 265.69 20.7692 264.928ZM13.6744 271.778C14.5277 274.404 15.7301 276.928 17.3056 279.344C18.239 280.776 18.0813 278.469 17.6793 277.853C16.4131 275.912 15.4563 273.927 14.7555 271.868C17.9164 275.496 21.7627 278.821 23.9423 283.087C25.4868 286.109 26.02 289.537 23.5161 292.294C22.0987 293.855 19.8486 296.111 17.5248 296.315C9.88309 296.985 11.7252 278.411 13.6744 271.778ZM17.1032 219.232C21.1513 218.809 25.4243 219.092 29.3434 220.292C23.9836 222.696 18.0897 223.685 12.2189 224.534C11.8062 224.594 12.4274 227.114 13.051 227.023C17.0847 226.44 21.1299 225.787 25.0057 224.659C23.6566 225.681 22.2332 226.601 20.8429 227.411C17.9895 229.074 13.3239 231.833 9.75131 230.817C6.1235 229.787 7.15534 224.767 9.27363 222.668C11.3359 220.621 14.1478 219.54 17.1032 219.232ZM18.229 202.724C18.1309 202.862 18.0926 203.141 18.1065 203.456C17.6103 203.731 17.0901 203.98 16.5102 204.167C15.8603 204.377 16.7204 206.857 17.3423 206.656C17.9734 206.453 18.5406 206.178 19.0788 205.873C22.0933 213.158 8.25377 219.006 2.59802 213.849C-2.34757 209.339 -0.370117 201.576 6.00504 199.439C10.7192 197.858 15.3676 199.105 18.229 202.724ZM30.8204 206.42C33.4341 203.489 35.6058 200.229 38.0255 197.12C38.5256 196.477 37.3831 194.227 36.9323 194.805C34.0015 198.57 31.4421 202.565 28.0074 205.916C29.376 198.642 33.7292 185.551 41.0191 190.433C47.5367 194.797 37.5144 203.296 30.8204 206.42ZM29.0515 217.923C24.8763 216.539 19.6506 215.854 15.2403 216.724C19.2667 214.435 21.877 210.012 20.033 205.255C21.4677 204.191 22.5605 202.776 23.4444 201.208C23.4353 202.277 24.0716 203.522 24.384 204.441C25.3176 207.186 26.2785 209.923 27.2301 212.662C27.84 214.414 28.4487 216.167 29.0515 217.923Z" fill="#E5E5E5"/>
<path d="M53.8125 74.4682C48.4863 72.9333 43.0335 72.6834 37.5544 72.5511C47.1305 66.7462 58.3408 72.0361 65.7086 79.8102C55.1875 83.681 42.7208 82.7707 34.8691 75.0652C41.3256 75.1862 47.8123 74.9913 54.0967 76.8039C55.3452 77.1635 54.6546 74.7113 53.8125 74.4682Z" fill="#E5E5E5"/>
<path d="M16.5434 90.415C8.75973 84.7726 3.73718 76.9162 4.96754 67.6393C6.76633 67.707 8.39616 67.9729 9.86906 68.4116C11.6077 69.3862 13.3625 70.3253 15.155 71.1671C21.1607 76.0273 22.7372 85.0727 22.2442 93.1699C22.1774 94.2499 22.5049 94.108 21.8903 93.7898C20.0082 92.8167 18.2422 91.6471 16.5434 90.415Z" fill="#E5E5E5"/>
<path d="M40.2506 37.6233C28.5019 38.5007 14.6425 43.844 14.1376 55.9243C26.486 56.4127 36.1462 48.1414 40.2506 37.6233Z" fill="#E5E5E5"/>
<path d="M46.8105 21.5477C40.1442 29.8456 29.4474 34.5367 18.8676 31.3906C23.3389 29.8308 28.0357 28.7304 32.9105 28.1521C33.4217 28.0912 32.6565 25.6516 31.8281 25.7493C26.9018 26.3319 22.1554 27.4494 17.6397 29.0371C22.6987 18.5546 35.9484 18.0296 46.8105 21.5477Z" fill="#E5E5E5"/>
<path d="M-7.98843 42.359C3.02435 36.7137 6.7465 24.6822 4.09172 13.635C-4.93198 20.0151 -14.6857 32.0423 -7.98843 42.359Z" fill="#E5E5E5"/>
<path d="M53.8759 54.6644L70.526 52.452C71.7421 52.2904 70.843 49.8528 69.8655 49.9827L56.0263 51.8216C63.2334 44.0713 75.3223 45.8718 84.7349 50.8584C75.8843 57.5477 63.7515 60.1396 53.7265 54.918C53.7764 54.834 53.825 54.7476 53.8759 54.6644Z" fill="#E5E5E5"/>
</svg>
