<svg width="39" height="76" viewBox="0 0 39 76" fill="none" xmlns="http://www.w3.org/2000/svg">
<path d="M41.4374 18.28C41.633 22.4011 42.8719 26.2723 44.2101 30.1309C37.1268 24.9759 38.3338 15.76 42.5049 8.57181C48.3168 14.8954 50.8828 23.8353 46.8931 31.3432C45.2887 26.8054 43.428 22.3298 43.1985 17.4668C43.1525 16.5009 41.4069 17.6283 41.4374 18.28Z" fill="#E5E5E5"/>
<path d="M63.7819 40.0919C61.3958 47.0092 56.5427 52.5824 48.9272 54.1657C48.5069 52.8925 48.2868 51.6851 48.244 50.5417C48.5524 49.0717 48.8286 47.5999 49.0184 46.1274C51.2577 40.6568 57.9524 37.1756 64.4466 35.3882C65.3131 35.1506 65.1153 34.9594 65.027 35.472C64.7576 37.0417 64.3031 38.582 63.7819 40.0919Z" fill="#E5E5E5"/>
<path d="M16.0471 37.4432C19.8293 45.4115 27.6773 53.6772 37.3054 50.8497C34.4388 42.1034 25.3948 37.5389 16.0471 37.4432Z" fill="#E5E5E5"/>
<path d="M1.68489 37.0966C9.96186 39.5647 16.4647 45.795 16.7768 54.0066C14.3737 51.2967 12.2726 48.3086 10.5349 45.0588C10.3524 44.718 8.63626 45.8942 8.93117 46.4466C10.6858 49.7313 12.8135 52.7496 15.2501 55.4831C5.6792 54.7117 1.77887 45.6032 1.68489 37.0966Z" fill="#E5E5E5"/>
<path d="M32.4671 69.8619C25.1311 63.6622 14.6945 64.2316 6.71023 68.9922C14.1002 73.6103 26.1211 77.2514 32.4671 69.8619Z" fill="#E5E5E5"/>
<path d="M25.8549 23.4486L19.7333 12.4112C19.2861 11.605 17.6068 12.8741 17.9662 13.5221L23.0544 22.6963C15.0656 19.7066 13.2987 10.796 14.7406 2.91452C22.328 7.33043 27.5589 15.1154 26.0936 23.4862C26.0145 23.4734 25.9337 23.4623 25.8549 23.4486Z" fill="#E5E5E5"/>
</svg>
