<svg width="77" height="140" viewBox="0 0 77 140" fill="none" xmlns="http://www.w3.org/2000/svg">
<path d="M52.54 50.4363C52.6988 55.7503 55.545 60.7438 58.8362 65.3506C59.2144 64.6477 59.7095 63.9674 59.9945 63.4842C60.4816 62.6576 60.9837 61.8389 61.4826 61.0184C61.3983 60.9453 61.3115 60.877 61.2278 60.8033C60.7717 60.4012 62.0189 58.653 62.5033 58.537C62.6874 58.4925 62.8852 58.4573 63.0752 58.416C63.5884 57.5881 64.101 56.7596 64.6175 55.9335C65.7621 54.1035 66.9112 52.2766 68.059 50.4497C61.0154 47.8014 50.4329 34.395 58.1612 28.0752C68.7358 19.4289 71.2966 37.144 70.9872 45.7679C71.3518 45.1837 71.7183 44.6015 72.075 44.0124C72.4983 43.3138 72.7571 42.0203 72.7842 43.2545C72.7953 43.2588 72.8071 43.2625 72.8188 43.2662C72.7584 42.774 72.9558 42.1666 73.4498 41.8383C73.4629 41.8297 73.4766 41.8204 73.4896 41.8118C73.8225 41.5913 74.2782 41.5258 74.5943 41.6818C74.5799 41.6191 74.5616 41.5588 74.5471 41.4961C74.3801 40.7585 76.006 39.0419 76.0951 39.432C76.5399 41.3901 77.1996 43.2786 78.3826 44.8356C82.979 39.9724 91.2205 38.7664 95.9895 44.3111C100.198 49.2033 98.5159 56.4346 93.546 60.3536C90.1728 63.0133 86.3113 63.1968 83.0488 61.9334C83.2141 62.0803 83.3892 62.2193 83.5441 62.3748C87.2074 66.0578 86.8915 71.3088 83.693 75.1645C78.0168 82.0059 66.187 68.2902 63.1899 62.3936C63.1206 62.342 63.054 62.2867 62.9854 62.2344C62.4532 63.1085 61.9224 63.9825 61.4144 64.8695C61.1855 65.269 60.6232 66.7454 60.5255 66.2231C60.5904 66.5707 60.449 66.9344 60.2135 67.2342C61.558 69.0268 62.9234 70.7566 64.1699 72.4164C70.448 80.7731 77.1536 88.8385 83.9813 96.7998C87.3836 100.768 91.8138 104.723 94.5101 109.176C94.612 109.344 94.5189 109.655 94.3389 109.989C98.946 113.849 102.993 118.643 107.381 122.191C108.246 122.891 106.774 125.08 105.998 124.452C98.5766 118.449 91.2148 107.021 80.7001 106.105C77.5748 105.833 74.5015 106.144 71.4401 106.608C70.992 108.01 70.4615 109.367 69.85 110.679C71.1339 116.771 69.3347 124.135 67.1784 129.837C66.0674 132.773 62.4814 141.424 57.4786 139.159C51.3791 136.398 49.7925 128.828 53.2747 123.729C56.9899 118.29 62.8184 115.097 68.0233 111.101C68.1976 110.967 68.3236 110.918 68.4169 110.918C68.5559 110.711 68.7183 110.515 68.8847 110.361C69.384 109.24 69.8193 108.078 70.1886 106.865C70.1951 106.845 70.2055 106.823 70.2133 106.802C69.1733 106.972 68.1339 107.148 67.0952 107.325C66.6882 107.983 65.9782 108.478 65.5788 107.954C65.4906 107.839 65.3913 107.729 65.2958 107.617C64.8956 107.681 64.4954 107.74 64.0939 107.797C64.4839 108.062 64.5015 108.898 63.9163 109.492C59.661 113.814 51.6061 114.809 45.7396 113.598C40.8899 112.598 34.9908 108.903 37.5422 103.378C39.876 98.3263 46.3468 98.2431 51.3589 99.0943C56.1922 99.9148 62.8607 101.399 66.4503 105.036C72.3333 103.991 78.2304 102.563 83.934 104.12C85.9638 104.673 87.8411 105.538 89.62 106.595C86.4246 102.725 82.5916 99.0791 79.4904 95.4136C78.2193 93.9113 76.9507 92.4042 75.6867 90.8939C75.4102 91.3519 75.052 91.733 74.7732 91.7067C69.1122 91.171 63.5442 89.2446 58.0713 87.8677C57.81 87.8014 57.5429 87.7321 57.2751 87.6621C48.2998 92.3191 25.2526 95.4641 29.8371 81.0943C31.1164 77.0843 34.0213 75.2211 37.6038 74.7837C37.0649 74.5152 36.6051 74.2854 36.3379 74.1373C33.3774 72.5002 30.3999 70.8902 27.4212 69.2851C26.5622 68.8224 25.7032 68.3609 24.8442 67.8995C24.3129 68.221 23.7986 68.5708 23.3294 68.9594C38.565 75.666 24.9248 98.0258 11.7511 88.562C2.78422 82.1194 11.001 64.9537 21.739 69.2127C22.2922 68.4986 22.9251 67.8436 23.6239 67.2432C23.181 67.0048 22.7401 66.7632 22.2978 66.523C22.1504 66.6769 21.999 66.7791 21.8579 66.7878C12.4178 67.3739 -6.94069 62.2194 2.59153 50.6272C9.25143 42.5287 22.7127 57.4978 24.2427 63.5068C24.301 63.7375 24.1641 64.0723 23.9534 64.409C24.6426 64.7808 25.3318 65.1525 26.0203 65.5237C26.4778 65.2471 26.9497 64.9828 27.4379 64.7339C27.9607 64.4672 27.6703 65.4469 27.2477 66.1855C28.7972 67.02 30.346 67.8539 31.8942 68.692C34.8233 70.2787 37.7641 71.8518 40.6411 73.5221C41.2885 73.8989 42.5386 74.4124 43.2215 75.0795C43.2404 75.0825 43.2581 75.0856 43.277 75.0887C48.7445 76.1789 56.7549 79.3938 59.5248 84.4581C60.0789 84.163 59.9893 84.8915 59.7098 85.5827C59.6993 85.6098 59.687 85.6374 59.6759 85.6639C59.6739 85.6682 59.6726 85.6719 59.6713 85.6756C64.4625 86.9484 69.3511 88.5282 74.2796 89.2109C68.8026 82.6262 63.4595 75.9252 58.6241 68.9187C56.1355 65.313 53.3131 61.5088 51.7226 57.4448C50.8067 55.1037 50.8091 52.2519 50.9735 49.5883C50.6745 49.6918 50.3604 49.6656 50.0932 49.4141C45.1205 44.7353 40.1472 40.0558 35.1745 35.3769C34.3303 34.5826 35.9526 32.5 36.9419 33.4308C41.6872 37.8957 46.4325 42.3606 51.1777 46.8255C51.181 46.788 51.1835 46.7474 51.1868 46.7099C51.2572 45.785 51.3401 44.8559 51.4321 43.9256C51.2872 43.9478 51.1742 43.8808 51.1283 43.6667C50.125 38.9698 47.2891 33.8114 43.3722 30.6928C41.7466 29.3981 39.6495 27.9758 37.4007 28.0487C33.6953 28.1688 29.8186 31.5487 29.4139 35.0868C28.3644 44.2514 43.8161 48.4241 50.6788 51.0559C51.3359 51.3077 50.0847 53.6201 49.2957 53.3167C39.9849 49.7465 21.8972 43.9285 29.7846 31.5954C32.7514 26.9573 38.2175 23.7215 43.4657 27.457C47.4647 30.3036 50.4311 34.5913 52.007 39.1322C53.2442 30.4246 55.6182 21.7328 60.0792 14.08C60.8533 12.7523 61.4791 13.1026 60.7103 14.4229C58.7624 17.7633 57.1929 21.4474 55.9637 25.3005C55.9748 25.295 55.9859 25.287 55.9977 25.2833C63.6633 22.5296 73.196 7.35227 61.9161 3.21793C51.7048 -0.524589 52.933 18.0417 55.7073 23.0562C56.0447 23.6663 54.4425 25.6252 54.1653 25.1233C51.3092 19.9607 51.3567 12.0568 53.6184 6.7011C55.384 2.5191 59.0387 -1.59342 64.157 1.36317C74.9664 7.60638 64.0104 23.8498 55.3332 27.3917C53.9996 32.1056 53.1656 37.0191 52.7756 41.8339C52.7861 41.8807 52.7992 41.9287 52.8097 41.9754C52.8359 42.0997 52.8021 42.2683 52.7304 42.4554C52.5281 45.1707 52.4629 47.8503 52.54 50.4363ZM18.2837 64.4036C17.5626 64.0485 16.8277 63.6275 16.5027 63.0623C16.0444 62.2634 17.0816 61.0247 17.9697 61.1053C17.9854 61.1066 18.0017 61.1084 18.0174 61.1096C18.2629 61.1316 18.4295 61.2281 18.5367 61.3658C18.7476 61.3724 19.5924 62.0284 19.9315 62.217C20.5599 62.5649 21.1916 62.9071 21.8226 63.2513C19.0131 57.5447 11.2994 49.6141 5.20482 50.7805C1.27063 51.5326 0.362003 56.1755 2.97519 58.7486C4.67941 60.4272 6.82008 61.6027 9.1361 62.3875C12.0484 63.373 15.1558 64.103 18.2837 64.4036ZM22.3218 71.3978C22.0055 71.7961 21.625 72.0665 21.3474 71.9233C21.3232 71.9104 21.299 71.9024 21.2742 71.8901C21.1055 72.4754 20.7906 73.0656 20.3019 73.4739C19.9351 73.7793 19.5948 73.6534 19.7329 73.1648C19.9009 72.574 20.1225 72.0213 20.3689 71.4859C11.3533 67.9917 5.07617 81.3173 13.1356 86.3011C17.6681 89.1037 25.5854 89.3475 27.9089 83.6712C29.9919 78.5839 27.1654 73.7172 22.3218 71.3978ZM54.6549 86.96C50.0577 85.7148 44.9865 84.4157 40.5044 85.1823C40.007 85.2676 40.873 83.0181 41.6304 82.8884C46.4036 82.0711 51.8799 83.6247 56.624 84.8803C53.6729 81.9327 47.7058 78.909 42.2721 77.6342C42.1396 77.6447 42.0142 77.619 41.9025 77.5495C35.6342 76.1645 30.1932 77.1834 31.1161 83.4537C32.3744 92.002 46.353 90.1725 54.6549 86.96ZM62.8946 105.593C60.2429 103.907 56.7632 102.883 54.03 102.222C50.2395 101.307 44.3774 99.9463 40.74 102.013C37.803 103.681 39.0584 107.624 41.4841 109.193C43.5805 110.551 46.0238 111.277 48.5581 111.479C53.086 111.839 59.6311 111.577 62.9769 108.18C63.0911 108.064 63.1981 107.98 63.3006 107.909C60.5623 108.27 57.8083 108.456 55.0114 108.159C53.819 108.032 54.9442 105.669 55.9786 105.779C58.2661 106.023 60.5755 105.89 62.8946 105.593ZM68.2506 113.726C66.8153 116.116 65.0625 118.336 62.97 120.374C61.7303 121.582 62.4135 119.361 62.9473 118.842C64.6287 117.204 66.0182 115.461 67.1744 113.594C63.2563 116.492 58.7383 118.955 55.6318 122.677C53.4307 125.313 52.124 128.551 53.9365 131.753C54.9624 133.566 56.6419 136.227 58.8638 136.9C66.1715 139.109 68.6327 120.599 68.2506 113.726ZM76.9539 61.7234C73.0985 60.4863 68.8616 59.8924 64.7599 60.2656C69.4417 63.7042 74.9694 65.8705 80.5068 67.8947C80.8961 68.0372 79.7114 70.3717 79.1236 70.1555C75.319 68.7645 71.519 67.304 67.9935 65.4132C69.0764 66.6855 70.2553 67.8734 71.4268 68.9475C73.8315 71.1522 77.754 74.7963 81.4751 74.5322C85.2536 74.2645 85.3972 69.1539 83.8105 66.6723C82.2664 64.2541 79.7689 62.626 76.9539 61.7234ZM79.6407 45.3762C79.7048 45.5312 79.6782 45.8112 79.5923 46.1164C80.0137 46.4859 80.4645 46.8351 80.9878 47.1356C81.5744 47.4723 80.1657 49.7191 79.6046 49.3964C79.0349 49.0695 78.5443 48.6853 78.0888 48.2777C73.4748 54.7769 85.646 63.3049 92.351 59.421C98.2139 56.025 98.0635 48.0431 92.3292 44.6581C88.0889 42.155 83.2643 42.426 79.6407 45.3762ZM66.4992 46.4207C64.6193 43.0275 63.2467 39.402 61.5972 35.8739C61.2564 35.1438 62.888 33.1793 63.1954 33.8362C65.1935 38.1092 66.7764 42.5301 69.3612 46.5018C69.6932 39.1213 68.4453 25.4526 60.208 28.7346C52.8435 31.6683 60.6799 42.0076 66.4992 46.4207ZM65.5881 58.0125C69.9822 57.5111 75.2415 57.9062 79.348 59.6539C75.9417 56.5989 74.4075 51.7491 77.2988 47.4802C76.142 46.1495 75.3997 44.5448 74.8962 42.834C74.66 43.8796 73.7532 44.9655 73.2374 45.7996C71.6963 48.2894 70.1305 50.7657 68.5731 53.2464C67.5759 54.8326 66.5794 56.4207 65.5881 58.0125Z" fill="#E5E5E5"/>
</svg>
