<svg width="95" height="307" viewBox="0 0 95 307" fill="none" xmlns="http://www.w3.org/2000/svg">
<path d="M70.54 54.4363C70.6988 59.7503 73.545 64.7438 76.8362 69.3506C77.2144 68.6477 77.7095 67.9674 77.9945 67.4842C78.4816 66.6576 78.9837 65.8389 79.4826 65.0184C79.3983 64.9453 79.3115 64.877 79.2278 64.8033C78.7717 64.4012 80.0189 62.653 80.5033 62.5369C80.6874 62.4925 80.8852 62.4573 81.0752 62.416C81.5884 61.5881 82.101 60.7596 82.6175 59.9335C83.7621 58.1035 84.9112 56.2766 86.059 54.4497C79.0154 51.8014 68.4329 38.395 76.1612 32.0752C86.7358 23.4289 89.2966 41.144 88.9872 49.7679C89.3518 49.1837 89.7183 48.6015 90.075 48.0124C90.4983 47.3138 90.7571 46.0203 90.7842 47.2545C90.7953 47.2588 90.8071 47.2625 90.8188 47.2662C90.7584 46.774 90.9558 46.1666 91.4498 45.8383C91.4628 45.8297 91.4766 45.8204 91.4896 45.8118C91.8225 45.5913 92.2782 45.5258 92.5943 45.6818C92.5799 45.6191 92.5616 45.5588 92.5471 45.4961C92.3801 44.7585 94.006 43.042 94.0951 43.432C94.5399 45.3901 95.1996 47.2786 96.3826 48.8356C100.979 43.9724 109.221 42.7664 113.989 48.3111C118.198 53.2033 116.516 60.4346 111.546 64.3536C108.173 67.0133 104.311 67.1968 101.049 65.9334C101.214 66.0804 101.389 66.2193 101.544 66.3748C105.207 70.0578 104.892 75.3088 101.693 79.1645C96.0168 86.0059 84.187 72.2902 81.1899 66.3936C81.1206 66.342 81.054 66.2867 80.9854 66.2344C80.4532 67.1085 79.9224 67.9825 79.4144 68.8695C79.1855 69.269 78.6232 70.7454 78.5255 70.2231C78.5904 70.5707 78.449 70.9344 78.2135 71.2342C79.558 73.0268 80.9234 74.7566 82.1699 76.4164C88.448 84.7731 95.1536 92.8385 101.981 100.8C105.384 104.768 109.814 108.723 112.51 113.176C112.612 113.344 112.519 113.655 112.339 113.989C116.946 117.849 120.993 122.643 125.381 126.191C126.246 126.891 124.774 129.08 123.998 128.452C116.577 122.449 109.215 111.021 98.7001 110.105C95.5748 109.833 92.5015 110.144 89.4401 110.608C88.992 112.01 88.4615 113.367 87.85 114.679C89.1339 120.771 87.3347 128.135 85.1784 133.837C84.0674 136.773 80.4814 145.424 75.4786 143.159C69.3791 140.398 67.7925 132.828 71.2747 127.729C74.9898 122.29 80.8184 119.097 86.0233 115.101C86.1976 114.967 86.3236 114.918 86.4169 114.918C86.5559 114.711 86.7183 114.515 86.8847 114.361C87.384 113.24 87.8193 112.078 88.1886 110.865C88.1951 110.845 88.2055 110.823 88.2133 110.802C87.1733 110.972 86.1339 111.148 85.0952 111.325C84.6882 111.983 83.9782 112.478 83.5788 111.954C83.4906 111.839 83.3913 111.729 83.2958 111.617C82.8956 111.681 82.4954 111.74 82.0939 111.797C82.4839 112.062 82.5015 112.898 81.9163 113.492C77.661 117.814 69.6061 118.809 63.7396 117.598C58.8899 116.598 52.9908 112.903 55.5422 107.378C57.876 102.326 64.3468 102.243 69.3589 103.094C74.1922 103.915 80.8607 105.399 84.4503 109.036C90.3333 107.991 96.2304 106.563 101.934 108.12C103.964 108.673 105.841 109.538 107.62 110.595C104.425 106.725 100.592 103.079 97.4904 99.4136C96.2193 97.9113 94.9507 96.4042 93.6867 94.8939C93.4102 95.3519 93.052 95.733 92.7732 95.7067C87.1122 95.171 81.5442 93.2446 76.0713 91.8677C75.81 91.8014 75.5429 91.7321 75.2751 91.6621C66.2998 96.3191 43.2526 99.4641 47.8371 85.0943C49.1164 81.0843 52.0213 79.2211 55.6038 78.7837C55.0649 78.5152 54.6051 78.2854 54.3379 78.1373C51.3774 76.5002 48.3999 74.8902 45.4212 73.2851C44.5622 72.8224 43.7032 72.3609 42.8442 71.8994C42.3129 72.221 41.7986 72.5708 41.3294 72.9594C56.565 79.666 42.9248 102.026 29.7511 92.562C20.7842 86.1194 29.001 68.9537 39.739 73.2127C40.2922 72.4986 40.9251 71.8436 41.6239 71.2432C41.181 71.0048 40.7401 70.7632 40.2978 70.523C40.1504 70.6769 39.999 70.7791 39.8579 70.7878C30.4178 71.3739 11.0593 66.2194 20.5915 54.6272C27.2514 46.5287 40.7127 61.4978 42.2427 67.5068C42.301 67.7375 42.1641 68.0723 41.9534 68.409C42.6426 68.7808 43.3318 69.1525 44.0203 69.5237C44.4778 69.2471 44.9497 68.9828 45.4379 68.7339C45.9607 68.4672 45.6703 69.4469 45.2477 70.1855C46.7972 71.02 48.346 71.8539 49.8942 72.692C52.8233 74.2787 55.7641 75.8518 58.6411 77.5221C59.2885 77.8989 60.5386 78.4124 61.2215 79.0795C61.2404 79.0825 61.2581 79.0856 61.277 79.0887C66.7445 80.1789 74.7549 83.3938 77.5248 88.4581C78.0789 88.163 77.9893 88.8915 77.7098 89.5827C77.6993 89.6098 77.687 89.6374 77.6759 89.6639C77.6739 89.6682 77.6726 89.6719 77.6713 89.6756C82.4625 90.9484 87.3511 92.5282 92.2796 93.2109C86.8026 86.6262 81.4595 79.9252 76.6241 72.9187C74.1355 69.313 71.3131 65.5088 69.7226 61.4448C68.8067 59.1037 68.8091 56.2519 68.9735 53.5883C68.6745 53.6918 68.3604 53.6656 68.0932 53.4141C63.1205 48.7353 58.1472 44.0558 53.1745 39.3769C52.3303 38.5826 53.9526 36.5 54.9419 37.4308C59.6872 41.8957 64.4325 46.3606 69.1777 50.8255C69.181 50.788 69.1835 50.7474 69.1868 50.7099C69.2572 49.785 69.3401 48.8559 69.4321 47.9256C69.2872 47.9478 69.1742 47.8808 69.1283 47.6667C68.125 42.9698 65.2891 37.8114 61.3722 34.6928C59.7466 33.3981 57.6495 31.9758 55.4007 32.0487C51.6953 32.1688 47.8186 35.5487 47.4139 39.0868C46.3644 48.2514 61.8161 52.4241 68.6788 55.0559C69.3359 55.3077 68.0847 57.6201 67.2957 57.3167C57.9849 53.7465 39.8972 47.9285 47.7847 35.5954C50.7514 30.9573 56.2175 27.7215 61.4657 31.457C65.4647 34.3036 68.4311 38.5913 70.007 43.1322C71.2442 34.4246 73.6182 25.7328 78.0792 18.08C78.8533 16.7523 79.4791 17.1026 78.7103 18.4229C76.7624 21.7633 75.1929 25.4474 73.9637 29.3005C73.9748 29.295 73.9859 29.287 73.9977 29.2833C81.6633 26.5296 91.196 11.3523 79.9161 7.21793C69.7048 3.47541 70.933 22.0417 73.7073 27.0562C74.0447 27.6663 72.4425 29.6252 72.1653 29.1233C69.3092 23.9607 69.3567 16.0568 71.6184 10.7011C73.384 6.5191 77.0387 2.40658 82.157 5.36318C92.9664 11.6064 82.0104 27.8498 73.3332 31.3917C71.9996 36.1056 71.1656 41.0191 70.7756 45.8339C70.7861 45.8807 70.7992 45.9287 70.8097 45.9754C70.8359 46.0997 70.8021 46.2683 70.7304 46.4554C70.5281 49.1707 70.4629 51.8503 70.54 54.4363ZM36.2837 68.4036C35.5626 68.0485 34.8277 67.6275 34.5027 67.0623C34.0444 66.2634 35.0816 65.0247 35.9697 65.1053C35.9854 65.1066 36.0017 65.1084 36.0174 65.1096C36.2629 65.1316 36.4295 65.2281 36.5367 65.3658C36.7476 65.3724 37.5924 66.0284 37.9315 66.217C38.5599 66.5649 39.1916 66.9071 39.8226 67.2513C37.0131 61.5447 29.2994 53.6141 23.2048 54.7805C19.2706 55.5326 18.362 60.1755 20.9752 62.7486C22.6794 64.4272 24.8201 65.6027 27.1361 66.3875C30.0484 67.373 33.1558 68.103 36.2837 68.4036ZM40.3218 75.3978C40.0055 75.7961 39.625 76.0665 39.3474 75.9233C39.3232 75.9104 39.299 75.9024 39.2742 75.8901C39.1055 76.4754 38.7906 77.0656 38.3019 77.4739C37.9351 77.7793 37.5948 77.6534 37.7329 77.1648C37.9009 76.574 38.1225 76.0213 38.3689 75.4859C29.3533 71.9917 23.0762 85.3173 31.1356 90.3011C35.6681 93.1037 43.5854 93.3475 45.9089 87.6712C47.9919 82.5839 45.1654 77.7172 40.3218 75.3978ZM72.6549 90.96C68.0577 89.7148 62.9865 88.4157 58.5044 89.1823C58.007 89.2676 58.873 87.0181 59.6304 86.8884C64.4036 86.0711 69.8799 87.6247 74.624 88.8803C71.6729 85.9327 65.7058 82.909 60.2721 81.6342C60.1396 81.6447 60.0142 81.619 59.9025 81.5495C53.6342 80.1645 48.1932 81.1834 49.1161 87.4537C50.3744 96.002 64.353 94.1725 72.6549 90.96ZM80.8946 109.593C78.2429 107.907 74.7632 106.883 72.03 106.222C68.2395 105.307 62.3774 103.946 58.74 106.013C55.803 107.681 57.0584 111.624 59.4841 113.193C61.5805 114.551 64.0238 115.277 66.5581 115.479C71.086 115.839 77.6311 115.577 80.9769 112.18C81.0911 112.064 81.1981 111.98 81.3006 111.909C78.5623 112.27 75.8083 112.456 73.0114 112.159C71.819 112.032 72.9442 109.669 73.9786 109.779C76.2661 110.023 78.5755 109.89 80.8946 109.593ZM86.2506 117.726C84.8153 120.116 83.0625 122.336 80.97 124.374C79.7303 125.582 80.4135 123.361 80.9473 122.842C82.6287 121.204 84.0182 119.461 85.1744 117.594C81.2563 120.492 76.7383 122.955 73.6318 126.677C71.4307 129.313 70.124 132.551 71.9365 135.753C72.9624 137.566 74.6419 140.227 76.8638 140.9C84.1715 143.109 86.6327 124.599 86.2506 117.726ZM94.9539 65.7234C91.0985 64.4863 86.8616 63.8924 82.7599 64.2656C87.4417 67.7042 92.9694 69.8705 98.5068 71.8947C98.8961 72.0372 97.7114 74.3717 97.1236 74.1555C93.319 72.7645 89.519 71.304 85.9935 69.4132C87.0764 70.6855 88.2553 71.8734 89.4268 72.9475C91.8315 75.1522 95.754 78.7963 99.4751 78.5322C103.254 78.2645 103.397 73.1539 101.811 70.6723C100.266 68.2541 97.7689 66.626 94.9539 65.7234ZM97.6407 49.3762C97.7048 49.5312 97.6782 49.8112 97.5923 50.1164C98.0137 50.4859 98.4645 50.8351 98.9878 51.1356C99.5744 51.4723 98.1657 53.7191 97.6046 53.3964C97.0349 53.0695 96.5443 52.6853 96.0888 52.2777C91.4748 58.7769 103.646 67.3049 110.351 63.421C116.214 60.025 116.064 52.0431 110.329 48.6581C106.089 46.155 101.264 46.426 97.6407 49.3762ZM84.4992 50.4207C82.6193 47.0275 81.2467 43.402 79.5972 39.8739C79.2564 39.1438 80.888 37.1793 81.1954 37.8362C83.1935 42.1092 84.7764 46.5301 87.3613 50.5018C87.6932 43.1213 86.4453 29.4526 78.208 32.7346C70.8435 35.6683 78.6799 46.0076 84.4992 50.4207ZM83.5881 62.0125C87.9822 61.5111 93.2415 61.9062 97.348 63.6539C93.9417 60.5989 92.4075 55.7491 95.2988 51.4802C94.142 50.1495 93.3997 48.5448 92.8962 46.834C92.66 47.8796 91.7532 48.9655 91.2374 49.7996C89.6963 52.2894 88.1305 54.7657 86.5731 57.2464C85.5759 58.8326 84.5794 60.4207 83.5881 62.0125Z" fill="#E5E5E5"/>
<path d="M86.3616 216.078C86.6104 221.321 88.1866 226.246 89.8891 231.155C80.8775 224.597 82.4131 212.872 87.7197 203.727C95.1137 211.772 98.3783 223.146 93.3025 232.698C91.2613 226.925 88.8941 221.231 88.6021 215.044C88.5436 213.815 86.3227 215.249 86.3616 216.078Z" fill="#E5E5E5"/>
<path d="M114.789 243.828C111.753 252.629 105.579 259.719 95.8903 261.733C95.3556 260.113 95.0757 258.577 95.0211 257.123C95.4135 255.253 95.7649 253.38 96.0064 251.507C98.8553 244.547 107.373 240.118 115.635 237.844C116.737 237.542 116.485 237.298 116.373 237.951C116.03 239.947 115.452 241.907 114.789 243.828Z" fill="#E5E5E5"/>
<path d="M54.0592 240.458C58.871 250.596 68.8555 261.112 81.1047 257.515C77.4578 246.387 65.9516 240.58 54.0592 240.458Z" fill="#E5E5E5"/>
<path d="M35.7871 240.017C46.3173 243.157 54.5905 251.084 54.9875 261.531C51.9303 258.083 49.2571 254.282 47.0463 250.147C46.8142 249.714 44.6308 251.21 45.006 251.913C47.2383 256.092 49.9453 259.932 53.0452 263.409C40.8688 262.428 35.9066 250.84 35.7871 240.017Z" fill="#E5E5E5"/>
<path d="M74.9492 281.702C65.6161 273.815 52.3383 274.539 42.1805 280.596C51.5823 286.471 66.8756 291.104 74.9492 281.702Z" fill="#E5E5E5"/>
<path d="M66.537 222.654L58.7488 208.612C58.18 207.586 56.0435 209.201 56.5007 210.025L62.9741 221.697C52.8104 217.893 50.5626 206.557 52.3969 196.53C62.05 202.148 68.7049 212.052 66.8407 222.702C66.74 222.686 66.6373 222.671 66.537 222.654Z" fill="#E5E5E5"/>
</svg>
