<svg width="165" height="548" viewBox="0 0 165 548" fill="none" xmlns="http://www.w3.org/2000/svg">
<path d="M224.451 207.941C224.363 207.826 224.289 207.706 224.199 207.594C223.931 207.76 223.677 207.935 223.406 208.099C224.522 215.083 225.789 221.992 227.485 228.723C227.555 229.006 227.55 229.335 227.514 229.688C241.473 242.469 255.435 255.252 269.395 268.032C295.47 239.117 321.556 210.208 347.838 181.478C348.59 180.657 349.323 180.183 350.009 179.963C351.264 177.858 353.276 176.279 354.773 177.654C375.73 196.909 396.248 216.629 417.205 235.885C419.131 237.653 415.908 243.842 413.154 243.905C410.024 247.324 406.894 250.742 403.768 254.157C411.047 259.963 418.838 272.828 422.984 277.682C439.953 297.548 456.745 317.569 473.479 337.63C490.876 358.488 508.23 379.379 525.418 400.41C531.308 407.616 544.627 418.704 547.208 428.007C548.087 431.182 546.069 435.203 542.518 435.34C542.501 435.34 542.485 435.339 542.469 435.342C542.389 435.345 542.332 435.323 542.256 435.322C508.97 471.679 475.683 508.036 442.395 544.395C442.135 544.679 441.876 544.962 441.614 545.248C441.479 545.395 441.345 545.542 441.21 545.689C439.493 547.564 438.599 547.277 438.287 546.134C430.116 545.324 416.325 531.947 410.764 528.141C389.069 513.303 367.504 498.27 345.987 483.166C324.431 468.031 302.898 452.856 281.554 437.417C275.868 433.309 258.122 424.607 254.546 417.14C250.92 421.1 247.293 425.062 243.663 429.026C242.299 430.517 240.982 430.892 239.946 430.605C239.66 430.763 239.418 430.807 239.264 430.666C218.846 411.96 198.499 393.177 178.081 374.475C177.827 374.242 177.702 373.901 177.665 373.497C176.94 372.079 177.057 369.961 178.641 368.226C205.694 338.655 232.541 308.895 259.378 279.133C236.746 284.014 213.729 285.7 191.082 284.179C176.595 336.5 120.139 346.238 72.2317 333.86C70.6946 333.46 74.2254 327.557 74.5784 327.036C92.1766 300.828 119.633 281.211 149.618 277.648C132.306 273.291 115.534 266.93 99.6733 258.539C99.2974 259.048 98.9046 259.477 98.4828 259.656C49.9974 280.55 13.8607 237.945 0.553647 194.995C0.0110711 193.246 2.75394 187.085 4.77244 186.88C49.2215 182.349 93.4476 203.574 104.765 248.951C104.866 249.36 104.799 249.869 104.637 250.424C151.545 275.052 206.348 281.991 259.376 271.339C233.593 247.733 207.81 224.127 182.024 200.52C181.606 201.384 181.194 202.096 180.903 202.386C142.109 241.387 89.1716 213.335 58.2993 178.408C56.7541 176.659 60.5821 170.745 62.3056 169.991C88.8256 158.331 119.362 156.311 145.015 166.64C123.723 147.147 102.431 127.653 81.1395 108.16C32.3011 115.87 6.26555 69.0812 1.41132 25.4767C1.2092 23.6841 3.60382 16.9856 6.00161 17.3633C51.0089 24.429 90.0835 56.161 92.6661 103.469C92.6946 103.962 92.4229 104.755 92.0051 105.633C134.248 144.308 176.491 182.983 218.734 221.658C216.589 209.917 215.136 197.813 213.148 185.881C212.231 182.576 211.646 179.258 211.329 175.937C208.353 161.269 203.993 147.11 195.804 134.511C191.649 128.117 187.128 121.985 182.492 115.948C181.671 116.817 181.162 116.969 181.606 115.398C181.652 115.24 181.67 115.085 181.712 114.926C181.112 114.145 180.505 113.37 179.9 112.589C127.029 106.55 117.455 50.9639 127.108 6.93687C127.328 5.92907 129.91 -0.735181 131.619 0.156263C171.011 20.7337 197.657 62.2204 187.095 106.599C194.398 116.016 201.287 125.723 206.635 136.471C209.363 141.947 211.514 147.637 213.297 153.462C220.553 125.67 244.299 99.9297 268.196 84.1058C268.466 83.9238 269.124 83.4807 269.26 84.1192C279.024 129.043 265.459 180.629 226.259 206.299C225.371 207.386 224.591 208.12 224.451 207.941ZM171.137 101.394C159.575 86.6121 148.401 71.6274 141.105 54.0076C139.953 51.2207 145.325 43.7285 147.035 47.8582C155.639 68.6518 170.313 85.3398 184.035 102.678C188.541 64.124 163.943 29.0818 130.176 10.2301C124.423 47.6645 134.005 89.5097 171.137 101.394ZM228.334 198.845C257.025 180.654 268.116 149.226 266.986 115.62C266.74 108.284 266.174 100.914 264.804 93.6926C264.357 91.3333 265.468 91.8707 262.294 94.1904C238.517 111.602 216.587 136.674 216.039 163.775C217.582 170.456 218.771 177.263 219.824 184.109C221.802 189.015 224.606 193.936 228.334 198.845ZM67.3289 174.998C95.3759 204.011 140.542 228.279 175.514 201.693C149.991 167.938 105.76 161.532 67.3289 174.998ZM96.4215 245.899C82.2018 210.674 45.7524 193.255 7.96692 194.82C21.7584 231.65 52.0862 265.444 92.4964 254.583C78.2101 246.321 64.7396 236.364 52.3775 224.694C50.2993 222.731 55.4735 215.071 56.7577 216.281C68.9956 227.824 82.3098 237.69 96.4215 245.899ZM185.664 291.505C145.851 275.456 104.009 293.429 78.815 325.976C116.357 335.072 171.322 333.045 185.664 291.505ZM396.755 261.822C351.482 311.271 306.205 360.725 260.932 410.174C261.129 410.53 261.248 410.934 261.305 411.372C264.972 417.336 285.833 428.942 291.673 433.14C311.99 447.733 332.421 462.168 352.903 476.53C372.957 490.591 393.038 504.608 413.254 518.435C420.004 523.055 426.753 527.674 433.585 532.175C435.761 533.61 443.122 537.083 440.586 537.363C441.096 537.307 441.521 537.362 441.902 537.466C474.385 501.986 506.868 466.506 539.354 431.024C535.279 423.306 523.324 412.193 518.206 405.947C502.129 386.32 485.936 366.787 469.687 347.306C453.289 327.646 436.856 308.01 420.24 288.532C414.347 281.628 408.464 274.72 402.444 267.927C401.356 266.695 398.32 263.666 396.755 261.822ZM186.415 369.69C204.979 386.712 223.497 403.785 242.065 420.799C292.904 365.27 343.739 309.746 394.575 254.219C395.135 253.215 395.938 252.174 396.915 251.664C400.564 247.678 404.213 243.693 407.862 239.707C389.042 222.322 370.516 204.632 351.677 187.268C296.301 247.813 241.762 309.119 186.415 369.69ZM42.9731 60.7334C57.1264 73.6913 71.2843 86.6535 85.4376 99.6114C85.7819 99.5537 86.1302 99.4824 86.4743 99.4202C79.2825 60.8646 45.5916 34.7989 7.56014 26.8751C14.077 63.2695 35.3558 99.3712 72.7834 100.501C61.0181 89.7289 49.2529 78.9573 37.4876 68.1857C34.9947 65.9033 39.8715 57.8937 42.9731 60.7334Z" fill="#4A8616"/>
</svg>
