<svg width="233" height="240" viewBox="0 0 233 240" fill="none" xmlns="http://www.w3.org/2000/svg">
<path d="M187.867 147.477C169.51 153.164 153.437 162.987 137.532 173.217C152.901 137.06 195.779 131.326 232.808 140.57C210.76 172.705 173.316 194.137 135.048 186.04C153.718 173.879 171.824 160.703 193.487 153.998C197.79 152.664 190.77 146.579 187.867 147.477Z" fill="#4A8616"/>
<path d="M114.369 268.075C80.5424 266.093 50.0349 252.05 34.4429 221.573C39.7145 218.287 44.9121 215.93 50.0179 214.401C56.9855 213.978 63.9259 213.417 70.7735 212.488C97.9164 215.551 121.04 239.881 136.307 265.356C138.34 268.756 138.982 267.69 136.574 267.919C129.2 268.625 121.753 268.51 114.369 268.075Z" fill="#4A8616"/>
<path d="M73.3036 62.2269C41.5895 87.6795 13.0492 130.75 36.4836 168.308C72.7214 145.827 83.2516 102.039 73.3036 62.2269Z" fill="#4A8616"/>
<path d="M58.9184 0.822905C56.9848 38.8832 36.1249 73.8422 -0.539266 84.844C9.00627 71.4451 20.1413 59.0002 32.8588 47.7908C34.1921 46.6144 26.9853 40.712 24.823 42.6154C11.967 53.9377 0.725759 66.5308 -8.88889 80.1001C-16.0395 38.5439 20.6828 11.246 58.9184 0.822905Z" fill="#4A8616"/>
<path d="M-54.5783 170.164C-34.7814 131.702 -48.9362 88.0495 -79.2583 59.7506C-91.8669 96.5775 -94.9301 151.92 -54.5783 170.164Z" fill="#4A8616"/>
<path d="M147.269 87.3891L190.219 48.3844C193.356 45.5355 185.771 39.8991 183.249 42.189L147.55 74.609C152.155 37.1577 190.354 19.154 227.477 15.99C215.999 53.4171 186.72 84.8063 147.365 88.4471C147.334 88.096 147.295 87.74 147.269 87.3891Z" fill="#4A8616"/>
</svg>
