<svg width="61" height="210" viewBox="0 0 61 210" fill="none" xmlns="http://www.w3.org/2000/svg">
<path d="M86.3023 80.0693C86.2688 80.0256 86.2403 79.9799 86.206 79.937C86.1038 80.0004 86.0069 80.067 85.9038 80.1296C86.3294 82.7938 86.8127 85.429 87.4594 87.9963C87.4863 88.1044 87.4842 88.23 87.4705 88.3647C92.7953 93.2397 98.1209 98.1156 103.446 102.991C113.392 91.9611 123.342 80.934 133.367 69.9752C133.654 69.6621 133.933 69.4816 134.195 69.3975C134.674 68.5944 135.441 67.9921 136.012 68.5167C144.006 75.8614 151.832 83.3834 159.826 90.7282C160.561 91.4026 159.332 93.7633 158.281 93.7874C157.087 95.0915 155.893 96.3956 154.701 97.6979C157.477 99.9127 160.449 104.82 162.031 106.672C168.503 114.249 174.908 121.886 181.291 129.538C187.927 137.494 194.547 145.463 201.103 153.485C203.35 156.233 208.43 160.463 209.415 164.012C209.75 165.223 208.98 166.756 207.626 166.808C207.619 166.809 207.613 166.808 207.607 166.809C207.576 166.811 207.555 166.802 207.526 166.802C194.829 180.67 182.132 194.538 169.435 208.406C169.335 208.515 169.237 208.623 169.137 208.732C169.085 208.788 169.034 208.844 168.983 208.9C168.328 209.615 167.987 209.506 167.868 209.07C164.751 208.761 159.491 203.658 157.369 202.207C149.094 196.547 140.868 190.813 132.661 185.051C124.439 179.278 116.225 173.49 108.084 167.601C105.915 166.034 99.1458 162.714 97.7816 159.866C96.3987 161.377 95.015 162.888 93.6305 164.4C93.1101 164.969 92.6077 165.112 92.2127 165.002C92.1036 165.062 92.0113 165.079 91.9526 165.026C84.1644 157.89 76.4031 150.726 68.615 143.592C68.5181 143.503 68.4705 143.373 68.456 143.219C68.1795 142.678 68.2241 141.87 68.8284 141.209C79.1474 129.929 89.3882 118.577 99.6246 107.225C90.992 109.087 82.2126 109.73 73.5738 109.15C68.0481 129.107 46.5133 132.821 28.2397 128.1C27.6534 127.947 29.0002 125.696 29.1348 125.497C35.8475 115.5 46.3203 108.017 57.758 106.659C51.1544 104.997 44.757 102.57 38.707 99.3694C38.5636 99.5635 38.4138 99.7272 38.2529 99.7957C19.7587 107.765 5.97469 91.5139 0.898839 75.1312C0.691879 74.4642 1.73812 72.1141 2.50806 72.0358C19.4627 70.3074 36.3323 78.4038 40.6491 95.7121C40.6876 95.8684 40.662 96.0624 40.6005 96.2743C58.4928 105.668 79.3972 108.315 99.6242 104.252C89.7894 95.2477 79.9546 86.2435 70.119 77.2386C69.9594 77.5683 69.8023 77.8398 69.6911 77.9506C54.8937 92.8271 34.7013 82.1267 22.9253 68.8043C22.3359 68.1371 23.7961 65.8815 24.4535 65.5938C34.5693 61.146 46.2173 60.3755 56.002 64.3155C47.8805 56.88 39.759 49.4444 31.6375 42.0088C13.0086 44.9497 3.07758 27.1027 1.22599 10.4702C1.14889 9.78643 2.06229 7.23137 2.97691 7.37542C20.1445 10.0706 35.0491 22.1744 36.0342 40.2195C36.0451 40.4076 35.9415 40.7101 35.7821 41.0449C51.8952 55.7972 68.0084 70.5495 84.1215 85.3018C83.3035 80.823 82.7491 76.2062 81.991 71.6548C81.6409 70.3941 81.4178 69.1286 81.297 67.862C80.1617 62.2669 78.4989 56.8659 75.3753 52.0602C73.7901 49.6213 72.0659 47.2824 70.2972 44.9796C69.984 45.3109 69.7903 45.369 69.9593 44.77C69.9771 44.7094 69.9839 44.6502 70.0001 44.5898C69.7709 44.2917 69.5394 43.9963 69.3086 43.6984C49.1415 41.3949 45.4896 20.1921 49.1718 3.39839C49.2556 3.01397 50.2404 0.471955 50.8922 0.811988C65.9182 8.66106 76.0819 24.4857 72.053 41.4134C74.8388 45.0055 77.4665 48.708 79.5065 52.8077C80.547 54.8968 81.3674 57.0672 82.0476 59.2891C84.8154 48.6879 93.8732 38.8696 102.989 32.8337C103.091 32.7643 103.342 32.5953 103.394 32.8388C107.119 49.9744 101.944 69.6517 86.9918 79.4431C86.6532 79.8575 86.3557 80.1378 86.3023 80.0693ZM65.9661 39.4282C61.5561 33.7897 57.2937 28.0739 54.5107 21.3531C54.0712 20.29 56.1203 17.4322 56.7727 19.0074C60.0547 26.9389 65.6517 33.3044 70.8859 39.9181C72.6046 25.2119 63.222 11.8453 50.342 4.65455C48.1477 18.9336 51.8025 34.895 65.9661 39.4282ZM87.7832 76.5997C98.7273 69.6612 102.958 57.6732 102.527 44.8544C102.433 42.0561 102.217 39.2452 101.694 36.4905C101.524 35.5906 101.948 35.7955 100.737 36.6804C91.6674 43.322 83.3026 52.8853 83.0934 63.2226C83.6821 65.7712 84.1355 68.3676 84.5374 70.9791C85.2917 72.8503 86.3613 74.7272 87.7832 76.5997ZM26.3696 67.5034C37.0678 78.5703 54.296 87.8272 67.6359 77.6861C57.9001 64.8106 41.0288 62.367 26.3696 67.5034ZM37.4667 94.5481C32.0427 81.112 18.1394 74.4674 3.72656 75.0645C8.98717 89.113 20.5554 102.003 35.9695 97.8605C30.5201 94.7092 25.3819 90.9109 20.6665 86.4597C19.8738 85.711 21.8475 82.7891 22.3373 83.2506C27.0053 87.6536 32.0839 91.417 37.4667 94.5481ZM71.5075 111.944C56.3212 105.822 40.3608 112.678 30.7508 125.093C45.0707 128.562 66.0369 127.789 71.5075 111.944ZM152.026 100.622C134.757 119.484 117.486 138.347 100.218 157.209C100.293 157.345 100.338 157.499 100.36 157.666C101.759 159.941 109.716 164.368 111.944 165.969C119.693 171.536 127.486 177.042 135.299 182.52C142.948 187.883 150.608 193.23 158.319 198.504C160.894 200.266 163.468 202.028 166.074 203.745C166.904 204.293 169.712 205.617 168.745 205.724C168.939 205.703 169.101 205.724 169.247 205.763C181.637 192.23 194.028 178.696 206.419 165.162C204.864 162.218 200.304 157.979 198.352 155.597C192.22 148.11 186.043 140.66 179.845 133.229C173.59 125.73 167.322 118.24 160.984 110.81C158.736 108.177 156.492 105.541 154.196 102.95C153.781 102.48 152.623 101.325 152.026 100.622ZM71.7937 141.767C78.8749 148.26 85.9382 154.772 93.0209 161.262C112.413 140.081 131.803 118.902 151.194 97.7219C151.408 97.3386 151.714 96.9418 152.087 96.7469C153.479 95.2267 154.871 93.7065 156.263 92.1862C149.084 85.555 142.017 78.8071 134.831 72.1839C113.709 95.278 92.9055 118.663 71.7937 141.767ZM17.0793 23.9185C22.4779 28.8612 27.8783 33.8055 33.277 38.7482C33.4083 38.7262 33.5411 38.6989 33.6724 38.6752C30.9292 23.9686 18.0781 14.0261 3.57139 11.0036C6.05719 24.8859 14.1738 38.6565 28.4501 39.0873C23.9624 34.9786 19.4747 30.8699 14.9869 26.7612C14.036 25.8905 15.8962 22.8353 17.0793 23.9185Z" fill="#4A8616"/>
</svg>
