<svg width="102" height="103" viewBox="0 0 102 103" fill="none" xmlns="http://www.w3.org/2000/svg">
<path d="M81.712 63.8706C73.7519 66.3366 66.7824 70.5962 59.8856 75.0324C66.55 59.3536 85.1428 56.8673 101.2 60.8757C91.6392 74.81 75.4025 84.1038 58.8081 80.5927C66.9043 75.3193 74.7556 69.6058 84.1492 66.6982C86.0149 66.12 82.9709 63.4813 81.712 63.8706Z" fill="#4A8616"/>
<path d="M49.8413 116.166C35.1732 115.306 21.9443 109.216 15.1832 96.0006C17.4691 94.576 19.7229 93.5538 21.9369 92.8906C24.9582 92.7074 27.9678 92.464 30.9371 92.0612C42.707 93.3897 52.7342 103.94 59.3542 114.986C60.2359 116.46 60.5144 115.999 59.4699 116.098C56.2725 116.404 53.0433 116.354 49.8413 116.166Z" fill="#4A8616"/>
<path d="M32.0342 26.9039C18.2821 37.9408 5.90622 56.6173 16.068 72.9036C31.7818 63.1553 36.348 44.1674 32.0342 26.9039Z" fill="#4A8616"/>
<path d="M25.7964 0.277389C24.9579 16.7814 15.9125 31.9406 0.0139021 36.7113C4.15312 30.9011 8.98155 25.5047 14.4962 20.644C15.0744 20.1339 11.9493 17.5744 11.0117 18.3998C5.43696 23.3094 0.562453 28.7702 -3.60673 34.6542C-6.70741 16.6343 9.2164 4.79715 25.7964 0.277389Z" fill="#4A8616"/>
<path d="M-23.4189 73.7082C-14.8344 57.0303 -20.9723 38.1013 -34.1209 25.8301C-39.5883 41.7993 -40.9166 65.7973 -23.4189 73.7082Z" fill="#4A8616"/>
<path d="M64.1077 37.8149L82.7318 20.9014C84.0922 19.666 80.8032 17.2219 79.7098 18.2149L64.2297 32.2731C66.2262 16.0332 82.7904 8.22626 98.8882 6.85424C93.911 23.0837 81.2146 36.6949 64.1492 38.2737C64.136 38.1214 64.1189 37.967 64.1077 37.8149Z" fill="#4A8616"/>
</svg>
