<svg width="current" height="current" viewBox="0 0 315 291" fill="none" xmlns="http://www.w3.org/2000/svg">
<path d="M65.1894 90.0541C63.4705 90.1593 61.9584 89.3556 60.7468 88.191C60.3283 87.7888 58.4339 88.5527 58.8133 88.9165C58.922 89.0209 59.0372 89.1133 59.1494 89.21C59.1238 89.2583 59.1054 89.3087 59.1054 89.362C59.1182 90.8216 59.2652 92.9974 60.9259 93.4771C63.2183 94.1393 64.4383 91.7894 65.6925 90.4535C66.018 90.1074 65.4104 90.0406 65.1894 90.0541ZM62.7159 91.9749C62.573 92.1632 62.4096 92.3309 62.2462 92.4993C62.2362 92.4957 62.2334 92.4936 62.2227 92.49C62.0493 92.3898 61.9193 92.2051 61.8148 92.0424C61.5327 91.6011 61.3736 91.0618 61.2826 90.5046C61.9783 90.7725 62.7152 90.9282 63.4847 90.9651C63.2204 91.2955 62.9717 91.638 62.7159 91.9749ZM61.52 72.823C61.6443 73.2871 61.0495 73.685 60.6665 73.7568C59.7108 73.9358 58.9057 74.3551 58.1418 74.9491C57.7638 75.2433 57.0908 75.3584 56.6702 75.0905C56.2303 74.8106 56.479 74.3401 56.7988 74.0914C57.8284 73.2906 59.0258 72.6831 60.3141 72.4415C60.6971 72.369 61.3849 72.3185 61.52 72.823ZM182.752 51.0747C181.249 48.4669 179.985 45.7886 180.276 42.7104C180.34 42.0325 182.41 41.6303 182.333 42.4453C182.068 45.2507 183.246 47.7598 184.593 50.1367C184.811 50.1019 185.025 50.0607 185.226 49.9811C186.143 49.6166 187.373 50.2696 186.032 50.8019C185.435 51.0392 184.757 50.9824 184.185 51.2097C183.771 51.3732 183.024 51.548 182.752 51.0747ZM189.604 40.4912C189.617 41.3297 189.827 42.1348 190.611 42.5533C190.93 42.7239 190.056 43.0912 189.991 43.1147C189.639 43.2398 189.032 43.4387 188.669 43.2447C187.834 42.7999 187.558 41.9408 187.544 41.0433C187.537 40.4784 189.6 40.1764 189.604 40.4912ZM178.945 45.9983C179.148 46.4175 178.327 46.7799 178.07 46.8488C177.67 46.9554 177.094 46.9796 176.886 46.5497C176.575 45.9095 176.527 45.3133 176.526 44.6105C176.526 44.1515 177.354 43.9063 177.685 43.8701C178.074 43.8274 178.593 43.907 178.593 44.3845C178.595 44.9708 178.688 45.466 178.945 45.9983ZM184.295 37.5444C185.646 36.4551 187.293 36.0749 189 36.1111C189.414 36.1204 189.835 36.4749 189.609 36.9056C189.359 37.3809 188.753 37.5273 188.263 37.5174C187.262 37.4961 186.414 37.7668 185.637 38.3935C184.885 38.999 183.205 38.4234 184.295 37.5444ZM177.62 41.1513C177.591 41.1805 177.529 41.2167 177.427 41.2544C177.436 41.2409 177.443 41.2295 177.452 41.2181C177.509 41.1975 177.565 41.1762 177.62 41.1513ZM242.898 130.333C257.247 130.333 271.596 130.333 285.945 130.333C287.338 130.333 286.089 131.69 285.194 131.69C271.096 131.69 256.997 131.69 242.898 131.69C242.898 131.727 242.898 131.764 242.898 131.801C242.898 132.489 240.839 132.83 240.839 132.353C240.839 132.132 240.839 131.911 240.839 131.69C240.702 131.69 240.565 131.69 240.428 131.69C239.205 131.69 240.018 130.644 240.839 130.388C240.839 120.502 240.839 110.616 240.839 100.731C240.839 100.043 242.898 99.7025 242.898 100.179C242.898 110.231 242.898 120.282 242.898 130.333ZM268.638 110.634C270.664 112.772 272.498 115.104 274.298 117.44C276.37 114.591 278.472 111.751 280.76 109.077C280.775 109.06 280.795 109.044 280.814 109.028C279.827 108.745 278.435 109.006 277.622 109.016C277.23 109.021 277.187 108.808 277.514 108.616C277.941 108.367 278.479 108.232 278.97 108.226C280.157 108.21 282.749 107.692 283.605 108.829C284.563 110.102 283.747 111.927 284.29 113.344C284.423 113.693 282.403 114.346 282.231 113.896C281.778 112.712 282.305 111.258 281.906 110.074C279.53 112.939 277.331 115.96 275.148 118.97C274.845 119.388 273.641 119.88 273.232 119.348C271.442 117.019 269.633 114.677 267.666 112.487C265.075 116.357 262.864 120.536 259.912 124.131C259.583 124.531 258.424 125.054 257.996 124.509C256.366 122.436 255.73 119.819 254.259 117.684C251.664 120.453 248.987 123.144 246.559 126.066C246.126 126.588 244.046 126.721 244.638 126.009C247.485 122.581 250.665 119.465 253.672 116.183C254.006 115.818 255.069 115.522 255.456 115.955C257.183 117.889 257.841 120.403 259.151 122.581C261.889 118.888 264.051 114.744 266.721 111.012C267.052 110.551 268.178 110.149 268.638 110.634ZM294.444 274.36C293.786 273.927 291.92 274.854 292.831 275.453C298.363 279.085 313.149 277.792 312.22 287.15C301.676 288.377 291.05 288.115 280.452 288.097C280.37 286.719 280.033 285.321 278.899 284.431C278.032 283.751 276.831 283.847 275.96 284.493C275.311 284.973 274.858 285.722 274.519 286.536C274.519 283.138 274.519 279.74 274.519 276.342C274.519 276.332 274.519 276.322 274.519 276.312C276.766 276.141 278.99 276.123 281.192 276.06C284.897 275.955 288.544 275.7 292.152 274.324C292.671 274.685 294.228 274.184 294.061 273.564C289.835 257.904 284.063 242.698 279.7 227.107C282.659 227.536 286.244 226.897 288.936 226.708C294.544 226.318 300.235 225.976 305.22 223.154C312.665 218.939 314.21 209.506 310.739 202.192C309.668 199.935 308.652 198.204 306.118 198.111C302.656 197.984 299.153 198.29 295.699 198.485C291.264 198.736 286.832 199.032 282.398 199.277C280.389 199.388 276.586 200.277 274.671 199.463C274.627 199.444 274.575 199.435 274.519 199.428C274.519 196.422 274.519 193.415 274.519 190.409C275.878 190.409 277.237 190.409 278.595 190.409C278.536 190.474 278.5 190.545 278.5 190.621C278.5 191.536 278.5 192.451 278.5 193.365C278.5 194.379 278.5 195.391 278.5 196.405C278.5 197.319 278.5 198.234 278.5 199.148C278.5 199.481 280.559 199.185 280.559 198.597C280.559 197.682 280.559 196.767 280.559 195.852C280.559 194.84 280.559 193.827 280.559 192.813C280.559 192.012 280.559 191.21 280.559 190.409C283.309 190.409 286.059 190.409 288.809 190.409C288.865 190.409 288.946 190.394 289.042 190.37C289.477 190.505 290.981 190.217 290.981 189.714C290.981 186.516 290.981 183.318 290.981 180.121C290.981 179.861 289.727 179.986 289.177 180.333C286.034 180.333 282.892 180.333 279.75 180.333C280.181 180.214 280.559 180.018 280.559 179.765C280.559 176.893 280.559 174.022 280.559 171.15C280.559 170.854 280.559 170.557 280.559 170.26C280.559 167.976 280.559 165.691 280.559 163.407C281.926 163.374 283.293 163.324 284.659 163.241C290.122 162.907 298.593 162.551 301.772 157.23C304.54 152.597 304.923 147.397 305.127 142.116C305.301 137.586 305.6 133.068 305.374 128.533C305.004 121.113 302.78 113.201 295.481 110.219C295.481 104.623 295.481 99.0253 295.481 93.4287C295.481 93.2632 295.297 93.1807 295.041 93.1637C295.152 92.9462 295.043 92.7665 294.498 92.7665C286.644 92.7665 278.791 92.7665 270.937 92.7665C270.983 92.6137 270.973 92.4467 270.879 92.2733C265.374 82.0962 260.835 71.0245 251.544 63.6195C242.883 56.7168 230.894 57.3606 220.389 57.4167C220.663 53.9839 215.999 52.5229 213.328 51.6119C213.06 51.521 212.737 51.5736 212.447 51.7015C212.279 51.5238 212.11 51.3455 211.948 51.1621C217.919 42.5221 216.394 31.5015 209.772 24.4823C209.872 24.4397 209.961 24.3885 210.031 24.326C222.855 12.8336 190.201 -0.497047 192.096 18.0515C182.769 19.2637 173.818 26.3497 173.343 35.8788C173.305 35.9512 173.304 36.0116 173.331 36.06C173.329 36.1175 173.321 36.1729 173.32 36.2305C173.316 36.3854 173.36 36.5076 173.434 36.6057C173.368 36.703 173.327 36.8125 173.318 36.9326C172.815 43.6391 174.939 51.7064 179.368 57.2618C179.395 57.2967 179.426 57.3279 179.454 57.3627C180.423 58.5629 181.495 59.6501 182.678 60.5711C185.512 62.776 188.444 62.0718 191.738 61.8132C194.225 61.6178 195.871 62.4449 197.078 63.7957C196.207 64.242 195.532 65.3306 195.259 66.405C194.953 67.6073 194.701 69.1194 194.626 70.6259C190.565 75.4224 184.426 78.0594 180.68 83.1202C175.905 89.5716 175.145 98.7738 173.055 106.496C172.551 105.681 172.061 104.856 171.61 104.008C171.425 103.663 170.977 103.599 170.554 103.709C170.677 103.307 170.458 102.926 169.719 103.026C169.595 103.042 169.465 103.064 169.338 103.082C167.896 98.3062 170.139 93.7179 171.004 88.893C171.259 87.4718 171.709 81.8667 169.032 82.3314C166.782 82.7223 166.282 85.1603 165.417 86.9673C165.112 87.6054 164.732 88.1846 164.315 88.7317C162.011 86.6099 160.998 83.5714 159.311 80.9792C157.933 78.8609 155.472 76.8933 152.925 78.1319C151.959 78.6008 151.515 79.3619 151.42 80.2864C150.571 79.5573 149.589 79.1395 148.408 79.4933C146.32 80.1187 146.053 81.8255 146.575 83.823C145.529 83.6553 144.459 83.9786 143.648 84.8682C142.49 86.1374 143.256 88.2201 143.848 89.6519C143.689 89.6207 143.528 89.5994 143.364 89.593C141.773 89.529 140.572 90.2538 140.589 91.8526C140.621 94.9295 143.806 98.0447 145.748 100.103C148.835 103.375 152.431 106.192 156.077 108.818C155.649 109.283 155.271 109.784 154.942 110.317C154.754 110.459 154.566 110.653 154.609 110.907C154.54 111.12 154.6 111.277 154.737 111.385C155.139 112.605 156.057 113.869 156.62 114.945C158.102 117.776 159.602 120.598 161.089 123.427C162.628 126.355 164.158 129.289 165.637 132.248C166.165 133.303 168.106 136.037 167.88 137.281C167.833 137.537 167.977 137.689 168.204 137.76C168.229 137.801 168.31 137.826 168.482 137.826C168.585 137.826 168.688 137.826 168.792 137.826C169.557 139.685 170.795 141.492 171.72 143.213C173.993 147.442 176.271 151.667 178.513 155.912C180.814 160.27 183.086 164.646 185.21 169.093C185.981 170.707 186.722 172.335 187.384 173.997C187.623 174.597 187.836 175.206 188.013 175.826C188.092 176.104 188.072 176.365 188.101 176.501C187.711 176.606 187.451 176.887 187.382 177.176C187.196 177.292 187.071 177.433 187.071 177.595C187.071 178.508 187.071 179.422 187.071 180.335C173.066 180.335 159.061 180.335 145.055 180.335C145.065 180.305 145.073 180.274 145.073 180.242C145.073 179.176 145.073 178.11 145.073 177.044C145.073 176.935 144.947 176.874 144.757 176.853C144.751 176.839 144.739 176.826 144.719 176.817C144.621 176.634 144.404 176.497 144.049 176.465C144.014 176.414 143.97 176.363 143.906 176.314C143.314 175.854 146.523 169.614 146.872 168.874C148.98 164.42 151.272 160.051 153.569 155.693C155.807 151.446 158.088 147.223 160.362 142.995C161.307 141.235 162.549 139.401 163.331 137.505C163.85 137.269 164.244 136.99 163.661 136.99C163.615 136.99 163.571 136.99 163.525 136.99C163.573 136.856 163.628 136.722 163.672 136.587C163.931 135.779 161.846 136.051 161.603 136.81C161.584 136.87 161.558 136.93 161.537 136.99C150.187 136.99 138.836 136.99 127.486 136.99C130.174 132.002 131.244 126.189 132.062 120.641C132.091 120.447 132.044 120.297 131.952 120.185C132.069 119.984 131.969 119.819 131.429 119.814C130.965 119.811 130.503 119.797 130.039 119.786C134.557 114.553 140.178 108.016 140.945 101.023C141.174 98.9394 140.072 97.8664 138.096 98.5812C137.756 98.7042 137.441 98.8669 137.147 99.0566C137.479 97.3832 137.748 95.1832 136.469 93.9773C135.485 93.0486 134.228 93.2951 133.183 93.8871C133.321 91.707 132.801 89.9852 130.778 89.8914C129.38 89.8267 128.474 90.5359 127.792 91.5272C127.564 90.5693 127.041 89.8744 126.066 89.6491C119.989 88.2428 119.432 98.5421 117.347 102.557C116.896 102.216 116.459 101.856 116.053 101.458C114.715 100.142 113.24 96.4153 110.808 97.747C108.288 99.1262 110.335 103.891 111.19 105.762C113.229 110.222 116.431 113.933 115.588 119.085C115.142 118.675 113.797 118.977 113.627 119.716C112.645 123.99 110.706 128.155 108.797 132.078C107.762 134.205 104.233 142.025 100.785 142.862C97.3692 143.247 94.4053 136.321 93.176 134.025C90.8524 129.685 88.6048 125.307 86.257 120.983C84.7172 118.147 82.7545 115.851 80.3179 114.047C80.5417 113.953 80.735 113.814 80.8437 113.627C82.7851 110.288 82.3765 107.358 81.2552 103.796C79.8461 99.3195 75.8646 96.0416 75.7481 91.1541C75.741 90.8578 75.5903 90.6596 75.3743 90.5444C75.8561 88.2436 75.6607 85.8211 74.7916 83.5188C75.6614 83.0491 76.2761 82.1978 76.3187 81.041C76.3784 79.4017 75.611 77.2124 74.2374 76.0079C74.6367 75.9049 74.9849 75.735 75.0212 75.4892C75.6081 71.4857 75.3665 66.422 73.067 62.9565C71.2145 60.1653 67.8584 61.158 65.4829 62.6652C65.4026 62.6822 65.3245 62.6986 65.2527 62.7149C61.0517 57.2242 52.3704 59.8164 47.1817 62.204C43.8362 63.7438 41.0962 66.1108 39.27 69.3106C36.4489 74.2535 37.5603 80.4612 35.3503 85.6755C33.4751 90.0989 29.4901 93.4408 26.4552 97.0499C23.5617 100.49 21.3702 104.329 20.3825 108.731C20.3569 108.845 20.3377 108.958 20.3157 109.072C20.2468 109.062 20.1679 109.057 20.0769 109.058C14.6416 109.12 8.88514 109.898 4.91507 113.968C0.766646 118.222 0.606048 125.133 0.601784 130.671C0.593968 141.582 -2.55536 160.399 11.4909 163.823C11.7602 163.889 12.1659 163.78 12.5084 163.602C11.9101 168.858 11.3999 173.133 16.3627 176.462C17.6424 177.32 19.0587 177.988 20.5516 178.518C20.273 178.67 20.0734 178.882 20.0812 179.132C20.4088 189.346 15.7509 201.76 26.4495 208.249C26.7266 208.417 27.3157 208.307 27.7549 208.092C26.2221 212.477 26.8275 217.342 30.7656 221.142C35.5131 225.724 42.9188 226.153 49.0896 226.58C51.9746 226.78 54.8617 226.92 57.7517 226.977C57.6742 227.051 57.6252 227.13 57.6252 227.218C57.6252 241.69 57.6252 256.162 57.6252 270.634C51.436 270.555 45.2972 270.433 39.7731 273.71C39.6558 273.78 39.5741 273.848 39.5094 273.915C39.1655 273.872 38.8173 273.842 38.462 273.842C33.8581 273.842 30.1126 277.587 30.1126 282.191C30.1126 286.795 33.8581 290.541 38.462 290.541C42.7668 290.541 46.319 287.266 46.7631 283.077C46.8917 283.059 47.0211 283.024 47.1461 282.969C52.3967 280.632 58.0942 281.014 63.7008 281.044C63.867 281.045 64.0639 280.99 64.2571 280.905C64.2571 283.735 64.2571 286.566 64.2571 289.396C64.2571 289.45 64.3154 289.485 64.4049 289.507C64.1136 289.682 64.0099 289.834 64.4405 289.834C67.3027 289.834 70.165 289.834 73.0265 289.834C73.4557 289.834 75.3722 288.997 74.3632 288.997C74.2686 288.997 74.1734 288.997 74.0789 288.997C74.1102 288.948 74.1322 288.897 74.1322 288.844C74.1322 267.956 74.1322 247.068 74.1322 226.181C76.5262 226.211 78.9187 226.276 81.3127 226.281C81.3866 226.281 81.5124 226.254 81.6595 226.21C81.1216 229.743 81.2559 233.485 81.3802 236.948C81.5692 242.211 81.8386 247.387 81.14 252.632C80.799 255.194 80.4501 258.896 79.1412 261.323C78.9664 261.4 78.8157 261.497 78.712 261.608C78.658 261.632 78.6096 261.658 78.5769 261.684C70.1046 268.458 77.0982 276.86 75.9876 285.608C75.9677 285.767 76.0217 285.812 76.1695 285.871C78.8811 286.964 82.3786 286.914 85.2011 285.977C86.9406 288.003 89.4746 289.08 92.9628 289.191C96.2884 289.296 99.6396 289.279 102.967 289.316C105.527 289.346 108.027 289.208 110.364 288.091C110.701 287.93 110.985 287.757 111.23 287.574C115.489 287.864 119.839 288.611 124.108 288.325C125.342 288.243 129.323 287.453 129.548 285.749C130.181 280.938 126.555 278.286 123.35 275.276C119.194 271.374 115.049 267.326 114.043 261.48C114.02 261.35 113.849 261.291 113.616 261.284C113.597 260.721 113.659 260.135 113.824 259.521C113.836 259.477 113.85 259.433 113.863 259.389C113.9 259.259 113.94 259.128 113.988 258.995C114.011 258.931 114.025 258.87 114.03 258.815C117.138 248.268 120.591 238.103 124.946 227.958C127.792 221.326 131.456 214.258 132.246 206.995C133.065 199.469 129.522 194.209 123.405 190.411C149.34 190.411 175.273 190.411 201.208 190.411C201.107 190.493 201.031 190.586 200.999 190.688C196.541 204.956 193.802 219.774 191.286 234.486C189.089 247.336 187.163 260.262 185.806 273.23C185.777 273.508 185.999 273.643 186.305 273.677C186.632 274.113 187.159 274.408 187.753 274.616C181.583 278.47 166.145 276.923 168.005 287.974C168.052 288.258 168.43 288.336 168.656 288.365C179.735 289.764 190.913 289.444 202.053 289.431C202.506 289.431 203.061 289.075 203.304 288.732C203.583 288.61 203.793 288.442 203.811 288.258C203.948 286.856 204.235 283.912 205.468 286.404C205.877 287.229 206.146 288.151 206.376 289.041C206.436 289.272 206.809 289.277 206.986 289.277C209.473 289.277 211.96 289.277 214.447 289.277C214.818 289.277 215.796 289.088 215.89 288.614C216.746 284.29 218.229 278.548 217.335 273.959C217.895 273.599 217.627 273.182 217.119 273.045C217.088 272.935 217.058 272.825 217.024 272.717C218.381 259.832 220.313 246.996 222.478 234.224C224.971 219.511 227.733 204.689 232.19 190.425C232.192 190.42 232.19 190.416 232.192 190.411C235.44 190.411 238.688 190.411 241.935 190.411C241.908 190.479 241.893 190.549 241.905 190.623C242.231 192.795 242.6 194.962 242.998 197.123C240.512 197.896 236.292 196.41 234.295 198.362C230.564 202.008 227.964 206.775 227.034 211.915C224.806 224.236 239.976 226.383 248.779 226.815C249.167 226.834 249.731 226.554 250.007 226.267C250.759 228.94 251.525 231.606 252.298 234.265C254.086 240.419 255.94 246.562 257.892 252.673C257.891 255.144 257.892 257.615 257.872 260.086C257.869 260.442 257.999 261.313 257.923 261.863C257.852 261.918 257.793 261.972 257.761 262.022C257.56 262.335 257.695 263.145 257.689 263.479C257.651 265.863 257.654 268.248 257.657 270.633C251.468 270.554 245.329 270.432 239.806 273.71C239.688 273.779 239.607 273.848 239.542 273.914C239.198 273.871 238.85 273.841 238.495 273.841C233.891 273.841 230.145 277.587 230.145 282.191C230.145 286.794 233.891 290.54 238.495 290.54C242.799 290.54 246.351 287.266 246.796 283.077C246.924 283.058 247.054 283.023 247.179 282.968C252.429 280.632 258.127 281.013 263.733 281.044C264.005 281.045 264.361 280.899 264.645 280.71C264.645 283.645 264.645 286.58 264.645 289.515C264.645 289.578 264.721 289.618 264.843 289.638C264.72 289.751 264.748 289.834 265.065 289.834C267.691 289.834 270.315 289.834 272.94 289.834C273.21 289.834 274.065 289.504 274.415 289.258C274.983 289.237 275.739 288.977 275.831 288.612C276.091 287.58 276.442 286.554 276.92 285.602C276.974 285.495 277.037 285.394 277.1 285.293C277.204 285.381 277.303 285.475 277.397 285.572C278.177 286.365 278.337 287.631 278.396 288.684C278.405 288.84 278.583 288.916 278.829 288.933C278.71 289.2 278.826 289.429 279.402 289.43C290.629 289.444 301.898 289.77 313.062 288.36C313.479 288.307 314.132 288.085 314.215 287.594C316.053 276.676 300.434 278.293 294.444 274.36ZM274.519 275.051C274.519 255.074 274.519 235.096 274.519 215.119C278.759 234.872 286.396 253.683 291.737 273.169C286.204 275.415 280.33 274.593 274.519 275.051ZM277.587 200.558C280.965 200.436 284.34 200.211 287.714 200.005C293.675 199.641 300.157 198.571 306.12 199.255C308.35 199.511 309.935 205.853 310.279 207.699C311.005 211.602 310.161 215.668 307.951 218.947C304.321 224.331 297.638 224.902 291.746 225.455C288.976 225.715 286.194 225.866 283.412 225.914C282.287 225.933 280.731 226.137 279.645 225.757C279.562 225.728 279.452 225.723 279.328 225.732C277.493 219.034 275.926 212.263 274.875 205.347C274.85 205.184 274.713 205.088 274.52 205.045C274.52 203.597 274.52 202.15 274.52 200.702C275.565 200.75 276.704 200.589 277.587 200.558ZM278.501 170.813C278.501 171.11 278.501 171.407 278.501 171.704C278.501 174.575 278.501 177.447 278.501 180.319C278.501 180.325 278.506 180.33 278.507 180.335C276.707 180.335 274.907 180.335 273.107 180.335C273.596 174.419 272.357 168.775 270.553 163.256C271.641 163.393 272.807 163.344 273.836 163.38C275.39 163.433 276.946 163.45 278.501 163.441C278.501 165.898 278.501 168.356 278.501 170.813ZM189.13 180.241C189.13 179.476 189.13 178.712 189.13 177.946C213.472 177.946 237.814 177.946 262.156 177.946C262.156 178.742 262.156 179.538 262.156 180.334C237.808 180.334 213.46 180.334 189.112 180.334C189.121 180.304 189.13 180.273 189.13 180.241ZM195.067 125.931C196.186 129.594 197.25 133.268 198.096 136.989C194.764 136.989 191.433 136.989 188.101 136.989C191.36 134.049 193.535 130.027 195.067 125.931ZM200.697 71.8979C200.779 71.9199 200.869 71.9213 200.96 71.9241C201.036 71.9746 201.12 72.0158 201.213 72.0414C201.208 72.7584 202.914 72.6134 203.229 71.9405C203.413 71.5482 203.612 71.161 203.804 70.7709C204.158 70.7261 204.509 70.6337 204.656 70.5229C205.176 70.132 205.616 69.916 206.041 69.8421C206.023 69.8933 206.012 69.9466 206.013 70.0027C206.033 71.9824 206.694 75.3321 205.384 77.0653C205.191 77.1782 205.04 77.3204 204.982 77.4859C204.627 77.7844 204.185 78.0089 203.61 78.112C199.627 78.8254 199.89 74.5412 199.912 71.8012C200.164 71.8005 200.423 71.824 200.697 71.8979ZM209.425 136.989C200.03 119.755 201.247 98.5478 201.324 79.4727C202.008 79.558 202.721 79.531 203.384 79.4557C203.934 79.3932 204.471 79.2603 204.977 79.0691C205.236 98.6011 209.075 119.735 218.445 136.989C215.439 136.989 212.432 136.989 209.425 136.989ZM264.825 92.7793C264.614 93.5197 264.615 94.1685 264.678 94.9323C264.724 95.4745 264.821 96.0153 264.884 96.556C264.926 96.9241 265.081 99.5071 263.508 98.4825C262.097 97.5637 262.024 93.1715 262.094 91.697C262.17 90.1039 263.151 89.205 264.693 89.109C266.769 88.9797 267.929 91.0895 268.603 92.7686C268.056 92.7686 267.509 92.7686 266.963 92.7686C266.916 92.7686 266.867 92.7729 266.816 92.7814C266.833 92.6869 266.852 92.5931 266.878 92.5007C267.073 91.8143 265.012 92.1184 264.825 92.7793ZM260.944 89.8253C260.475 90.3796 260.152 91.0824 260.04 91.9742C259.824 93.7108 260.285 95.7218 260.617 97.4258C260.691 97.8095 260.833 98.1705 261.022 98.4967C260.934 98.5123 260.85 98.5237 260.749 98.5571C258.22 99.3913 258.247 94.8087 258.132 93.3435C258.063 92.4851 258.068 91.6359 258.252 90.7924C258.566 89.3535 259.802 89.5368 260.94 89.8161C260.943 89.8168 260.946 89.8175 260.949 89.8182C260.948 89.8211 260.946 89.8232 260.944 89.8253ZM256.824 98.2558C256.86 98.351 256.902 98.4377 256.946 98.5229C256.77 98.4455 256.503 98.4327 256.13 98.5571C253.632 99.3913 253.654 94.9203 253.51 93.4159C253.434 92.6194 253.391 91.8263 253.493 91.0298C253.703 89.3691 254.967 89.7628 256.233 90.187C256.34 90.2233 256.491 90.2225 256.659 90.197C256.273 90.786 256.043 91.545 256.031 92.5043C256.01 94.3937 256.144 96.4878 256.824 98.2558ZM251.95 90.1337C251.58 90.6809 251.363 91.4071 251.368 92.3529C251.377 94.2367 251.521 96.3159 252.14 98.098C252.195 98.2572 252.262 98.3993 252.334 98.5336C252.295 98.5443 252.264 98.545 252.222 98.5585C249.022 99.6201 247.512 90.693 251.392 90.0719C251.585 90.0413 251.795 90.0385 252.014 90.0506C251.992 90.0783 251.97 90.1046 251.95 90.1337ZM265.334 155.128C268.442 163.259 271.653 171.498 271.08 180.334C268.786 180.334 266.492 180.334 264.197 180.334C264.207 180.303 264.216 180.273 264.216 180.24C264.216 179.174 264.216 178.108 264.216 177.042C264.216 176.939 264.091 176.88 263.905 176.859C263.901 176.842 263.885 176.827 263.86 176.815C263.75 176.607 263.49 176.453 263.042 176.453C255.572 176.453 248.102 176.453 240.633 176.453C241.001 175.042 239.666 172.739 239.243 171.727C237.3 167.079 234.981 162.578 232.7 158.089C232.692 158.073 232.683 158.056 232.675 158.04C240.331 158.614 248.259 158.531 255.868 157.991C258.913 157.775 262.613 156.973 265.334 155.128ZM303.324 129.508C303.5 133.014 303.282 136.525 303.119 140.026C302.882 145.142 302.905 150.231 300.855 155.027C298.185 161.276 289.901 161.345 284.065 161.703C282.898 161.774 281.729 161.814 280.559 161.838C280.559 161.775 280.559 161.711 280.559 161.647C280.559 161.387 279.301 161.512 278.753 161.861C277.536 161.866 276.32 161.856 275.105 161.828C273.802 161.797 271.568 161.894 270.523 161.554C270.352 161.499 270.163 161.5 269.974 161.539C269.057 158.896 268.04 156.278 267.047 153.67C267.18 153.525 267.314 153.38 267.437 153.226C270.92 148.873 266.903 143.289 264.972 139.008C274.455 139.008 283.939 139.008 293.422 139.008C293.422 139.04 293.422 139.071 293.422 139.103C293.422 139.66 295.481 139.294 295.481 138.552C295.481 129.78 295.481 121.007 295.481 112.234C301.505 115.517 302.994 122.895 303.324 129.508ZM293.432 93.9325C293.43 93.9489 293.423 93.9645 293.423 93.9816C293.423 99.3288 293.423 104.677 293.423 110.025C292.837 110.373 292.505 111.021 293.31 111.283C293.35 111.296 293.384 111.314 293.423 111.327C293.423 120.197 293.423 129.068 293.423 137.937C274.126 137.937 254.829 137.937 235.532 137.937C235.502 137.937 235.47 137.941 235.438 137.945C235.438 123.347 235.438 108.747 235.438 94.1478C239.329 94.1478 243.221 94.1478 247.113 94.1478C246.989 97.57 248.702 100.765 252.478 99.5121C252.676 99.4467 252.821 99.3629 252.942 99.2748C253.843 99.9917 255.183 99.9136 256.386 99.5121C256.879 99.3479 257.116 99.0893 257.153 98.8676C258.012 100.052 259.64 99.9626 261.005 99.5121C261.262 99.4275 261.439 99.3145 261.569 99.1966C262.044 99.6407 262.665 99.9143 263.39 99.9051C264.736 99.8873 265.925 99.5085 266.641 98.3069C267.402 97.0293 266.862 95.4241 266.765 93.9318C275.654 93.9325 284.543 93.9325 293.432 93.9325ZM263.945 83.3526C264.759 84.9244 265.553 86.5019 266.343 88.0652C265.92 88.0005 265.47 87.9849 264.982 88.0396C264.013 88.1497 263.087 88.3786 262.299 88.7779C260.634 88.3885 258.931 88.4489 257.72 89.1801C256.283 88.7246 254.71 88.574 253.487 88.9954C250.54 88.6401 248.102 89.8999 247.348 92.5526C246.295 92.5526 245.241 92.5526 244.187 92.5526C241.879 90.4173 241.049 87.2239 239.101 84.8036C238.73 84.3431 236.761 85.0402 237.174 85.5533C238.907 87.7071 239.744 90.4606 241.537 92.5526C239.423 92.5526 237.31 92.5526 235.197 92.5526C234.623 92.5526 234.249 92.9114 234.158 93.2887C233.739 93.4273 233.378 93.6703 233.378 93.9816C233.378 109.023 233.378 124.063 233.378 139.104C233.378 139.529 234.574 139.415 235.142 139.009C244.434 139.009 253.725 139.009 263.018 139.009C262.868 139.145 262.797 139.302 262.867 139.459C264.567 143.276 268.403 148.681 265.857 152.619C265.246 152.733 264.548 153.064 264.644 153.316C264.705 153.479 264.768 153.643 264.83 153.807C264.796 153.838 264.76 153.868 264.726 153.899C264.645 153.97 264.565 154.043 264.482 154.112C263.142 155.219 261.538 155.892 259.829 156.308C257.089 156.974 254.084 156.982 251.476 157.05C245.049 157.216 238.433 157.297 232.01 156.747C231.3 155.357 230.585 153.97 229.865 152.584C228.413 149.786 226.953 146.992 225.488 144.2C224.318 141.973 222.726 139.63 221.861 137.226C222.019 137.105 222.036 137.011 221.776 136.994C221.752 136.92 221.721 136.849 221.698 136.776C221.573 136.382 221.017 136.32 220.511 136.451C211.006 118.954 207.185 97.4635 207.023 77.702C207.327 77.3552 207.582 76.9565 207.772 76.5032C208.542 74.667 208.2 72.4322 208.108 70.4447C208.113 70.4475 208.117 70.4497 208.122 70.4525C209.373 71.2221 210.538 72.1366 211.77 72.9389C211.805 72.9623 211.847 72.9794 211.894 72.9929C212.041 73.7482 213.649 73.6409 213.897 72.8671C214.712 70.3275 215.709 67.8752 216.789 65.4436C216.942 65.0989 217.092 64.7529 217.249 64.4082C218.046 62.6573 219.339 60.7928 220.018 58.9296C220.21 58.9289 220.403 58.9282 220.595 58.9275C231.165 58.877 242.119 58.5651 250.81 65.4919C252.097 66.5173 253.278 67.645 254.39 68.8373C258.311 73.0405 261.253 78.1532 263.945 83.3526ZM216.313 54.7414C219.377 56.3608 218.045 58.5423 216.9 60.7181C215.169 64.0089 213.693 67.5021 212.474 71.0316C212.447 71.1091 212.42 71.1873 212.394 71.2654C211.823 70.8398 211.239 70.4049 210.638 70.0091C209.78 69.4442 208.886 68.9652 207.929 68.7642C206.721 68.5098 205.539 68.8601 204.472 69.4307C207.149 64.2697 210.504 59.3552 214.295 54.9993C214.364 54.9197 214.408 54.8472 214.442 54.7776C214.723 54.5858 214.906 54.3193 214.86 54.0521C215.349 54.2653 215.835 54.4884 216.313 54.7414ZM191.594 54.8465C191.666 54.8146 191.741 54.7847 191.802 54.7478C192.529 54.3115 193.258 53.8752 194.012 53.4865C194.311 54.2205 194.337 55.0135 193.778 55.6822C193.3 56.2535 192.519 55.5145 192.141 55.0682C192.034 54.9418 191.819 54.8991 191.571 54.9119C191.578 54.8899 191.586 54.8686 191.594 54.8465ZM175.597 42.2783C176.178 42.2741 177.274 42.0559 177.302 41.6452C177.31 41.5272 177.338 41.437 177.387 41.3297C177.399 41.3013 177.414 41.2771 177.427 41.2544C177.27 41.3119 177.016 41.3709 176.615 41.4043C176.875 41.3823 177.174 41.319 177.452 41.2174C177.571 41.0561 177.695 41.076 177.62 41.1506C177.758 41.0881 177.889 41.0177 177.997 40.9296C178.361 40.6347 177.671 40.6482 177.529 40.6603C176.87 40.7157 175.963 40.9517 175.515 41.5088C175.341 39.9313 175.289 38.3466 175.406 36.7826C175.419 36.6164 175.376 36.4863 175.3 36.3819C175.363 36.2866 175.401 36.18 175.404 36.0642C175.408 35.9349 175.422 35.8098 175.428 35.6812C178.056 32.7031 183.36 30.7135 187.247 31.1953C188.335 31.3296 189.367 33.062 190.123 33.7477C190.822 34.383 192.272 34.8278 193.203 34.837C194.646 34.852 196.141 34.1293 197.349 35.22C198.244 36.0266 198.625 37.4079 198.953 38.5236C199.023 38.7616 199.075 39.178 199.147 39.63C199.075 39.7387 199.046 39.8552 199.091 39.976C200.524 43.8765 199.723 48.0405 195.623 49.9179C193.469 50.9042 190.69 51.0314 188.394 51.5515C185.689 52.1641 182.38 53.063 180.479 55.2359C179.575 53.8453 178.817 52.3559 178.18 50.9845C176.917 48.2651 176.014 45.2948 175.597 42.2783ZM195.475 60.5305C198.124 59.5684 200.567 58.0442 202.407 55.9444C206.098 51.7342 203.187 45.0283 202.394 40.3128C202.387 40.2702 202.372 40.234 202.356 40.1977C204.156 36.6462 210.231 41.6054 208.909 44.8926C208.893 44.9345 208.87 44.9757 208.851 45.0169C208.584 45.5883 208.09 46.1042 207.292 46.5078C206.881 46.7153 206.536 47.1786 206.821 47.6277C208.456 50.2071 210.203 52.594 212.565 54.5197C208.582 59.1037 205.056 64.281 202.284 69.7199C201.368 66.9656 200.389 63.5093 198.178 61.7997C197.345 61.1559 196.432 60.7608 195.475 60.5305ZM196.911 69.1599C196.977 68.1594 197.108 67.1632 197.328 66.1847C197.402 65.8536 197.505 65.5295 197.636 65.2162C197.776 65.3171 197.97 65.3611 198.185 65.3583C199.123 67.0097 199.753 69.0178 200.442 70.9215C200.124 70.9393 199.806 70.9783 199.488 71.0395C198.969 70.876 198.14 71.1127 197.908 71.544C197.502 71.7323 197.123 71.9625 196.781 72.2304C196.74 71.1915 196.848 70.1143 196.911 69.1599ZM184.664 80.9096C184.819 80.7582 184.978 80.6054 185.141 80.4526C185.193 80.4043 185.244 80.3539 185.298 80.3056C188.223 77.6458 191.778 75.5368 194.665 72.8124C194.726 73.4562 194.832 74.0701 195.006 74.6187C195.063 74.7985 195.212 74.9072 195.403 74.9619C195.421 74.9676 195.438 74.9747 195.458 74.979C195.829 75.0628 196.334 74.9555 196.684 74.7431C196.973 74.6386 197.198 74.4965 197.228 74.338C197.294 74.0047 197.406 73.7013 197.54 73.4171C197.623 73.2409 197.717 73.0767 197.825 72.9239C197.823 73.0185 197.821 73.1123 197.82 73.2075C197.797 74.736 197.833 76.3198 198.495 77.6749C198.696 78.0864 198.968 78.4012 199.278 78.6584C199.276 78.6733 199.271 78.6883 199.271 78.7039C199.252 97.9147 197.791 119.456 207.077 136.988C204.808 136.988 202.537 136.988 200.268 136.988C200.268 136.957 200.27 136.926 200.264 136.893C197.201 123.094 190.993 109.955 190.316 95.6792C190.285 95.019 188.219 95.4383 188.257 96.2306C188.718 105.968 191.753 115.176 194.608 124.425C194.11 124.502 193.577 124.715 193.476 125.007C192.897 126.691 192.217 128.393 191.403 130.03C190.695 131.455 189.87 132.819 188.926 134.084C188.178 135.085 187.347 136.012 186.422 136.846C186.37 136.894 186.317 136.941 186.264 136.988C184.014 136.988 181.763 136.988 179.512 136.988C176.59 136.988 173.668 136.988 170.746 136.988C170.675 136.799 170.599 136.61 170.539 136.42C170.453 136.154 170.171 136.041 169.842 136.035C169.532 135.01 168.75 133.841 168.41 133.136C166.944 130.098 165.369 127.11 163.805 124.121C162.189 121.031 160.553 117.951 158.93 114.864C158.379 113.816 157.83 112.766 157.293 111.71C156.954 111.044 156.947 110.727 156.814 110.707C157.216 110.037 157.72 109.427 158.315 108.882C159.06 108.199 159.939 107.613 160.886 107.105C163.008 105.969 165.49 105.244 167.714 104.817C167.742 104.881 167.761 104.945 167.79 105.009C167.974 105.412 169.188 105.097 169.665 104.756C169.68 104.811 169.699 104.866 169.729 104.923C172.118 109.411 175.387 113.332 177.924 117.73C178.395 118.547 180.354 117.765 179.807 116.816C178.107 113.87 176.082 111.134 174.21 108.301C174.445 108.178 174.629 108.012 174.691 107.812C177.03 100.154 177.634 90.7889 182.073 83.9956C182.711 83.0193 183.454 82.1353 184.262 81.3089C184.392 81.1732 184.528 81.0417 184.664 80.9096ZM145.711 97.1963C144.277 95.5086 142.968 93.5289 142.648 91.3012C142.446 89.8893 143.99 91.6238 144.306 91.9159C145.114 92.6606 145.768 93.5666 146.363 94.5053C146.79 95.2471 147.212 95.9911 147.6 96.7536C147.97 97.4791 149.973 96.8183 149.659 96.2022C149.546 95.9812 149.427 95.763 149.31 95.5442C149.33 95.5072 149.34 95.4724 149.323 95.4433C149.024 94.9274 148.672 94.3084 148.269 93.6696C147.154 91.7148 146.03 89.7656 145.377 87.5926C145.168 86.897 145.085 86.1885 145.239 85.4751C145.571 83.9253 147.752 86.8828 147.923 87.2196C148.775 88.8895 149.293 90.2602 150.481 91.54C150.65 91.8271 150.796 92.0829 150.904 92.2946C151.152 92.7814 152.132 92.6435 152.658 92.3138C153.165 92.1127 153.536 91.7759 153.234 91.5272C152.963 91.3041 152.717 91.0774 152.484 90.8464C151.681 89.3663 150.805 87.9259 150.035 86.4273C149.561 85.5064 149.153 84.557 148.815 83.5785C148.743 83.371 148.311 80.167 148.996 80.7298C150.364 81.8518 151.55 83.2922 152.625 84.832C153.777 87.2068 155.409 89.5347 155.998 90.6915C156.367 91.417 158.371 90.7569 158.056 90.1401C157.988 90.0058 157.911 89.8658 157.834 89.7266C157.895 89.5986 157.897 89.4601 157.813 89.3173C156.904 87.7717 155.917 86.2724 154.894 84.7986C153.938 82.9909 153.269 81.1241 153.637 79.413C153.934 78.0267 156.404 80.5415 156.728 80.9032C157.579 81.8553 158.171 83.0356 158.759 84.1584C159.868 86.2752 160.913 88.3786 162.8 89.9198C162.901 90.0023 163.043 90.0435 163.205 90.0563C161.418 92.036 159.465 93.8167 159.318 96.8317C159.302 97.1686 161.347 96.9064 161.377 96.2803C161.553 92.6734 164.573 90.5828 166.647 87.9806C167.292 87.1706 167.688 86.1331 168.111 85.1987C168.273 84.8327 168.443 84.471 168.616 84.1108C168.626 84.142 168.627 84.169 168.641 84.2024C170.104 87.7575 168.355 92.0246 167.417 95.4937C166.677 98.2288 166.444 100.836 167.218 103.455C163.814 104.151 160.05 105.432 157.344 107.626C153.133 104.544 149.094 101.181 145.711 97.1963ZM181.903 157.896C179.413 153.121 176.857 148.381 174.306 143.639C173.305 141.78 171.982 139.828 171.088 137.826C175.868 137.826 180.648 137.826 185.427 137.826C185.417 138.143 186.594 138.051 187.099 137.826C193.923 137.826 200.749 137.826 207.573 137.826C207.86 138.04 208.411 137.993 208.859 137.826C212.22 137.826 215.582 137.826 218.944 137.826C219.154 137.983 219.506 137.999 219.856 137.93C220.562 139.77 221.754 141.558 222.65 143.268C224.885 147.532 227.126 151.793 229.329 156.074C231.594 160.475 233.829 164.896 235.904 169.39C236.645 170.992 237.355 172.611 237.976 174.265C238.183 174.813 238.405 176.174 238.677 176.455C222.51 176.455 206.342 176.455 190.176 176.455C190.555 174.968 189.05 172.464 188.6 171.435C186.585 166.823 184.229 162.354 181.903 157.896ZM44.8268 190.372C44.8694 190.396 44.9497 190.409 45.0776 190.409C51.1638 190.409 57.25 190.409 63.3362 190.409C63.6432 190.409 63.9502 190.409 64.2571 190.409C64.2571 190.42 64.2571 190.431 64.2571 190.441C64.2571 198.489 64.2571 206.536 64.2571 214.584C44.3969 217.437 32.2714 198.814 33.9512 180.75C37.291 181.017 40.6471 181.132 44.0053 181.189C44.0053 184.215 44.0053 187.241 44.0053 190.267C44.006 190.41 44.3905 190.436 44.8268 190.372ZM31.5693 202.007C25.1918 199.122 26.8915 186.265 28.6417 180.254C29.7402 180.385 30.8296 180.49 31.8933 180.581C31.2218 187.132 32.3133 193.678 34.8693 199.349C34.8053 199.374 34.7456 199.401 34.6952 199.434C33.5533 200.174 32.5037 201.043 31.5693 202.007ZM75.9094 176.214C74.8982 173.832 73.4486 172.407 70.7768 173.076C67.8712 173.805 65.5199 177.075 62.686 174.297C62.5411 174.155 62.3009 174.104 62.0366 174.117C61.2492 169.939 61.8532 165.359 64.2209 162.2C64.3097 162.223 64.4156 162.239 64.5542 162.237C71.4057 162.19 78.5578 161.31 84.3775 165.669C84.6141 165.846 85.0192 165.831 85.3901 165.709C85.1918 165.877 85.1186 166.068 85.2934 166.234C87.9589 168.76 89.2116 172.825 88.5998 176.453C88.1969 176.453 87.7933 176.453 87.3897 176.453C87.5553 176.289 87.6569 176.087 87.6341 175.858C87.2838 172.343 87.0188 168.16 83.8488 165.959C83.1269 165.458 81.3042 166.462 82.255 167.123C85.1286 169.118 85.26 173.249 85.5755 176.41C85.577 176.426 85.5841 176.438 85.5869 176.454C85.0597 176.454 84.5324 176.454 84.0044 176.454C84.0741 176.374 84.1082 176.293 84.0812 176.214C82.7161 172.195 83.0494 167.692 78.5613 165.762C78.0767 165.554 76.1951 166.315 76.8836 166.611C80.9709 168.369 80.7762 172.786 81.926 176.454C81.3319 176.454 80.7386 176.454 80.1445 176.454C79.4886 174.018 79.2506 171.309 77.8436 169.161C76.4359 167.01 73.7556 166.77 71.4185 166.838C70.872 166.853 69.1623 167.706 70.5267 167.666C73.2518 167.587 75.3431 168.448 76.4779 170.995C77.2389 172.704 77.5032 174.631 77.9445 176.454C77.2709 176.454 76.5972 176.454 75.9243 176.454C75.9449 176.376 75.9442 176.296 75.9094 176.214ZM91.4244 176.454C91.1537 176.454 90.8837 176.454 90.6129 176.454C91.3789 172.573 90.0779 168.149 87.2056 165.428C86.9619 165.197 86.4183 165.24 85.9571 165.404C86.2492 165.161 86.3558 164.846 85.9898 164.572C84.7015 163.607 83.3471 162.895 81.9487 162.355C81.6183 161.145 81.4399 160.025 81.4065 158.938C81.3674 157.665 81.5373 156.44 81.9309 155.19C81.9338 155.194 81.9373 155.197 81.9402 155.201C85.4945 159.156 90.8467 164.8 96.3289 164.648C95.2239 166.912 94.1538 169.192 93.1526 171.502C92.7795 172.362 91.3313 174.926 91.4244 176.454ZM63.0342 176.511C63.1451 176.544 63.2573 176.567 63.3696 176.592C63.4471 176.603 63.521 176.623 63.6027 176.623C64.6437 176.804 65.7458 176.669 66.9332 176.249C68.1149 175.832 69.1837 175.094 70.2986 174.534C72.0921 173.634 73.0059 174.893 73.6916 176.405C73.6995 176.421 73.7066 176.437 73.7144 176.453C73.6646 176.453 73.6149 176.453 73.5659 176.453C72.1404 176.453 70.7143 176.453 69.2888 176.453C68.7125 176.453 68.3217 176.814 68.2379 177.181C68.0531 177.295 67.9295 177.434 67.9295 177.594C67.9295 178.507 67.9295 179.421 67.9295 180.334C66.9361 180.334 65.9419 180.334 64.9485 180.334C64.9407 180.089 64.6025 179.901 64.1989 179.835C63.5387 178.786 63.0001 177.603 62.5944 176.345C62.74 176.406 62.8857 176.466 63.0342 176.511ZM69.9696 180.335C69.9795 180.304 69.988 180.273 69.988 180.241C69.988 179.476 69.988 178.712 69.988 177.946C70.1003 177.946 70.2126 177.946 70.3249 177.946C94.5546 177.946 118.784 177.946 143.015 177.946C143.015 178.742 143.015 179.538 143.015 180.334C118.696 180.334 94.3776 180.334 70.0598 180.334C70.0293 180.335 69.9994 180.335 69.9696 180.335ZM161.221 137.826C160.348 139.903 158.933 141.939 157.901 143.859C155.35 148.601 152.799 153.344 150.303 158.116C147.971 162.574 145.652 167.054 143.607 171.654C143.236 172.488 141.812 174.962 141.885 176.454C125.787 176.454 109.689 176.454 93.5924 176.454C93.5583 176.406 93.515 176.359 93.456 176.313C92.8648 175.852 95.8514 169.887 96.1797 169.169C96.9407 167.503 97.7359 165.853 98.5417 164.207C98.8764 163.997 98.9908 163.69 98.9211 163.433C100.175 160.894 101.462 158.37 102.755 155.853C104.954 151.571 107.198 147.311 109.434 143.048C110.252 141.487 111.291 139.873 112.022 138.208C112.078 138.081 112.135 137.954 112.186 137.826C113.435 137.826 114.684 137.826 115.933 137.826C131.028 137.826 146.125 137.826 161.221 137.826ZM124.517 136.989C120.509 136.989 116.501 136.989 112.493 136.989C112.498 136.973 112.505 136.957 112.51 136.941C112.768 136.132 110.684 136.404 110.442 137.163C110.397 137.304 110.34 137.445 110.289 137.585C110.168 137.675 110.124 137.752 110.214 137.793C109.353 140.073 107.829 142.307 106.719 144.421C104.295 149.04 101.874 153.661 99.506 158.31C98.6845 159.922 97.8709 161.539 97.0665 163.162C91.9126 163.799 85.8768 156.593 82.9322 153.304C82.8803 153.246 82.8156 153.204 82.746 153.167C82.7652 153.127 82.7787 153.089 82.7986 153.049C84.1466 150.329 85.0504 147.719 85.1961 144.66C85.5152 137.95 78.7418 133.565 79.1085 126.827C79.1305 126.427 77.0861 126.708 77.0499 127.379C76.7024 133.747 82.4184 138.069 83.1063 144.258C83.4949 147.754 81.9487 150.981 80.4501 154.004C79.1795 156.568 79.0445 158.969 79.5846 161.611C75.1128 160.513 70.2837 160.849 65.5753 160.894C65.549 160.714 65.3706 160.571 64.9535 160.536C57.4682 159.901 50.0134 159.851 42.511 159.776C39.336 159.745 36.1476 159.865 36.4503 156.149C36.4567 156.133 36.4667 156.119 36.4717 156.103C38.1515 149.983 39.6977 143.812 40.576 137.52C41.0734 133.959 42.1493 127.571 38.8884 124.931C38.337 124.484 36.4347 125.289 36.9733 125.724C40.3046 128.422 38.8905 135.143 38.391 138.72C37.5937 144.426 36.1441 150.048 34.6263 155.602C34.5083 155.712 34.4266 155.839 34.4067 155.983C33.9469 159.384 35.5742 160.665 38.8244 161.003C46.7468 161.827 54.8432 161.259 62.8246 161.797C58.7714 166.44 58.7906 174.601 61.8788 179.93C59.9112 179.959 57.9365 179.891 55.9738 179.868C49.5543 179.794 43.1221 179.804 36.7104 179.47C30.6455 179.154 24.0569 178.594 18.6046 175.702C12.6655 172.553 14.2202 166.791 14.837 161.189C15.7104 153.262 16.7563 145.368 18.7432 137.632C19.5902 134.334 20.6049 131.044 21.9877 127.944C22.0708 127.848 22.122 127.747 22.1192 127.644C22.9307 125.864 23.8729 124.153 24.9764 122.539C25.8633 121.243 26.851 120.008 27.973 118.861C28.4313 118.393 28.9181 117.945 29.4176 117.506C32.4845 114.808 36.2684 112.644 40.1617 110.841C39.9543 113.632 39.3176 116.731 40.2328 119.352C41.0237 121.618 43.4326 121.026 45.5331 120.949C46.5606 120.912 47.5135 121 48.168 121.604C48.3428 121.765 48.4977 121.958 48.6256 122.2C49.8613 124.54 49.1131 128.086 51.6428 129.674C55.2149 131.916 60.3006 133.77 64.5392 133.752C64.6664 133.751 64.8086 133.718 64.9528 133.665C65.107 133.669 65.2797 133.65 65.4552 133.611C65.4417 133.628 65.4275 133.645 65.414 133.662C64.9521 134.28 66.9716 134.008 67.2956 133.575C68.537 131.917 71.8484 130.197 71.8761 127.806C71.8974 126.014 70.1707 124.413 70.0264 122.898C69.9518 122.113 70.3028 121.351 71.5464 120.597C71.6061 120.561 71.6565 120.523 71.7126 120.486C75.2265 118.164 71.9464 114.011 69.6214 111.098C71.6565 111.698 73.6746 112.349 75.6181 113.216C81.8542 115.999 84.5253 122.097 87.3755 127.862C89.3154 131.785 91.5722 135.764 93.9037 139.467C94.9113 141.068 96.1278 142.626 97.6641 143.491C97.6023 143.736 97.7082 143.986 98.0962 144.158C102.578 146.15 106.329 140.08 108.221 137.028C111.352 131.975 114.117 126.041 115.554 120.211C119.572 120.306 123.581 120.654 127.597 120.814C127.717 120.887 128.016 120.889 128.343 120.844C128.881 120.862 129.419 120.872 129.957 120.882C129.148 126.349 128.102 132.012 125.418 136.902C125.415 136.907 125.413 136.913 125.41 136.918C125.396 136.943 125.391 136.965 125.38 136.989C125.091 136.989 124.804 136.989 124.517 136.989ZM72.662 83.9082C74.9153 89.6363 72.6087 95.1036 67.8534 98.8797C63.9843 101.952 59.8238 102.295 59.5971 108.221C59.4848 111.161 61.2428 113.841 62.2803 116.521C63.727 120.26 64.4959 124.145 64.6835 128.093C63.3732 125.144 61.763 122.363 59.8522 119.684C58.2818 117.481 56.5984 115.313 54.9122 113.197C53.1442 110.977 50.7275 109.453 49.0974 107.115C51.0814 104.06 51.6662 99.6229 50.9712 96.2228C50.6294 94.5486 49.5096 93.6249 47.9811 93.0273C46.5791 92.4794 45.5395 92.1163 45.1977 90.5231C44.8978 89.1226 45.4087 87.7092 46.2437 87.0661C47.1298 87.1677 48.2881 87.9273 49.2346 88.6763C50.0176 89.3741 50.4482 90.1899 51.0167 91.1271C51.3841 91.7325 52.4471 91.2948 52.8159 90.9573C55.4302 88.5591 54.5661 85.743 53.4398 82.9219C54.5512 82.4679 55.7002 82.1055 56.7839 81.5853C57.0567 83.4094 58.2875 85.0345 60.1912 85.8325C64.1228 87.4818 66.3292 83.5863 65.9903 80.0895C66.6298 80.0895 67.2693 80.0895 67.9089 80.0895C67.9266 80.0895 67.9472 80.0853 67.965 80.0853C68.8184 81.7679 71.3417 86.2589 69.0025 86.9489C67.7433 87.3198 68.1171 88.7552 69.3862 88.3814C71.9884 87.614 72.2349 85.7124 71.7155 83.6844C71.7816 83.7079 71.8448 83.7341 71.9123 83.7555C72.1617 83.8315 72.4126 83.8812 72.662 83.9082ZM50.2045 120.75C48.7421 119.023 46.928 119.573 44.9327 119.889C40.3678 120.611 42.0583 112.717 42.2594 109.905C43.4866 109.378 44.7124 108.881 45.9182 108.412C46.1229 108.351 46.3119 108.295 46.4832 108.246C46.4583 108.276 46.4348 108.308 46.4093 108.338C46.0959 108.694 46.9706 108.674 47.64 108.5C48.7769 109.937 50.1583 111.091 51.5198 112.345C53.4569 114.13 54.8923 116.476 56.4762 118.561C59.7769 122.906 62.3684 127.345 64.1136 132.477C62.303 132.318 60.0384 131.821 57.9229 131.062C55.831 130.312 53.8896 129.309 52.6965 128.128C52.2489 127.685 51.9725 127.134 51.7849 126.527C51.205 124.657 51.4715 122.247 50.2045 120.75ZM68.5853 77.8903C68.5392 78.2043 68.5164 78.5184 68.5164 78.8289C68.4496 78.8481 68.385 78.8716 68.3231 78.8979C67.5031 78.8979 66.6824 78.8979 65.8624 78.8979C65.8325 78.8979 65.7977 78.9043 65.7664 78.9057C65.3991 77.6039 64.6274 76.4719 63.4016 75.8601C63.4357 75.821 63.4457 75.7912 63.4165 75.7755C61.2698 74.6379 58.6683 76.0832 57.5328 77.9769C57.0503 78.7806 56.7995 79.6234 56.7412 80.4519C56.4662 80.4505 56.1777 80.5251 55.9845 80.6182C55.0159 81.0872 53.9948 81.4276 52.9936 81.817C52.5253 80.6608 52.0833 79.5125 51.8907 78.4019C51.5831 76.6261 56.9807 72.7228 58.2242 71.3855C59.3761 70.1477 60.5308 68.9368 61.9158 67.9555C64.184 66.3474 65.9526 68.6462 67.0981 70.498C67.096 70.5101 67.0938 70.5229 67.1002 70.5328C67.7085 71.4651 68.1995 72.4677 68.6557 73.4874C68.4994 73.4143 68.3459 73.3368 68.2009 73.243C67.803 72.9872 67.2629 73.0895 66.8472 73.2579C66.7058 73.3155 65.8908 73.771 66.2816 74.0218C66.8288 74.3743 67.3987 74.6102 68.014 74.8155C68.3906 74.9413 68.8248 74.8802 69.1993 74.7281C69.3606 75.1055 69.5219 75.4814 69.6846 75.8551C69.1119 76.3639 68.7061 77.0717 68.5853 77.8903ZM61.2947 76.462C63.0349 77.2379 63.7093 79.0968 63.9225 80.8719C64.0361 81.8184 63.877 85.5646 62.3186 85.2044C60.0519 84.6799 58.7693 82.4373 58.7941 80.2601C58.8083 79.0464 59.7747 75.8438 61.3068 76.3987C61.2791 76.43 61.2727 76.4527 61.2947 76.462ZM68.7133 125.463C70.8663 128.497 68.6891 130.205 66.6959 132.216C67.0114 127.165 66.4514 122.283 64.8711 117.453C63.963 114.676 61.7978 111.655 61.6166 108.708C61.6145 108.673 61.6166 108.642 61.6145 108.608C63.1898 109.2 64.7958 109.7 66.4117 110.168C67.6722 111.972 69.0181 113.71 70.2034 115.569C70.9637 116.76 71.4362 117.734 71.1769 119.195C70.9971 120.206 69.5212 120.521 68.9051 121.161C67.6339 122.478 67.6715 123.994 68.7133 125.463ZM112.023 101.81C111.893 101.22 111.817 100.622 111.794 100.018C111.814 99.8027 111.833 99.5874 111.853 99.3714C112.825 100.444 113.614 101.672 114.654 102.696C117.171 105.169 120.697 105.827 121.816 109.615C121.962 110.112 124.014 109.538 123.874 109.064C123.057 106.293 120.834 104.955 118.656 103.484C118.728 103.437 118.79 103.386 118.832 103.331C120.211 101.488 120.791 99.3707 121.329 97.1636C121.59 96.0927 124.128 88.5498 125.49 91.6231C126.098 92.996 125.931 94.7398 125.495 96.5205C124.784 98.3204 124.149 100.152 123.59 102.003C123.545 102.151 123.591 102.256 123.691 102.329C123.656 102.458 123.619 102.59 123.59 102.713C123.402 103.505 125.481 103.185 125.651 102.465C125.918 101.34 126.987 98.5606 127.564 95.8682C128.226 94.1677 129.039 92.5519 130.079 91.169C132.298 91.9891 130.1 99.0822 129.218 102.023C129.046 102.319 128.859 102.615 128.634 102.913C128.377 103.255 128.658 103.413 129.081 103.432C129.553 103.699 130.848 103.383 130.981 102.82C131.033 102.597 131.119 102.304 131.225 101.958C131.994 100.636 132.36 99.2904 132.594 97.6667C132.769 96.4523 133.206 95.569 134.093 94.7099C134.712 94.1102 135.237 96.1403 135.277 96.4047C135.625 98.6921 134.863 101.152 134.107 103.501C133.807 104.313 133.562 105.126 133.346 105.861C133.336 105.894 133.343 105.921 133.357 105.946C133.295 106.173 133.236 106.398 133.184 106.621C132.997 107.413 135.075 107.093 135.245 106.372C135.377 105.816 135.522 105.262 135.674 104.711C136.424 102.865 138.298 98.7702 138.713 99.8091C139.479 101.722 138.355 104.211 137.618 105.96C135.496 111.003 131.896 115.569 128.346 119.728C124.743 119.582 121.147 119.287 117.544 119.16C117.551 119.144 117.561 119.127 117.565 119.11C118.9 112.445 113.586 107.864 112.023 101.81ZM74.2608 81.5917C74.2658 81.9186 74.2068 82.2369 74.1144 82.5489C73.7961 82.5013 73.3513 82.5937 72.9938 82.745C71.7318 82.1318 70.9644 80.8072 70.6709 79.4266C70.4997 78.6186 70.5324 77.756 70.732 76.9587C70.791 76.7235 70.8884 76.5032 70.9964 76.2872L71.0639 76.4307L71.7347 76.2758C72.8304 76.9224 73.4984 78.2974 73.8934 79.4351C74.1336 80.1279 74.2487 80.8598 74.2608 81.5917ZM69.664 62.2239C68.9506 62.2367 68.2961 62.275 67.7149 62.3305C68.4567 62.01 69.1041 61.9951 69.664 62.2239ZM2.74848 133.967C2.62981 128.705 2.46069 123.286 4.26132 118.255C6.56506 111.819 13.1693 110.395 19.3031 110.324C19.5745 110.322 19.8979 110.183 20.1643 109.999C19.9746 111.488 20.0229 112.978 20.2233 114.477C20.5772 117.123 20.7769 117.782 18.9698 119.599C15.9733 122.612 17.5728 125.447 19.9241 128.039C18.9322 130.383 18.1271 132.818 17.3902 135.224C14.6722 144.096 13.634 153.402 12.6221 162.59C0.141323 159.451 2.96805 143.689 2.74848 133.967ZM22.1483 179.024C23.6675 179.456 25.2415 179.77 26.8204 180.008C25.5847 183.858 25.2287 188.042 25.2813 192.056C25.331 195.83 25.935 201.407 30.0863 202.879C30.271 202.944 30.556 202.893 30.8502 202.8C29.6877 204.154 28.744 205.661 28.081 207.25C17.9281 201.082 22.3153 188.777 22.1483 179.024ZM51.1375 225.576C44.7031 225.178 37.7806 224.781 32.6849 220.36C26.0949 214.642 29.0922 204.894 35.3596 200.371C40.5078 210.847 50.7694 218.032 64.13 216.089C64.1747 216.082 64.2159 216.07 64.2579 216.059C64.2579 219.357 64.2579 222.655 64.2579 225.953C63.1031 226.064 61.7921 225.918 60.744 225.919C57.5392 225.921 54.3352 225.773 51.1375 225.576ZM38.4627 289.118C34.6426 289.118 31.5345 286.01 31.5345 282.19C31.5345 278.37 34.6426 275.262 38.4627 275.262C42.2829 275.262 45.391 278.37 45.391 282.19C45.391 286.01 42.2829 289.118 38.4627 289.118ZM46.7994 281.938C46.6956 278.486 44.4921 275.561 41.4216 274.391C46.3766 271.603 52.111 271.964 57.6266 272.045C57.6266 272.144 57.6266 272.242 57.6266 272.34C57.6266 272.672 59.6852 272.377 59.6852 271.788C59.6852 271.678 59.6852 271.568 59.6852 271.458C59.9275 271.171 59.9943 270.862 59.6852 270.724C59.6852 256.148 59.6852 241.573 59.6852 226.996C60.0419 226.998 60.3994 227.007 60.7561 227.006C61.8511 227.005 63.0953 227.08 64.2579 226.951C64.2579 244.595 64.2579 262.238 64.2579 279.882C58.3166 279.843 52.3683 279.614 46.7994 281.938ZM66.2631 288.995C66.2944 288.947 66.3164 288.896 66.3164 288.842C66.3164 256.032 66.3164 223.221 66.3164 190.41C68.2357 190.41 70.155 190.41 72.0743 190.41C72.0743 198.434 72.0743 206.457 72.0743 214.481C71.6906 214.831 71.5641 215.325 72.0743 215.529C72.0743 240.018 72.0743 264.507 72.0743 288.996C70.1373 288.995 68.2002 288.995 66.2631 288.995ZM103.046 190.586C103.215 190.683 103.368 190.787 103.533 190.885C92.9522 192.712 85.3546 203.519 85.4384 214.019C85.1968 214.026 84.9644 214.036 84.7605 214.041C81.1869 214.11 77.6944 214.498 74.1322 214.206C74.1322 206.273 74.1322 198.341 74.1322 190.409C83.7806 190.409 93.4283 190.409 103.076 190.409C103.003 190.485 102.982 190.549 103.046 190.586ZM74.1329 225.355C74.1329 222.161 74.1329 218.967 74.1329 215.774C75.9591 215.904 77.7825 215.9 79.6237 215.829C80.6291 215.789 85.8498 214.805 86.4915 215.787C86.569 215.906 86.6827 215.985 86.8134 216.037C86.7352 216.072 86.6663 216.111 86.6194 216.153C83.7984 218.674 82.4276 221.945 81.7867 225.461C79.235 225.439 76.6847 225.364 74.1329 225.355ZM80.8046 261.753C81.9125 260.004 82.2209 257.476 82.6415 255.501C83.615 250.942 83.8019 246.324 83.657 241.681C83.4054 233.612 81.4641 222.467 88.2467 216.407C88.6368 216.059 88.4335 215.893 88.0534 215.851C88.4144 215.62 88.6247 215.26 88.3753 214.879C88.1728 214.569 87.8729 214.375 87.5304 214.243C87.298 204.892 93.7118 194.056 103.455 192.425C104.03 192.329 104.421 191.873 104.489 191.475C111.784 196.271 114.276 203.028 111.85 211.781C109.912 218.775 106.179 225.413 102.877 231.847C97.7842 241.773 95.138 252.407 92.1002 263.116C92.0846 263.172 92.1002 263.216 92.1343 263.252C92.0981 263.317 92.0789 263.385 92.0888 263.457C92.4164 265.79 93.3359 267.735 94.6029 269.455C94.4579 269.617 94.4103 269.804 94.5453 269.99C95.8351 271.766 97.7529 273.428 97.5945 275.817C97.3671 279.252 89.8455 273.072 89.2749 272.616C85.5912 269.669 82.4838 266.224 80.7741 261.788C80.784 261.776 80.7968 261.765 80.8046 261.753ZM101.513 252.148C101.277 254.338 101.05 256.529 100.833 258.721C100.393 258.71 99.8634 258.804 99.6339 258.981C97.0779 260.95 95.6134 263.5 95.246 266.454C94.7159 265.361 94.3279 264.188 94.1481 262.907C94.1438 262.874 94.1311 262.845 94.1133 262.819C94.1211 262.804 94.1318 262.789 94.1367 262.773C96.9009 253.027 99.4242 243.52 103.554 234.391C102.838 240.305 102.152 246.223 101.513 252.148ZM96.0489 288.223C89.5811 288.295 85.9287 286.065 84.6703 279.481C84.5608 278.907 82.4909 279.401 82.6117 280.032C83.0189 282.162 83.6989 283.916 84.6795 285.304C82.8291 285.81 78.044 286.377 78.1584 284.218C78.2948 281.646 77.8564 279.206 77.2837 276.708C76.092 271.512 75.2137 266.852 78.9592 262.95C81.7163 269.469 87.8615 274.7 93.8234 278.242C95.0229 278.955 97.7046 278.538 98.5801 277.425C99.4441 276.325 99.6765 275.316 99.5429 274.356C103.567 277.61 108.12 280.54 110.305 285.072C112.4 289.417 98.5161 288.195 96.0489 288.223ZM124.365 278.819C127.493 281.9 129.766 287.553 123.258 287.481C119.592 287.44 115.913 286.889 112.255 286.658C112.204 286.655 112.135 286.664 112.056 286.679C113.578 284.089 109.497 280.319 107.551 278.55C104.291 275.587 99.9686 272.892 97.0963 269.325C97.2292 269.197 97.3088 269.05 97.2911 268.886C96.935 265.563 97.8403 262.679 100.06 260.412C99.4882 264.117 102.068 267.633 104.372 270.275C106.551 272.775 109.959 276.153 113.397 276.713C115.825 277.109 117.88 275.053 118.094 272.765C120.101 274.864 122.325 276.811 124.365 278.819ZM120.574 190.586C127.839 194.765 131.413 200.727 129.931 209.11C128.675 216.216 125.169 223.058 122.335 229.64C118.236 239.159 115.047 248.772 112.133 258.671C112.094 258.721 112.06 258.774 112.039 258.833C111.883 259.27 111.784 259.699 111.711 260.125C111.49 260.884 111.267 261.64 111.049 262.403C110.991 262.605 111.305 262.672 111.703 262.645C111.919 263.955 112.443 265.233 113.14 266.513C113.62 267.394 118.666 276.531 114.006 275.286C109.322 274.037 102.63 267.273 102.108 261.756C102.387 261.613 102.612 261.424 102.661 261.222C102.666 261.201 102.671 261.181 102.676 261.16C102.703 261.048 102.681 260.96 102.629 260.89C102.554 260.26 102.837 259.044 102.897 258.431C103.143 255.914 103.413 253.398 103.685 250.884C104.437 243.922 105.247 236.966 106.112 230.016C106.136 229.819 106.041 229.69 105.882 229.613C109.285 222.998 112.933 216.161 114.521 208.878C116.294 200.743 112.538 194.569 105.87 190.41C110.782 190.41 115.694 190.41 120.606 190.41C120.531 190.485 120.51 190.549 120.574 190.586ZM230.132 190.686C225.674 204.954 222.935 219.772 220.42 234.485C218.251 247.175 216.347 259.94 214.992 272.745C214.906 272.843 214.867 272.946 214.903 273.05C214.918 273.096 214.929 273.144 214.943 273.19C214.942 273.203 214.941 273.216 214.939 273.229C214.926 273.352 214.966 273.444 215.037 273.515C215.04 273.526 215.044 273.537 215.046 273.548C210.51 275.073 204.989 274.814 200.372 274.717C197.893 274.666 195.415 274.491 192.954 274.185C191.777 274.039 188.838 273.904 188.104 272.706C188.059 272.632 187.99 272.576 187.91 272.534C189.266 259.71 191.19 246.934 193.344 234.221C195.836 219.508 198.599 204.686 203.056 190.422C203.057 190.417 203.056 190.413 203.057 190.408C212.152 190.408 221.246 190.408 230.341 190.408C230.241 190.492 230.164 190.584 230.132 190.686ZM213.977 288.251C212.763 288.251 211.548 288.251 210.332 288.251C209.519 288.251 208.705 288.251 207.892 288.251C208.81 288.251 208.092 287.284 207.751 286.377C206.089 281.953 202.448 284.697 201.829 288.099C195.419 288.114 189.009 288.194 182.6 288.019C179.056 287.924 175.518 287.692 171.99 287.339C168.969 287.036 169.621 284.182 171.145 282.291C175.213 277.248 184.05 278.7 189.236 275.294C189.367 275.208 189.457 275.127 189.519 275.048C189.749 275.089 189.969 275.128 190.16 275.166C193.259 275.769 196.457 275.92 199.605 276.013C204.614 276.16 210.39 276.304 215.32 274.738C216.062 278.98 214.819 284.138 213.977 288.251ZM81.484 189.572C79.1298 189.572 76.7742 189.572 74.4193 189.572C65.0843 189.572 55.7493 189.572 46.4142 189.572C46.3375 189.572 46.2117 189.6 46.0646 189.644C46.0646 186.953 46.0646 184.262 46.0646 181.571C46.0646 181.453 46.0646 181.336 46.0646 181.219C49.3539 181.254 52.6447 181.251 55.9233 181.29C55.9376 181.29 55.9511 181.29 55.9653 181.29C58.2292 181.317 60.5201 181.412 62.7876 181.314C62.8047 181.337 62.8196 181.361 62.8367 181.384C63.0832 181.702 63.9473 181.439 64.4767 181.172C139.255 181.172 214.032 181.172 288.811 181.172C288.841 181.172 288.88 181.167 288.923 181.159C288.923 183.963 288.923 186.768 288.923 189.572C219.776 189.572 150.63 189.572 81.484 189.572ZM252.514 190.409C256.558 190.409 260.601 190.409 264.644 190.409C264.644 210.461 264.644 230.514 264.644 250.566C264.644 255.767 264.644 260.969 264.644 266.17C264.497 265.75 264.355 265.328 264.209 264.908C262.737 260.658 261.319 256.387 259.953 252.1C259.953 251.912 259.953 251.724 259.953 251.536C259.953 251.469 259.868 251.429 259.735 251.41C257.869 245.532 256.084 239.627 254.357 233.712C250.221 219.553 246.28 205.183 244.046 190.582C244.036 190.524 244.027 190.467 244.018 190.409C246.85 190.409 249.682 190.409 252.514 190.409ZM249.588 225.677C240.282 225.22 227.043 222.969 229.261 210.708C229.661 208.494 230.611 206.369 231.647 204.392C232.368 203.018 234.419 199.049 236.059 198.75C238.35 198.331 240.907 198.713 243.186 198.129C244.943 207.415 247.3 216.605 249.851 225.711C249.777 225.694 249.693 225.682 249.588 225.677ZM238.494 289.118C234.674 289.118 231.566 286.01 231.566 282.19C231.566 278.37 234.674 275.262 238.494 275.262C242.314 275.262 245.422 278.37 245.422 282.19C245.422 286.01 242.314 289.118 238.494 289.118ZM264.536 279.883C258.512 279.851 252.476 279.582 246.83 281.938C246.726 278.487 244.522 275.561 241.452 274.392C246.407 271.603 252.141 271.964 257.657 272.046C257.657 272.144 257.657 272.242 257.657 272.34C257.657 272.673 259.716 272.377 259.716 271.789C259.716 271.678 259.716 271.568 259.716 271.457C259.956 271.171 260.023 270.864 259.718 270.727C259.718 268.415 259.718 266.103 259.737 263.793C259.74 263.436 259.61 262.565 259.686 262.015C259.757 261.96 259.816 261.906 259.848 261.856C260.05 261.543 259.915 260.733 259.92 260.399C259.928 259.909 259.927 259.42 259.932 258.93C261.331 263.144 262.777 267.341 264.288 271.513C264.342 271.66 264.474 271.749 264.644 271.795C264.644 274.493 264.644 277.192 264.644 279.892C264.608 279.888 264.577 279.883 264.536 279.883ZM266.703 288.962C266.703 256.111 266.703 223.261 266.703 190.41C268.622 190.41 270.541 190.41 272.461 190.41C272.461 223.272 272.461 256.134 272.461 288.996C270.539 288.996 268.617 288.996 266.696 288.996C266.698 288.984 266.703 288.973 266.703 288.962ZM240.682 39.4566C243.67 40.3022 247.319 39.9632 250.383 40.0719C250.845 40.0883 253.995 39.9007 254.167 40.4919C254.352 41.125 254.132 42.0552 254.044 42.6976C253.899 43.7507 253.64 44.7995 253.356 45.8235C253.108 46.7195 254.731 46.4538 255.078 46.1987C257.565 44.3682 260.101 42.5569 262.782 41.0199C265 39.7486 268.083 40.3619 270.577 40.2951C272.553 40.2425 274.543 40.1402 276.488 39.7678C276.602 39.7458 276.718 39.733 276.832 39.7088C283.137 37.8201 285.951 33.0769 286.718 26.7598C287.147 23.2281 287.006 19.5366 286.934 15.9851C286.869 12.7363 286.585 9.12576 284.974 6.23153C283.304 3.23071 280.873 1.56012 277.575 0.711672C274.722 -0.021657 271.711 0.885763 268.824 0.885763C263.129 0.885763 257.464 0.59158 251.771 0.45941C245.936 0.324398 239.617 -0.0500816 235.669 4.97734C231.581 10.1831 232.62 18.7905 232.82 24.947C233.01 30.7774 234.295 37.6481 240.682 39.4566ZM234.936 14.1724C235.121 10.8717 235.82 7.55962 237.897 4.9141C240.238 1.93246 244.218 2.00565 247.644 1.92322C252.846 1.79816 258.029 2.36521 263.226 2.36521C265.029 2.36521 266.831 2.36521 268.633 2.36521C272.334 2.36521 275.672 1.29151 279.207 3.04809C285.361 6.10576 284.915 14.8659 284.858 20.6053C284.787 27.6949 284.55 35.9036 276.461 38.3267C271.752 39.313 266.163 37.5309 261.877 39.8339C259.836 40.9311 257.893 42.2535 255.998 43.6185C256.598 41.1897 256.755 38.773 253.63 38.682C250.373 38.5875 247.118 38.4618 243.864 38.3047C239.835 38.11 237.44 35.9122 236.095 32.2569C234.092 26.8152 234.617 19.8784 234.936 14.1724ZM80.2866 58.9751C83.7365 59.3751 87.2703 59.3716 90.7373 59.4945C91.1999 59.5109 94.3492 59.3233 94.5219 59.9145C94.7066 60.5476 94.4871 61.4778 94.399 62.1201C94.254 63.1732 93.9946 64.2221 93.7111 65.246C93.4624 66.1421 95.0854 65.8763 95.4321 65.6212C97.9192 63.7907 100.455 61.9794 103.136 60.4424C105.354 59.1712 108.438 59.7844 110.931 59.7176C113.024 59.6615 115.133 59.5613 117.186 59.1314C121.111 58.1167 126.141 57.8246 127.073 53.1219C127.694 49.9868 127.353 46.4033 127.289 43.2234C127.223 39.9746 126.94 36.3641 125.329 33.4699C123.659 30.469 121.228 28.7984 117.929 27.95C115.147 27.2344 112.265 28.1241 109.454 28.1241C103.978 28.1241 98.5339 27.8789 93.0602 27.7198C87.9624 27.5713 80.9688 26.8209 77.1032 30.9572C72.2769 36.1218 73.0905 43.9127 73.131 50.4444C73.1644 55.884 74.7938 58.3384 80.2866 58.9751ZM75.3615 40.5111C75.638 37.0377 76.598 33.5381 79.2719 31.1434C81.754 28.9207 85.7887 29.1886 88.8976 29.1516C93.8895 29.0926 98.8664 29.6035 103.855 29.6035C105.658 29.6035 107.46 29.6035 109.262 29.6035C112.899 29.6035 116.071 28.5519 119.561 30.2864C125.715 33.3441 125.268 42.1042 125.212 47.8437C125.189 50.1325 125.511 52.842 124.441 54.9531C123.434 56.9364 118.673 57.2682 116.815 57.7486C112.105 58.7349 106.517 56.9527 102.231 59.2558C100.19 60.3529 98.2468 61.6746 96.3517 63.0403C96.9521 60.6115 97.1091 58.1948 93.984 58.1039C90.7273 58.0094 87.4714 57.8836 84.2176 57.7266C81.8343 57.6114 78.8946 57.7017 76.8339 56.3239C74.8897 55.0235 75.2201 51.3 75.208 49.3672C75.1903 46.4125 75.127 43.4608 75.3615 40.5111Z" fill="#E5E5E5"/>
</svg>
