<svg width="443" height="409" viewBox="0 0 443 409" fill="none" xmlns="http://www.w3.org/2000/svg">
<path d="M91.7329 126.612C89.3139 126.76 87.1859 125.629 85.4809 123.99C84.8919 123.424 82.2259 124.499 82.7599 125.011C82.9129 125.158 83.0749 125.288 83.2329 125.424C83.1969 125.492 83.1709 125.563 83.1709 125.638C83.1889 127.692 83.3959 130.754 85.7329 131.429C88.9589 132.361 90.6759 129.054 92.4409 127.174C92.8989 126.687 92.0439 126.593 91.7329 126.612ZM88.2519 129.315C88.0509 129.58 87.8209 129.816 87.5909 130.053C87.5769 130.048 87.5729 130.045 87.5579 130.04C87.3139 129.899 87.1309 129.639 86.9839 129.41C86.5869 128.789 86.3629 128.03 86.2349 127.246C87.2139 127.623 88.2509 127.842 89.3339 127.894C88.9619 128.359 88.6119 128.841 88.2519 129.315ZM86.5689 102.363C86.7439 103.016 85.9069 103.576 85.3679 103.677C84.0229 103.929 82.8899 104.519 81.8149 105.355C81.2829 105.769 80.3359 105.931 79.7439 105.554C79.1249 105.16 79.4749 104.498 79.9249 104.148C81.3739 103.021 83.0589 102.166 84.8719 101.826C85.4109 101.724 86.3789 101.653 86.5689 102.363ZM257.176 71.757C255.062 68.087 253.282 64.318 253.692 59.986C253.782 59.032 256.695 58.466 256.587 59.613C256.214 63.561 257.872 67.092 259.767 70.437C260.074 70.388 260.376 70.33 260.658 70.218C261.949 69.705 263.679 70.624 261.793 71.373C260.953 71.707 259.998 71.627 259.193 71.947C258.611 72.177 257.56 72.423 257.176 71.757ZM266.819 56.863C266.837 58.043 267.133 59.176 268.237 59.765C268.686 60.005 267.455 60.522 267.364 60.555C266.869 60.731 266.014 61.011 265.503 60.738C264.329 60.112 263.94 58.903 263.921 57.64C263.91 56.845 266.813 56.42 266.819 56.863ZM251.819 64.613C252.105 65.203 250.95 65.713 250.587 65.81C250.025 65.96 249.214 65.994 248.921 65.389C248.484 64.488 248.416 63.649 248.415 62.66C248.415 62.014 249.58 61.669 250.046 61.618C250.594 61.558 251.324 61.67 251.324 62.342C251.326 63.167 251.457 63.864 251.819 64.613ZM259.348 52.716C261.249 51.183 263.567 50.648 265.969 50.699C266.552 50.712 267.144 51.211 266.826 51.817C266.474 52.486 265.622 52.692 264.932 52.678C263.524 52.648 262.33 53.029 261.236 53.911C260.178 54.763 257.814 53.953 259.348 52.716ZM249.954 57.792C249.913 57.833 249.827 57.884 249.683 57.937C249.695 57.918 249.706 57.902 249.718 57.886C249.798 57.857 249.877 57.827 249.954 57.792ZM341.819 183.295C362.012 183.295 382.205 183.295 402.398 183.295C404.358 183.295 402.601 185.206 401.342 185.206C381.501 185.206 361.66 185.206 341.819 185.206C341.819 185.258 341.819 185.31 341.819 185.362C341.819 186.33 338.922 186.809 338.922 186.138C338.922 185.827 338.922 185.516 338.922 185.205C338.729 185.205 338.536 185.205 338.343 185.205C336.622 185.205 337.766 183.734 338.922 183.373C338.922 169.461 338.922 155.549 338.922 141.637C338.922 140.669 341.819 140.19 341.819 140.861C341.819 155.007 341.819 169.151 341.819 183.295ZM378.042 155.574C380.894 158.583 383.474 161.864 386.008 165.152C388.923 161.142 391.881 157.145 395.101 153.382C395.122 153.358 395.151 153.336 395.177 153.313C393.789 152.916 391.829 153.283 390.685 153.297C390.134 153.304 390.073 153.004 390.534 152.734C391.134 152.383 391.891 152.194 392.583 152.185C394.253 152.163 397.9 151.434 399.105 153.034C400.453 154.825 399.305 157.393 400.069 159.388C400.257 159.878 397.414 160.798 397.172 160.164C396.534 158.498 397.276 156.452 396.714 154.786C393.37 158.817 390.276 163.069 387.204 167.305C386.778 167.893 385.083 168.585 384.508 167.837C381.989 164.559 379.442 161.263 376.675 158.182C373.028 163.627 369.917 169.508 365.762 174.568C365.3 175.131 363.669 175.866 363.066 175.1C360.772 172.183 359.877 168.499 357.807 165.495C354.155 169.392 350.388 173.179 346.971 177.291C346.362 178.025 343.434 178.213 344.268 177.21C348.274 172.387 352.749 168.002 356.981 163.382C357.451 162.869 358.947 162.453 359.491 163.062C361.922 165.783 362.848 169.322 364.692 172.386C368.544 167.19 371.587 161.358 375.345 156.105C375.81 155.457 377.395 154.891 378.042 155.574ZM414.359 385.982C413.432 385.373 410.807 386.678 412.089 387.52C419.874 392.632 440.682 390.812 439.375 403.982C424.536 405.708 409.582 405.339 394.668 405.314C394.552 403.375 394.079 401.408 392.482 400.155C391.262 399.198 389.572 399.333 388.346 400.242C387.433 400.918 386.795 401.972 386.319 403.117C386.319 398.335 386.319 393.554 386.319 388.772C386.319 388.758 386.319 388.743 386.319 388.729C389.481 388.488 392.61 388.463 395.709 388.375C400.923 388.227 406.056 387.868 411.133 385.932C411.864 386.44 414.054 385.735 413.819 384.862C407.872 362.824 399.749 341.425 393.61 319.484C397.774 320.088 402.819 319.188 406.607 318.923C414.5 318.373 422.508 317.893 429.523 313.921C440.001 307.989 442.175 294.714 437.29 284.421C435.783 281.246 434.353 278.81 430.787 278.679C425.915 278.5 420.985 278.931 416.125 279.205C409.884 279.558 403.647 279.974 397.406 280.319C394.579 280.476 389.227 281.726 386.532 280.581C386.471 280.555 386.398 280.541 386.319 280.532C386.319 276.301 386.319 272.07 386.319 267.839C388.231 267.839 390.143 267.839 392.055 267.839C391.971 267.931 391.921 268.031 391.921 268.138C391.921 269.425 391.921 270.713 391.921 272C391.921 273.426 391.921 274.851 391.921 276.277C391.921 277.564 391.921 278.851 391.921 280.138C391.921 280.606 394.818 280.19 394.818 279.362C394.818 278.075 394.818 276.787 394.818 275.5C394.818 274.075 394.818 272.649 394.818 271.223C394.818 270.095 394.818 268.967 394.818 267.839C398.688 267.839 402.559 267.839 406.429 267.839C406.507 267.839 406.621 267.818 406.756 267.784C407.368 267.975 409.485 267.57 409.485 266.861C409.485 262.361 409.485 257.861 409.485 253.361C409.485 252.995 407.721 253.171 406.947 253.66C402.524 253.66 398.102 253.66 393.68 253.66C394.287 253.493 394.818 253.216 394.818 252.861C394.818 248.819 394.818 244.778 394.818 240.737C394.818 240.32 394.818 239.902 394.818 239.484C394.818 236.27 394.818 233.055 394.818 229.84C396.742 229.794 398.666 229.724 400.588 229.607C408.276 229.137 420.197 228.636 424.671 221.148C428.566 214.628 429.105 207.309 429.392 199.878C429.638 193.503 430.059 187.144 429.74 180.763C429.219 170.32 426.09 159.186 415.818 154.99C415.818 147.114 415.818 139.237 415.818 131.361C415.818 131.128 415.559 131.012 415.199 130.988C415.355 130.682 415.201 130.429 414.434 130.429C403.382 130.429 392.33 130.429 381.278 130.429C381.342 130.214 381.328 129.979 381.196 129.735C373.449 115.413 367.062 99.832 353.987 89.411C341.798 79.697 324.926 80.603 310.143 80.682C310.528 75.851 303.964 73.795 300.205 72.513C299.829 72.385 299.374 72.459 298.966 72.639C298.729 72.389 298.492 72.138 298.264 71.88C306.666 59.721 304.52 44.212 295.202 34.334C295.342 34.274 295.468 34.202 295.566 34.114C313.613 17.941 267.66 -0.81901 270.326 25.284C257.201 26.99 244.604 36.962 243.936 50.372C243.882 50.474 243.88 50.559 243.919 50.627C243.916 50.708 243.905 50.786 243.903 50.867C243.897 51.085 243.96 51.257 244.063 51.395C243.971 51.532 243.913 51.686 243.9 51.855C243.193 61.293 246.182 72.646 252.414 80.464C252.453 80.513 252.496 80.557 252.535 80.606C253.899 82.295 255.408 83.825 257.073 85.121C261.061 88.224 265.187 87.233 269.823 86.869C273.322 86.594 275.639 87.758 277.337 89.659C276.111 90.287 275.161 91.819 274.777 93.331C274.347 95.023 273.992 97.151 273.886 99.271C268.171 106.021 259.533 109.732 254.261 116.854C247.541 125.933 246.472 138.883 243.53 149.75C242.821 148.603 242.132 147.443 241.496 146.249C241.237 145.763 240.606 145.673 240.011 145.828C240.183 145.262 239.876 144.727 238.835 144.867C238.661 144.89 238.478 144.92 238.3 144.946C236.27 138.225 239.426 131.768 240.644 124.978C241.002 122.978 241.636 115.09 237.869 115.744C234.702 116.294 233.998 119.725 232.782 122.268C232.352 123.166 231.817 123.981 231.23 124.751C227.988 121.765 226.562 117.489 224.188 113.841C222.249 110.86 218.786 108.091 215.201 109.834C213.842 110.494 213.218 111.565 213.083 112.866C211.889 111.84 210.507 111.252 208.845 111.75C205.907 112.63 205.531 115.032 206.266 117.843C204.794 117.607 203.287 118.062 202.146 119.314C200.517 121.1 201.594 124.031 202.428 126.046C202.204 126.002 201.977 125.972 201.746 125.963C199.508 125.873 197.817 126.893 197.841 129.143C197.886 133.473 202.368 137.857 205.102 140.754C209.446 145.358 214.507 149.323 219.637 153.018C219.035 153.673 218.503 154.377 218.04 155.128C217.775 155.327 217.511 155.601 217.571 155.958C217.474 156.257 217.559 156.479 217.752 156.63C218.318 158.347 219.609 160.126 220.401 161.64C222.487 165.624 224.598 169.596 226.69 173.577C228.856 177.698 231.009 181.826 233.091 185.99C233.834 187.476 236.566 191.323 236.247 193.074C236.182 193.434 236.384 193.647 236.704 193.748C236.738 193.805 236.853 193.841 237.095 193.841C237.24 193.841 237.385 193.841 237.531 193.841C238.607 196.456 240.35 199 241.652 201.422C244.85 207.373 248.056 213.319 251.211 219.293C254.449 225.425 257.646 231.584 260.635 237.842C261.72 240.113 262.764 242.405 263.695 244.743C264.031 245.587 264.331 246.444 264.58 247.317C264.691 247.708 264.663 248.076 264.704 248.267C264.156 248.415 263.79 248.81 263.692 249.217C263.43 249.38 263.255 249.579 263.255 249.807C263.255 251.092 263.255 252.378 263.255 253.663C243.546 253.663 223.837 253.663 204.127 253.663C204.14 253.62 204.152 253.577 204.152 253.531C204.152 252.031 204.152 250.531 204.152 249.031C204.152 248.878 203.974 248.792 203.707 248.762C203.698 248.743 203.682 248.725 203.653 248.712C203.516 248.454 203.21 248.261 202.711 248.217C202.662 248.145 202.6 248.073 202.51 248.004C201.676 247.356 206.192 238.575 206.684 237.534C209.65 231.265 212.876 225.118 216.108 218.985C219.257 213.008 222.467 207.064 225.667 201.114C226.998 198.638 228.745 196.057 229.846 193.389C230.576 193.057 231.131 192.664 230.31 192.664C230.246 192.664 230.183 192.664 230.119 192.664C230.187 192.475 230.264 192.287 230.325 192.097C230.69 190.96 227.756 191.343 227.414 192.41C227.387 192.495 227.35 192.579 227.321 192.664C211.348 192.664 195.375 192.664 179.402 192.664C183.184 185.645 184.69 177.464 185.841 169.656C185.882 169.383 185.816 169.172 185.686 169.014C185.852 168.732 185.71 168.499 184.95 168.493C184.298 168.488 183.647 168.469 182.995 168.453C189.352 161.089 197.263 151.89 198.343 142.048C198.665 139.116 197.114 137.606 194.333 138.612C193.854 138.785 193.411 139.014 192.998 139.281C193.465 136.926 193.843 133.83 192.044 132.133C190.659 130.826 188.89 131.173 187.419 132.006C187.613 128.938 186.882 126.515 184.035 126.383C182.067 126.292 180.792 127.29 179.833 128.685C179.512 127.337 178.775 126.359 177.404 126.042C168.852 124.063 168.067 138.557 165.133 144.207C164.499 143.727 163.883 143.221 163.313 142.66C161.429 140.808 159.354 135.564 155.931 137.438C152.385 139.379 155.266 146.084 156.469 148.717C159.338 154.994 163.844 160.216 162.658 167.467C162.031 166.889 160.137 167.315 159.898 168.355C158.517 174.37 155.788 180.231 153.101 185.752C151.645 188.744 146.678 199.749 141.826 200.927C137.019 201.47 132.848 191.722 131.118 188.491C127.848 182.384 124.685 176.223 121.381 170.137C119.214 166.146 116.452 162.915 113.023 160.376C113.338 160.244 113.61 160.049 113.763 159.786C116.495 155.087 115.92 150.964 114.342 145.95C112.359 139.651 106.756 135.038 106.592 128.16C106.582 127.743 106.37 127.464 106.066 127.302C106.744 124.064 106.469 120.655 105.246 117.415C106.47 116.754 107.335 115.556 107.395 113.928C107.479 111.621 106.399 108.54 104.466 106.845C105.028 106.7 105.518 106.461 105.569 106.115C106.395 100.481 106.055 93.355 102.819 88.478C100.212 84.55 95.4889 85.947 92.1459 88.068C92.0329 88.092 91.9229 88.115 91.8219 88.138C85.9099 80.411 73.6929 84.059 66.3909 87.419C61.6829 89.586 57.8269 92.917 55.2569 97.42C51.2869 104.376 52.8509 113.112 49.7409 120.45C47.1019 126.675 41.4939 131.378 37.2229 136.457C33.1509 141.298 30.0669 146.701 28.6769 152.896C28.6409 153.056 28.6139 153.215 28.5829 153.375C28.4859 153.362 28.3749 153.354 28.2469 153.356C20.5979 153.443 12.4969 154.538 6.90991 160.266C1.07191 166.252 0.8459 175.978 0.8399 183.771C0.8289 199.126 -3.6031 225.607 16.1639 230.426C16.5429 230.518 17.1139 230.365 17.5959 230.115C16.7539 237.511 16.0359 243.528 23.0199 248.212C24.8209 249.42 26.8139 250.359 28.9149 251.105C28.5229 251.32 28.2419 251.618 28.2529 251.969C28.7139 266.344 22.1589 283.814 37.2149 292.946C37.6049 293.182 38.4339 293.027 39.0519 292.725C36.8949 298.895 37.7469 305.742 43.2889 311.09C49.9699 317.538 60.3919 318.142 69.0759 318.743C73.1359 319.024 77.1989 319.221 81.2659 319.301C81.1569 319.405 81.0879 319.517 81.0879 319.64C81.0879 340.006 81.0879 360.372 81.0879 380.738C72.3779 380.627 63.7389 380.456 55.9649 385.068C55.7999 385.166 55.6849 385.262 55.5939 385.356C55.1099 385.295 54.6199 385.253 54.1199 385.253C47.6409 385.253 42.3699 390.524 42.3699 397.003C42.3699 403.482 47.6409 408.753 54.1199 408.753C60.1779 408.753 65.1769 404.145 65.8019 398.25C65.9829 398.224 66.1649 398.175 66.3409 398.097C73.7299 394.809 81.7479 395.346 89.6379 395.389C89.8719 395.39 90.1489 395.312 90.4209 395.193C90.4209 399.176 90.4209 403.159 90.4209 407.142C90.4209 407.218 90.5029 407.268 90.6289 407.299C90.2189 407.545 90.0729 407.759 90.6789 407.759C94.7069 407.759 98.7349 407.759 102.762 407.759C103.366 407.759 106.063 406.58 104.643 406.58C104.51 406.58 104.376 406.58 104.243 406.58C104.287 406.512 104.318 406.44 104.318 406.365C104.318 376.97 104.318 347.575 104.318 318.181C107.687 318.223 111.054 318.314 114.423 318.321C114.527 318.321 114.704 318.283 114.911 318.222C114.154 323.194 114.343 328.46 114.518 333.333C114.784 340.74 115.163 348.024 114.18 355.405C113.7 359.01 113.209 364.22 111.367 367.636C111.121 367.744 110.909 367.881 110.763 368.036C110.687 368.071 110.619 368.107 110.573 368.144C98.6499 377.677 108.492 389.501 106.929 401.812C106.901 402.035 106.977 402.099 107.185 402.182C111.001 403.72 115.923 403.649 119.895 402.33C122.343 405.182 125.909 406.698 130.818 406.853C135.498 407.001 140.214 406.977 144.896 407.03C148.499 407.072 152.018 406.877 155.307 405.305C155.78 405.079 156.18 404.835 156.525 404.578C162.519 404.986 168.64 406.038 174.648 405.635C176.384 405.519 181.987 404.408 182.303 402.01C183.195 395.24 178.092 391.507 173.581 387.271C167.733 381.78 161.899 376.084 160.483 367.857C160.451 367.673 160.21 367.591 159.883 367.581C159.856 366.788 159.944 365.963 160.176 365.099C160.193 365.038 160.212 364.976 160.23 364.914C160.283 364.731 160.339 364.547 160.406 364.36C160.439 364.269 160.458 364.184 160.466 364.106C164.839 349.264 169.699 334.958 175.827 320.682C179.833 311.349 184.989 301.402 186.101 291.181C187.253 280.59 182.267 273.187 173.659 267.842C210.156 267.842 246.652 267.842 283.149 267.842C283.007 267.958 282.9 268.088 282.855 268.232C276.581 288.311 272.727 309.164 269.187 329.869C266.095 347.952 263.384 366.143 261.474 384.392C261.433 384.783 261.746 384.973 262.177 385.021C262.637 385.635 263.379 386.05 264.215 386.343C255.531 391.766 233.806 389.589 236.423 405.141C236.49 405.541 237.022 405.65 237.339 405.691C252.931 407.66 268.661 407.21 284.339 407.191C284.976 407.191 285.757 406.691 286.099 406.208C286.491 406.036 286.787 405.8 286.812 405.541C287.005 403.568 287.409 399.424 289.145 402.932C289.72 404.093 290.099 405.39 290.422 406.642C290.506 406.968 291.032 406.974 291.28 406.974C294.78 406.974 298.28 406.974 301.78 406.974C302.302 406.974 303.679 406.709 303.811 406.041C305.016 399.956 307.103 391.876 305.844 385.418C306.632 384.911 306.255 384.324 305.54 384.132C305.497 383.977 305.455 383.822 305.407 383.67C307.316 365.537 310.036 347.473 313.082 329.5C316.59 308.794 320.478 287.935 326.75 267.862C326.752 267.855 326.75 267.849 326.752 267.842C331.323 267.842 335.894 267.842 340.464 267.842C340.426 267.938 340.405 268.037 340.421 268.141C340.88 271.198 341.4 274.247 341.96 277.288C338.461 278.376 332.523 276.285 329.712 279.032C324.462 284.163 320.802 290.871 319.494 298.105C316.358 315.443 337.707 318.465 350.095 319.073C350.641 319.1 351.435 318.706 351.823 318.302C352.881 322.063 353.96 325.815 355.047 329.557C357.563 338.218 360.173 346.862 362.92 355.462C362.919 358.94 362.92 362.417 362.892 365.894C362.888 366.396 363.07 367.621 362.964 368.396C362.863 368.473 362.78 368.549 362.735 368.619C362.452 369.06 362.642 370.2 362.634 370.67C362.58 374.025 362.585 377.381 362.589 380.737C353.88 380.626 345.24 380.455 337.467 385.067C337.302 385.165 337.187 385.261 337.096 385.355C336.612 385.294 336.122 385.252 335.622 385.252C329.143 385.252 323.872 390.523 323.872 397.002C323.872 403.481 329.143 408.752 335.622 408.752C341.68 408.752 346.679 404.144 347.304 398.249C347.485 398.223 347.667 398.174 347.843 398.096C355.232 394.808 363.25 395.345 371.14 395.388C371.523 395.39 372.024 395.184 372.423 394.919C372.423 399.049 372.423 403.179 372.423 407.309C372.423 407.398 372.53 407.455 372.702 407.483C372.529 407.642 372.568 407.758 373.014 407.758C376.709 407.758 380.403 407.758 384.097 407.758C384.476 407.758 385.679 407.294 386.172 406.948C386.972 406.919 388.035 406.553 388.165 406.039C388.531 404.586 389.025 403.143 389.697 401.803C389.773 401.652 389.862 401.51 389.951 401.368C390.097 401.492 390.236 401.624 390.369 401.76C391.466 402.877 391.691 404.658 391.775 406.14C391.787 406.359 392.038 406.467 392.384 406.49C392.216 406.866 392.38 407.189 393.191 407.19C408.99 407.209 424.848 407.668 440.56 405.684C441.146 405.61 442.065 405.297 442.182 404.606C444.768 389.242 422.788 391.517 414.359 385.982ZM386.319 386.955C386.319 358.841 386.319 330.727 386.319 302.613C392.285 330.411 403.033 356.884 410.549 384.306C402.763 387.467 394.497 386.31 386.319 386.955ZM390.636 282.122C395.39 281.951 400.14 281.634 404.887 281.344C413.276 280.832 422.398 279.326 430.79 280.288C433.928 280.648 436.159 289.573 436.643 292.172C437.664 297.664 436.477 303.386 433.367 308.001C428.259 315.578 418.853 316.381 410.562 317.159C406.663 317.525 402.749 317.737 398.833 317.805C397.251 317.832 395.061 318.119 393.533 317.584C393.416 317.543 393.261 317.536 393.086 317.549C390.504 308.123 388.298 298.594 386.82 288.862C386.785 288.632 386.591 288.497 386.32 288.436C386.32 286.399 386.32 284.362 386.32 282.325C387.79 282.392 389.393 282.166 390.636 282.122ZM391.922 240.263C391.922 240.68 391.922 241.098 391.922 241.516C391.922 245.557 391.922 249.598 391.922 253.64C391.922 253.648 391.93 253.655 391.931 253.662C389.398 253.662 386.864 253.662 384.331 253.662C385.019 245.337 383.276 237.394 380.738 229.627C382.268 229.821 383.909 229.752 385.357 229.802C387.545 229.877 389.734 229.901 391.922 229.888C391.922 233.346 391.922 236.805 391.922 240.263ZM266.152 253.53C266.152 252.454 266.152 251.378 266.152 250.301C300.408 250.301 334.665 250.301 368.921 250.301C368.921 251.421 368.921 252.541 368.921 253.661C334.656 253.661 300.391 253.661 266.127 253.661C266.14 253.619 266.152 253.575 266.152 253.53ZM274.507 177.101C276.082 182.255 277.58 187.426 278.77 192.662C274.081 192.662 269.393 192.662 264.704 192.662C269.291 188.525 272.352 182.865 274.507 177.101ZM282.43 101.061C282.545 101.092 282.673 101.094 282.801 101.098C282.908 101.169 283.026 101.227 283.157 101.263C283.149 102.272 285.55 102.068 285.994 101.121C286.252 100.569 286.532 100.024 286.802 99.475C287.301 99.412 287.795 99.282 288.002 99.126C288.733 98.576 289.353 98.272 289.951 98.168C289.926 98.24 289.91 98.315 289.911 98.394C289.939 101.18 290.87 105.894 289.026 108.333C288.754 108.492 288.542 108.692 288.46 108.925C287.961 109.345 287.339 109.661 286.529 109.806C280.924 110.81 281.294 104.781 281.326 100.925C281.68 100.924 282.044 100.957 282.43 101.061ZM294.713 192.662C281.492 168.41 283.204 138.565 283.313 111.721C284.275 111.841 285.279 111.803 286.211 111.697C286.986 111.609 287.741 111.422 288.454 111.153C288.818 138.64 294.221 168.381 307.407 192.662C303.176 192.662 298.945 192.662 294.713 192.662ZM372.676 130.447C372.38 131.489 372.381 132.402 372.47 133.477C372.534 134.24 372.671 135.001 372.759 135.762C372.819 136.28 373.037 139.915 370.823 138.473C368.837 137.18 368.734 130.999 368.833 128.924C368.94 126.682 370.32 125.417 372.49 125.282C375.412 125.1 377.044 128.069 377.993 130.432C377.223 130.432 376.454 130.432 375.685 130.432C375.619 130.432 375.55 130.438 375.478 130.45C375.502 130.317 375.529 130.185 375.565 130.055C375.84 129.089 372.94 129.517 372.676 130.447ZM367.215 126.29C366.555 127.07 366.1 128.059 365.943 129.314C365.638 131.758 366.287 134.588 366.754 136.986C366.859 137.526 367.059 138.034 367.325 138.493C367.201 138.515 367.083 138.531 366.94 138.578C363.382 139.752 363.42 133.303 363.257 131.241C363.161 130.033 363.167 128.838 363.426 127.651C363.868 125.626 365.608 125.884 367.209 126.277C367.213 126.278 367.218 126.279 367.222 126.28C367.22 126.284 367.217 126.287 367.215 126.29ZM361.417 138.154C361.468 138.288 361.527 138.41 361.588 138.53C361.341 138.421 360.965 138.403 360.44 138.578C356.925 139.752 356.955 133.46 356.753 131.343C356.646 130.222 356.586 129.106 356.729 127.985C357.025 125.648 358.803 126.202 360.585 126.799C360.736 126.85 360.948 126.849 361.185 126.813C360.642 127.642 360.317 128.71 360.301 130.06C360.271 132.719 360.46 135.666 361.417 138.154ZM354.558 126.724C354.037 127.494 353.732 128.516 353.738 129.847C353.751 132.498 353.954 135.424 354.825 137.932C354.903 138.156 354.997 138.356 355.098 138.545C355.043 138.56 354.999 138.561 354.941 138.58C350.437 140.074 348.312 127.511 353.773 126.637C354.044 126.594 354.339 126.59 354.648 126.607C354.617 126.646 354.586 126.683 354.558 126.724ZM373.393 218.189C377.766 229.632 382.286 241.227 381.479 253.661C378.25 253.661 375.022 253.661 371.793 253.661C371.807 253.618 371.819 253.575 371.819 253.529C371.819 252.029 371.819 250.529 371.819 249.029C371.819 248.883 371.644 248.8 371.382 248.771C371.376 248.747 371.354 248.726 371.319 248.709C371.163 248.416 370.797 248.2 370.167 248.2C359.655 248.2 349.143 248.2 338.631 248.2C339.15 246.214 337.271 242.973 336.675 241.548C333.941 235.007 330.677 228.673 327.468 222.356C327.456 222.333 327.444 222.31 327.432 222.287C338.207 223.095 349.364 222.978 360.071 222.218C364.356 221.915 369.564 220.785 373.393 218.189ZM426.856 182.135C427.103 187.068 426.796 192.01 426.567 196.936C426.233 204.136 426.265 211.298 423.381 218.047C419.624 226.841 407.966 226.939 399.753 227.442C398.11 227.542 396.465 227.598 394.819 227.632C394.819 227.543 394.819 227.453 394.819 227.363C394.819 226.997 393.048 227.174 392.277 227.665C390.565 227.672 388.853 227.658 387.143 227.618C385.309 227.575 382.165 227.711 380.695 227.233C380.455 227.155 380.188 227.156 379.923 227.211C378.632 223.492 377.201 219.808 375.803 216.137C375.991 215.933 376.179 215.729 376.352 215.512C381.254 209.387 375.601 201.528 372.883 195.504C386.229 195.504 399.575 195.504 412.921 195.504C412.921 195.549 412.921 195.593 412.921 195.638C412.921 196.421 415.818 195.907 415.818 194.862C415.818 182.517 415.818 170.171 415.818 157.825C424.296 162.445 426.391 172.828 426.856 182.135ZM412.934 132.07C412.931 132.093 412.922 132.115 412.922 132.139C412.922 139.664 412.922 147.19 412.922 154.716C412.097 155.207 411.63 156.118 412.763 156.487C412.819 156.505 412.867 156.53 412.922 156.549C412.922 169.032 412.922 181.515 412.922 193.997C385.765 193.997 358.609 193.997 331.453 193.997C331.411 193.997 331.365 194.003 331.32 194.008C331.32 173.464 331.32 152.918 331.32 132.373C336.797 132.373 342.274 132.373 347.751 132.373C347.576 137.189 349.987 141.685 355.301 139.922C355.579 139.83 355.783 139.712 355.954 139.588C357.221 140.597 359.107 140.487 360.801 139.922C361.494 139.691 361.828 139.327 361.88 139.015C363.089 140.682 365.38 140.556 367.301 139.922C367.662 139.803 367.912 139.644 368.094 139.478C368.763 140.103 369.637 140.488 370.657 140.475C372.551 140.45 374.225 139.917 375.232 138.226C376.303 136.428 375.543 134.169 375.406 132.069C387.916 132.07 400.425 132.07 412.934 132.07ZM371.438 117.181C372.584 119.393 373.701 121.613 374.812 123.813C374.218 123.722 373.584 123.7 372.898 123.777C371.533 123.932 370.23 124.254 369.121 124.816C366.778 124.268 364.382 124.353 362.678 125.382C360.655 124.741 358.442 124.529 356.721 125.122C352.573 124.622 349.142 126.395 348.082 130.128C346.599 130.128 345.116 130.128 343.633 130.128C340.385 127.123 339.217 122.629 336.475 119.223C335.954 118.575 333.182 119.556 333.763 120.278C336.203 123.309 337.381 127.184 339.903 130.128C336.929 130.128 333.955 130.128 330.981 130.128C330.174 130.128 329.647 130.633 329.519 131.164C328.929 131.359 328.421 131.701 328.421 132.139C328.421 153.306 328.421 174.472 328.421 195.639C328.421 196.237 330.105 196.077 330.904 195.505C343.98 195.505 357.056 195.505 370.133 195.505C369.922 195.697 369.822 195.918 369.921 196.139C372.314 201.51 377.711 209.117 374.129 214.659C373.269 214.819 372.287 215.285 372.421 215.639C372.508 215.869 372.596 216.099 372.684 216.33C372.636 216.374 372.585 216.416 372.537 216.459C372.423 216.56 372.311 216.663 372.194 216.759C370.308 218.317 368.051 219.265 365.645 219.85C361.789 220.787 357.561 220.799 353.891 220.894C344.846 221.128 335.535 221.241 326.497 220.468C325.497 218.511 324.491 216.559 323.478 214.609C321.435 210.671 319.38 206.739 317.318 202.811C315.672 199.676 313.431 196.379 312.214 192.996C312.437 192.826 312.46 192.693 312.095 192.669C312.061 192.566 312.017 192.465 311.985 192.363C311.808 191.809 311.026 191.721 310.314 191.905C296.938 167.282 291.561 137.039 291.333 109.229C291.761 108.741 292.12 108.18 292.387 107.542C293.471 104.958 292.989 101.813 292.86 99.016C292.866 99.02 292.872 99.023 292.879 99.027C294.64 100.11 296.28 101.397 298.013 102.526C298.063 102.559 298.122 102.583 298.187 102.602C298.394 103.665 300.658 103.514 301.007 102.425C302.154 98.851 303.556 95.4 305.076 91.978C305.292 91.493 305.502 91.006 305.723 90.521C306.845 88.057 308.665 85.433 309.62 82.811C309.891 82.81 310.162 82.809 310.433 82.808C325.308 82.737 340.722 82.298 352.954 92.046C354.765 93.489 356.427 95.076 357.992 96.754C363.509 102.669 367.65 109.864 371.438 117.181ZM304.407 76.917C308.718 79.196 306.844 82.266 305.233 85.328C302.797 89.959 300.719 94.875 299.004 99.842C298.966 99.951 298.928 100.061 298.891 100.171C298.088 99.572 297.266 98.96 296.42 98.403C295.212 97.608 293.954 96.934 292.608 96.651C290.908 96.293 289.244 96.786 287.743 97.589C291.51 90.326 296.231 83.41 301.566 77.28C301.664 77.168 301.726 77.066 301.773 76.968C302.169 76.698 302.427 76.323 302.362 75.947C303.05 76.247 303.733 76.561 304.407 76.917ZM269.62 77.065C269.721 77.02 269.827 76.978 269.913 76.926C270.936 76.312 271.962 75.698 273.022 75.151C273.443 76.184 273.48 77.3 272.693 78.241C272.021 79.045 270.922 78.005 270.39 77.377C270.239 77.199 269.937 77.139 269.587 77.157C269.597 77.126 269.609 77.096 269.62 77.065ZM247.108 59.378C247.925 59.372 249.468 59.065 249.507 58.487C249.518 58.321 249.557 58.194 249.626 58.043C249.644 58.003 249.664 57.969 249.683 57.937C249.462 58.018 249.105 58.101 248.54 58.148C248.906 58.117 249.327 58.028 249.718 57.885C249.885 57.658 250.06 57.686 249.954 57.791C250.149 57.703 250.333 57.604 250.485 57.48C250.997 57.065 250.026 57.084 249.826 57.101C248.899 57.179 247.623 57.511 246.992 58.295C246.747 56.075 246.674 53.845 246.839 51.644C246.857 51.41 246.796 51.227 246.69 51.08C246.778 50.946 246.832 50.796 246.836 50.633C246.841 50.451 246.861 50.275 246.87 50.094C250.568 45.903 258.032 43.103 263.503 43.781C265.033 43.97 266.486 46.408 267.549 47.373C268.534 48.267 270.574 48.893 271.884 48.906C273.915 48.927 276.018 47.91 277.719 49.445C278.978 50.58 279.515 52.524 279.976 54.094C280.074 54.429 280.147 55.015 280.249 55.651C280.147 55.804 280.107 55.968 280.17 56.138C282.187 61.627 281.059 67.487 275.29 70.129C272.259 71.517 268.347 71.696 265.116 72.428C261.31 73.29 256.653 74.555 253.978 77.613C252.705 75.656 251.639 73.56 250.742 71.63C248.965 67.803 247.694 63.623 247.108 59.378ZM275.082 85.064C278.809 83.71 282.247 81.565 284.837 78.61C290.031 72.685 285.935 63.248 284.819 56.612C284.809 56.552 284.788 56.501 284.765 56.45C287.298 51.452 295.847 58.431 293.987 63.057C293.964 63.116 293.932 63.174 293.905 63.232C293.53 64.036 292.834 64.762 291.711 65.33C291.133 65.622 290.648 66.274 291.048 66.906C293.35 70.536 295.808 73.895 299.132 76.605C293.526 83.056 288.564 90.342 284.664 97.996C283.374 94.12 281.997 89.256 278.886 86.85C277.713 85.944 276.428 85.388 275.082 85.064ZM277.103 97.208C277.195 95.8 277.38 94.398 277.689 93.021C277.793 92.555 277.938 92.099 278.122 91.658C278.319 91.8 278.592 91.862 278.895 91.858C280.215 94.182 281.102 97.008 282.072 99.687C281.624 99.712 281.176 99.767 280.729 99.853C279.999 99.623 278.832 99.956 278.505 100.563C277.934 100.828 277.401 101.152 276.919 101.529C276.862 100.067 277.014 98.551 277.103 97.208ZM259.867 113.743C260.085 113.53 260.309 113.315 260.538 113.1C260.612 113.032 260.684 112.961 260.759 112.893C264.876 109.15 269.879 106.182 273.941 102.348C274.027 103.254 274.177 104.118 274.421 104.89C274.502 105.143 274.712 105.296 274.98 105.373C275.006 105.381 275.03 105.391 275.057 105.397C275.579 105.515 276.29 105.364 276.783 105.065C277.19 104.918 277.506 104.718 277.549 104.495C277.641 104.026 277.799 103.599 277.987 103.199C278.104 102.951 278.237 102.72 278.388 102.505C278.386 102.638 278.383 102.77 278.381 102.904C278.349 105.055 278.4 107.284 279.331 109.191C279.614 109.77 279.997 110.213 280.433 110.575C280.431 110.596 280.423 110.617 280.423 110.639C280.397 137.674 278.341 167.988 291.409 192.661C288.215 192.661 285.02 192.661 281.826 192.661C281.827 192.617 281.83 192.574 281.821 192.528C277.51 173.109 268.774 154.618 267.821 134.528C267.777 133.599 264.87 134.189 264.924 135.304C265.573 149.007 269.843 161.965 273.862 174.981C273.16 175.09 272.41 175.389 272.268 175.801C271.454 178.17 270.496 180.566 269.351 182.869C268.354 184.875 267.194 186.794 265.865 188.574C264.813 189.983 263.643 191.287 262.342 192.462C262.268 192.529 262.194 192.595 262.119 192.661C258.952 192.661 255.785 192.661 252.617 192.661C248.505 192.661 244.393 192.661 240.281 192.661C240.181 192.395 240.074 192.129 239.989 191.862C239.869 191.488 239.472 191.329 239.009 191.32C238.573 189.877 237.472 188.233 236.993 187.241C234.93 182.965 232.714 178.76 230.513 174.553C228.238 170.205 225.936 165.871 223.653 161.527C222.877 160.051 222.105 158.574 221.349 157.088C220.871 156.15 220.862 155.704 220.674 155.677C221.24 154.734 221.949 153.875 222.787 153.108C223.836 152.147 225.072 151.322 226.405 150.608C229.391 149.009 232.884 147.989 236.014 147.387C236.054 147.477 236.08 147.567 236.121 147.658C236.38 148.225 238.088 147.782 238.76 147.302C238.78 147.379 238.808 147.457 238.85 147.537C242.211 153.853 246.812 159.371 250.382 165.56C251.045 166.709 253.802 165.609 253.032 164.274C250.64 160.127 247.79 156.277 245.156 152.291C245.486 152.118 245.745 151.884 245.832 151.602C249.124 140.825 249.974 127.646 256.221 118.086C257.119 116.712 258.164 115.468 259.302 114.305C259.484 114.114 259.676 113.929 259.867 113.743ZM205.049 136.663C203.032 134.288 201.189 131.502 200.739 128.367C200.454 126.38 202.627 128.821 203.072 129.232C204.209 130.28 205.13 131.555 205.967 132.876C206.568 133.92 207.162 134.967 207.708 136.04C208.228 137.061 211.047 136.131 210.605 135.264C210.447 134.953 210.279 134.646 210.114 134.338C210.143 134.286 210.156 134.237 210.132 134.196C209.712 133.47 209.216 132.599 208.649 131.7C207.08 128.949 205.498 126.206 204.58 123.148C204.286 122.169 204.169 121.172 204.385 120.168C204.853 117.987 207.922 122.149 208.163 122.623C209.361 124.973 210.09 126.902 211.762 128.703C212 129.107 212.205 129.467 212.357 129.765C212.706 130.45 214.086 130.256 214.826 129.792C215.54 129.509 216.062 129.035 215.636 128.685C215.255 128.371 214.909 128.052 214.581 127.727C213.451 125.644 212.218 123.617 211.134 121.508C210.467 120.212 209.893 118.876 209.418 117.499C209.317 117.207 208.708 112.698 209.673 113.49C211.597 115.069 213.267 117.096 214.779 119.263C216.401 122.605 218.698 125.881 219.526 127.509C220.046 128.53 222.865 127.601 222.423 126.733C222.327 126.544 222.218 126.347 222.11 126.151C222.196 125.971 222.199 125.776 222.081 125.575C220.801 123.4 219.412 121.29 217.973 119.216C216.627 116.672 215.686 114.045 216.203 111.637C216.621 109.686 220.098 113.225 220.553 113.734C221.751 115.074 222.584 116.735 223.412 118.315C224.973 121.294 226.443 124.254 229.098 126.423C229.24 126.539 229.441 126.597 229.669 126.615C227.154 129.401 224.405 131.907 224.199 136.15C224.176 136.624 227.054 136.255 227.096 135.374C227.343 130.298 231.593 127.356 234.512 123.694C235.42 122.554 235.977 121.094 236.573 119.779C236.8 119.264 237.04 118.755 237.283 118.248C237.298 118.292 237.299 118.33 237.319 118.377C239.378 123.38 236.916 129.385 235.596 134.267C234.555 138.116 234.226 141.785 235.316 145.471C230.526 146.45 225.228 148.253 221.42 151.341C215.494 147.004 209.81 142.271 205.049 136.663ZM255.982 222.084C252.477 215.365 248.88 208.694 245.29 202.021C243.882 199.405 242.02 196.658 240.762 193.841C247.489 193.841 254.215 193.841 260.941 193.841C260.927 194.287 262.584 194.157 263.294 193.841C272.898 193.841 282.503 193.841 292.107 193.841C292.51 194.142 293.286 194.075 293.916 193.841C298.647 193.841 303.378 193.841 308.109 193.841C308.405 194.061 308.9 194.084 309.393 193.987C310.386 196.576 312.063 199.092 313.324 201.499C316.469 207.5 319.623 213.496 322.723 219.52C325.911 225.714 329.056 231.935 331.977 238.26C333.019 240.515 334.019 242.793 334.893 245.12C335.183 245.892 335.496 247.807 335.879 248.202C313.127 248.202 290.375 248.202 267.624 248.202C268.158 246.11 266.039 242.586 265.406 241.138C262.571 234.648 259.255 228.358 255.982 222.084ZM63.0769 267.788C63.1369 267.821 63.2499 267.84 63.4299 267.84C71.9949 267.84 80.5599 267.84 89.1249 267.84C89.5569 267.84 89.9889 267.84 90.4209 267.84C90.4209 267.855 90.4209 267.87 90.4209 267.884C90.4209 279.21 90.4209 290.535 90.4209 301.861C62.4719 305.876 45.4079 279.668 47.7719 254.247C52.4719 254.622 57.1949 254.784 61.9209 254.865C61.9209 259.123 61.9209 263.381 61.9209 267.639C61.9219 267.841 62.4629 267.878 63.0769 267.788ZM44.4199 284.161C35.4449 280.101 37.8369 262.008 40.2999 253.548C41.8459 253.733 43.3789 253.881 44.8759 254.009C43.9309 263.228 45.4669 272.44 49.0639 280.421C48.9739 280.456 48.8899 280.494 48.8189 280.54C47.2119 281.581 45.7349 282.804 44.4199 284.161ZM106.819 247.863C105.396 244.511 103.356 242.505 99.5959 243.447C95.5069 244.473 92.1979 249.075 88.2099 245.165C88.0059 244.965 87.6679 244.894 87.2959 244.912C86.1879 239.033 87.0379 232.587 90.3699 228.141C90.4949 228.174 90.6439 228.196 90.8389 228.194C100.481 228.127 110.546 226.889 118.736 233.023C119.069 233.272 119.639 233.251 120.161 233.079C119.882 233.316 119.779 233.585 120.025 233.818C123.776 237.373 125.539 243.094 124.678 248.2C124.111 248.2 123.543 248.2 122.975 248.2C123.208 247.969 123.351 247.685 123.319 247.362C122.826 242.416 122.453 236.529 117.992 233.432C116.976 232.727 114.411 234.14 115.749 235.069C119.793 237.877 119.978 243.691 120.422 248.139C120.424 248.161 120.434 248.179 120.438 248.201C119.696 248.201 118.954 248.201 118.211 248.201C118.309 248.089 118.357 247.974 118.319 247.863C116.398 242.207 116.867 235.87 110.551 233.154C109.869 232.861 107.221 233.933 108.19 234.349C113.942 236.823 113.668 243.039 115.286 248.201C114.45 248.201 113.615 248.201 112.779 248.201C111.856 244.773 111.521 240.961 109.541 237.937C107.56 234.911 103.788 234.573 100.499 234.668C99.7299 234.69 97.3239 235.89 99.2439 235.834C103.079 235.723 106.022 236.934 107.619 240.519C108.69 242.924 109.062 245.635 109.683 248.201C108.735 248.201 107.787 248.201 106.84 248.201C106.869 248.091 106.868 247.978 106.819 247.863ZM128.653 248.201C128.272 248.201 127.892 248.201 127.511 248.201C128.589 242.739 126.758 236.514 122.716 232.684C122.373 232.359 121.608 232.42 120.959 232.651C121.37 232.309 121.52 231.865 121.005 231.48C119.192 230.122 117.286 229.12 115.318 228.36C114.853 226.657 114.602 225.08 114.555 223.551C114.5 221.759 114.739 220.036 115.293 218.277C115.297 218.282 115.302 218.287 115.306 218.292C120.308 223.858 127.84 231.8 135.555 231.587C134 234.773 132.494 237.981 131.085 241.232C130.56 242.443 128.522 246.051 128.653 248.201ZM88.6999 248.281C88.8559 248.328 89.0139 248.36 89.1719 248.395C89.2809 248.411 89.3849 248.439 89.4999 248.439C90.9649 248.694 92.5159 248.504 94.1869 247.913C95.8499 247.325 97.3539 246.287 98.9229 245.499C101.447 244.232 102.733 246.004 103.698 248.132C103.709 248.155 103.719 248.177 103.73 248.2C103.66 248.2 103.59 248.2 103.521 248.2C101.515 248.2 99.5079 248.2 97.5019 248.2C96.6909 248.2 96.1409 248.708 96.0229 249.224C95.7629 249.385 95.5889 249.58 95.5889 249.805C95.5889 251.09 95.5889 252.376 95.5889 253.661C94.1909 253.661 92.7919 253.661 91.3939 253.661C91.3829 253.317 90.9069 253.052 90.3389 252.959C89.4099 251.483 88.6519 249.818 88.0809 248.048C88.2859 248.133 88.4909 248.218 88.6999 248.281ZM98.4599 253.662C98.4739 253.619 98.4859 253.576 98.4859 253.53C98.4859 252.454 98.4859 251.378 98.4859 250.301C98.6439 250.301 98.8019 250.301 98.9599 250.301C133.058 250.301 167.156 250.301 201.255 250.301C201.255 251.421 201.255 252.541 201.255 253.661C167.032 253.661 132.809 253.661 98.5869 253.661C98.5439 253.662 98.5019 253.662 98.4599 253.662ZM226.876 193.84C225.648 196.763 223.657 199.628 222.204 202.33C218.614 209.004 215.024 215.679 211.512 222.394C208.23 228.668 204.966 234.972 202.089 241.446C201.567 242.62 199.563 246.101 199.665 248.201C177.011 248.201 154.357 248.201 131.704 248.201C131.656 248.134 131.595 248.067 131.512 248.002C130.68 247.354 134.883 238.959 135.345 237.949C136.416 235.605 137.535 233.282 138.669 230.966C139.14 230.67 139.301 230.238 139.203 229.877C140.968 226.304 142.779 222.752 144.599 219.21C147.693 213.183 150.851 207.189 153.998 201.189C155.149 198.993 156.611 196.721 157.64 194.378C157.719 194.199 157.798 194.021 157.871 193.841C159.628 193.841 161.386 193.841 163.143 193.841C184.386 193.84 205.632 193.84 226.876 193.84ZM175.223 192.662C169.583 192.662 163.943 192.662 158.303 192.662C158.31 192.64 158.32 192.618 158.327 192.595C158.689 191.456 155.756 191.84 155.416 192.908C155.353 193.106 155.272 193.304 155.201 193.501C155.031 193.628 154.968 193.737 155.095 193.794C153.883 197.002 151.739 200.147 150.177 203.121C146.765 209.622 143.358 216.125 140.026 222.667C138.87 224.936 137.725 227.212 136.593 229.495C129.34 230.392 120.846 220.251 116.702 215.623C116.629 215.541 116.538 215.481 116.44 215.429C116.467 215.373 116.486 215.32 116.514 215.264C118.411 211.436 119.683 207.762 119.888 203.458C120.337 194.015 110.805 187.844 111.321 178.362C111.352 177.799 108.475 178.195 108.424 179.138C107.935 188.1 115.979 194.183 116.947 202.892C117.494 207.812 115.318 212.353 113.209 216.608C111.421 220.216 111.231 223.595 111.991 227.313C105.698 225.768 98.9019 226.24 92.2759 226.303C92.2389 226.05 91.9879 225.849 91.4009 225.8C80.8669 224.906 70.3759 224.836 59.8179 224.73C55.3499 224.686 50.8629 224.855 51.2889 219.626C51.2979 219.604 51.3119 219.584 51.3189 219.561C53.6829 210.949 55.8589 202.265 57.0949 193.41C57.7949 188.399 59.3089 179.409 54.7199 175.693C53.9439 175.065 51.2669 176.197 52.0249 176.81C56.7129 180.606 54.7229 190.065 54.0199 195.098C52.8979 203.128 50.8579 211.04 48.7219 218.856C48.5559 219.011 48.4409 219.19 48.4129 219.393C47.7659 224.179 50.0559 225.981 54.6299 226.457C65.7789 227.617 77.1729 226.817 88.4049 227.575C82.7009 234.108 82.7279 245.593 87.0739 253.092C84.3049 253.134 81.5259 253.038 78.7639 253.006C69.7299 252.901 60.6779 252.915 51.6549 252.445C43.1199 252.001 33.8479 251.212 26.1749 247.143C17.8169 242.711 20.0049 234.603 20.8729 226.719C22.1019 215.563 23.5739 204.454 26.3699 193.568C27.5619 188.926 28.9899 184.296 30.9359 179.933C31.0529 179.799 31.1249 179.657 31.1209 179.511C32.2629 177.006 33.5889 174.598 35.1419 172.328C36.3899 170.503 37.7799 168.765 39.3589 167.152C40.0039 166.493 40.6889 165.862 41.3919 165.245C45.7079 161.448 51.0329 158.402 56.5119 155.865C56.2199 159.792 55.3239 164.154 56.6119 167.843C57.7249 171.031 61.1149 170.198 64.0709 170.09C65.5169 170.037 66.8579 170.162 67.7789 171.011C68.0249 171.238 68.2429 171.51 68.4229 171.85C70.1619 175.143 69.1089 180.134 72.6689 182.369C77.6959 185.524 84.8529 188.133 90.8179 188.107C90.9969 188.106 91.1969 188.059 91.3999 187.985C91.6169 187.99 91.8599 187.963 92.1069 187.909C92.0879 187.933 92.0679 187.956 92.0489 187.981C91.3989 188.85 94.2409 188.468 94.6969 187.858C96.4439 185.525 101.104 183.104 101.143 179.74C101.173 177.217 98.7429 174.964 98.5399 172.833C98.4349 171.728 98.9289 170.655 100.679 169.595C100.763 169.544 100.834 169.49 100.913 169.438C105.858 166.171 101.242 160.326 97.9699 156.226C100.834 157.071 103.674 157.987 106.409 159.207C115.185 163.124 118.944 171.706 122.955 179.818C125.685 185.339 128.861 190.938 132.142 196.15C133.56 198.403 135.272 200.596 137.434 201.812C137.347 202.158 137.496 202.509 138.042 202.752C144.349 205.555 149.628 197.013 152.291 192.717C156.697 185.607 160.588 177.256 162.61 169.051C168.265 169.185 173.906 169.675 179.558 169.9C179.727 170.003 180.147 170.005 180.608 169.942C181.365 169.967 182.122 169.982 182.879 169.995C181.74 177.689 180.269 185.659 176.491 192.54C176.487 192.547 176.484 192.555 176.48 192.562C176.46 192.598 176.453 192.629 176.438 192.663C176.032 192.662 175.627 192.662 175.223 192.662ZM102.249 117.963C105.42 126.024 102.174 133.718 95.4819 139.032C90.0369 143.356 84.1819 143.839 83.8629 152.178C83.7049 156.316 86.1789 160.087 87.6389 163.858C89.6749 169.12 90.7569 174.587 91.0209 180.143C89.1769 175.994 86.9109 172.079 84.2219 168.309C82.0119 165.21 79.6429 162.158 77.2699 159.18C74.7819 156.057 71.3809 153.912 69.0869 150.621C71.8789 146.322 72.7019 140.078 71.7239 135.293C71.2429 132.937 69.6669 131.637 67.5159 130.796C65.5429 130.025 64.0799 129.514 63.5989 127.272C63.1769 125.301 63.8959 123.312 65.0709 122.407C66.3179 122.55 67.9479 123.619 69.2799 124.673C70.3819 125.655 70.9879 126.803 71.7879 128.122C72.3049 128.974 73.8009 128.358 74.3199 127.883C77.9989 124.508 76.7829 120.545 75.1979 116.575C76.7619 115.936 78.3789 115.426 79.9039 114.694C80.2879 117.261 82.0199 119.548 84.6989 120.671C90.2319 122.992 93.3369 117.51 92.8599 112.589C93.7599 112.589 94.6599 112.589 95.5599 112.589C95.5849 112.589 95.6139 112.583 95.6389 112.583C96.8399 114.951 100.391 121.271 97.0989 122.242C95.3269 122.764 95.8529 124.784 97.6389 124.258C101.301 123.178 101.648 120.502 100.917 117.648C101.01 117.681 101.099 117.718 101.194 117.748C101.545 117.855 101.898 117.925 102.249 117.963ZM70.6449 169.81C68.5869 167.379 66.0339 168.154 63.2259 168.598C56.8019 169.614 59.1809 158.505 59.4639 154.548C61.1909 153.806 62.9159 153.106 64.6129 152.446C64.9009 152.361 65.1669 152.282 65.4079 152.213C65.3729 152.255 65.3399 152.301 65.3039 152.342C64.8629 152.844 66.0939 152.816 67.0359 152.571C68.6359 154.593 70.5799 156.217 72.4959 157.982C75.2219 160.493 77.2419 163.795 79.4709 166.729C84.1159 172.844 87.7629 179.091 90.2189 186.313C87.6709 186.089 84.4839 185.39 81.5069 184.322C78.5629 183.266 75.8309 181.854 74.1519 180.193C73.5219 179.569 73.1329 178.794 72.8689 177.939C72.0529 175.308 72.4279 171.916 70.6449 169.81ZM96.5119 109.494C96.4469 109.936 96.4149 110.378 96.4149 110.815C96.3209 110.842 96.2299 110.875 96.1429 110.912C94.9889 110.912 93.8339 110.912 92.6799 110.912C92.6379 110.912 92.5889 110.921 92.5449 110.923C92.0279 109.091 90.9419 107.498 89.2169 106.637C89.2649 106.582 89.2789 106.54 89.2379 106.518C86.2169 104.917 82.5559 106.951 80.9579 109.616C80.2789 110.747 79.9259 111.933 79.8439 113.099C79.4569 113.097 79.0509 113.202 78.7789 113.333C77.4159 113.993 75.9789 114.472 74.5699 115.02C73.9109 113.393 73.2889 111.777 73.0179 110.214C72.5849 107.715 80.1809 102.222 81.9309 100.34C83.5519 98.598 85.1769 96.894 87.1259 95.513C90.3179 93.25 92.8069 96.485 94.4189 99.091C94.4159 99.108 94.4129 99.126 94.4219 99.14C95.2779 100.452 95.9689 101.863 96.6109 103.298C96.3909 103.195 96.1749 103.086 95.9709 102.954C95.4109 102.594 94.6509 102.738 94.0659 102.975C93.8669 103.056 92.7199 103.697 93.2699 104.05C94.0399 104.546 94.8419 104.878 95.7079 105.167C96.2379 105.344 96.8489 105.258 97.3759 105.044C97.6029 105.575 97.8299 106.104 98.0589 106.63C97.2529 107.346 96.6819 108.342 96.5119 109.494ZM86.2519 107.484C88.7009 108.576 89.6499 111.192 89.9499 113.69C90.1099 115.022 89.8859 120.294 87.6929 119.787C84.5029 119.049 82.6979 115.893 82.7329 112.829C82.7529 111.121 84.1129 106.614 86.2689 107.395C86.2299 107.439 86.2209 107.471 86.2519 107.484ZM96.6919 176.442C99.7219 180.712 96.6579 183.115 93.8529 185.945C94.2969 178.837 93.5089 171.967 91.2849 165.17C90.0069 161.262 86.9599 157.011 86.7049 152.863C86.7019 152.814 86.7049 152.77 86.7019 152.722C88.9189 153.555 91.1789 154.259 93.4529 154.918C95.2269 157.457 97.1209 159.903 98.7889 162.518C99.8589 164.194 100.524 165.566 100.159 167.622C99.9059 169.044 97.8289 169.488 96.9619 170.388C95.1729 172.242 95.2259 174.375 96.6919 176.442ZM157.641 143.156C157.458 142.325 157.351 141.484 157.319 140.634C157.347 140.331 157.374 140.028 157.402 139.724C158.77 141.233 159.88 142.962 161.344 144.402C164.885 147.883 169.848 148.809 171.422 154.14C171.628 154.839 174.516 154.031 174.319 153.364C173.169 149.464 170.041 147.581 166.976 145.511C167.077 145.445 167.164 145.374 167.223 145.296C169.164 142.703 169.98 139.723 170.737 136.617C171.105 135.11 174.676 124.495 176.593 128.82C177.449 130.752 177.213 133.206 176.6 135.712C175.6 138.245 174.706 140.822 173.919 143.427C173.856 143.635 173.92 143.784 174.061 143.886C174.012 144.068 173.96 144.253 173.919 144.427C173.655 145.541 176.58 145.091 176.82 144.077C177.195 142.495 178.699 138.583 179.511 134.794C180.443 132.401 181.587 130.127 183.051 128.181C186.174 129.335 183.081 139.317 181.839 143.456C181.597 143.872 181.334 144.288 181.017 144.708C180.655 145.19 181.051 145.411 181.647 145.439C182.311 145.814 184.133 145.369 184.32 144.577C184.394 144.263 184.514 143.851 184.664 143.364C185.746 141.503 186.261 139.61 186.59 137.325C186.837 135.616 187.452 134.373 188.7 133.164C189.571 132.32 190.309 135.177 190.366 135.549C190.856 138.768 189.784 142.23 188.72 145.535C188.297 146.678 187.952 147.822 187.648 148.857C187.634 148.903 187.644 148.941 187.664 148.977C187.577 149.296 187.494 149.613 187.42 149.926C187.157 151.041 190.082 150.59 190.321 149.576C190.506 148.793 190.711 148.014 190.925 147.239C191.98 144.641 194.617 138.878 195.202 140.34C196.28 143.032 194.697 146.535 193.661 148.996C190.674 156.093 185.608 162.518 180.612 168.372C175.542 168.166 170.481 167.751 165.41 167.572C165.42 167.549 165.435 167.526 165.44 167.502C167.319 158.122 159.841 151.676 157.641 143.156ZM104.499 114.703C104.506 115.163 104.423 115.611 104.293 116.05C103.845 115.983 103.219 116.113 102.716 116.326C100.94 115.463 99.8599 113.599 99.4469 111.656C99.2059 110.519 99.2519 109.305 99.5329 108.183C99.6159 107.852 99.7529 107.542 99.9049 107.238L99.9999 107.44L100.944 107.222C102.486 108.132 103.426 110.067 103.982 111.668C104.32 112.643 104.482 113.673 104.499 114.703ZM98.0299 87.447C97.0259 87.465 96.1049 87.519 95.2869 87.597C96.3309 87.146 97.2419 87.125 98.0299 87.447ZM3.8609 188.41C3.6939 181.005 3.4559 173.378 5.9899 166.299C9.2319 157.241 18.5259 155.237 27.1579 155.138C27.5399 155.134 27.9949 154.939 28.3699 154.68C28.1029 156.775 28.1709 158.873 28.4529 160.982C28.9509 164.705 29.2319 165.633 26.6889 168.19C22.4719 172.43 24.7229 176.42 28.0319 180.068C26.6359 183.366 25.5029 186.793 24.4659 190.178C20.6409 202.664 19.1799 215.76 17.7559 228.691C0.191902 224.273 4.1699 202.092 3.8609 188.41ZM31.1619 251.817C33.2999 252.425 35.5149 252.868 37.7369 253.203C35.9979 258.621 35.4969 264.508 35.5709 270.158C35.6409 275.468 36.4909 283.317 42.3329 285.388C42.5929 285.48 42.9939 285.408 43.4079 285.277C41.7719 287.182 40.4439 289.304 39.5109 291.539C25.2229 282.86 31.3969 265.543 31.1619 251.817ZM71.9579 317.329C62.9029 316.77 53.1609 316.21 45.9899 309.989C36.7159 301.942 40.9339 288.224 49.7539 281.859C56.9989 296.602 71.4399 306.713 90.2419 303.978C90.3049 303.969 90.3629 303.952 90.4219 303.937C90.4219 308.578 90.4219 313.219 90.4219 317.86C88.7969 318.016 86.9519 317.811 85.4769 317.812C80.9669 317.815 76.4579 317.607 71.9579 317.329ZM54.1209 406.751C48.7449 406.751 44.3709 402.377 44.3709 397.001C44.3709 391.625 48.7449 387.251 54.1209 387.251C59.4969 387.251 63.8709 391.625 63.8709 397.001C63.8709 402.377 59.4969 406.751 54.1209 406.751ZM65.8529 396.646C65.7069 391.789 62.6059 387.672 58.2849 386.026C65.2579 382.102 73.3279 382.61 81.0899 382.725C81.0899 382.863 81.0899 383.001 81.0899 383.139C81.0899 383.607 83.9869 383.191 83.9869 382.363C83.9869 382.208 83.9869 382.053 83.9869 381.898C84.3279 381.494 84.4219 381.059 83.9869 380.866C83.9869 360.353 83.9869 339.841 83.9869 319.328C84.4889 319.331 84.9919 319.343 85.4939 319.342C87.0349 319.341 88.7859 319.446 90.4219 319.264C90.4219 344.094 90.4219 368.923 90.4219 393.753C82.0609 393.698 73.6899 393.376 65.8529 396.646ZM93.2439 406.578C93.2879 406.51 93.3189 406.438 93.3189 406.363C93.3189 360.189 93.3189 314.015 93.3189 267.841C96.0199 267.841 98.7209 267.841 101.422 267.841C101.422 279.133 101.422 290.424 101.422 301.716C100.882 302.208 100.704 302.903 101.422 303.19C101.422 337.653 101.422 372.116 101.422 406.579C98.6959 406.578 95.9699 406.578 93.2439 406.578ZM145.008 268.088C145.246 268.225 145.461 268.371 145.693 268.51C130.803 271.081 120.111 286.289 120.229 301.065C119.889 301.076 119.562 301.09 119.275 301.096C114.246 301.194 109.331 301.74 104.318 301.328C104.318 290.165 104.318 279.002 104.318 267.839C117.896 267.839 131.473 267.839 145.05 267.839C144.947 267.946 144.918 268.037 145.008 268.088ZM104.319 317.018C104.319 312.524 104.319 308.029 104.319 303.535C106.889 303.718 109.455 303.713 112.046 303.612C113.461 303.557 120.808 302.171 121.711 303.554C121.82 303.721 121.98 303.832 122.164 303.905C122.054 303.955 121.957 304.009 121.891 304.069C117.921 307.616 115.992 312.219 115.09 317.168C111.499 317.137 107.91 317.031 104.319 317.018ZM113.708 368.24C115.267 365.78 115.701 362.221 116.293 359.443C117.663 353.027 117.926 346.528 117.722 339.993C117.368 328.638 114.636 312.954 124.181 304.426C124.73 303.936 124.444 303.702 123.909 303.643C124.417 303.319 124.713 302.812 124.362 302.276C124.077 301.839 123.655 301.566 123.173 301.381C122.846 288.221 131.872 272.972 145.584 270.677C146.393 270.541 146.943 269.9 147.039 269.34C157.304 276.089 160.812 285.598 157.398 297.916C154.67 307.758 149.417 317.1 144.77 326.155C137.603 340.123 133.879 355.088 129.604 370.159C129.582 370.237 129.604 370.3 129.652 370.35C129.601 370.442 129.574 370.538 129.588 370.638C130.049 373.922 131.343 376.659 133.126 379.079C132.922 379.308 132.855 379.57 133.045 379.832C134.86 382.332 137.559 384.67 137.336 388.033C137.016 392.866 126.431 384.17 125.628 383.528C120.444 379.381 116.071 374.532 113.665 368.29C113.679 368.273 113.697 368.257 113.708 368.24ZM142.851 354.723C142.518 357.805 142.199 360.889 141.894 363.974C141.274 363.958 140.529 364.09 140.206 364.339C136.609 367.111 134.548 370.699 134.031 374.856C133.285 373.318 132.739 371.668 132.486 369.864C132.48 369.818 132.462 369.778 132.437 369.741C132.448 369.719 132.463 369.698 132.47 369.676C136.36 355.961 139.911 342.582 145.723 329.734C144.715 338.057 143.75 346.386 142.851 354.723ZM135.161 405.491C126.059 405.592 120.919 402.454 119.148 393.189C118.994 392.381 116.081 393.077 116.251 393.965C116.824 396.962 117.781 399.43 119.161 401.384C116.557 402.096 109.823 402.894 109.984 399.855C110.176 396.235 109.559 392.802 108.753 389.287C107.076 381.974 105.84 375.417 111.111 369.925C114.991 379.099 123.639 386.46 132.029 391.445C133.717 392.448 137.491 391.862 138.723 390.295C139.939 388.747 140.266 387.328 140.078 385.976C145.741 390.556 152.148 394.679 155.223 401.057C158.171 407.172 138.633 405.452 135.161 405.491ZM175.009 392.258C179.412 396.593 182.61 404.548 173.452 404.447C168.293 404.39 163.115 403.614 157.967 403.289C157.896 403.285 157.798 403.297 157.688 403.318C159.829 399.674 154.086 394.368 151.348 391.879C146.76 387.709 140.677 383.916 136.635 378.897C136.822 378.717 136.934 378.509 136.909 378.279C136.408 373.603 137.682 369.544 140.805 366.354C140.001 371.567 143.631 376.515 146.874 380.234C149.94 383.751 154.737 388.505 159.574 389.293C162.992 389.851 165.884 386.958 166.184 383.738C169.009 386.691 172.139 389.432 175.009 392.258ZM169.675 268.088C179.899 273.969 184.928 282.36 182.843 294.157C181.075 304.157 176.141 313.786 172.153 323.049C166.384 336.445 161.896 349.972 157.796 363.903C157.741 363.974 157.693 364.049 157.664 364.131C157.444 364.747 157.305 365.35 157.202 365.949C156.891 367.017 156.577 368.082 156.27 369.156C156.189 369.439 156.631 369.534 157.19 369.496C157.495 371.34 158.232 373.138 159.213 374.939C159.888 376.179 166.989 389.037 160.431 387.286C153.84 385.527 144.422 376.009 143.688 368.245C144.081 368.044 144.397 367.777 144.466 367.493C144.473 367.464 144.48 367.435 144.487 367.406C144.525 367.248 144.494 367.124 144.421 367.026C144.316 366.139 144.714 364.428 144.798 363.565C145.144 360.023 145.525 356.483 145.907 352.945C146.965 343.147 148.105 333.358 149.322 323.578C149.357 323.3 149.222 323.119 148.999 323.011C153.788 313.701 158.922 304.08 161.156 293.831C163.651 282.383 158.366 273.694 148.982 267.841C155.895 267.841 162.807 267.841 169.719 267.841C169.614 267.946 169.584 268.037 169.675 268.088ZM323.854 268.23C317.58 288.309 313.726 309.162 310.186 329.867C307.133 347.725 304.454 365.689 302.547 383.71C302.427 383.847 302.372 383.993 302.422 384.139C302.443 384.203 302.458 384.271 302.479 384.336C302.477 384.354 302.475 384.372 302.473 384.39C302.455 384.563 302.511 384.693 302.611 384.793C302.615 384.809 302.62 384.824 302.624 384.839C296.24 386.985 288.47 386.621 281.973 386.485C278.484 386.413 274.997 386.167 271.534 385.736C269.877 385.53 265.741 385.34 264.709 383.655C264.645 383.55 264.548 383.472 264.435 383.413C266.343 365.365 269.051 347.386 272.082 329.496C275.59 308.79 279.478 287.931 285.75 267.858C285.752 267.851 285.75 267.845 285.752 267.838C298.551 267.838 311.349 267.838 324.148 267.838C324.007 267.957 323.899 268.086 323.854 268.23ZM301.119 405.531C299.41 405.531 297.7 405.531 295.99 405.531C294.845 405.531 293.7 405.531 292.555 405.531C293.848 405.531 292.837 404.17 292.357 402.894C290.018 396.667 284.894 400.529 284.024 405.317C275.003 405.338 265.982 405.45 256.963 405.205C251.975 405.07 246.996 404.744 242.031 404.247C237.78 403.821 238.697 399.804 240.842 397.144C246.567 390.046 259.003 392.09 266.301 387.297C266.486 387.176 266.612 387.061 266.7 386.95C267.023 387.008 267.333 387.063 267.602 387.116C271.963 387.965 276.463 388.178 280.893 388.308C287.943 388.516 296.071 388.718 303.009 386.514C304.053 392.484 302.304 399.742 301.119 405.531ZM114.664 266.662C111.351 266.662 108.036 266.662 104.722 266.662C91.5849 266.662 78.4479 266.662 65.3109 266.662C65.2029 266.662 65.0259 266.701 64.8189 266.763C64.8189 262.976 64.8189 259.189 64.8189 255.402C64.8189 255.236 64.8189 255.071 64.8189 254.906C69.4479 254.956 74.0789 254.952 78.6929 255.006C78.7129 255.006 78.7319 255.006 78.7519 255.006C81.9379 255.044 85.1619 255.178 88.3529 255.04C88.3769 255.072 88.3979 255.107 88.4219 255.139C88.7689 255.587 89.9849 255.216 90.7299 254.84C195.964 254.84 301.197 254.84 406.431 254.84C406.473 254.84 406.528 254.833 406.589 254.822C406.589 258.768 406.589 262.715 406.589 266.661C309.28 266.662 211.972 266.662 114.664 266.662ZM355.352 267.84C361.042 267.84 366.732 267.84 372.422 267.84C372.422 296.059 372.422 324.278 372.422 352.497C372.422 359.817 372.422 367.137 372.422 374.456C372.215 373.865 372.015 373.271 371.81 372.68C369.738 366.699 367.743 360.689 365.82 354.656C365.82 354.391 365.82 354.127 365.82 353.862C365.82 353.768 365.7 353.712 365.514 353.685C362.887 345.413 360.376 337.103 357.945 328.779C352.125 308.854 346.578 288.631 343.434 268.083C343.421 268.002 343.408 267.921 343.395 267.84C347.38 267.84 351.366 267.84 355.352 267.84ZM351.234 317.471C338.137 316.828 319.507 313.661 322.628 296.406C323.191 293.29 324.527 290.3 325.986 287.518C327 285.584 329.887 279.998 332.195 279.577C335.419 278.988 339.017 279.526 342.224 278.704C344.697 291.772 348.014 304.704 351.604 317.519C351.5 317.496 351.382 317.478 351.234 317.471ZM335.621 406.751C330.245 406.751 325.871 402.377 325.871 397.001C325.871 391.625 330.245 387.251 335.621 387.251C340.997 387.251 345.371 391.625 345.371 397.001C345.371 402.377 340.997 406.751 335.621 406.751ZM372.269 393.755C363.792 393.709 355.298 393.331 347.352 396.647C347.206 391.79 344.105 387.673 339.784 386.027C346.757 382.103 354.827 382.611 362.589 382.726C362.589 382.864 362.589 383.002 362.589 383.14C362.589 383.608 365.486 383.192 365.486 382.364C365.486 382.208 365.487 382.053 365.487 381.897C365.825 381.495 365.918 381.063 365.489 380.869C365.49 377.616 365.49 374.363 365.516 371.111C365.52 370.609 365.338 369.384 365.444 368.609C365.545 368.532 365.628 368.456 365.673 368.386C365.956 367.945 365.766 366.805 365.774 366.335C365.785 365.646 365.783 364.957 365.79 364.268C367.759 370.198 369.794 376.105 371.921 381.975C371.996 382.183 372.182 382.308 372.421 382.372C372.421 386.17 372.421 389.968 372.421 393.767C372.371 393.761 372.327 393.755 372.269 393.755ZM375.319 406.531C375.319 360.301 375.319 314.071 375.319 267.841C378.02 267.841 380.721 267.841 383.422 267.841C383.422 314.087 383.422 360.333 383.422 406.579C380.718 406.579 378.013 406.579 375.309 406.579C375.312 406.562 375.319 406.547 375.319 406.531ZM338.701 55.407C342.906 56.597 348.04 56.12 352.352 56.273C353.003 56.296 357.435 56.032 357.678 56.864C357.938 57.755 357.629 59.064 357.505 59.968C357.301 61.45 356.936 62.926 356.537 64.367C356.187 65.628 358.471 65.254 358.959 64.895C362.459 62.319 366.028 59.77 369.801 57.607C372.922 55.818 377.262 56.681 380.771 56.587C383.552 56.513 386.352 56.369 389.089 55.845C389.25 55.814 389.413 55.796 389.573 55.762C398.447 53.104 402.406 46.429 403.486 37.539C404.09 32.569 403.891 27.374 403.79 22.376C403.698 17.804 403.299 12.723 401.032 8.64999C398.682 4.42699 395.261 2.076 390.619 0.881998C386.604 -0.150002 382.367 1.12699 378.304 1.12699C370.29 1.12699 362.317 0.712994 354.306 0.526994C346.094 0.336994 337.202 -0.190004 331.646 6.885C325.893 14.211 327.355 26.324 327.637 34.988C327.904 43.193 329.712 52.862 338.701 55.407ZM330.614 19.825C330.874 15.18 331.858 10.519 334.781 6.79599C338.076 2.59999 343.677 2.70299 348.498 2.58699C355.818 2.41099 363.112 3.20899 370.426 3.20899C372.963 3.20899 375.499 3.20899 378.036 3.20899C383.243 3.20899 387.941 1.69799 392.916 4.16999C401.576 8.47299 400.948 20.801 400.868 28.878C400.769 38.855 400.435 50.407 389.051 53.817C382.424 55.205 374.559 52.697 368.528 55.938C365.655 57.482 362.921 59.343 360.254 61.264C361.099 57.846 361.32 54.445 356.922 54.317C352.339 54.184 347.757 54.007 343.178 53.786C337.508 53.512 334.138 50.419 332.245 45.275C329.427 37.617 330.165 27.855 330.614 19.825ZM112.979 82.875C117.834 83.438 122.807 83.433 127.686 83.606C128.337 83.629 132.769 83.365 133.012 84.197C133.272 85.088 132.963 86.397 132.839 87.301C132.635 88.783 132.27 90.259 131.871 91.7C131.521 92.961 133.805 92.587 134.293 92.228C137.793 89.652 141.362 87.103 145.135 84.94C148.256 83.151 152.596 84.014 156.104 83.92C159.049 83.841 162.018 83.7 164.907 83.095C170.431 81.667 177.509 81.256 178.82 74.638C179.694 70.226 179.214 65.183 179.124 60.708C179.032 56.136 178.633 51.055 176.366 46.982C174.016 42.759 170.595 40.408 165.953 39.214C162.037 38.207 157.982 39.459 154.026 39.459C146.319 39.459 138.658 39.114 130.955 38.89C123.781 38.681 113.939 37.625 108.499 43.446C101.707 50.714 102.852 61.678 102.909 70.87C102.956 78.525 105.249 81.979 112.979 82.875ZM106.048 56.891C106.437 52.003 107.788 47.078 111.551 43.708C115.044 40.58 120.722 40.957 125.097 40.905C132.122 40.822 139.126 41.541 146.147 41.541C148.684 41.541 151.22 41.541 153.756 41.541C158.874 41.541 163.337 40.061 168.249 42.502C176.909 46.805 176.281 59.133 176.201 67.21C176.169 70.431 176.623 74.244 175.116 77.215C173.7 80.006 167 80.473 164.384 81.149C157.757 82.537 149.892 80.029 143.861 83.27C140.988 84.814 138.254 86.674 135.587 88.596C136.432 85.178 136.653 81.777 132.255 81.649C127.672 81.516 123.09 81.339 118.511 81.118C115.157 80.956 111.02 81.083 108.12 79.144C105.384 77.314 105.849 72.074 105.832 69.354C105.807 65.196 105.718 61.042 106.048 56.891Z" fill="#E5E5E5"/>
</svg>
