<svg width="385" height="1897" viewBox="0 0 385 1897" opacity="0.20" fill="none" xmlns="http://www.w3.org/2000/svg">
<path d="M146.676 363.525C166.205 376.955 182.509 395.55 198.559 414.67C187.363 359.116 140.508 338.402 97.7122 340.548C117.014 392.391 155.235 433.662 199.224 433.499C180.408 410.84 162.387 386.914 139.34 371.073C134.763 367.925 143.587 361.403 146.676 363.525Z" fill="#6AB429"/>
<path d="M208.807 555.366C246.84 562.526 283.153 551.686 305.537 513.262C300.2 507.074 294.793 502.217 289.353 498.555C281.655 495.908 274.011 493.073 266.53 489.746C235.77 486.08 205.999 513.611 184.799 545.07C181.974 549.27 181.433 547.577 184.08 548.61C192.184 551.776 200.504 553.806 208.807 555.366Z" fill="#6AB429"/>
<path d="M288.378 276.932C319.552 322.189 344.296 391.378 312.007 437.487C275.302 395.092 270.753 330.191 288.378 276.932Z" fill="#6AB429"/>
<path d="M314.495 194.504C310.402 248.789 327.916 304.269 366.98 330.589C358.539 308.869 348.17 288.027 335.833 268.463C334.54 266.41 343.543 260.201 345.641 263.524C358.113 283.288 368.576 304.37 377.066 326.351C391.86 269.806 355.406 220.47 314.495 194.504Z" fill="#6AB429"/>
<path d="M413.212 466.911C397.458 406.802 420.403 349.359 458.85 318.346C466.859 374.033 461.188 453.042 413.212 466.911Z" fill="#6AB429"/>
<path d="M201.796 290.671L160.322 222.979C157.293 218.035 166.673 212.313 169.108 216.287L203.58 272.551C204.596 218.339 164.971 181.685 124.107 166.292C130.758 222.493 158.243 275.413 201.516 292.136C201.607 291.649 201.709 291.159 201.796 290.671Z" fill="#6AB429"/>
<path d="M360.73 1482.77C359.639 1511.14 363.665 1538.63 368.173 1566.11C336.801 1525.17 347.112 1463.04 370.615 1417.17C395.326 1465.09 403.212 1528.34 380.42 1576.55C374.972 1544.2 368.266 1512.08 369.56 1478.61C369.815 1471.96 360.904 1478.29 360.73 1482.77Z" fill="#6AB429"/>
<path d="M456.963 1649.91C442.138 1695.36 416.165 1729.64 378.931 1734.4C377.545 1725.35 377.086 1716.91 377.443 1709.05C379.642 1699.23 381.688 1689.38 383.322 1679.45C396.732 1643.78 430.492 1625.3 462.459 1618.24C466.724 1617.31 465.871 1615.84 465.196 1619.28C463.134 1629.81 460.201 1639.99 456.963 1649.91Z" fill="#6AB429"/>
<path d="M229.759 1593.69C243.945 1651.26 277.448 1714.1 324.928 1702.43C315.508 1640.27 274.46 1601.81 229.759 1593.69Z" fill="#6AB429"/>
<path d="M161.178 1579.86C199.586 1603.36 227.65 1651.2 225.105 1707.66C214.934 1687.19 206.346 1665.06 199.626 1641.43C198.92 1638.95 190.126 1645.63 191.266 1649.65C198.05 1673.53 206.751 1695.89 217.07 1716.55C171.634 1703.63 157.443 1638.17 161.178 1579.86Z" fill="#6AB429"/>
<path d="M292.415 1828.71C260.347 1780.42 210.107 1775.99 169.544 1802.21C202.649 1839.72 258.402 1874.23 292.415 1828.71Z" fill="#6AB429"/>
<path d="M283.593 1505.72L259.718 1425.28C257.975 1419.4 249.311 1426.75 250.713 1431.47L270.558 1498.34C233.785 1471.5 229.711 1409.09 240.49 1356.29C274.639 1392.57 295.85 1450.04 284.718 1506.17C284.345 1506.02 283.964 1505.88 283.593 1505.72Z" fill="#6AB429"/>
<path d="M390.838 959.639C391.37 980.308 400.002 999.957 409.973 1018.14C411.107 1015.44 412.593 1012.84 413.448 1010.98C414.909 1007.81 416.415 1004.67 417.912 1001.53C417.657 1001.23 417.394 1000.96 417.141 1000.67C415.762 999.067 419.505 992.377 420.965 991.967C421.52 991.81 422.116 991.69 422.689 991.545C424.228 988.37 425.766 985.193 427.315 982.026C430.749 975.01 434.197 968.006 437.64 961.002C416.372 950.114 384.326 897.112 407.57 873.2C439.375 840.486 447.273 909.558 446.425 943.052C447.518 940.812 448.618 938.58 449.688 936.32C450.957 933.641 451.725 928.635 451.819 933.434C451.853 933.452 451.888 933.467 451.924 933.483C451.736 931.564 452.326 929.22 453.812 927.986C453.852 927.954 453.893 927.919 453.932 927.886C454.934 927.057 456.307 926.841 457.262 927.475C457.218 927.229 457.162 926.994 457.118 926.748C456.607 923.867 461.494 917.333 461.766 918.856C463.127 926.505 465.135 933.901 468.718 940.053C482.532 921.538 507.374 917.546 521.811 939.5C534.552 958.871 529.55 986.836 514.6 1001.65C504.454 1011.7 492.81 1012.09 482.959 1006.9C483.459 1007.49 483.988 1008.04 484.457 1008.66C495.541 1023.29 494.64 1043.67 485.032 1058.38C467.982 1084.5 432.17 1030.19 423.074 1007.02C422.864 1006.81 422.663 1006.59 422.455 1006.38C420.859 1009.73 419.267 1013.08 417.744 1016.49C417.058 1018.02 415.376 1023.71 415.076 1021.67C415.276 1023.03 414.853 1024.43 414.145 1025.58C418.218 1032.66 422.353 1039.5 426.128 1046.06C445.144 1079.07 465.446 1110.98 486.115 1142.5C496.415 1158.22 509.814 1173.96 517.989 1191.49C518.298 1192.16 518.021 1193.36 517.481 1194.64C531.413 1210.03 543.664 1229.01 556.933 1243.17C559.548 1245.96 555.131 1254.35 552.784 1251.84C530.344 1227.88 508.03 1182.84 476.311 1178.39C466.884 1177.07 457.618 1178.02 448.391 1179.57C447.053 1184.98 445.466 1190.21 443.635 1195.26C447.567 1219.04 442.214 1247.51 435.768 1269.49C432.446 1280.81 421.717 1314.13 406.607 1304.91C388.185 1293.66 383.326 1264.1 393.777 1244.58C404.927 1223.75 422.473 1211.83 438.131 1196.74C438.655 1196.24 439.034 1196.05 439.316 1196.06C439.733 1195.27 440.221 1194.52 440.721 1193.94C442.216 1189.62 443.517 1185.14 444.619 1180.46C444.638 1180.38 444.669 1180.3 444.693 1180.22C441.558 1180.79 438.425 1181.39 435.294 1181.98C434.074 1184.51 431.937 1186.38 430.728 1184.3C430.46 1183.85 430.16 1183.41 429.871 1182.97C428.665 1183.18 427.458 1183.38 426.248 1183.57C427.427 1184.63 427.488 1187.88 425.729 1190.14C412.939 1206.58 388.657 1209.77 370.953 1204.57C356.318 1200.27 338.491 1185.41 346.131 1164.15C353.119 1144.71 372.633 1144.93 387.757 1148.67C402.34 1152.26 422.466 1158.59 433.327 1173.03C451.058 1169.47 468.829 1164.42 486.044 1170.95C492.171 1173.27 497.841 1176.79 503.216 1181.05C493.542 1165.74 481.946 1151.24 472.558 1136.74C468.71 1130.79 464.869 1124.82 461.042 1118.85C460.213 1120.6 459.136 1122.05 458.295 1121.93C441.218 1119.37 424.407 1111.41 407.889 1105.6C407.1 1105.32 406.294 1105.03 405.486 1104.73C378.464 1122.07 308.99 1132.35 322.674 1076.89C326.493 1061.41 335.235 1054.41 346.035 1053.01C344.407 1051.92 343.018 1050.99 342.211 1050.39C333.266 1043.78 324.271 1037.27 315.272 1030.78C312.677 1028.91 310.082 1027.04 307.487 1025.18C305.888 1026.38 304.34 1027.7 302.929 1029.17C348.942 1056.52 308.027 1142.28 268.205 1104.38C241.1 1078.59 265.71 1012.56 298.135 1030.02C299.797 1027.29 301.699 1024.8 303.8 1022.52C302.462 1021.56 301.13 1020.58 299.794 1019.61C299.351 1020.2 298.895 1020.58 298.47 1020.6C270.007 1022.09 211.576 1000.42 240.208 956.164C260.213 925.249 300.956 984.568 305.63 1008.05C305.808 1008.95 305.398 1010.24 304.766 1011.54C306.848 1013.04 308.93 1014.54 311.01 1016.04C312.387 1015.01 313.808 1014.02 315.278 1013.09C316.852 1012.1 315.986 1015.88 314.718 1018.72C319.4 1022.09 324.079 1025.46 328.756 1028.85C337.605 1035.27 346.489 1041.63 355.182 1048.37C357.138 1049.88 360.913 1051.99 362.979 1054.64C363.036 1054.65 363.09 1054.66 363.147 1054.68C379.646 1059.38 403.835 1072.55 412.238 1092.47C413.907 1091.37 413.644 1094.19 412.807 1096.85C412.776 1096.96 412.739 1097.06 412.706 1097.17C412.7 1097.18 412.696 1097.2 412.692 1097.21C427.154 1102.56 441.912 1109.12 456.782 1112.19C440.2 1086.13 424.02 1059.63 409.369 1031.99C401.828 1017.77 393.279 1002.74 388.443 986.812C385.657 977.635 385.636 966.55 386.106 956.211C385.205 956.588 384.258 956.46 383.449 955.46C368.407 936.854 353.362 918.246 338.32 899.64C335.766 896.481 340.638 888.523 343.631 892.225C357.985 909.98 372.34 927.735 386.694 945.49C386.704 945.344 386.711 945.187 386.721 945.041C386.924 941.453 387.165 937.848 387.433 934.24C386.996 934.314 386.655 934.044 386.514 933.208C383.442 914.867 374.839 894.578 362.996 882.125C358.081 876.956 351.742 871.251 344.961 871.344C333.788 871.498 322.13 884.308 320.944 898.026C317.87 933.558 364.509 951.082 385.232 961.891C387.216 962.925 383.465 971.807 381.083 970.561C352.968 955.898 298.363 931.757 322.028 884.487C330.929 866.709 347.382 854.594 363.246 869.556C375.334 880.958 384.322 897.874 389.119 915.657C392.765 881.916 399.838 848.333 413.216 818.965C415.537 813.87 417.428 815.284 415.123 820.351C409.281 833.17 404.585 847.357 400.916 862.23C400.949 862.209 400.982 862.179 401.018 862.165C424.108 852.11 452.707 793.923 418.649 776.901C387.817 761.492 391.704 833.76 400.12 853.485C401.144 855.885 396.331 863.363 395.49 861.389C386.826 841.081 386.891 810.364 393.659 789.738C398.943 773.633 409.924 757.957 425.388 769.881C458.048 795.06 425.168 857.27 399.035 870.304C395.059 888.514 392.593 907.542 391.464 926.223C391.496 926.406 391.536 926.594 391.568 926.776C391.648 927.261 391.548 927.914 391.334 928.635C390.751 939.172 390.58 949.582 390.838 959.639ZM287.668 1011.04C285.489 1009.59 283.269 1007.9 282.283 1005.67C280.893 1002.53 284.009 997.801 286.688 998.19C286.735 998.196 286.785 998.204 286.832 998.21C287.573 998.316 288.076 998.705 288.401 999.25C289.037 999.293 291.591 1001.91 292.615 1002.68C294.514 1004.08 296.422 1005.46 298.329 1006.86C289.8 984.438 266.459 952.962 248.091 956.981C236.233 959.572 233.539 977.541 241.445 987.763C246.601 994.431 253.069 999.181 260.061 1002.43C268.853 1006.5 278.232 1009.6 287.668 1011.04ZM299.915 1038.56C298.964 1040.08 297.82 1041.1 296.981 1040.52C296.908 1040.47 296.835 1040.44 296.76 1040.39C296.257 1042.65 295.313 1044.92 293.843 1046.46C292.74 1047.62 291.713 1047.1 292.124 1045.21C292.625 1042.93 293.288 1040.8 294.026 1038.74C266.803 1024.4 248.004 1075.66 272.358 1095.71C286.055 1106.99 309.934 1108.61 316.885 1086.74C323.116 1067.14 314.544 1047.99 299.915 1038.56ZM397.577 1101.78C383.7 1096.55 368.394 1091.07 354.885 1093.68C353.385 1093.97 355.975 1085.3 358.258 1084.85C372.644 1082.08 389.175 1088.58 403.494 1093.86C394.566 1082.16 376.54 1069.9 360.141 1064.49C359.742 1064.52 359.363 1064.41 359.026 1064.13C340.109 1058.21 323.71 1061.71 326.555 1086.16C330.434 1119.5 372.572 1113.57 397.577 1101.78ZM422.609 1174.9C414.596 1168.12 404.092 1163.85 395.843 1161.05C384.402 1157.17 366.71 1151.39 355.761 1159.11C346.92 1165.35 350.745 1180.78 358.076 1187.09C364.412 1192.54 371.787 1195.57 379.432 1196.57C393.091 1198.35 412.827 1197.89 422.883 1184.96C423.226 1184.52 423.548 1184.2 423.857 1183.94C415.602 1185.11 407.299 1185.6 398.861 1184.21C395.264 1183.61 398.634 1174.52 401.754 1175.04C408.655 1176.18 415.619 1175.86 422.609 1174.9ZM438.842 1206.97C434.537 1216.13 429.273 1224.61 422.983 1232.36C419.256 1236.95 421.294 1228.37 422.899 1226.4C427.954 1220.18 432.127 1213.52 435.595 1206.36C423.808 1217.29 410.207 1226.49 400.875 1240.69C394.263 1250.75 390.354 1263.23 395.852 1275.82C398.964 1282.96 404.055 1293.44 410.762 1296.24C432.822 1305.45 440.062 1233.71 438.842 1206.97ZM464.576 1005.57C452.937 1000.44 440.153 997.772 427.788 998.876C441.941 1012.64 458.632 1021.52 475.352 1029.86C476.527 1030.45 472.977 1039.42 471.202 1038.53C459.715 1032.8 448.241 1026.8 437.59 1019.16C440.868 1024.19 444.435 1028.91 447.979 1033.18C455.252 1041.96 467.118 1056.45 478.337 1055.74C489.729 1055.02 490.112 1035.17 485.303 1025.39C480.622 1015.86 473.074 1009.32 464.576 1005.57ZM472.517 942.26C472.712 942.868 472.635 943.954 472.379 945.133C473.653 946.605 475.016 948 476.597 949.212C478.37 950.571 474.144 959.185 472.448 957.883C470.727 956.564 469.244 955.029 467.866 953.407C454.015 978.279 490.805 1012.45 510.987 997.923C528.635 985.219 528.102 954.182 510.776 940.54C497.963 930.453 483.416 931.099 472.517 942.26ZM432.896 945.21C427.194 931.863 423.018 917.655 418.009 903.802C416.974 900.936 421.875 893.438 422.809 896.017C428.877 912.794 433.694 930.111 441.528 945.767C442.456 917.108 438.558 863.875 413.749 875.936C391.569 886.717 415.303 927.566 432.896 945.21ZM430.263 990.189C443.509 988.611 459.374 990.591 471.776 997.731C461.473 985.569 456.798 966.589 465.476 950.24C461.974 944.97 459.719 938.67 458.184 931.978C457.482 936.022 454.758 940.167 453.211 943.365C448.588 952.912 443.89 962.405 439.218 971.916C436.226 977.997 433.237 984.086 430.263 990.189Z" fill="#6AB429"/>
</svg>
