<svg width="49" height="48" viewBox="0 0 49 48" fill="none" xmlns="http://www.w3.org/2000/svg">
<path d="M24.5001 18C22.8756 18 21.3177 18.6321 20.1691 19.7574C19.0204 20.8826 18.3751 22.4087 18.3751 24C18.3751 25.5913 19.0204 27.1174 20.1691 28.2426C21.3177 29.3679 22.8756 30 24.5001 30C26.1245 30 27.6824 29.3679 28.8311 28.2426C29.9798 27.1174 30.6251 25.5913 30.6251 24C30.6251 22.4087 29.9798 20.8826 28.8311 19.7574C27.6824 18.6321 26.1245 18 24.5001 18ZM24.5001 34C21.7927 34 19.1961 32.9464 17.2817 31.0711C15.3673 29.1957 14.2917 26.6522 14.2917 24C14.2917 21.3478 15.3673 18.8043 17.2817 16.9289C19.1961 15.0536 21.7927 14 24.5001 14C27.2075 14 29.804 15.0536 31.7185 16.9289C33.6329 18.8043 34.7084 21.3478 34.7084 24C34.7084 26.6522 33.6329 29.1957 31.7185 31.0711C29.804 32.9464 27.2075 34 24.5001 34V34ZM24.5001 9C14.2917 9 5.57383 15.22 2.04175 24C5.57383 32.78 14.2917 39 24.5001 39C34.7084 39 43.4263 32.78 46.9584 24C43.4263 15.22 34.7084 9 24.5001 9Z" fill="#6AB429"/>
</svg>
