<svg width="49" height="48" viewBox="0 0 49 48" fill="none" xmlns="http://www.w3.org/2000/svg">
<path d="M42.2828 9.26L39.547 6.58C38.7916 5.8 37.4645 5.8 36.6683 6.58L18.3749 24.5L23.9895 30L42.2828 12.08C43.0791 11.3 43.0791 10 42.2828 9.26V9.26ZM14.2916 28C12.6671 28 11.1092 28.6321 9.96056 29.7574C8.8119 30.8826 8.16659 32.4087 8.16659 34C8.16659 36.62 5.79825 38 4.08325 38C5.96159 40.44 9.18742 42 12.2499 42C14.4159 42 16.4931 41.1571 18.0246 39.6568C19.5562 38.1566 20.4166 36.1217 20.4166 34C20.4166 32.4087 19.7713 30.8826 18.6226 29.7574C17.474 28.6321 15.916 28 14.2916 28Z" fill="#6AB429"/>
</svg>
