<svg width="49" height="48" viewBox="0 0 49 48" fill="none" xmlns="http://www.w3.org/2000/svg">
<path d="M21.2537 14.82L30.625 24L21.2537 33.2L18.375 30.36L24.8675 24L18.375 17.64L21.2537 14.82ZM10.2083 6C9.12537 6 8.08675 6.42143 7.32098 7.17157C6.55521 7.92172 6.125 8.93913 6.125 10V38C6.125 39.0609 6.55521 40.0783 7.32098 40.8284C8.08675 41.5786 9.12537 42 10.2083 42H38.7917C39.8746 42 40.9132 41.5786 41.679 40.8284C42.4448 40.0783 42.875 39.0609 42.875 38V10C42.875 8.93913 42.4448 7.92172 41.679 7.17157C40.9132 6.42143 39.8746 6 38.7917 6H10.2083Z" fill="#6AB429"/>
</svg>
