<svg width="49" height="48" viewBox="0 0 49 48" fill="none" xmlns="http://www.w3.org/2000/svg">
<path d="M38.7917 4L28.5834 13V35L38.7917 26V4ZM13.2709 10C9.28966 10 5.00216 10.8 2.04175 13V42.32C2.04175 42.82 2.55216 43.32 3.06258 43.32C3.26675 43.32 3.36883 43.18 3.573 43.18C6.32925 41.88 10.3105 41 13.2709 41C17.2522 41 21.5397 41.8 24.5001 44C27.2563 42.3 32.2584 41 35.7292 41C39.098 41 42.5688 41.62 45.4272 43.12C45.6313 43.22 45.7334 43.18 45.9376 43.18C46.448 43.18 46.9584 42.68 46.9584 42.18V13C45.7334 12.1 44.4063 11.5 42.8751 11V38C40.6292 37.3 38.1792 37 35.7292 37C32.2584 37 27.2563 38.3 24.5001 40V13C21.5397 10.8 17.2522 10 13.2709 10Z" fill="#6AB429"/>
</svg>
