<svg width="180" height="22" viewBox="0 0 180 22" fill="none" xmlns="http://www.w3.org/2000/svg">
<path d="M0.968 7.232C0.968 7.232 0.964 7.216 0.956 7.184C0.948 7.152 0.936 7.112 0.92 7.064C0.912 7.016 0.904 6.964 0.896 6.908C0.888 6.852 0.884 6.804 0.884 6.764C0.884 6.612 0.936 6.492 1.04 6.404C1.152 6.308 1.316 6.26 1.532 6.26H3.692C4.068 6.26 4.32 6.444 4.448 6.812C4.592 7.228 4.764 7.72 4.964 8.288C5.172 8.856 5.388 9.456 5.612 10.088C5.844 10.72 6.08 11.36 6.32 12.008C6.56 12.648 6.784 13.256 6.992 13.832C7.208 14.4 7.4 14.912 7.568 15.368C7.744 15.816 7.88 16.156 7.976 16.388C8.336 15.372 8.796 14.072 9.356 12.488C9.916 10.904 10.6 9.008 11.408 6.8C11.48 6.608 11.576 6.472 11.696 6.392C11.824 6.304 11.984 6.26 12.176 6.26H14.264C14.512 6.26 14.68 6.3 14.768 6.38C14.864 6.46 14.912 6.564 14.912 6.692C14.912 6.756 14.9 6.836 14.876 6.932C14.86 7.028 14.844 7.1 14.828 7.148L13.58 10.184C13.74 10.584 13.924 11.032 14.132 11.528C14.348 12.016 14.572 12.532 14.804 13.076C15.044 13.612 15.28 14.16 15.512 14.72C15.752 15.28 15.976 15.824 16.184 16.352C16.328 15.968 16.496 15.524 16.688 15.02C16.888 14.516 17.092 13.98 17.3 13.412C17.516 12.844 17.736 12.26 17.96 11.66C18.192 11.06 18.416 10.472 18.632 9.896C18.856 9.312 19.068 8.756 19.268 8.228C19.468 7.7 19.648 7.224 19.808 6.8C19.88 6.608 19.972 6.472 20.084 6.392C20.196 6.304 20.344 6.26 20.528 6.26H22.52C22.752 6.26 22.928 6.296 23.048 6.368C23.168 6.432 23.228 6.548 23.228 6.716C23.228 6.772 23.22 6.848 23.204 6.944C23.188 7.04 23.172 7.108 23.156 7.148L17.492 21.02C17.46 21.076 17.424 21.132 17.384 21.188C17.352 21.244 17.304 21.296 17.24 21.344C17.184 21.392 17.108 21.432 17.012 21.464C16.924 21.488 16.816 21.5 16.688 21.5H15.656C15.376 21.5 15.184 21.448 15.08 21.344C14.976 21.24 14.892 21.128 14.828 21.008C14.356 19.864 13.888 18.732 13.424 17.612C12.96 16.484 12.496 15.348 12.032 14.204L9.272 21.02C9.208 21.132 9.128 21.24 9.032 21.344C8.944 21.448 8.776 21.5 8.528 21.5H7.424C7.136 21.5 6.94 21.452 6.836 21.356C6.74 21.252 6.668 21.14 6.62 21.02L0.968 7.232ZM40.5888 20.792C40.5888 20.936 40.5568 21.056 40.4928 21.152C40.4368 21.24 40.3608 21.312 40.2648 21.368C40.1688 21.416 40.0568 21.452 39.9288 21.476C39.8088 21.492 39.6808 21.5 39.5448 21.5H38.0448C37.7888 21.5 37.6088 21.432 37.5048 21.296C37.4088 21.16 37.3368 20.988 37.2888 20.78L37.2168 19.76C36.9368 20.04 36.6248 20.304 36.2808 20.552C35.9448 20.792 35.5808 21.004 35.1888 21.188C34.7968 21.364 34.3808 21.5 33.9408 21.596C33.5008 21.7 33.0488 21.752 32.5848 21.752C31.8648 21.752 31.1688 21.66 30.4968 21.476C29.8328 21.284 29.2088 21.02 28.6248 20.684C28.0408 20.34 27.5088 19.928 27.0288 19.448C26.5568 18.968 26.1488 18.436 25.8048 17.852C25.4688 17.268 25.2048 16.64 25.0128 15.968C24.8288 15.296 24.7368 14.596 24.7368 13.868C24.7368 13.14 24.8288 12.44 25.0128 11.768C25.2048 11.096 25.4688 10.468 25.8048 9.884C26.1488 9.3 26.5568 8.772 27.0288 8.3C27.5088 7.82 28.0408 7.412 28.6248 7.076C29.2088 6.732 29.8328 6.468 30.4968 6.284C31.1688 6.092 31.8648 5.996 32.5848 5.996C33.0968 5.996 33.5848 6.052 34.0488 6.164C34.5128 6.268 34.9448 6.42 35.3448 6.62C35.7528 6.812 36.1288 7.048 36.4728 7.328C36.8168 7.6 37.1288 7.9 37.4088 8.228L37.5768 6.944C37.6168 6.8 37.6528 6.684 37.6848 6.596C37.7248 6.5 37.7688 6.424 37.8168 6.368C37.8728 6.312 37.9408 6.276 38.0208 6.26C38.1008 6.236 38.2008 6.224 38.3208 6.224H39.5208C39.6488 6.224 39.7768 6.236 39.9048 6.26C40.0328 6.284 40.1488 6.324 40.2528 6.38C40.3568 6.428 40.4368 6.5 40.4928 6.596C40.5568 6.684 40.5888 6.796 40.5888 6.932V20.792ZM28.1088 13.868C28.1088 14.508 28.2208 15.116 28.4448 15.692C28.6688 16.26 28.9808 16.76 29.3808 17.192C29.7808 17.624 30.2488 17.968 30.7848 18.224C31.3288 18.472 31.9208 18.596 32.5608 18.596C33.2088 18.596 33.8128 18.472 34.3728 18.224C34.9408 17.968 35.4328 17.624 35.8488 17.192C36.2648 16.76 36.5928 16.26 36.8328 15.692C37.0728 15.116 37.1928 14.508 37.1928 13.868C37.1928 13.236 37.0728 12.636 36.8328 12.068C36.5928 11.492 36.2648 10.988 35.8488 10.556C35.4328 10.124 34.9408 9.78 34.3728 9.524C33.8128 9.268 33.2088 9.14 32.5608 9.14C31.9208 9.14 31.3288 9.268 30.7848 9.524C30.2488 9.78 29.7808 10.124 29.3808 10.556C28.9808 10.988 28.6688 11.492 28.4448 12.068C28.2208 12.636 28.1088 13.236 28.1088 13.868ZM43.7347 6.968C43.7347 6.856 43.7827 6.736 43.8787 6.608C43.9747 6.48 44.0667 6.4 44.1547 6.368C44.2187 6.304 44.3147 6.272 44.4427 6.272C44.5707 6.264 44.6907 6.26 44.8027 6.26H46.0147C46.2467 6.26 46.4187 6.336 46.5307 6.488C46.6427 6.64 46.7187 6.808 46.7587 6.992L46.8907 8.264C47.0747 7.992 47.2987 7.724 47.5627 7.46C47.8347 7.196 48.1547 6.96 48.5227 6.752C48.8907 6.544 49.3107 6.376 49.7827 6.248C50.2547 6.12 50.7867 6.056 51.3787 6.056C52.3227 6.056 53.1627 6.228 53.8987 6.572C54.6347 6.908 55.2547 7.372 55.7587 7.964C56.2627 8.556 56.6427 9.252 56.8987 10.052C57.1627 10.852 57.2947 11.712 57.2947 12.632V20.636C57.2947 20.924 57.2267 21.14 57.0907 21.284C56.9547 21.428 56.7587 21.5 56.5027 21.5H54.6787C54.3587 21.5 54.1427 21.44 54.0307 21.32C53.9267 21.2 53.8747 20.988 53.8747 20.684V12.692C53.8747 12.268 53.8027 11.856 53.6587 11.456C53.5147 11.048 53.3027 10.684 53.0227 10.364C52.7507 10.044 52.4107 9.788 52.0027 9.596C51.5947 9.404 51.1227 9.308 50.5867 9.308C50.2187 9.308 49.8347 9.384 49.4347 9.536C49.0427 9.68 48.6827 9.888 48.3547 10.16C48.0267 10.432 47.7547 10.764 47.5387 11.156C47.3227 11.54 47.2107 11.976 47.2027 12.464V20.24C47.2027 20.392 47.1947 20.544 47.1787 20.696C47.1627 20.848 47.1267 20.984 47.0707 21.104C47.0227 21.224 46.9507 21.32 46.8547 21.392C46.7587 21.464 46.6347 21.5 46.4827 21.5H44.5027C44.2387 21.5 44.0427 21.44 43.9147 21.32C43.7947 21.192 43.7347 21.012 43.7347 20.78V6.968ZM75.3232 20.792C75.3232 20.936 75.2912 21.056 75.2272 21.152C75.1712 21.24 75.0952 21.312 74.9992 21.368C74.9032 21.416 74.7912 21.452 74.6632 21.476C74.5432 21.492 74.4152 21.5 74.2792 21.5H72.7792C72.5232 21.5 72.3432 21.432 72.2392 21.296C72.1432 21.16 72.0712 20.988 72.0232 20.78L71.9512 19.76C71.6712 20.04 71.3592 20.304 71.0152 20.552C70.6792 20.792 70.3152 21.004 69.9232 21.188C69.5312 21.364 69.1152 21.5 68.6752 21.596C68.2352 21.7 67.7832 21.752 67.3192 21.752C66.5992 21.752 65.9032 21.66 65.2312 21.476C64.5672 21.284 63.9432 21.02 63.3592 20.684C62.7752 20.34 62.2432 19.928 61.7632 19.448C61.2912 18.968 60.8832 18.436 60.5392 17.852C60.2032 17.268 59.9392 16.64 59.7472 15.968C59.5632 15.296 59.4712 14.596 59.4712 13.868C59.4712 13.14 59.5632 12.44 59.7472 11.768C59.9392 11.096 60.2032 10.468 60.5392 9.884C60.8832 9.3 61.2912 8.772 61.7632 8.3C62.2432 7.82 62.7752 7.412 63.3592 7.076C63.9432 6.732 64.5672 6.468 65.2312 6.284C65.9032 6.092 66.5992 5.996 67.3192 5.996C67.8312 5.996 68.3192 6.052 68.7832 6.164C69.2472 6.268 69.6792 6.42 70.0792 6.62C70.4872 6.812 70.8632 7.048 71.2072 7.328C71.5512 7.6 71.8632 7.9 72.1432 8.228L72.3112 6.944C72.3512 6.8 72.3872 6.684 72.4192 6.596C72.4592 6.5 72.5032 6.424 72.5512 6.368C72.6072 6.312 72.6752 6.276 72.7552 6.26C72.8352 6.236 72.9352 6.224 73.0552 6.224H74.2552C74.3832 6.224 74.5112 6.236 74.6392 6.26C74.7672 6.284 74.8832 6.324 74.9872 6.38C75.0912 6.428 75.1712 6.5 75.2272 6.596C75.2912 6.684 75.3232 6.796 75.3232 6.932V20.792ZM62.8432 13.868C62.8432 14.508 62.9552 15.116 63.1792 15.692C63.4032 16.26 63.7152 16.76 64.1152 17.192C64.5152 17.624 64.9832 17.968 65.5192 18.224C66.0632 18.472 66.6552 18.596 67.2952 18.596C67.9432 18.596 68.5472 18.472 69.1072 18.224C69.6752 17.968 70.1672 17.624 70.5832 17.192C70.9992 16.76 71.3272 16.26 71.5672 15.692C71.8072 15.116 71.9272 14.508 71.9272 13.868C71.9272 13.236 71.8072 12.636 71.5672 12.068C71.3272 11.492 70.9992 10.988 70.5832 10.556C70.1672 10.124 69.6752 9.78 69.1072 9.524C68.5472 9.268 67.9432 9.14 67.2952 9.14C66.6552 9.14 66.0632 9.268 65.5192 9.524C64.9832 9.78 64.5152 10.124 64.1152 10.556C63.7152 10.988 63.4032 11.492 63.1792 12.068C62.9552 12.636 62.8432 13.236 62.8432 13.868ZM81.7571 20.78C81.6851 21.02 81.6051 21.2 81.5171 21.32C81.4371 21.44 81.2771 21.5 81.0371 21.5H79.2251C78.7211 21.5 78.4691 21.26 78.4691 20.78V2.456C78.4691 2.248 78.5411 2.076 78.6851 1.94C78.8291 1.804 78.9931 1.736 79.1771 1.736H81.1571C81.3971 1.736 81.5851 1.808 81.7211 1.952C81.8571 2.088 81.9251 2.256 81.9251 2.456V7.964C82.5011 7.372 83.1611 6.9 83.9051 6.548C84.6571 6.196 85.5171 6.02 86.4851 6.02C87.5651 6.02 88.5691 6.228 89.4971 6.644C90.4331 7.052 91.2451 7.612 91.9331 8.324C92.6291 9.036 93.1731 9.872 93.5651 10.832C93.9571 11.784 94.1531 12.808 94.1531 13.904C94.1531 14.992 93.9571 16.016 93.5651 16.976C93.1731 17.928 92.6291 18.76 91.9331 19.472C91.2451 20.184 90.4331 20.748 89.4971 21.164C88.5691 21.572 87.5651 21.776 86.4851 21.776C86.0131 21.776 85.5611 21.724 85.1291 21.62C84.6971 21.516 84.2851 21.376 83.8931 21.2C83.5011 21.016 83.1331 20.8 82.7891 20.552C82.4531 20.304 82.1451 20.04 81.8651 19.76L81.7571 20.78ZM90.7811 13.904C90.7811 13.272 90.6691 12.668 90.4451 12.092C90.2211 11.516 89.9091 11.012 89.5091 10.58C89.1091 10.14 88.6371 9.792 88.0931 9.536C87.5491 9.272 86.9611 9.14 86.3291 9.14C85.6891 9.14 85.0851 9.272 84.5171 9.536C83.9571 9.792 83.4651 10.14 83.0411 10.58C82.6251 11.012 82.2971 11.516 82.0571 12.092C81.8171 12.668 81.6971 13.272 81.6971 13.904V13.988C81.7051 14.62 81.8331 15.216 82.0811 15.776C82.3291 16.328 82.6611 16.816 83.0771 17.24C83.4931 17.656 83.9771 17.988 84.5291 18.236C85.0891 18.476 85.6891 18.596 86.3291 18.596C86.9611 18.596 87.5491 18.472 88.0931 18.224C88.6371 17.976 89.1091 17.64 89.5091 17.216C89.9091 16.792 90.2211 16.296 90.4451 15.728C90.6691 15.152 90.7811 14.544 90.7811 13.904ZM112.167 20.792C112.167 20.936 112.135 21.056 112.071 21.152C112.015 21.24 111.939 21.312 111.843 21.368C111.747 21.416 111.635 21.452 111.507 21.476C111.387 21.492 111.259 21.5 111.123 21.5H109.623C109.367 21.5 109.187 21.432 109.083 21.296C108.987 21.16 108.915 20.988 108.867 20.78L108.795 19.76C108.515 20.04 108.203 20.304 107.859 20.552C107.523 20.792 107.159 21.004 106.767 21.188C106.375 21.364 105.959 21.5 105.519 21.596C105.079 21.7 104.627 21.752 104.163 21.752C103.443 21.752 102.747 21.66 102.075 21.476C101.411 21.284 100.787 21.02 100.203 20.684C99.6189 20.34 99.0869 19.928 98.6069 19.448C98.1349 18.968 97.7269 18.436 97.3829 17.852C97.0469 17.268 96.7829 16.64 96.5909 15.968C96.4069 15.296 96.3149 14.596 96.3149 13.868C96.3149 13.14 96.4069 12.44 96.5909 11.768C96.7829 11.096 97.0469 10.468 97.3829 9.884C97.7269 9.3 98.1349 8.772 98.6069 8.3C99.0869 7.82 99.6189 7.412 100.203 7.076C100.787 6.732 101.411 6.468 102.075 6.284C102.747 6.092 103.443 5.996 104.163 5.996C104.675 5.996 105.163 6.052 105.627 6.164C106.091 6.268 106.523 6.42 106.923 6.62C107.331 6.812 107.707 7.048 108.051 7.328C108.395 7.6 108.707 7.9 108.987 8.228L109.155 6.944C109.195 6.8 109.231 6.684 109.263 6.596C109.303 6.5 109.347 6.424 109.395 6.368C109.451 6.312 109.519 6.276 109.599 6.26C109.679 6.236 109.779 6.224 109.899 6.224H111.099C111.227 6.224 111.355 6.236 111.483 6.26C111.611 6.284 111.727 6.324 111.831 6.38C111.935 6.428 112.015 6.5 112.071 6.596C112.135 6.684 112.167 6.796 112.167 6.932V20.792ZM99.6869 13.868C99.6869 14.508 99.7989 15.116 100.023 15.692C100.247 16.26 100.559 16.76 100.959 17.192C101.359 17.624 101.827 17.968 102.363 18.224C102.907 18.472 103.499 18.596 104.139 18.596C104.787 18.596 105.391 18.472 105.951 18.224C106.519 17.968 107.011 17.624 107.427 17.192C107.843 16.76 108.171 16.26 108.411 15.692C108.651 15.116 108.771 14.508 108.771 13.868C108.771 13.236 108.651 12.636 108.411 12.068C108.171 11.492 107.843 10.988 107.427 10.556C107.011 10.124 106.519 9.78 105.951 9.524C105.391 9.268 104.787 9.14 104.139 9.14C103.499 9.14 102.907 9.268 102.363 9.524C101.827 9.78 101.359 10.124 100.959 10.556C100.559 10.988 100.247 11.492 100.023 12.068C99.7989 12.636 99.6869 13.236 99.6869 13.868ZM115.313 6.968C115.313 6.856 115.361 6.736 115.457 6.608C115.553 6.48 115.645 6.4 115.733 6.368C115.797 6.304 115.893 6.272 116.021 6.272C116.149 6.264 116.269 6.26 116.381 6.26H117.593C117.825 6.26 117.997 6.336 118.109 6.488C118.221 6.64 118.297 6.808 118.337 6.992L118.469 8.264C118.653 7.992 118.877 7.724 119.141 7.46C119.413 7.196 119.733 6.96 120.101 6.752C120.469 6.544 120.889 6.376 121.361 6.248C121.833 6.12 122.365 6.056 122.957 6.056C123.901 6.056 124.741 6.228 125.477 6.572C126.213 6.908 126.833 7.372 127.337 7.964C127.841 8.556 128.221 9.252 128.477 10.052C128.741 10.852 128.873 11.712 128.873 12.632V20.636C128.873 20.924 128.805 21.14 128.669 21.284C128.533 21.428 128.337 21.5 128.081 21.5H126.257C125.937 21.5 125.721 21.44 125.609 21.32C125.505 21.2 125.453 20.988 125.453 20.684V12.692C125.453 12.268 125.381 11.856 125.237 11.456C125.093 11.048 124.881 10.684 124.601 10.364C124.329 10.044 123.989 9.788 123.581 9.596C123.173 9.404 122.701 9.308 122.165 9.308C121.797 9.308 121.413 9.384 121.013 9.536C120.621 9.68 120.261 9.888 119.933 10.16C119.605 10.432 119.333 10.764 119.117 11.156C118.901 11.54 118.789 11.976 118.781 12.464V20.24C118.781 20.392 118.773 20.544 118.757 20.696C118.741 20.848 118.705 20.984 118.649 21.104C118.601 21.224 118.529 21.32 118.433 21.392C118.337 21.464 118.213 21.5 118.061 21.5H116.081C115.817 21.5 115.621 21.44 115.493 21.32C115.373 21.192 115.313 21.012 115.313 20.78V6.968ZM146.901 20.792C146.901 20.936 146.869 21.056 146.805 21.152C146.749 21.24 146.673 21.312 146.577 21.368C146.481 21.416 146.369 21.452 146.241 21.476C146.121 21.492 145.993 21.5 145.857 21.5H144.357C144.101 21.5 143.921 21.432 143.817 21.296C143.721 21.16 143.649 20.988 143.601 20.78L143.529 19.76C143.249 20.04 142.937 20.304 142.593 20.552C142.257 20.792 141.893 21.004 141.501 21.188C141.109 21.364 140.693 21.5 140.253 21.596C139.813 21.7 139.361 21.752 138.897 21.752C138.177 21.752 137.481 21.66 136.809 21.476C136.145 21.284 135.521 21.02 134.937 20.684C134.353 20.34 133.821 19.928 133.341 19.448C132.869 18.968 132.461 18.436 132.117 17.852C131.781 17.268 131.517 16.64 131.325 15.968C131.141 15.296 131.049 14.596 131.049 13.868C131.049 13.14 131.141 12.44 131.325 11.768C131.517 11.096 131.781 10.468 132.117 9.884C132.461 9.3 132.869 8.772 133.341 8.3C133.821 7.82 134.353 7.412 134.937 7.076C135.521 6.732 136.145 6.468 136.809 6.284C137.481 6.092 138.177 5.996 138.897 5.996C139.409 5.996 139.897 6.052 140.361 6.164C140.825 6.268 141.257 6.42 141.657 6.62C142.065 6.812 142.441 7.048 142.785 7.328C143.129 7.6 143.441 7.9 143.721 8.228L143.889 6.944C143.929 6.8 143.965 6.684 143.997 6.596C144.037 6.5 144.081 6.424 144.129 6.368C144.185 6.312 144.253 6.276 144.333 6.26C144.413 6.236 144.513 6.224 144.633 6.224H145.833C145.961 6.224 146.089 6.236 146.217 6.26C146.345 6.284 146.461 6.324 146.565 6.38C146.669 6.428 146.749 6.5 146.805 6.596C146.869 6.684 146.901 6.796 146.901 6.932V20.792ZM134.421 13.868C134.421 14.508 134.533 15.116 134.757 15.692C134.981 16.26 135.293 16.76 135.693 17.192C136.093 17.624 136.561 17.968 137.097 18.224C137.641 18.472 138.233 18.596 138.873 18.596C139.521 18.596 140.125 18.472 140.685 18.224C141.253 17.968 141.745 17.624 142.161 17.192C142.577 16.76 142.905 16.26 143.145 15.692C143.385 15.116 143.505 14.508 143.505 13.868C143.505 13.236 143.385 12.636 143.145 12.068C142.905 11.492 142.577 10.988 142.161 10.556C141.745 10.124 141.253 9.78 140.685 9.524C140.125 9.268 139.521 9.14 138.873 9.14C138.233 9.14 137.641 9.268 137.097 9.524C136.561 9.78 136.093 10.124 135.693 10.556C135.293 10.988 134.981 11.492 134.757 12.068C134.533 12.636 134.421 13.236 134.421 13.868ZM150.155 19.184C150.155 18.96 150.183 18.768 150.239 18.608C150.303 18.448 150.451 18.368 150.683 18.368H152.567C152.663 18.368 152.759 18.372 152.855 18.38C152.959 18.388 153.051 18.412 153.131 18.452C153.219 18.484 153.291 18.536 153.347 18.608C153.403 18.672 153.431 18.768 153.431 18.896V20.672C153.431 20.784 153.427 20.888 153.419 20.984C153.411 21.08 153.387 21.168 153.347 21.248C153.315 21.328 153.263 21.392 153.191 21.44C153.119 21.48 153.019 21.5 152.891 21.5H151.007C150.727 21.5 150.515 21.472 150.371 21.416C150.227 21.352 150.155 21.2 150.155 20.96V19.184ZM156.868 6.992C156.868 6.784 156.928 6.612 157.048 6.476C157.168 6.332 157.344 6.26 157.576 6.26H159.568C159.656 6.26 159.744 6.28 159.832 6.32C159.928 6.352 160.012 6.404 160.084 6.476C160.156 6.54 160.216 6.616 160.264 6.704C160.312 6.792 160.336 6.888 160.336 6.992V20.78C160.336 21.26 160.084 21.5 159.58 21.5H157.588C157.108 21.5 156.868 21.26 156.868 20.78V6.992ZM156.868 1.688C156.868 1.208 157.104 0.967999 157.576 0.967999H159.592C159.816 0.967999 159.996 1.028 160.132 1.148C160.268 1.268 160.336 1.448 160.336 1.688V3.476C160.336 3.66 160.272 3.836 160.144 4.004C160.016 4.164 159.836 4.244 159.604 4.244H157.588C157.108 4.244 156.868 3.988 156.868 3.476V1.688ZM163.686 13.904C163.686 13.176 163.778 12.476 163.962 11.804C164.154 11.124 164.422 10.492 164.766 9.908C165.11 9.324 165.522 8.796 166.002 8.324C166.482 7.844 167.014 7.436 167.598 7.1C168.182 6.756 168.806 6.492 169.47 6.308C170.142 6.116 170.842 6.02 171.57 6.02C172.29 6.02 172.986 6.116 173.658 6.308C174.33 6.492 174.954 6.756 175.53 7.1C176.114 7.436 176.646 7.844 177.126 8.324C177.606 8.796 178.018 9.324 178.362 9.908C178.706 10.492 178.97 11.124 179.154 11.804C179.346 12.476 179.442 13.176 179.442 13.904C179.442 14.632 179.346 15.332 179.154 16.004C178.97 16.676 178.706 17.304 178.362 17.888C178.018 18.464 177.606 18.992 177.126 19.472C176.646 19.952 176.114 20.364 175.53 20.708C174.954 21.044 174.33 21.308 173.658 21.5C172.986 21.684 172.29 21.776 171.57 21.776C170.842 21.776 170.142 21.684 169.47 21.5C168.806 21.308 168.182 21.044 167.598 20.708C167.014 20.364 166.482 19.952 166.002 19.472C165.522 18.992 165.11 18.464 164.766 17.888C164.422 17.304 164.154 16.676 163.962 16.004C163.778 15.332 163.686 14.632 163.686 13.904ZM167.07 13.904C167.07 14.544 167.182 15.152 167.406 15.728C167.63 16.296 167.942 16.792 168.342 17.216C168.742 17.64 169.214 17.976 169.758 18.224C170.31 18.472 170.91 18.596 171.558 18.596C172.19 18.596 172.774 18.472 173.31 18.224C173.854 17.976 174.322 17.64 174.714 17.216C175.106 16.792 175.41 16.296 175.626 15.728C175.85 15.152 175.962 14.544 175.962 13.904C175.962 13.272 175.85 12.668 175.626 12.092C175.41 11.516 175.106 11.012 174.714 10.58C174.322 10.14 173.854 9.792 173.31 9.536C172.774 9.272 172.19 9.14 171.558 9.14C170.91 9.14 170.31 9.272 169.758 9.536C169.214 9.792 168.742 10.14 168.342 10.58C167.942 11.012 167.63 11.516 167.406 12.092C167.182 12.668 167.07 13.272 167.07 13.904Z" fill="#6AB429"/>
</svg>
