<svg width="24" height="16" viewBox="0 0 24 16" fill="none" xmlns="http://www.w3.org/2000/svg">
<path d="M0.901594 1.732C0.901594 1.732 0.897594 1.716 0.889594 1.684C0.881594 1.652 0.869594 1.612 0.853594 1.564C0.845594 1.516 0.837594 1.464 0.829594 1.408C0.821594 1.352 0.817594 1.304 0.817594 1.264C0.817594 1.112 0.869594 0.991999 0.973594 0.904C1.08559 0.807999 1.24959 0.759999 1.46559 0.759999H3.62559C4.00159 0.759999 4.25359 0.943999 4.38159 1.312C4.52559 1.728 4.69759 2.22 4.89759 2.788C5.10559 3.356 5.32159 3.956 5.54559 4.588C5.77759 5.22 6.01359 5.86 6.25359 6.508C6.49359 7.148 6.71759 7.756 6.92559 8.332C7.14159 8.9 7.33359 9.412 7.50159 9.868C7.67759 10.316 7.81359 10.656 7.90959 10.888C8.26959 9.872 8.72959 8.572 9.28959 6.988C9.84959 5.404 10.5336 3.508 11.3416 1.3C11.4136 1.108 11.5096 0.971999 11.6296 0.891999C11.7576 0.803999 11.9176 0.759999 12.1096 0.759999H14.1976C14.4456 0.759999 14.6136 0.799999 14.7016 0.879999C14.7976 0.96 14.8456 1.064 14.8456 1.192C14.8456 1.256 14.8336 1.336 14.8096 1.432C14.7936 1.528 14.7776 1.6 14.7616 1.648L13.5136 4.684C13.6736 5.084 13.8576 5.532 14.0656 6.028C14.2816 6.516 14.5056 7.032 14.7376 7.576C14.9776 8.112 15.2136 8.66 15.4456 9.22C15.6856 9.78 15.9096 10.324 16.1176 10.852C16.2616 10.468 16.4296 10.024 16.6216 9.52C16.8216 9.016 17.0256 8.48 17.2336 7.912C17.4496 7.344 17.6696 6.76 17.8936 6.16C18.1256 5.56 18.3496 4.972 18.5656 4.396C18.7896 3.812 19.0016 3.256 19.2016 2.728C19.4016 2.2 19.5816 1.724 19.7416 1.3C19.8136 1.108 19.9056 0.971999 20.0176 0.891999C20.1296 0.803999 20.2776 0.759999 20.4616 0.759999H22.4536C22.6856 0.759999 22.8616 0.795999 22.9816 0.868C23.1016 0.932 23.1616 1.048 23.1616 1.216C23.1616 1.272 23.1536 1.348 23.1376 1.444C23.1216 1.54 23.1056 1.608 23.0896 1.648L17.4256 15.52C17.3936 15.576 17.3576 15.632 17.3176 15.688C17.2856 15.744 17.2376 15.796 17.1736 15.844C17.1176 15.892 17.0416 15.932 16.9456 15.964C16.8576 15.988 16.7496 16 16.6216 16H15.5896C15.3096 16 15.1176 15.948 15.0136 15.844C14.9096 15.74 14.8256 15.628 14.7616 15.508C14.2896 14.364 13.8216 13.232 13.3576 12.112C12.8936 10.984 12.4296 9.848 11.9656 8.704L9.20559 15.52C9.14159 15.632 9.06159 15.74 8.96559 15.844C8.87759 15.948 8.70959 16 8.46159 16H7.35759C7.06959 16 6.87359 15.952 6.76959 15.856C6.67359 15.752 6.60159 15.64 6.55359 15.52L0.901594 1.732Z" fill="#6AB429"/>
</svg>
